<?xml version="1.0" encoding="utf-8" standalone="no"?>
<!DOCTYPE svg PUBLIC "-//W3C//DTD SVG 1.1//EN"
  "http://www.w3.org/Graphics/SVG/1.1/DTD/svg11.dtd">
<svg xmlns:xlink="http://www.w3.org/1999/xlink" width="288pt" height="144pt" viewBox="0 0 288 144" xmlns="http://www.w3.org/2000/svg" version="1.1">
 <metadata>
  <rdf:RDF xmlns:dc="http://purl.org/dc/elements/1.1/" xmlns:cc="http://creativecommons.org/ns#" xmlns:rdf="http://www.w3.org/1999/02/22-rdf-syntax-ns#">
   <cc:Work>
    <dc:type rdf:resource="http://purl.org/dc/dcmitype/StillImage"/>
    <dc:date>2022-12-15T02:46:32.968884</dc:date>
    <dc:format>image/svg+xml</dc:format>
    <dc:creator>
     <cc:Agent>
      <dc:title>Matplotlib v3.5.1, https://matplotlib.org/</dc:title>
     </cc:Agent>
    </dc:creator>
   </cc:Work>
  </rdf:RDF>
 </metadata>
 <defs>
  <style type="text/css">*{stroke-linejoin: round; stroke-linecap: butt}</style>
 </defs>
 <g id="figure_1">
  <g id="patch_1">
   <path d="M 0 144 
L 288 144 
L 288 0 
L 0 0 
L 0 144 
z
" style="fill: none"/>
  </g>
  <g id="axes_1">
   <g id="patch_2">
    <path d="M 25.89 119.36 
L 136.4925 119.36 
L 136.4925 12.14 
L 25.89 12.14 
z
" style="fill: #ffffff"/>
   </g>
   <g id="PathCollection_1">
    <defs>
     <path id="C0_0_2f5473b506" d="M 0 1.936492 
C 0.513564 1.936492 1.006162 1.732451 1.369306 1.369306 
C 1.732451 1.006162 1.936492 0.513564 1.936492 -0 
C 1.936492 -0.513564 1.732451 -1.006162 1.369306 -1.369306 
C 1.006162 -1.732451 0.513564 -1.936492 0 -1.936492 
C -0.513564 -1.936492 -1.006162 -1.732451 -1.369306 -1.369306 
C -1.732451 -1.006162 -1.936492 -0.513564 -1.936492 0 
C -1.936492 0.513564 -1.732451 1.006162 -1.369306 1.369306 
C -1.006162 1.732451 -0.513564 1.936492 0 1.936492 
z
"/>
    </defs>
    <g clip-path="url(#pe8a8adfecd)">
     <use xlink:href="#C0_0_2f5473b506" x="43.848752" y="95.175153" style="fill: #1f77b4"/>
    </g>
    <g clip-path="url(#pe8a8adfecd)">
     <use xlink:href="#C0_0_2f5473b506" x="38.677841" y="103.518846" style="fill: #1f77b4"/>
    </g>
    <g clip-path="url(#pe8a8adfecd)">
     <use xlink:href="#C0_0_2f5473b506" x="67.596778" y="79.943007" style="fill: #1f77b4"/>
    </g>
    <g clip-path="url(#pe8a8adfecd)">
     <use xlink:href="#C0_0_2f5473b506" x="56.445518" y="78.186759" style="fill: #1f77b4"/>
    </g>
    <g clip-path="url(#pe8a8adfecd)">
     <use xlink:href="#C0_0_2f5473b506" x="55.419392" y="81.120345" style="fill: #1f77b4"/>
    </g>
    <g clip-path="url(#pe8a8adfecd)">
     <use xlink:href="#C0_0_2f5473b506" x="60.478367" y="78.614785" style="fill: #1f77b4"/>
    </g>
    <g clip-path="url(#pe8a8adfecd)">
     <use xlink:href="#C0_0_2f5473b506" x="42.654978" y="93.339503" style="fill: #1f77b4"/>
    </g>
    <g clip-path="url(#pe8a8adfecd)">
     <use xlink:href="#C0_0_2f5473b506" x="78.224749" y="57.589708" style="fill: #1f77b4"/>
    </g>
    <g clip-path="url(#pe8a8adfecd)">
     <use xlink:href="#C0_0_2f5473b506" x="68.258306" y="62.567423" style="fill: #1f77b4"/>
    </g>
    <g clip-path="url(#pe8a8adfecd)">
     <use xlink:href="#C0_0_2f5473b506" x="62.531519" y="47.266387" style="fill: #1f77b4"/>
    </g>
    <g clip-path="url(#pe8a8adfecd)">
     <use xlink:href="#C0_0_2f5473b506" x="73.400525" y="65.588082" style="fill: #1f77b4"/>
    </g>
    <g clip-path="url(#pe8a8adfecd)">
     <use xlink:href="#C0_0_2f5473b506" x="57.587328" y="74.747949" style="fill: #1f77b4"/>
    </g>
    <g clip-path="url(#pe8a8adfecd)">
     <use xlink:href="#C0_0_2f5473b506" x="78.934896" y="42.529094" style="fill: #1f77b4"/>
    </g>
    <g clip-path="url(#pe8a8adfecd)">
     <use xlink:href="#C0_0_2f5473b506" x="92.8463" y="59.041234" style="fill: #1f77b4"/>
    </g>
    <g clip-path="url(#pe8a8adfecd)">
     <use xlink:href="#C0_0_2f5473b506" x="75.912275" y="62.152378" style="fill: #1f77b4"/>
    </g>
    <g clip-path="url(#pe8a8adfecd)">
     <use xlink:href="#C0_0_2f5473b506" x="58.104628" y="68.04606" style="fill: #1f77b4"/>
    </g>
    <g clip-path="url(#pe8a8adfecd)">
     <use xlink:href="#C0_0_2f5473b506" x="84.544752" y="27.66746" style="fill: #1f77b4"/>
    </g>
    <g clip-path="url(#pe8a8adfecd)">
     <use xlink:href="#C0_0_2f5473b506" x="103.718819" y="53.506256" style="fill: #1f77b4"/>
    </g>
   </g>
   <g id="PathCollection_2">
    <defs>
     <path id="C1_0_46b837cb2c" d="M 0 1.936492 
C 0.513564 1.936492 1.006162 1.732451 1.369306 1.369306 
C 1.732451 1.006162 1.936492 0.513564 1.936492 -0 
C 1.936492 -0.513564 1.732451 -1.006162 1.369306 -1.369306 
C 1.006162 -1.732451 0.513564 -1.936492 0 -1.936492 
C -0.513564 -1.936492 -1.006162 -1.732451 -1.369306 -1.369306 
C -1.732451 -1.006162 -1.936492 -0.513564 -1.936492 0 
C -1.936492 0.513564 -1.732451 1.006162 -1.369306 1.369306 
C -1.006162 1.732451 -0.513564 1.936492 0 1.936492 
z
"/>
    </defs>
    <g clip-path="url(#pe8a8adfecd)">
     <use xlink:href="#C1_0_46b837cb2c" x="40.120683" y="105.578125" style="fill: #7f7f7f"/>
    </g>
    <g clip-path="url(#pe8a8adfecd)">
     <use xlink:href="#C1_0_46b837cb2c" x="35.221877" y="105.747409" style="fill: #7f7f7f"/>
    </g>
    <g clip-path="url(#pe8a8adfecd)">
     <use xlink:href="#C1_0_46b837cb2c" x="39.284604" y="106.734766" style="fill: #7f7f7f"/>
    </g>
    <g clip-path="url(#pe8a8adfecd)">
     <use xlink:href="#C1_0_46b837cb2c" x="33.875787" y="102.172286" style="fill: #7f7f7f"/>
    </g>
    <g clip-path="url(#pe8a8adfecd)">
     <use xlink:href="#C1_0_46b837cb2c" x="34.840673" y="104.500048" style="fill: #7f7f7f"/>
    </g>
    <g clip-path="url(#pe8a8adfecd)">
     <use xlink:href="#C1_0_46b837cb2c" x="40.320505" y="104.748743" style="fill: #7f7f7f"/>
    </g>
    <g clip-path="url(#pe8a8adfecd)">
     <use xlink:href="#C1_0_46b837cb2c" x="36.235115" y="97.442081" style="fill: #7f7f7f"/>
    </g>
    <g clip-path="url(#pe8a8adfecd)">
     <use xlink:href="#C1_0_46b837cb2c" x="36.1335" y="105.843627" style="fill: #7f7f7f"/>
    </g>
    <g clip-path="url(#pe8a8adfecd)">
     <use xlink:href="#C1_0_46b837cb2c" x="32.565831" y="105.617148" style="fill: #7f7f7f"/>
    </g>
    <g clip-path="url(#pe8a8adfecd)">
     <use xlink:href="#C1_0_46b837cb2c" x="42.554494" y="90.980125" style="fill: #7f7f7f"/>
    </g>
    <g clip-path="url(#pe8a8adfecd)">
     <use xlink:href="#C1_0_46b837cb2c" x="45.03273" y="84.316011" style="fill: #7f7f7f"/>
    </g>
    <g clip-path="url(#pe8a8adfecd)">
     <use xlink:href="#C1_0_46b837cb2c" x="33.38409" y="107.769484" style="fill: #7f7f7f"/>
    </g>
    <g clip-path="url(#pe8a8adfecd)">
     <use xlink:href="#C1_0_46b837cb2c" x="45.891441" y="79.956024" style="fill: #7f7f7f"/>
    </g>
    <g clip-path="url(#pe8a8adfecd)">
     <use xlink:href="#C1_0_46b837cb2c" x="54.214476" y="90.258271" style="fill: #7f7f7f"/>
    </g>
    <g clip-path="url(#pe8a8adfecd)">
     <use xlink:href="#C1_0_46b837cb2c" x="57.222258" y="83.186931" style="fill: #7f7f7f"/>
    </g>
    <g clip-path="url(#pe8a8adfecd)">
     <use xlink:href="#C1_0_46b837cb2c" x="48.01232" y="99.836657" style="fill: #7f7f7f"/>
    </g>
    <g clip-path="url(#pe8a8adfecd)">
     <use xlink:href="#C1_0_46b837cb2c" x="92.875676" y="60.294953" style="fill: #7f7f7f"/>
    </g>
    <g clip-path="url(#pe8a8adfecd)">
     <use xlink:href="#C1_0_46b837cb2c" x="61.996802" y="72.753285" style="fill: #7f7f7f"/>
    </g>
   </g>
   <g id="PathCollection_3">
    <defs>
     <path id="C2_0_9232541da3" d="M 0 1.936492 
C 0.513564 1.936492 1.006162 1.732451 1.369306 1.369306 
C 1.732451 1.006162 1.936492 0.513564 1.936492 -0 
C 1.936492 -0.513564 1.732451 -1.006162 1.369306 -1.369306 
C 1.006162 -1.732451 0.513564 -1.936492 0 -1.936492 
C -0.513564 -1.936492 -1.006162 -1.732451 -1.369306 -1.369306 
C -1.732451 -1.006162 -1.936492 -0.513564 -1.936492 0 
C -1.936492 0.513564 -1.732451 1.006162 -1.369306 1.369306 
C -1.006162 1.732451 -0.513564 1.936492 0 1.936492 
z
"/>
    </defs>
    <g clip-path="url(#pe8a8adfecd)">
     <use xlink:href="#C2_0_9232541da3" x="40.01742" y="102.666045" style="fill: #d62728"/>
    </g>
    <g clip-path="url(#pe8a8adfecd)">
     <use xlink:href="#C2_0_9232541da3" x="32.172256" y="105.183676" style="fill: #d62728"/>
    </g>
    <g clip-path="url(#pe8a8adfecd)">
     <use xlink:href="#C2_0_9232541da3" x="43.296323" y="99.39325" style="fill: #d62728"/>
    </g>
    <g clip-path="url(#pe8a8adfecd)">
     <use xlink:href="#C2_0_9232541da3" x="40.166531" y="102.689362" style="fill: #d62728"/>
    </g>
    <g clip-path="url(#pe8a8adfecd)">
     <use xlink:href="#C2_0_9232541da3" x="41.544472" y="103.224868" style="fill: #d62728"/>
    </g>
    <g clip-path="url(#pe8a8adfecd)">
     <use xlink:href="#C2_0_9232541da3" x="41.037259" y="104.243494" style="fill: #d62728"/>
    </g>
    <g clip-path="url(#pe8a8adfecd)">
     <use xlink:href="#C2_0_9232541da3" x="44.295461" y="95.709604" style="fill: #d62728"/>
    </g>
    <g clip-path="url(#pe8a8adfecd)">
     <use xlink:href="#C2_0_9232541da3" x="35.776552" y="103.995817" style="fill: #d62728"/>
    </g>
    <g clip-path="url(#pe8a8adfecd)">
     <use xlink:href="#C2_0_9232541da3" x="43.284524" y="100.989796" style="fill: #d62728"/>
    </g>
    <g clip-path="url(#pe8a8adfecd)">
     <use xlink:href="#C2_0_9232541da3" x="54.200149" y="63.792945" style="fill: #d62728"/>
    </g>
    <g clip-path="url(#pe8a8adfecd)">
     <use xlink:href="#C2_0_9232541da3" x="62.375613" y="63.068048" style="fill: #d62728"/>
    </g>
    <g clip-path="url(#pe8a8adfecd)">
     <use xlink:href="#C2_0_9232541da3" x="39.471732" y="103.057113" style="fill: #d62728"/>
    </g>
    <g clip-path="url(#pe8a8adfecd)">
     <use xlink:href="#C2_0_9232541da3" x="55.799856" y="68.34606" style="fill: #d62728"/>
    </g>
    <g clip-path="url(#pe8a8adfecd)">
     <use xlink:href="#C2_0_9232541da3" x="69.550266" y="64.937922" style="fill: #d62728"/>
    </g>
    <g clip-path="url(#pe8a8adfecd)">
     <use xlink:href="#C2_0_9232541da3" x="62.484699" y="74.403039" style="fill: #d62728"/>
    </g>
    <g clip-path="url(#pe8a8adfecd)">
     <use xlink:href="#C2_0_9232541da3" x="52.901579" y="79.484582" style="fill: #d62728"/>
    </g>
    <g clip-path="url(#pe8a8adfecd)">
     <use xlink:href="#C2_0_9232541da3" x="70.3473" y="73.236747" style="fill: #d62728"/>
    </g>
    <g clip-path="url(#pe8a8adfecd)">
     <use xlink:href="#C2_0_9232541da3" x="70.446292" y="67.29834" style="fill: #d62728"/>
    </g>
   </g>
   <g id="matplotlib.axis_1">
    <g id="xtick_1">
     <g id="line2d_1">
      <defs>
       <path id="m650e4c2267" d="M 0 0 
L 0 3.5 
" style="stroke: #000000; stroke-width: 0.8"/>
      </defs>
      <g>
       <use xlink:href="#m650e4c2267" x="25.89" y="119.36" style="stroke: #000000; stroke-width: 0.8"/>
      </g>
     </g>
     <g id="text_1">
      <!-- 0.0 -->
      <g transform="translate(19.52875 132.43875)scale(0.08 -0.08)">
       <defs>
        <path id="DejaVuSans-30" d="M 2034 4250 
Q 1547 4250 1301 3770 
Q 1056 3291 1056 2328 
Q 1056 1369 1301 889 
Q 1547 409 2034 409 
Q 2525 409 2770 889 
Q 3016 1369 3016 2328 
Q 3016 3291 2770 3770 
Q 2525 4250 2034 4250 
z
M 2034 4750 
Q 2819 4750 3233 4129 
Q 3647 3509 3647 2328 
Q 3647 1150 3233 529 
Q 2819 -91 2034 -91 
Q 1250 -91 836 529 
Q 422 1150 422 2328 
Q 422 3509 836 4129 
Q 1250 4750 2034 4750 
z
" transform="scale(0.015625)"/>
        <path id="DejaVuSans-2e" d="M 684 794 
L 1344 794 
L 1344 0 
L 684 0 
L 684 794 
z
" transform="scale(0.015625)"/>
       </defs>
       <use xlink:href="#DejaVuSans-30"/>
       <use xlink:href="#DejaVuSans-2e" x="63.623047"/>
       <use xlink:href="#DejaVuSans-30" x="95.410156"/>
      </g>
     </g>
    </g>
    <g id="xtick_2">
     <g id="line2d_2">
      <g>
       <use xlink:href="#m650e4c2267" x="53.540625" y="119.36" style="stroke: #000000; stroke-width: 0.8"/>
      </g>
     </g>
     <g id="text_2">
      <!-- 2.5 -->
      <g transform="translate(47.179375 132.43875)scale(0.08 -0.08)">
       <defs>
        <path id="DejaVuSans-32" d="M 1228 531 
L 3431 531 
L 3431 0 
L 469 0 
L 469 531 
Q 828 903 1448 1529 
Q 2069 2156 2228 2338 
Q 2531 2678 2651 2914 
Q 2772 3150 2772 3378 
Q 2772 3750 2511 3984 
Q 2250 4219 1831 4219 
Q 1534 4219 1204 4116 
Q 875 4013 500 3803 
L 500 4441 
Q 881 4594 1212 4672 
Q 1544 4750 1819 4750 
Q 2544 4750 2975 4387 
Q 3406 4025 3406 3419 
Q 3406 3131 3298 2873 
Q 3191 2616 2906 2266 
Q 2828 2175 2409 1742 
Q 1991 1309 1228 531 
z
" transform="scale(0.015625)"/>
        <path id="DejaVuSans-35" d="M 691 4666 
L 3169 4666 
L 3169 4134 
L 1269 4134 
L 1269 2991 
Q 1406 3038 1543 3061 
Q 1681 3084 1819 3084 
Q 2600 3084 3056 2656 
Q 3513 2228 3513 1497 
Q 3513 744 3044 326 
Q 2575 -91 1722 -91 
Q 1428 -91 1123 -41 
Q 819 9 494 109 
L 494 744 
Q 775 591 1075 516 
Q 1375 441 1709 441 
Q 2250 441 2565 725 
Q 2881 1009 2881 1497 
Q 2881 1984 2565 2268 
Q 2250 2553 1709 2553 
Q 1456 2553 1204 2497 
Q 953 2441 691 2322 
L 691 4666 
z
" transform="scale(0.015625)"/>
       </defs>
       <use xlink:href="#DejaVuSans-32"/>
       <use xlink:href="#DejaVuSans-2e" x="63.623047"/>
       <use xlink:href="#DejaVuSans-35" x="95.410156"/>
      </g>
     </g>
    </g>
    <g id="xtick_3">
     <g id="line2d_3">
      <g>
       <use xlink:href="#m650e4c2267" x="81.19125" y="119.36" style="stroke: #000000; stroke-width: 0.8"/>
      </g>
     </g>
     <g id="text_3">
      <!-- 5.0 -->
      <g transform="translate(74.83 132.43875)scale(0.08 -0.08)">
       <use xlink:href="#DejaVuSans-35"/>
       <use xlink:href="#DejaVuSans-2e" x="63.623047"/>
       <use xlink:href="#DejaVuSans-30" x="95.410156"/>
      </g>
     </g>
    </g>
    <g id="xtick_4">
     <g id="line2d_4">
      <g>
       <use xlink:href="#m650e4c2267" x="108.841875" y="119.36" style="stroke: #000000; stroke-width: 0.8"/>
      </g>
     </g>
     <g id="text_4">
      <!-- 7.5 -->
      <g transform="translate(102.480625 132.43875)scale(0.08 -0.08)">
       <defs>
        <path id="DejaVuSans-37" d="M 525 4666 
L 3525 4666 
L 3525 4397 
L 1831 0 
L 1172 0 
L 2766 4134 
L 525 4134 
L 525 4666 
z
" transform="scale(0.015625)"/>
       </defs>
       <use xlink:href="#DejaVuSans-37"/>
       <use xlink:href="#DejaVuSans-2e" x="63.623047"/>
       <use xlink:href="#DejaVuSans-35" x="95.410156"/>
      </g>
     </g>
    </g>
    <g id="xtick_5">
     <g id="line2d_5">
      <g>
       <use xlink:href="#m650e4c2267" x="136.4925" y="119.36" style="stroke: #000000; stroke-width: 0.8"/>
      </g>
     </g>
     <g id="text_5">
      <!-- 10.0 -->
      <g transform="translate(127.58625 132.43875)scale(0.08 -0.08)">
       <defs>
        <path id="DejaVuSans-31" d="M 794 531 
L 1825 531 
L 1825 4091 
L 703 3866 
L 703 4441 
L 1819 4666 
L 2450 4666 
L 2450 531 
L 3481 531 
L 3481 0 
L 794 0 
L 794 531 
z
" transform="scale(0.015625)"/>
       </defs>
       <use xlink:href="#DejaVuSans-31"/>
       <use xlink:href="#DejaVuSans-30" x="63.623047"/>
       <use xlink:href="#DejaVuSans-2e" x="127.246094"/>
       <use xlink:href="#DejaVuSans-30" x="159.033203"/>
      </g>
     </g>
    </g>
   </g>
   <g id="matplotlib.axis_2">
    <g id="ytick_1">
     <g id="line2d_6">
      <defs>
       <path id="m0b677e6c35" d="M 0 0 
L -3.5 0 
" style="stroke: #000000; stroke-width: 0.8"/>
      </defs>
      <g>
       <use xlink:href="#m0b677e6c35" x="25.89" y="119.36" style="stroke: #000000; stroke-width: 0.8"/>
      </g>
     </g>
     <g id="text_6">
      <!-- 0 -->
      <g transform="translate(13.8 122.399375)scale(0.08 -0.08)">
       <use xlink:href="#DejaVuSans-30"/>
      </g>
     </g>
    </g>
    <g id="ytick_2">
     <g id="line2d_7">
      <g>
       <use xlink:href="#m0b677e6c35" x="25.89" y="97.916" style="stroke: #000000; stroke-width: 0.8"/>
      </g>
     </g>
     <g id="text_7">
      <!-- 2 -->
      <g transform="translate(13.8 100.955375)scale(0.08 -0.08)">
       <use xlink:href="#DejaVuSans-32"/>
      </g>
     </g>
    </g>
    <g id="ytick_3">
     <g id="line2d_8">
      <g>
       <use xlink:href="#m0b677e6c35" x="25.89" y="76.472" style="stroke: #000000; stroke-width: 0.8"/>
      </g>
     </g>
     <g id="text_8">
      <!-- 4 -->
      <g transform="translate(13.8 79.511375)scale(0.08 -0.08)">
       <defs>
        <path id="DejaVuSans-34" d="M 2419 4116 
L 825 1625 
L 2419 1625 
L 2419 4116 
z
M 2253 4666 
L 3047 4666 
L 3047 1625 
L 3713 1625 
L 3713 1100 
L 3047 1100 
L 3047 0 
L 2419 0 
L 2419 1100 
L 313 1100 
L 313 1709 
L 2253 4666 
z
" transform="scale(0.015625)"/>
       </defs>
       <use xlink:href="#DejaVuSans-34"/>
      </g>
     </g>
    </g>
    <g id="ytick_4">
     <g id="line2d_9">
      <g>
       <use xlink:href="#m0b677e6c35" x="25.89" y="55.028" style="stroke: #000000; stroke-width: 0.8"/>
      </g>
     </g>
     <g id="text_9">
      <!-- 6 -->
      <g transform="translate(13.8 58.067375)scale(0.08 -0.08)">
       <defs>
        <path id="DejaVuSans-36" d="M 2113 2584 
Q 1688 2584 1439 2293 
Q 1191 2003 1191 1497 
Q 1191 994 1439 701 
Q 1688 409 2113 409 
Q 2538 409 2786 701 
Q 3034 994 3034 1497 
Q 3034 2003 2786 2293 
Q 2538 2584 2113 2584 
z
M 3366 4563 
L 3366 3988 
Q 3128 4100 2886 4159 
Q 2644 4219 2406 4219 
Q 1781 4219 1451 3797 
Q 1122 3375 1075 2522 
Q 1259 2794 1537 2939 
Q 1816 3084 2150 3084 
Q 2853 3084 3261 2657 
Q 3669 2231 3669 1497 
Q 3669 778 3244 343 
Q 2819 -91 2113 -91 
Q 1303 -91 875 529 
Q 447 1150 447 2328 
Q 447 3434 972 4092 
Q 1497 4750 2381 4750 
Q 2619 4750 2861 4703 
Q 3103 4656 3366 4563 
z
" transform="scale(0.015625)"/>
       </defs>
       <use xlink:href="#DejaVuSans-36"/>
      </g>
     </g>
    </g>
    <g id="ytick_5">
     <g id="line2d_10">
      <g>
       <use xlink:href="#m0b677e6c35" x="25.89" y="33.584" style="stroke: #000000; stroke-width: 0.8"/>
      </g>
     </g>
     <g id="text_10">
      <!-- 8 -->
      <g transform="translate(13.8 36.623375)scale(0.08 -0.08)">
       <defs>
        <path id="DejaVuSans-38" d="M 2034 2216 
Q 1584 2216 1326 1975 
Q 1069 1734 1069 1313 
Q 1069 891 1326 650 
Q 1584 409 2034 409 
Q 2484 409 2743 651 
Q 3003 894 3003 1313 
Q 3003 1734 2745 1975 
Q 2488 2216 2034 2216 
z
M 1403 2484 
Q 997 2584 770 2862 
Q 544 3141 544 3541 
Q 544 4100 942 4425 
Q 1341 4750 2034 4750 
Q 2731 4750 3128 4425 
Q 3525 4100 3525 3541 
Q 3525 3141 3298 2862 
Q 3072 2584 2669 2484 
Q 3125 2378 3379 2068 
Q 3634 1759 3634 1313 
Q 3634 634 3220 271 
Q 2806 -91 2034 -91 
Q 1263 -91 848 271 
Q 434 634 434 1313 
Q 434 1759 690 2068 
Q 947 2378 1403 2484 
z
M 1172 3481 
Q 1172 3119 1398 2916 
Q 1625 2713 2034 2713 
Q 2441 2713 2670 2916 
Q 2900 3119 2900 3481 
Q 2900 3844 2670 4047 
Q 2441 4250 2034 4250 
Q 1625 4250 1398 4047 
Q 1172 3844 1172 3481 
z
" transform="scale(0.015625)"/>
       </defs>
       <use xlink:href="#DejaVuSans-38"/>
      </g>
     </g>
    </g>
    <g id="ytick_6">
     <g id="line2d_11">
      <g>
       <use xlink:href="#m0b677e6c35" x="25.89" y="12.14" style="stroke: #000000; stroke-width: 0.8"/>
      </g>
     </g>
     <g id="text_11">
      <!-- 10 -->
      <g transform="translate(8.71 15.179375)scale(0.08 -0.08)">
       <use xlink:href="#DejaVuSans-31"/>
       <use xlink:href="#DejaVuSans-30" x="63.623047"/>
      </g>
     </g>
    </g>
   </g>
   <g id="line2d_12">
    <path d="M 136.4925 12.14 
L 25.89 119.36 
" clip-path="url(#pe8a8adfecd)" style="fill: none; stroke-dasharray: 5.55,2.4; stroke-dashoffset: 0; stroke: #808080; stroke-width: 1.5"/>
   </g>
   <g id="patch_3">
    <path d="M 25.89 119.36 
L 25.89 12.14 
" style="fill: none; stroke: #000000; stroke-width: 0.8; stroke-linejoin: miter; stroke-linecap: square"/>
   </g>
   <g id="patch_4">
    <path d="M 25.89 119.36 
L 136.4925 119.36 
" style="fill: none; stroke: #000000; stroke-width: 0.8; stroke-linejoin: miter; stroke-linecap: square"/>
   </g>
  </g>
  <g id="axes_2">
   <g id="patch_5">
    <path d="M 166.195 119.36 
L 276.7975 119.36 
L 276.7975 12.14 
L 166.195 12.14 
z
" style="fill: #ffffff"/>
   </g>
   <g id="PathCollection_4">
    <defs>
     <path id="C3_0_e97f3ed12b" d="M 0 1.936492 
C 0.513564 1.936492 1.006162 1.732451 1.369306 1.369306 
C 1.732451 1.006162 1.936492 0.513564 1.936492 -0 
C 1.936492 -0.513564 1.732451 -1.006162 1.369306 -1.369306 
C 1.006162 -1.732451 0.513564 -1.936492 0 -1.936492 
C -0.513564 -1.936492 -1.006162 -1.732451 -1.369306 -1.369306 
C -1.732451 -1.006162 -1.936492 -0.513564 -1.936492 0 
C -1.936492 0.513564 -1.732451 1.006162 -1.369306 1.369306 
C -1.006162 1.732451 -0.513564 1.936492 0 1.936492 
z
"/>
    </defs>
    <g clip-path="url(#p5e968349e7)">
     <use xlink:href="#C3_0_e97f3ed12b" x="212.639103" y="83.756133" style="fill: #1f77b4"/>
    </g>
    <g clip-path="url(#p5e968349e7)">
     <use xlink:href="#C3_0_e97f3ed12b" x="208.968178" y="61.505294" style="fill: #1f77b4"/>
    </g>
    <g clip-path="url(#p5e968349e7)">
     <use xlink:href="#C3_0_e97f3ed12b" x="235.838303" y="34.853635" style="fill: #1f77b4"/>
    </g>
    <g clip-path="url(#p5e968349e7)">
     <use xlink:href="#C3_0_e97f3ed12b" x="242.671402" y="39.01999" style="fill: #1f77b4"/>
    </g>
    <g clip-path="url(#p5e968349e7)">
     <use xlink:href="#C3_0_e97f3ed12b" x="222.994306" y="52.503921" style="fill: #1f77b4"/>
    </g>
    <g clip-path="url(#p5e968349e7)">
     <use xlink:href="#C3_0_e97f3ed12b" x="194.593443" y="88.197356" style="fill: #1f77b4"/>
    </g>
    <g clip-path="url(#p5e968349e7)">
     <use xlink:href="#C3_0_e97f3ed12b" x="217.308123" y="58.22314" style="fill: #1f77b4"/>
    </g>
    <g clip-path="url(#p5e968349e7)">
     <use xlink:href="#C3_0_e97f3ed12b" x="237.380429" y="63.309682" style="fill: #1f77b4"/>
    </g>
    <g clip-path="url(#p5e968349e7)">
     <use xlink:href="#C3_0_e97f3ed12b" x="203.165231" y="73.258901" style="fill: #1f77b4"/>
    </g>
    <g clip-path="url(#p5e968349e7)">
     <use xlink:href="#C3_0_e97f3ed12b" x="213.960949" y="55.46116" style="fill: #1f77b4"/>
    </g>
    <g clip-path="url(#p5e968349e7)">
     <use xlink:href="#C3_0_e97f3ed12b" x="210.673578" y="80.9844" style="fill: #1f77b4"/>
    </g>
    <g clip-path="url(#p5e968349e7)">
     <use xlink:href="#C3_0_e97f3ed12b" x="229.499774" y="54.619331" style="fill: #1f77b4"/>
    </g>
    <g clip-path="url(#p5e968349e7)">
     <use xlink:href="#C3_0_e97f3ed12b" x="200.741507" y="74.336194" style="fill: #1f77b4"/>
    </g>
   </g>
   <g id="PathCollection_5">
    <defs>
     <path id="C4_0_a9010fc71d" d="M 0 1.936492 
C 0.513564 1.936492 1.006162 1.732451 1.369306 1.369306 
C 1.732451 1.006162 1.936492 0.513564 1.936492 -0 
C 1.936492 -0.513564 1.732451 -1.006162 1.369306 -1.369306 
C 1.006162 -1.732451 0.513564 -1.936492 0 -1.936492 
C -0.513564 -1.936492 -1.006162 -1.732451 -1.369306 -1.369306 
C -1.732451 -1.006162 -1.936492 -0.513564 -1.936492 0 
C -1.936492 0.513564 -1.732451 1.006162 -1.369306 1.369306 
C -1.006162 1.732451 -0.513564 1.936492 0 1.936492 
z
"/>
    </defs>
    <g clip-path="url(#p5e968349e7)">
     <use xlink:href="#C4_0_a9010fc71d" x="191.704815" y="97.236051" style="fill: #7f7f7f"/>
    </g>
    <g clip-path="url(#p5e968349e7)">
     <use xlink:href="#C4_0_a9010fc71d" x="185.861301" y="92.83857" style="fill: #7f7f7f"/>
    </g>
    <g clip-path="url(#p5e968349e7)">
     <use xlink:href="#C4_0_a9010fc71d" x="214.877804" y="73.842494" style="fill: #7f7f7f"/>
    </g>
    <g clip-path="url(#p5e968349e7)">
     <use xlink:href="#C4_0_a9010fc71d" x="196.653298" y="74.33158" style="fill: #7f7f7f"/>
    </g>
    <g clip-path="url(#p5e968349e7)">
     <use xlink:href="#C4_0_a9010fc71d" x="194.618573" y="94.040612" style="fill: #7f7f7f"/>
    </g>
    <g clip-path="url(#p5e968349e7)">
     <use xlink:href="#C4_0_a9010fc71d" x="186.468836" y="96.010263" style="fill: #7f7f7f"/>
    </g>
    <g clip-path="url(#p5e968349e7)">
     <use xlink:href="#C4_0_a9010fc71d" x="189.417315" y="101.728008" style="fill: #7f7f7f"/>
    </g>
    <g clip-path="url(#p5e968349e7)">
     <use xlink:href="#C4_0_a9010fc71d" x="253.071364" y="64.658565" style="fill: #7f7f7f"/>
    </g>
    <g clip-path="url(#p5e968349e7)">
     <use xlink:href="#C4_0_a9010fc71d" x="177.371671" y="100.311523" style="fill: #7f7f7f"/>
    </g>
    <g clip-path="url(#p5e968349e7)">
     <use xlink:href="#C4_0_a9010fc71d" x="199.591221" y="73.264573" style="fill: #7f7f7f"/>
    </g>
    <g clip-path="url(#p5e968349e7)">
     <use xlink:href="#C4_0_a9010fc71d" x="180.985496" y="108.11464" style="fill: #7f7f7f"/>
    </g>
    <g clip-path="url(#p5e968349e7)">
     <use xlink:href="#C4_0_a9010fc71d" x="187.532807" y="86.821031" style="fill: #7f7f7f"/>
    </g>
    <g clip-path="url(#p5e968349e7)">
     <use xlink:href="#C4_0_a9010fc71d" x="190.120603" y="84.948543" style="fill: #7f7f7f"/>
    </g>
   </g>
   <g id="PathCollection_6">
    <defs>
     <path id="C5_0_81a3bed97c" d="M 0 1.936492 
C 0.513564 1.936492 1.006162 1.732451 1.369306 1.369306 
C 1.732451 1.006162 1.936492 0.513564 1.936492 -0 
C 1.936492 -0.513564 1.732451 -1.006162 1.369306 -1.369306 
C 1.006162 -1.732451 0.513564 -1.936492 0 -1.936492 
C -0.513564 -1.936492 -1.006162 -1.732451 -1.369306 -1.369306 
C -1.732451 -1.006162 -1.936492 -0.513564 -1.936492 0 
C -1.936492 0.513564 -1.732451 1.006162 -1.369306 1.369306 
C -1.006162 1.732451 -0.513564 1.936492 0 1.936492 
z
"/>
    </defs>
    <g clip-path="url(#p5e968349e7)">
     <use xlink:href="#C5_0_81a3bed97c" x="183.700069" y="94.33879" style="fill: #d62728"/>
    </g>
    <g clip-path="url(#p5e968349e7)">
     <use xlink:href="#C5_0_81a3bed97c" x="183.934601" y="78.876749" style="fill: #d62728"/>
    </g>
    <g clip-path="url(#p5e968349e7)">
     <use xlink:href="#C5_0_81a3bed97c" x="209.672232" y="57.389798" style="fill: #d62728"/>
    </g>
    <g clip-path="url(#p5e968349e7)">
     <use xlink:href="#C5_0_81a3bed97c" x="200.203031" y="75.477215" style="fill: #d62728"/>
    </g>
    <g clip-path="url(#p5e968349e7)">
     <use xlink:href="#C5_0_81a3bed97c" x="194.952048" y="89.747217" style="fill: #d62728"/>
    </g>
    <g clip-path="url(#p5e968349e7)">
     <use xlink:href="#C5_0_81a3bed97c" x="185.345052" y="93.04233" style="fill: #d62728"/>
    </g>
    <g clip-path="url(#p5e968349e7)">
     <use xlink:href="#C5_0_81a3bed97c" x="210.507172" y="60.840299" style="fill: #d62728"/>
    </g>
    <g clip-path="url(#p5e968349e7)">
     <use xlink:href="#C5_0_81a3bed97c" x="231.613542" y="37.624346" style="fill: #d62728"/>
    </g>
    <g clip-path="url(#p5e968349e7)">
     <use xlink:href="#C5_0_81a3bed97c" x="174.157616" y="101.876869" style="fill: #d62728"/>
    </g>
    <g clip-path="url(#p5e968349e7)">
     <use xlink:href="#C5_0_81a3bed97c" x="192.29054" y="79.640966" style="fill: #d62728"/>
    </g>
    <g clip-path="url(#p5e968349e7)">
     <use xlink:href="#C5_0_81a3bed97c" x="184.348436" y="95.656981" style="fill: #d62728"/>
    </g>
    <g clip-path="url(#p5e968349e7)">
     <use xlink:href="#C5_0_81a3bed97c" x="199.962203" y="62.918309" style="fill: #d62728"/>
    </g>
    <g clip-path="url(#p5e968349e7)">
     <use xlink:href="#C5_0_81a3bed97c" x="196.762515" y="84.960641" style="fill: #d62728"/>
    </g>
   </g>
   <g id="matplotlib.axis_3">
    <g id="xtick_6">
     <g id="line2d_13">
      <g>
       <use xlink:href="#m650e4c2267" x="166.195" y="119.36" style="stroke: #000000; stroke-width: 0.8"/>
      </g>
     </g>
     <g id="text_12">
      <!-- 0 -->
      <g transform="translate(163.65 132.43875)scale(0.08 -0.08)">
       <use xlink:href="#DejaVuSans-30"/>
      </g>
     </g>
    </g>
    <g id="xtick_7">
     <g id="line2d_14">
      <g>
       <use xlink:href="#m650e4c2267" x="193.845625" y="119.36" style="stroke: #000000; stroke-width: 0.8"/>
      </g>
     </g>
     <g id="text_13">
      <!-- 2 -->
      <g transform="translate(191.300625 132.43875)scale(0.08 -0.08)">
       <use xlink:href="#DejaVuSans-32"/>
      </g>
     </g>
    </g>
    <g id="xtick_8">
     <g id="line2d_15">
      <g>
       <use xlink:href="#m650e4c2267" x="221.49625" y="119.36" style="stroke: #000000; stroke-width: 0.8"/>
      </g>
     </g>
     <g id="text_14">
      <!-- 4 -->
      <g transform="translate(218.95125 132.43875)scale(0.08 -0.08)">
       <use xlink:href="#DejaVuSans-34"/>
      </g>
     </g>
    </g>
    <g id="xtick_9">
     <g id="line2d_16">
      <g>
       <use xlink:href="#m650e4c2267" x="249.146875" y="119.36" style="stroke: #000000; stroke-width: 0.8"/>
      </g>
     </g>
     <g id="text_15">
      <!-- 6 -->
      <g transform="translate(246.601875 132.43875)scale(0.08 -0.08)">
       <use xlink:href="#DejaVuSans-36"/>
      </g>
     </g>
    </g>
    <g id="xtick_10">
     <g id="line2d_17">
      <g>
       <use xlink:href="#m650e4c2267" x="276.7975" y="119.36" style="stroke: #000000; stroke-width: 0.8"/>
      </g>
     </g>
     <g id="text_16">
      <!-- 8 -->
      <g transform="translate(274.2525 132.43875)scale(0.08 -0.08)">
       <use xlink:href="#DejaVuSans-38"/>
      </g>
     </g>
    </g>
   </g>
   <g id="matplotlib.axis_4">
    <g id="ytick_7">
     <g id="line2d_18">
      <g>
       <use xlink:href="#m0b677e6c35" x="166.195" y="119.36" style="stroke: #000000; stroke-width: 0.8"/>
      </g>
     </g>
     <g id="text_17">
      <!-- 0 -->
      <g transform="translate(154.105 122.399375)scale(0.08 -0.08)">
       <use xlink:href="#DejaVuSans-30"/>
      </g>
     </g>
    </g>
    <g id="ytick_8">
     <g id="line2d_19">
      <g>
       <use xlink:href="#m0b677e6c35" x="166.195" y="92.555" style="stroke: #000000; stroke-width: 0.8"/>
      </g>
     </g>
     <g id="text_18">
      <!-- 2 -->
      <g transform="translate(154.105 95.594375)scale(0.08 -0.08)">
       <use xlink:href="#DejaVuSans-32"/>
      </g>
     </g>
    </g>
    <g id="ytick_9">
     <g id="line2d_20">
      <g>
       <use xlink:href="#m0b677e6c35" x="166.195" y="65.75" style="stroke: #000000; stroke-width: 0.8"/>
      </g>
     </g>
     <g id="text_19">
      <!-- 4 -->
      <g transform="translate(154.105 68.789375)scale(0.08 -0.08)">
       <use xlink:href="#DejaVuSans-34"/>
      </g>
     </g>
    </g>
    <g id="ytick_10">
     <g id="line2d_21">
      <g>
       <use xlink:href="#m0b677e6c35" x="166.195" y="38.945" style="stroke: #000000; stroke-width: 0.8"/>
      </g>
     </g>
     <g id="text_20">
      <!-- 6 -->
      <g transform="translate(154.105 41.984375)scale(0.08 -0.08)">
       <use xlink:href="#DejaVuSans-36"/>
      </g>
     </g>
    </g>
    <g id="ytick_11">
     <g id="line2d_22">
      <g>
       <use xlink:href="#m0b677e6c35" x="166.195" y="12.14" style="stroke: #000000; stroke-width: 0.8"/>
      </g>
     </g>
     <g id="text_21">
      <!-- 8 -->
      <g transform="translate(154.105 15.179375)scale(0.08 -0.08)">
       <use xlink:href="#DejaVuSans-38"/>
      </g>
     </g>
    </g>
   </g>
   <g id="line2d_23">
    <path d="M 276.7975 12.14 
L 166.195 119.36 
" clip-path="url(#p5e968349e7)" style="fill: none; stroke-dasharray: 5.55,2.4; stroke-dashoffset: 0; stroke: #808080; stroke-width: 1.5"/>
   </g>
   <g id="patch_6">
    <path d="M 166.195 119.36 
L 166.195 12.14 
" style="fill: none; stroke: #000000; stroke-width: 0.8; stroke-linejoin: miter; stroke-linecap: square"/>
   </g>
   <g id="patch_7">
    <path d="M 166.195 119.36 
L 276.7975 119.36 
" style="fill: none; stroke: #000000; stroke-width: 0.8; stroke-linejoin: miter; stroke-linecap: square"/>
   </g>
  </g>
 </g>
 <defs>
  <clipPath id="pe8a8adfecd">
   <rect x="25.89" y="12.14" width="110.6025" height="107.22"/>
  </clipPath>
  <clipPath id="p5e968349e7">
   <rect x="166.195" y="12.14" width="110.6025" height="107.22"/>
  </clipPath>
 </defs>
</svg>
