<?xml version="1.0" encoding="utf-8" standalone="no"?>
<!DOCTYPE svg PUBLIC "-//W3C//DTD SVG 1.1//EN"
  "http://www.w3.org/Graphics/SVG/1.1/DTD/svg11.dtd">
<svg xmlns:xlink="http://www.w3.org/1999/xlink" width="144pt" height="144pt" viewBox="0 0 144 144" xmlns="http://www.w3.org/2000/svg" version="1.1">
 <metadata>
  <rdf:RDF xmlns:dc="http://purl.org/dc/elements/1.1/" xmlns:cc="http://creativecommons.org/ns#" xmlns:rdf="http://www.w3.org/1999/02/22-rdf-syntax-ns#">
   <cc:Work>
    <dc:type rdf:resource="http://purl.org/dc/dcmitype/StillImage"/>
    <dc:date>2022-12-15T02:32:54.134984</dc:date>
    <dc:format>image/svg+xml</dc:format>
    <dc:creator>
     <cc:Agent>
      <dc:title>Matplotlib v3.5.1, https://matplotlib.org/</dc:title>
     </cc:Agent>
    </dc:creator>
   </cc:Work>
  </rdf:RDF>
 </metadata>
 <defs>
  <style type="text/css">*{stroke-linejoin: round; stroke-linecap: butt}</style>
 </defs>
 <g id="figure_1">
  <g id="patch_1">
   <path d="M 0 144 
L 144 144 
L 144 0 
L 0 0 
L 0 144 
z
" style="fill: none"/>
  </g>
  <g id="axes_1">
   <g id="patch_2">
    <path d="M 28.39 131.86 
L 75.805 131.86 
L 75.805 21.64 
L 28.39 21.64 
z
" style="fill: #ffffff"/>
   </g>
   <g id="PathCollection_1">
    <defs>
     <path id="C0_0_c72d89db95" d="M 0 1.581139 
C 0.419323 1.581139 0.821528 1.41454 1.118034 1.118034 
C 1.41454 0.821528 1.581139 0.419323 1.581139 -0 
C 1.581139 -0.419323 1.41454 -0.821528 1.118034 -1.118034 
C 0.821528 -1.41454 0.419323 -1.581139 0 -1.581139 
C -0.419323 -1.581139 -0.821528 -1.41454 -1.118034 -1.118034 
C -1.41454 -0.821528 -1.581139 -0.419323 -1.581139 0 
C -1.581139 0.419323 -1.41454 0.821528 -1.118034 1.118034 
C -0.821528 1.41454 -0.419323 1.581139 0 1.581139 
z
"/>
    </defs>
    <g clip-path="url(#p5a05ee9d82)">
     <use xlink:href="#C0_0_c72d89db95" x="31.120639" y="75.922858" style="fill: #1f77b4"/>
    </g>
    <g clip-path="url(#p5a05ee9d82)">
     <use xlink:href="#C0_0_c72d89db95" x="30.867574" y="80.9418" style="fill: #1f77b4"/>
    </g>
    <g clip-path="url(#p5a05ee9d82)">
     <use xlink:href="#C0_0_c72d89db95" x="30.70296" y="104.515463" style="fill: #1f77b4"/>
    </g>
    <g clip-path="url(#p5a05ee9d82)">
     <use xlink:href="#C0_0_c72d89db95" x="31.968558" y="76.944993" style="fill: #1f77b4"/>
    </g>
    <g clip-path="url(#p5a05ee9d82)">
     <use xlink:href="#C0_0_c72d89db95" x="31.989184" y="80.399278" style="fill: #1f77b4"/>
    </g>
    <g clip-path="url(#p5a05ee9d82)">
     <use xlink:href="#C0_0_c72d89db95" x="31.599844" y="89.974228" style="fill: #1f77b4"/>
    </g>
    <g clip-path="url(#p5a05ee9d82)">
     <use xlink:href="#C0_0_c72d89db95" x="30.545227" y="65.494709" style="fill: #1f77b4"/>
    </g>
    <g clip-path="url(#p5a05ee9d82)">
     <use xlink:href="#C0_0_c72d89db95" x="31.603746" y="85.308067" style="fill: #1f77b4"/>
    </g>
    <g clip-path="url(#p5a05ee9d82)">
     <use xlink:href="#C0_0_c72d89db95" x="31.476249" y="76.284456" style="fill: #1f77b4"/>
    </g>
    <g clip-path="url(#p5a05ee9d82)">
     <use xlink:href="#C0_0_c72d89db95" x="31.537241" y="52.759731" style="fill: #1f77b4"/>
    </g>
    <g clip-path="url(#p5a05ee9d82)">
     <use xlink:href="#C0_0_c72d89db95" x="31.944412" y="93.030534" style="fill: #1f77b4"/>
    </g>
    <g clip-path="url(#p5a05ee9d82)">
     <use xlink:href="#C0_0_c72d89db95" x="31.452491" y="76.700299" style="fill: #1f77b4"/>
    </g>
    <g clip-path="url(#p5a05ee9d82)">
     <use xlink:href="#C0_0_c72d89db95" x="31.294682" y="72.087908" style="fill: #1f77b4"/>
    </g>
    <g clip-path="url(#p5a05ee9d82)">
     <use xlink:href="#C0_0_c72d89db95" x="31.684425" y="100.068715" style="fill: #1f77b4"/>
    </g>
    <g clip-path="url(#p5a05ee9d82)">
     <use xlink:href="#C0_0_c72d89db95" x="31.287461" y="90.498386" style="fill: #1f77b4"/>
    </g>
    <g clip-path="url(#p5a05ee9d82)">
     <use xlink:href="#C0_0_c72d89db95" x="31.426797" y="61.935927" style="fill: #1f77b4"/>
    </g>
    <g clip-path="url(#p5a05ee9d82)">
     <use xlink:href="#C0_0_c72d89db95" x="31.231969" y="69.945109" style="fill: #1f77b4"/>
    </g>
    <g clip-path="url(#p5a05ee9d82)">
     <use xlink:href="#C0_0_c72d89db95" x="32.313014" y="109.687823" style="fill: #1f77b4"/>
    </g>
   </g>
   <g id="PathCollection_2">
    <defs>
     <path id="C1_0_bc46bf3c01" d="M 0 1.581139 
C 0.419323 1.581139 0.821528 1.41454 1.118034 1.118034 
C 1.41454 0.821528 1.581139 0.419323 1.581139 -0 
C 1.581139 -0.419323 1.41454 -0.821528 1.118034 -1.118034 
C 0.821528 -1.41454 0.419323 -1.581139 0 -1.581139 
C -0.419323 -1.581139 -0.821528 -1.41454 -1.118034 -1.118034 
C -1.41454 -0.821528 -1.581139 -0.419323 -1.581139 0 
C -1.581139 0.419323 -1.41454 0.821528 -1.118034 1.118034 
C -0.821528 1.41454 -0.419323 1.581139 0 1.581139 
z
"/>
    </defs>
    <g clip-path="url(#p5a05ee9d82)">
     <use xlink:href="#C1_0_bc46bf3c01" x="51.789018" y="101.229793" style="fill: #7f7f7f"/>
    </g>
    <g clip-path="url(#p5a05ee9d82)">
     <use xlink:href="#C1_0_bc46bf3c01" x="51.535954" y="61.798574" style="fill: #7f7f7f"/>
    </g>
    <g clip-path="url(#p5a05ee9d82)">
     <use xlink:href="#C1_0_bc46bf3c01" x="51.37134" y="108.919122" style="fill: #7f7f7f"/>
    </g>
    <g clip-path="url(#p5a05ee9d82)">
     <use xlink:href="#C1_0_bc46bf3c01" x="52.636938" y="45.526341" style="fill: #7f7f7f"/>
    </g>
    <g clip-path="url(#p5a05ee9d82)">
     <use xlink:href="#C1_0_bc46bf3c01" x="52.657564" y="56.909219" style="fill: #7f7f7f"/>
    </g>
    <g clip-path="url(#p5a05ee9d82)">
     <use xlink:href="#C1_0_bc46bf3c01" x="52.268224" y="94.959032" style="fill: #7f7f7f"/>
    </g>
    <g clip-path="url(#p5a05ee9d82)">
     <use xlink:href="#C1_0_bc46bf3c01" x="51.213607" y="54.351065" style="fill: #7f7f7f"/>
    </g>
    <g clip-path="url(#p5a05ee9d82)">
     <use xlink:href="#C1_0_bc46bf3c01" x="52.272126" y="69.649339" style="fill: #7f7f7f"/>
    </g>
    <g clip-path="url(#p5a05ee9d82)">
     <use xlink:href="#C1_0_bc46bf3c01" x="52.144628" y="39.322061" style="fill: #7f7f7f"/>
    </g>
    <g clip-path="url(#p5a05ee9d82)">
     <use xlink:href="#C1_0_bc46bf3c01" x="52.205621" y="57.89146" style="fill: #7f7f7f"/>
    </g>
    <g clip-path="url(#p5a05ee9d82)">
     <use xlink:href="#C1_0_bc46bf3c01" x="52.612791" y="54.572269" style="fill: #7f7f7f"/>
    </g>
    <g clip-path="url(#p5a05ee9d82)">
     <use xlink:href="#C1_0_bc46bf3c01" x="52.12087" y="62.700109" style="fill: #7f7f7f"/>
    </g>
    <g clip-path="url(#p5a05ee9d82)">
     <use xlink:href="#C1_0_bc46bf3c01" x="51.963062" y="42.653914" style="fill: #7f7f7f"/>
    </g>
    <g clip-path="url(#p5a05ee9d82)">
     <use xlink:href="#C1_0_bc46bf3c01" x="52.352805" y="93.876765" style="fill: #7f7f7f"/>
    </g>
    <g clip-path="url(#p5a05ee9d82)">
     <use xlink:href="#C1_0_bc46bf3c01" x="51.955841" y="89.911561" style="fill: #7f7f7f"/>
    </g>
    <g clip-path="url(#p5a05ee9d82)">
     <use xlink:href="#C1_0_bc46bf3c01" x="52.095176" y="111.772469" style="fill: #7f7f7f"/>
    </g>
    <g clip-path="url(#p5a05ee9d82)">
     <use xlink:href="#C1_0_bc46bf3c01" x="51.900348" y="114.132573" style="fill: #7f7f7f"/>
    </g>
    <g clip-path="url(#p5a05ee9d82)">
     <use xlink:href="#C1_0_bc46bf3c01" x="52.981393" y="82.316053" style="fill: #7f7f7f"/>
    </g>
   </g>
   <g id="PathCollection_3">
    <defs>
     <path id="C2_0_93a2ed020e" d="M 0 1.581139 
C 0.419323 1.581139 0.821528 1.41454 1.118034 1.118034 
C 1.41454 0.821528 1.581139 0.419323 1.581139 -0 
C 1.581139 -0.419323 1.41454 -0.821528 1.118034 -1.118034 
C 0.821528 -1.41454 0.419323 -1.581139 0 -1.581139 
C -0.419323 -1.581139 -0.821528 -1.41454 -1.118034 -1.118034 
C -1.41454 -0.821528 -1.581139 -0.419323 -1.581139 0 
C -1.581139 0.419323 -1.41454 0.821528 -1.118034 1.118034 
C -0.821528 1.41454 -0.419323 1.581139 0 1.581139 
z
"/>
    </defs>
    <g clip-path="url(#p5a05ee9d82)">
     <use xlink:href="#C2_0_93a2ed020e" x="72.457398" y="83.881824" style="fill: #d62728"/>
    </g>
    <g clip-path="url(#p5a05ee9d82)">
     <use xlink:href="#C2_0_93a2ed020e" x="72.204333" y="31.80426" style="fill: #d62728"/>
    </g>
    <g clip-path="url(#p5a05ee9d82)">
     <use xlink:href="#C2_0_93a2ed020e" x="72.039719" y="85.022891" style="fill: #d62728"/>
    </g>
    <g clip-path="url(#p5a05ee9d82)">
     <use xlink:href="#C2_0_93a2ed020e" x="73.305317" y="85.025832" style="fill: #d62728"/>
    </g>
    <g clip-path="url(#p5a05ee9d82)">
     <use xlink:href="#C2_0_93a2ed020e" x="73.325943" y="96.147008" style="fill: #d62728"/>
    </g>
    <g clip-path="url(#p5a05ee9d82)">
     <use xlink:href="#C2_0_93a2ed020e" x="72.936603" y="84.507711" style="fill: #d62728"/>
    </g>
    <g clip-path="url(#p5a05ee9d82)">
     <use xlink:href="#C2_0_93a2ed020e" x="71.881986" y="90.10492" style="fill: #d62728"/>
    </g>
    <g clip-path="url(#p5a05ee9d82)">
     <use xlink:href="#C2_0_93a2ed020e" x="72.940505" y="63.039478" style="fill: #d62728"/>
    </g>
    <g clip-path="url(#p5a05ee9d82)">
     <use xlink:href="#C2_0_93a2ed020e" x="72.813008" y="94.963778" style="fill: #d62728"/>
    </g>
    <g clip-path="url(#p5a05ee9d82)">
     <use xlink:href="#C2_0_93a2ed020e" x="72.874" y="46.224099" style="fill: #d62728"/>
    </g>
    <g clip-path="url(#p5a05ee9d82)">
     <use xlink:href="#C2_0_93a2ed020e" x="73.28117" y="64.885957" style="fill: #d62728"/>
    </g>
    <g clip-path="url(#p5a05ee9d82)">
     <use xlink:href="#C2_0_93a2ed020e" x="72.78925" y="75.672274" style="fill: #d62728"/>
    </g>
    <g clip-path="url(#p5a05ee9d82)">
     <use xlink:href="#C2_0_93a2ed020e" x="72.631441" y="60.170505" style="fill: #d62728"/>
    </g>
    <g clip-path="url(#p5a05ee9d82)">
     <use xlink:href="#C2_0_93a2ed020e" x="73.021184" y="82.022215" style="fill: #d62728"/>
    </g>
    <g clip-path="url(#p5a05ee9d82)">
     <use xlink:href="#C2_0_93a2ed020e" x="72.62422" y="82.123949" style="fill: #d62728"/>
    </g>
    <g clip-path="url(#p5a05ee9d82)">
     <use xlink:href="#C2_0_93a2ed020e" x="72.763556" y="70.577601" style="fill: #d62728"/>
    </g>
    <g clip-path="url(#p5a05ee9d82)">
     <use xlink:href="#C2_0_93a2ed020e" x="72.568728" y="102.268892" style="fill: #d62728"/>
    </g>
    <g clip-path="url(#p5a05ee9d82)">
     <use xlink:href="#C2_0_93a2ed020e" x="73.649773" y="87.283576" style="fill: #d62728"/>
    </g>
   </g>
   <g id="matplotlib.axis_1"/>
   <g id="matplotlib.axis_2">
    <g id="ytick_1">
     <g id="line2d_1">
      <defs>
       <path id="mae4afc109f" d="M 0 0 
L -3.5 0 
" style="stroke: #000000; stroke-width: 0.8"/>
      </defs>
      <g>
       <use xlink:href="#mae4afc109f" x="28.39" y="102.001412" style="stroke: #000000; stroke-width: 0.8"/>
      </g>
     </g>
     <g id="text_1">
      <!-- 0.0 -->
      <g transform="translate(8.6675 105.040787)scale(0.08 -0.08)">
       <defs>
        <path id="DejaVuSans-30" d="M 2034 4250 
Q 1547 4250 1301 3770 
Q 1056 3291 1056 2328 
Q 1056 1369 1301 889 
Q 1547 409 2034 409 
Q 2525 409 2770 889 
Q 3016 1369 3016 2328 
Q 3016 3291 2770 3770 
Q 2525 4250 2034 4250 
z
M 2034 4750 
Q 2819 4750 3233 4129 
Q 3647 3509 3647 2328 
Q 3647 1150 3233 529 
Q 2819 -91 2034 -91 
Q 1250 -91 836 529 
Q 422 1150 422 2328 
Q 422 3509 836 4129 
Q 1250 4750 2034 4750 
z
" transform="scale(0.015625)"/>
        <path id="DejaVuSans-2e" d="M 684 794 
L 1344 794 
L 1344 0 
L 684 0 
L 684 794 
z
" transform="scale(0.015625)"/>
       </defs>
       <use xlink:href="#DejaVuSans-30"/>
       <use xlink:href="#DejaVuSans-2e" x="63.623047"/>
       <use xlink:href="#DejaVuSans-30" x="95.410156"/>
      </g>
     </g>
    </g>
    <g id="ytick_2">
     <g id="line2d_2">
      <g>
       <use xlink:href="#mae4afc109f" x="28.39" y="69.631679" style="stroke: #000000; stroke-width: 0.8"/>
      </g>
     </g>
     <g id="text_2">
      <!-- 0.2 -->
      <g transform="translate(8.6675 72.671054)scale(0.08 -0.08)">
       <defs>
        <path id="DejaVuSans-32" d="M 1228 531 
L 3431 531 
L 3431 0 
L 469 0 
L 469 531 
Q 828 903 1448 1529 
Q 2069 2156 2228 2338 
Q 2531 2678 2651 2914 
Q 2772 3150 2772 3378 
Q 2772 3750 2511 3984 
Q 2250 4219 1831 4219 
Q 1534 4219 1204 4116 
Q 875 4013 500 3803 
L 500 4441 
Q 881 4594 1212 4672 
Q 1544 4750 1819 4750 
Q 2544 4750 2975 4387 
Q 3406 4025 3406 3419 
Q 3406 3131 3298 2873 
Q 3191 2616 2906 2266 
Q 2828 2175 2409 1742 
Q 1991 1309 1228 531 
z
" transform="scale(0.015625)"/>
       </defs>
       <use xlink:href="#DejaVuSans-30"/>
       <use xlink:href="#DejaVuSans-2e" x="63.623047"/>
       <use xlink:href="#DejaVuSans-32" x="95.410156"/>
      </g>
     </g>
    </g>
    <g id="ytick_3">
     <g id="line2d_3">
      <g>
       <use xlink:href="#mae4afc109f" x="28.39" y="37.261945" style="stroke: #000000; stroke-width: 0.8"/>
      </g>
     </g>
     <g id="text_3">
      <!-- 0.4 -->
      <g transform="translate(8.6675 40.30132)scale(0.08 -0.08)">
       <defs>
        <path id="DejaVuSans-34" d="M 2419 4116 
L 825 1625 
L 2419 1625 
L 2419 4116 
z
M 2253 4666 
L 3047 4666 
L 3047 1625 
L 3713 1625 
L 3713 1100 
L 3047 1100 
L 3047 0 
L 2419 0 
L 2419 1100 
L 313 1100 
L 313 1709 
L 2253 4666 
z
" transform="scale(0.015625)"/>
       </defs>
       <use xlink:href="#DejaVuSans-30"/>
       <use xlink:href="#DejaVuSans-2e" x="63.623047"/>
       <use xlink:href="#DejaVuSans-34" x="95.410156"/>
      </g>
     </g>
    </g>
   </g>
   <g id="LineCollection_1">
    <path d="M 31.402959 84.754833 
L 31.402959 77.745205 
" clip-path="url(#p5a05ee9d82)" style="fill: none; stroke: #000000"/>
   </g>
   <g id="line2d_4">
    <defs>
     <path id="ma6bdc64c91" d="M 2 0 
L -2 -0 
" style="stroke: #000000"/>
    </defs>
    <g clip-path="url(#p5a05ee9d82)">
     <use xlink:href="#ma6bdc64c91" x="31.402959" y="84.754833" style="stroke: #000000"/>
    </g>
   </g>
   <g id="line2d_5">
    <g clip-path="url(#p5a05ee9d82)">
     <use xlink:href="#ma6bdc64c91" x="31.402959" y="77.745205" style="stroke: #000000"/>
    </g>
   </g>
   <g id="LineCollection_2">
    <path d="M 52.071339 80.511439 
L 52.071339 68.65431 
" clip-path="url(#p5a05ee9d82)" style="fill: none; stroke: #000000"/>
   </g>
   <g id="line2d_6">
    <g clip-path="url(#p5a05ee9d82)">
     <use xlink:href="#ma6bdc64c91" x="52.071339" y="80.511439" style="stroke: #000000"/>
    </g>
   </g>
   <g id="line2d_7">
    <g clip-path="url(#p5a05ee9d82)">
     <use xlink:href="#ma6bdc64c91" x="52.071339" y="68.65431" style="stroke: #000000"/>
    </g>
   </g>
   <g id="LineCollection_3">
    <path d="M 72.739718 81.242454 
L 72.739718 72.727192 
" clip-path="url(#p5a05ee9d82)" style="fill: none; stroke: #000000"/>
   </g>
   <g id="line2d_8">
    <g clip-path="url(#p5a05ee9d82)">
     <use xlink:href="#ma6bdc64c91" x="72.739718" y="81.242454" style="stroke: #000000"/>
    </g>
   </g>
   <g id="line2d_9">
    <g clip-path="url(#p5a05ee9d82)">
     <use xlink:href="#ma6bdc64c91" x="72.739718" y="72.727192" style="stroke: #000000"/>
    </g>
   </g>
   <g id="line2d_10">
    <path d="M 28.39 102.001412 
L 75.805 102.001412 
" clip-path="url(#p5a05ee9d82)" style="fill: none; stroke-dasharray: 5.55,2.4; stroke-dashoffset: 0; stroke: #000000; stroke-width: 1.5"/>
   </g>
   <g id="line2d_11">
    <path d="M 31.402959 81.250019 
" clip-path="url(#p5a05ee9d82)" style="fill: none; stroke: #000000; stroke-linecap: square"/>
    <defs>
     <path id="ma1244814ac" d="M 0 3 
C 0.795609 3 1.55874 2.683901 2.12132 2.12132 
C 2.683901 1.55874 3 0.795609 3 0 
C 3 -0.795609 2.683901 -1.55874 2.12132 -2.12132 
C 1.55874 -2.683901 0.795609 -3 0 -3 
C -0.795609 -3 -1.55874 -2.683901 -2.12132 -2.12132 
C -2.683901 -1.55874 -3 -0.795609 -3 0 
C -3 0.795609 -2.683901 1.55874 -2.12132 2.12132 
C -1.55874 2.683901 -0.795609 3 0 3 
z
" style="stroke: #000000"/>
    </defs>
    <g clip-path="url(#p5a05ee9d82)">
     <use xlink:href="#ma1244814ac" x="31.402959" y="81.250019" style="fill: #1f77b4; stroke: #000000"/>
    </g>
   </g>
   <g id="line2d_12">
    <path d="M 52.071339 74.582875 
" clip-path="url(#p5a05ee9d82)" style="fill: none; stroke: #000000; stroke-linecap: square"/>
    <defs>
     <path id="m79c8bb4a5a" d="M 0 3 
C 0.795609 3 1.55874 2.683901 2.12132 2.12132 
C 2.683901 1.55874 3 0.795609 3 0 
C 3 -0.795609 2.683901 -1.55874 2.12132 -2.12132 
C 1.55874 -2.683901 0.795609 -3 0 -3 
C -0.795609 -3 -1.55874 -2.683901 -2.12132 -2.12132 
C -2.683901 -1.55874 -3 -0.795609 -3 0 
C -3 0.795609 -2.683901 1.55874 -2.12132 2.12132 
C -1.55874 2.683901 -0.795609 3 0 3 
z
" style="stroke: #000000"/>
    </defs>
    <g clip-path="url(#p5a05ee9d82)">
     <use xlink:href="#m79c8bb4a5a" x="52.071339" y="74.582875" style="fill: #7f7f7f; stroke: #000000"/>
    </g>
   </g>
   <g id="line2d_13">
    <path d="M 72.739718 76.984823 
" clip-path="url(#p5a05ee9d82)" style="fill: none; stroke: #000000; stroke-linecap: square"/>
    <defs>
     <path id="m3a6ad1f285" d="M 0 3 
C 0.795609 3 1.55874 2.683901 2.12132 2.12132 
C 2.683901 1.55874 3 0.795609 3 0 
C 3 -0.795609 2.683901 -1.55874 2.12132 -2.12132 
C 1.55874 -2.683901 0.795609 -3 0 -3 
C -0.795609 -3 -1.55874 -2.683901 -2.12132 -2.12132 
C -2.683901 -1.55874 -3 -0.795609 -3 0 
C -3 0.795609 -2.683901 1.55874 -2.12132 2.12132 
C -1.55874 2.683901 -0.795609 3 0 3 
z
" style="stroke: #000000"/>
    </defs>
    <g clip-path="url(#p5a05ee9d82)">
     <use xlink:href="#m3a6ad1f285" x="72.739718" y="76.984823" style="fill: #d62728; stroke: #000000"/>
    </g>
   </g>
   <g id="patch_3">
    <path d="M 28.39 131.86 
L 28.39 21.64 
" style="fill: none; stroke: #000000; stroke-width: 0.8; stroke-linejoin: miter; stroke-linecap: square"/>
   </g>
   <g id="patch_4">
    <path d="M 28.39 131.86 
L 75.805 131.86 
" style="fill: none; stroke: #000000; stroke-width: 0.8; stroke-linejoin: miter; stroke-linecap: square"/>
   </g>
   <g id="text_4">
    <!-- A1 -->
    <g transform="translate(46.81625 15.64)scale(0.08 -0.08)">
     <defs>
      <path id="DejaVuSans-41" d="M 2188 4044 
L 1331 1722 
L 3047 1722 
L 2188 4044 
z
M 1831 4666 
L 2547 4666 
L 4325 0 
L 3669 0 
L 3244 1197 
L 1141 1197 
L 716 0 
L 50 0 
L 1831 4666 
z
" transform="scale(0.015625)"/>
      <path id="DejaVuSans-31" d="M 794 531 
L 1825 531 
L 1825 4091 
L 703 3866 
L 703 4441 
L 1819 4666 
L 2450 4666 
L 2450 531 
L 3481 531 
L 3481 0 
L 794 0 
L 794 531 
z
" transform="scale(0.015625)"/>
     </defs>
     <use xlink:href="#DejaVuSans-41"/>
     <use xlink:href="#DejaVuSans-31" x="68.408203"/>
    </g>
   </g>
  </g>
  <g id="axes_2">
   <g id="patch_5">
    <path d="M 87.945 131.86 
L 135.36 131.86 
L 135.36 21.64 
L 87.945 21.64 
z
" style="fill: #ffffff"/>
   </g>
   <g id="PathCollection_4">
    <defs>
     <path id="C3_0_3e6364a331" d="M 0 1.581139 
C 0.419323 1.581139 0.821528 1.41454 1.118034 1.118034 
C 1.41454 0.821528 1.581139 0.419323 1.581139 -0 
C 1.581139 -0.419323 1.41454 -0.821528 1.118034 -1.118034 
C 0.821528 -1.41454 0.419323 -1.581139 0 -1.581139 
C -0.419323 -1.581139 -0.821528 -1.41454 -1.118034 -1.118034 
C -1.41454 -0.821528 -1.581139 -0.419323 -1.581139 0 
C -1.581139 0.419323 -1.41454 0.821528 -1.118034 1.118034 
C -0.821528 1.41454 -0.419323 1.581139 0 1.581139 
z
"/>
    </defs>
    <g clip-path="url(#p5507ee6ee1)">
     <use xlink:href="#C3_0_3e6364a331" x="91.69679" y="112.169023" style="fill: #1f77b4"/>
    </g>
    <g clip-path="url(#p5507ee6ee1)">
     <use xlink:href="#C3_0_3e6364a331" x="90.971242" y="75.840535" style="fill: #1f77b4"/>
    </g>
    <g clip-path="url(#p5507ee6ee1)">
     <use xlink:href="#C3_0_3e6364a331" x="91.247587" y="83.100172" style="fill: #1f77b4"/>
    </g>
    <g clip-path="url(#p5507ee6ee1)">
     <use xlink:href="#C3_0_3e6364a331" x="91.575585" y="95.509513" style="fill: #1f77b4"/>
    </g>
    <g clip-path="url(#p5507ee6ee1)">
     <use xlink:href="#C3_0_3e6364a331" x="91.550286" y="83.972781" style="fill: #1f77b4"/>
    </g>
    <g clip-path="url(#p5507ee6ee1)">
     <use xlink:href="#C3_0_3e6364a331" x="91.686827" y="87.384414" style="fill: #1f77b4"/>
    </g>
    <g clip-path="url(#p5507ee6ee1)">
     <use xlink:href="#C3_0_3e6364a331" x="90.289284" y="84.893893" style="fill: #1f77b4"/>
    </g>
    <g clip-path="url(#p5507ee6ee1)">
     <use xlink:href="#C3_0_3e6364a331" x="91.734728" y="117.978231" style="fill: #1f77b4"/>
    </g>
    <g clip-path="url(#p5507ee6ee1)">
     <use xlink:href="#C3_0_3e6364a331" x="90.680611" y="84.042852" style="fill: #1f77b4"/>
    </g>
    <g clip-path="url(#p5507ee6ee1)">
     <use xlink:href="#C3_0_3e6364a331" x="90.884664" y="75.658975" style="fill: #1f77b4"/>
    </g>
    <g clip-path="url(#p5507ee6ee1)">
     <use xlink:href="#C3_0_3e6364a331" x="90.100227" y="106.600643" style="fill: #1f77b4"/>
    </g>
    <g clip-path="url(#p5507ee6ee1)">
     <use xlink:href="#C3_0_3e6364a331" x="90.831984" y="97.332342" style="fill: #1f77b4"/>
    </g>
    <g clip-path="url(#p5507ee6ee1)">
     <use xlink:href="#C3_0_3e6364a331" x="90.489182" y="76.268348" style="fill: #1f77b4"/>
    </g>
   </g>
   <g id="PathCollection_5">
    <defs>
     <path id="C4_0_bf398cf6c9" d="M 0 1.581139 
C 0.419323 1.581139 0.821528 1.41454 1.118034 1.118034 
C 1.41454 0.821528 1.581139 0.419323 1.581139 -0 
C 1.581139 -0.419323 1.41454 -0.821528 1.118034 -1.118034 
C 0.821528 -1.41454 0.419323 -1.581139 0 -1.581139 
C -0.419323 -1.581139 -0.821528 -1.41454 -1.118034 -1.118034 
C -1.41454 -0.821528 -1.581139 -0.419323 -1.581139 0 
C -1.581139 0.419323 -1.41454 0.821528 -1.118034 1.118034 
C -0.821528 1.41454 -0.419323 1.581139 0 1.581139 
z
"/>
    </defs>
    <g clip-path="url(#p5507ee6ee1)">
     <use xlink:href="#C4_0_bf398cf6c9" x="112.431812" y="105.730939" style="fill: #7f7f7f"/>
    </g>
    <g clip-path="url(#p5507ee6ee1)">
     <use xlink:href="#C4_0_bf398cf6c9" x="111.706264" y="76.861904" style="fill: #7f7f7f"/>
    </g>
    <g clip-path="url(#p5507ee6ee1)">
     <use xlink:href="#C4_0_bf398cf6c9" x="111.982609" y="105.860489" style="fill: #7f7f7f"/>
    </g>
    <g clip-path="url(#p5507ee6ee1)">
     <use xlink:href="#C4_0_bf398cf6c9" x="112.310607" y="73.732032" style="fill: #7f7f7f"/>
    </g>
    <g clip-path="url(#p5507ee6ee1)">
     <use xlink:href="#C4_0_bf398cf6c9" x="112.285308" y="108.996682" style="fill: #7f7f7f"/>
    </g>
    <g clip-path="url(#p5507ee6ee1)">
     <use xlink:href="#C4_0_bf398cf6c9" x="112.421849" y="88.731371" style="fill: #7f7f7f"/>
    </g>
    <g clip-path="url(#p5507ee6ee1)">
     <use xlink:href="#C4_0_bf398cf6c9" x="111.024306" y="118.848265" style="fill: #7f7f7f"/>
    </g>
    <g clip-path="url(#p5507ee6ee1)">
     <use xlink:href="#C4_0_bf398cf6c9" x="112.469751" y="126.85" style="fill: #7f7f7f"/>
    </g>
    <g clip-path="url(#p5507ee6ee1)">
     <use xlink:href="#C4_0_bf398cf6c9" x="111.415633" y="66.158886" style="fill: #7f7f7f"/>
    </g>
    <g clip-path="url(#p5507ee6ee1)">
     <use xlink:href="#C4_0_bf398cf6c9" x="111.619686" y="67.674786" style="fill: #7f7f7f"/>
    </g>
    <g clip-path="url(#p5507ee6ee1)">
     <use xlink:href="#C4_0_bf398cf6c9" x="110.835249" y="117.117306" style="fill: #7f7f7f"/>
    </g>
    <g clip-path="url(#p5507ee6ee1)">
     <use xlink:href="#C4_0_bf398cf6c9" x="111.567007" y="72.425266" style="fill: #7f7f7f"/>
    </g>
    <g clip-path="url(#p5507ee6ee1)">
     <use xlink:href="#C4_0_bf398cf6c9" x="111.224205" y="76.780904" style="fill: #7f7f7f"/>
    </g>
   </g>
   <g id="PathCollection_6">
    <defs>
     <path id="C5_0_429bd5d86e" d="M 0 1.581139 
C 0.419323 1.581139 0.821528 1.41454 1.118034 1.118034 
C 1.41454 0.821528 1.581139 0.419323 1.581139 -0 
C 1.581139 -0.419323 1.41454 -0.821528 1.118034 -1.118034 
C 0.821528 -1.41454 0.419323 -1.581139 0 -1.581139 
C -0.419323 -1.581139 -0.821528 -1.41454 -1.118034 -1.118034 
C -1.41454 -0.821528 -1.581139 -0.419323 -1.581139 0 
C -1.581139 0.419323 -1.41454 0.821528 -1.118034 1.118034 
C -0.821528 1.41454 -0.419323 1.581139 0 1.581139 
z
"/>
    </defs>
    <g clip-path="url(#p5507ee6ee1)">
     <use xlink:href="#C5_0_429bd5d86e" x="133.166834" y="59.238375" style="fill: #d62728"/>
    </g>
    <g clip-path="url(#p5507ee6ee1)">
     <use xlink:href="#C5_0_429bd5d86e" x="132.441286" y="26.65" style="fill: #d62728"/>
    </g>
    <g clip-path="url(#p5507ee6ee1)">
     <use xlink:href="#C5_0_429bd5d86e" x="132.717632" y="68.852283" style="fill: #d62728"/>
    </g>
    <g clip-path="url(#p5507ee6ee1)">
     <use xlink:href="#C5_0_429bd5d86e" x="133.045629" y="85.68185" style="fill: #d62728"/>
    </g>
    <g clip-path="url(#p5507ee6ee1)">
     <use xlink:href="#C5_0_429bd5d86e" x="133.02033" y="97.101293" style="fill: #d62728"/>
    </g>
    <g clip-path="url(#p5507ee6ee1)">
     <use xlink:href="#C5_0_429bd5d86e" x="133.156871" y="78.020991" style="fill: #d62728"/>
    </g>
    <g clip-path="url(#p5507ee6ee1)">
     <use xlink:href="#C5_0_429bd5d86e" x="131.759328" y="74.854231" style="fill: #d62728"/>
    </g>
    <g clip-path="url(#p5507ee6ee1)">
     <use xlink:href="#C5_0_429bd5d86e" x="133.204773" y="82.771466" style="fill: #d62728"/>
    </g>
    <g clip-path="url(#p5507ee6ee1)">
     <use xlink:href="#C5_0_429bd5d86e" x="132.150655" y="37.726396" style="fill: #d62728"/>
    </g>
    <g clip-path="url(#p5507ee6ee1)">
     <use xlink:href="#C5_0_429bd5d86e" x="132.354708" y="68.470277" style="fill: #d62728"/>
    </g>
    <g clip-path="url(#p5507ee6ee1)">
     <use xlink:href="#C5_0_429bd5d86e" x="131.570272" y="74.451693" style="fill: #d62728"/>
    </g>
    <g clip-path="url(#p5507ee6ee1)">
     <use xlink:href="#C5_0_429bd5d86e" x="132.302029" y="61.334007" style="fill: #d62728"/>
    </g>
    <g clip-path="url(#p5507ee6ee1)">
     <use xlink:href="#C5_0_429bd5d86e" x="131.959227" y="90.510477" style="fill: #d62728"/>
    </g>
   </g>
   <g id="matplotlib.axis_3"/>
   <g id="matplotlib.axis_4">
    <g id="ytick_4">
     <g id="line2d_14">
      <g>
       <use xlink:href="#mae4afc109f" x="87.945" y="102.001412" style="stroke: #000000; stroke-width: 0.8"/>
      </g>
     </g>
    </g>
    <g id="ytick_5">
     <g id="line2d_15">
      <g>
       <use xlink:href="#mae4afc109f" x="87.945" y="69.631679" style="stroke: #000000; stroke-width: 0.8"/>
      </g>
     </g>
    </g>
    <g id="ytick_6">
     <g id="line2d_16">
      <g>
       <use xlink:href="#mae4afc109f" x="87.945" y="37.261945" style="stroke: #000000; stroke-width: 0.8"/>
      </g>
     </g>
    </g>
   </g>
   <g id="LineCollection_4">
    <path d="M 90.881437 94.726517 
L 90.881437 86.927595 
" clip-path="url(#p5507ee6ee1)" style="fill: none; stroke: #000000"/>
   </g>
   <g id="line2d_17">
    <g clip-path="url(#p5507ee6ee1)">
     <use xlink:href="#ma6bdc64c91" x="90.881437" y="94.726517" style="stroke: #000000"/>
    </g>
   </g>
   <g id="line2d_18">
    <g clip-path="url(#p5507ee6ee1)">
     <use xlink:href="#ma6bdc64c91" x="90.881437" y="86.927595" style="stroke: #000000"/>
    </g>
   </g>
   <g id="LineCollection_5">
    <path d="M 111.616459 98.783555 
L 111.616459 86.719342 
" clip-path="url(#p5507ee6ee1)" style="fill: none; stroke: #000000"/>
   </g>
   <g id="line2d_19">
    <g clip-path="url(#p5507ee6ee1)">
     <use xlink:href="#ma6bdc64c91" x="111.616459" y="98.783555" style="stroke: #000000"/>
    </g>
   </g>
   <g id="line2d_20">
    <g clip-path="url(#p5507ee6ee1)">
     <use xlink:href="#ma6bdc64c91" x="111.616459" y="86.719342" style="stroke: #000000"/>
    </g>
   </g>
   <g id="LineCollection_6">
    <path d="M 132.351481 75.205223 
L 132.351481 64.127596 
" clip-path="url(#p5507ee6ee1)" style="fill: none; stroke: #000000"/>
   </g>
   <g id="line2d_21">
    <g clip-path="url(#p5507ee6ee1)">
     <use xlink:href="#ma6bdc64c91" x="132.351481" y="75.205223" style="stroke: #000000"/>
    </g>
   </g>
   <g id="line2d_22">
    <g clip-path="url(#p5507ee6ee1)">
     <use xlink:href="#ma6bdc64c91" x="132.351481" y="64.127596" style="stroke: #000000"/>
    </g>
   </g>
   <g id="line2d_23">
    <path d="M 87.945 102.001412 
L 135.36 102.001412 
" clip-path="url(#p5507ee6ee1)" style="fill: none; stroke-dasharray: 5.55,2.4; stroke-dashoffset: 0; stroke: #000000; stroke-width: 1.5"/>
   </g>
   <g id="line2d_24">
    <path d="M 90.881437 90.827056 
" clip-path="url(#p5507ee6ee1)" style="fill: none; stroke: #000000; stroke-linecap: square"/>
    <g clip-path="url(#p5507ee6ee1)">
     <use xlink:href="#ma1244814ac" x="90.881437" y="90.827056" style="fill: #1f77b4; stroke: #000000"/>
    </g>
   </g>
   <g id="line2d_25">
    <path d="M 111.616459 92.751449 
" clip-path="url(#p5507ee6ee1)" style="fill: none; stroke: #000000; stroke-linecap: square"/>
    <g clip-path="url(#p5507ee6ee1)">
     <use xlink:href="#m79c8bb4a5a" x="111.616459" y="92.751449" style="fill: #7f7f7f; stroke: #000000"/>
    </g>
   </g>
   <g id="line2d_26">
    <path d="M 132.351481 69.666409 
" clip-path="url(#p5507ee6ee1)" style="fill: none; stroke: #000000; stroke-linecap: square"/>
    <g clip-path="url(#p5507ee6ee1)">
     <use xlink:href="#m3a6ad1f285" x="132.351481" y="69.666409" style="fill: #d62728; stroke: #000000"/>
    </g>
   </g>
   <g id="patch_6">
    <path d="M 87.945 131.86 
L 87.945 21.64 
" style="fill: none; stroke: #000000; stroke-width: 0.8; stroke-linejoin: miter; stroke-linecap: square"/>
   </g>
   <g id="patch_7">
    <path d="M 87.945 131.86 
L 135.36 131.86 
" style="fill: none; stroke: #000000; stroke-width: 0.8; stroke-linejoin: miter; stroke-linecap: square"/>
   </g>
   <g id="text_5">
    <!-- dPEG -->
    <g transform="translate(101.074375 15.64)scale(0.08 -0.08)">
     <defs>
      <path id="DejaVuSans-64" d="M 2906 2969 
L 2906 4863 
L 3481 4863 
L 3481 0 
L 2906 0 
L 2906 525 
Q 2725 213 2448 61 
Q 2172 -91 1784 -91 
Q 1150 -91 751 415 
Q 353 922 353 1747 
Q 353 2572 751 3078 
Q 1150 3584 1784 3584 
Q 2172 3584 2448 3432 
Q 2725 3281 2906 2969 
z
M 947 1747 
Q 947 1113 1208 752 
Q 1469 391 1925 391 
Q 2381 391 2643 752 
Q 2906 1113 2906 1747 
Q 2906 2381 2643 2742 
Q 2381 3103 1925 3103 
Q 1469 3103 1208 2742 
Q 947 2381 947 1747 
z
" transform="scale(0.015625)"/>
      <path id="DejaVuSans-50" d="M 1259 4147 
L 1259 2394 
L 2053 2394 
Q 2494 2394 2734 2622 
Q 2975 2850 2975 3272 
Q 2975 3691 2734 3919 
Q 2494 4147 2053 4147 
L 1259 4147 
z
M 628 4666 
L 2053 4666 
Q 2838 4666 3239 4311 
Q 3641 3956 3641 3272 
Q 3641 2581 3239 2228 
Q 2838 1875 2053 1875 
L 1259 1875 
L 1259 0 
L 628 0 
L 628 4666 
z
" transform="scale(0.015625)"/>
      <path id="DejaVuSans-45" d="M 628 4666 
L 3578 4666 
L 3578 4134 
L 1259 4134 
L 1259 2753 
L 3481 2753 
L 3481 2222 
L 1259 2222 
L 1259 531 
L 3634 531 
L 3634 0 
L 628 0 
L 628 4666 
z
" transform="scale(0.015625)"/>
      <path id="DejaVuSans-47" d="M 3809 666 
L 3809 1919 
L 2778 1919 
L 2778 2438 
L 4434 2438 
L 4434 434 
Q 4069 175 3628 42 
Q 3188 -91 2688 -91 
Q 1594 -91 976 548 
Q 359 1188 359 2328 
Q 359 3472 976 4111 
Q 1594 4750 2688 4750 
Q 3144 4750 3555 4637 
Q 3966 4525 4313 4306 
L 4313 3634 
Q 3963 3931 3569 4081 
Q 3175 4231 2741 4231 
Q 1884 4231 1454 3753 
Q 1025 3275 1025 2328 
Q 1025 1384 1454 906 
Q 1884 428 2741 428 
Q 3075 428 3337 486 
Q 3600 544 3809 666 
z
" transform="scale(0.015625)"/>
     </defs>
     <use xlink:href="#DejaVuSans-64"/>
     <use xlink:href="#DejaVuSans-50" x="63.476562"/>
     <use xlink:href="#DejaVuSans-45" x="123.779297"/>
     <use xlink:href="#DejaVuSans-47" x="186.962891"/>
    </g>
   </g>
  </g>
 </g>
 <defs>
  <clipPath id="p5a05ee9d82">
   <rect x="28.39" y="21.64" width="47.415" height="110.22"/>
  </clipPath>
  <clipPath id="p5507ee6ee1">
   <rect x="87.945" y="21.64" width="47.415" height="110.22"/>
  </clipPath>
 </defs>
</svg>
