<?xml version="1.0" encoding="utf-8" standalone="no"?>
<!DOCTYPE svg PUBLIC "-//W3C//DTD SVG 1.1//EN"
  "http://www.w3.org/Graphics/SVG/1.1/DTD/svg11.dtd">
<svg xmlns:xlink="http://www.w3.org/1999/xlink" width="108pt" height="216pt" viewBox="0 0 108 216" xmlns="http://www.w3.org/2000/svg" version="1.1">
 <metadata>
  <rdf:RDF xmlns:dc="http://purl.org/dc/elements/1.1/" xmlns:cc="http://creativecommons.org/ns#" xmlns:rdf="http://www.w3.org/1999/02/22-rdf-syntax-ns#">
   <cc:Work>
    <dc:type rdf:resource="http://purl.org/dc/dcmitype/StillImage"/>
    <dc:date>2022-12-05T08:32:30.948779</dc:date>
    <dc:format>image/svg+xml</dc:format>
    <dc:creator>
     <cc:Agent>
      <dc:title>Matplotlib v3.5.1, https://matplotlib.org/</dc:title>
     </cc:Agent>
    </dc:creator>
   </cc:Work>
  </rdf:RDF>
 </metadata>
 <defs>
  <style type="text/css">*{stroke-linejoin: round; stroke-linecap: butt}</style>
 </defs>
 <g id="figure_1">
  <g id="patch_1">
   <path d="M 0 216 
L 108 216 
L 108 0 
L 0 0 
L 0 216 
z
" style="fill: none"/>
  </g>
  <g id="axes_1">
   <g id="patch_2">
    <path d="M 28.39 46.34 
L 99.36 46.34 
L 99.36 8.64 
L 28.39 8.64 
z
" style="fill: #ffffff"/>
   </g>
   <g id="patch_3">
    <path d="M 31.615909 46.34 
L 31.615909 43.047424 
L 34.841818 43.047424 
L 34.841818 46.34 
L 38.067727 46.34 
L 38.067727 45.791237 
L 41.293636 45.791237 
L 41.293636 45.791237 
L 44.519545 45.791237 
L 44.519545 44.144949 
L 47.745455 44.144949 
L 47.745455 45.791237 
L 50.971364 45.791237 
L 50.971364 43.596186 
L 54.197273 43.596186 
L 54.197273 38.657322 
L 57.423182 38.657322 
L 57.423182 36.462271 
L 60.649091 36.462271 
L 60.649091 32.072169 
L 63.875 32.072169 
L 63.875 11.219185 
L 67.100909 11.219185 
L 67.100909 24.938253 
L 70.326818 24.938253 
L 70.326818 33.169694 
L 73.552727 33.169694 
L 73.552727 38.108559 
L 76.778636 38.108559 
L 76.778636 43.047424 
L 80.004545 43.047424 
L 80.004545 44.693712 
L 83.230455 44.693712 
L 83.230455 46.34 
L 86.456364 46.34 
L 86.456364 45.791237 
L 89.682273 45.791237 
L 89.682273 45.791237 
L 92.908182 45.791237 
L 92.908182 46.34 
L 96.134091 46.34 
L 96.134091 46.34 
L 92.908182 46.34 
L 92.908182 46.34 
L 89.682273 46.34 
L 89.682273 46.34 
L 86.456364 46.34 
L 86.456364 46.34 
L 83.230455 46.34 
L 83.230455 46.34 
L 80.004545 46.34 
L 80.004545 46.34 
L 76.778636 46.34 
L 76.778636 46.34 
L 73.552727 46.34 
L 73.552727 46.34 
L 70.326818 46.34 
L 70.326818 46.34 
L 67.100909 46.34 
L 67.100909 46.34 
L 63.875 46.34 
L 63.875 46.34 
L 60.649091 46.34 
L 60.649091 46.34 
L 57.423182 46.34 
L 57.423182 46.34 
L 54.197273 46.34 
L 54.197273 46.34 
L 50.971364 46.34 
L 50.971364 46.34 
L 47.745455 46.34 
L 47.745455 46.34 
L 44.519545 46.34 
L 44.519545 46.34 
L 41.293636 46.34 
L 41.293636 46.34 
L 38.067727 46.34 
L 38.067727 46.34 
L 34.841818 46.34 
L 34.841818 46.34 
z
" clip-path="url(#p0b9a9b32b5)" style="fill: #d1d1d1; stroke: #000000; stroke-linejoin: miter"/>
   </g>
   <g id="matplotlib.axis_1"/>
   <g id="matplotlib.axis_2">
    <g id="ytick_1">
     <g id="line2d_1">
      <defs>
       <path id="md242927469" d="M 0 0 
L -3.5 0 
" style="stroke: #000000; stroke-width: 0.8"/>
      </defs>
      <g>
       <use xlink:href="#md242927469" x="28.39" y="46.34" style="stroke: #000000; stroke-width: 0.8"/>
      </g>
     </g>
     <g id="text_1">
      <!-- 0.0 -->
      <g transform="translate(8.6675 49.379375)scale(0.08 -0.08)">
       <defs>
        <path id="DejaVuSans-30" d="M 2034 4250 
Q 1547 4250 1301 3770 
Q 1056 3291 1056 2328 
Q 1056 1369 1301 889 
Q 1547 409 2034 409 
Q 2525 409 2770 889 
Q 3016 1369 3016 2328 
Q 3016 3291 2770 3770 
Q 2525 4250 2034 4250 
z
M 2034 4750 
Q 2819 4750 3233 4129 
Q 3647 3509 3647 2328 
Q 3647 1150 3233 529 
Q 2819 -91 2034 -91 
Q 1250 -91 836 529 
Q 422 1150 422 2328 
Q 422 3509 836 4129 
Q 1250 4750 2034 4750 
z
" transform="scale(0.015625)"/>
        <path id="DejaVuSans-2e" d="M 684 794 
L 1344 794 
L 1344 0 
L 684 0 
L 684 794 
z
" transform="scale(0.015625)"/>
       </defs>
       <use xlink:href="#DejaVuSans-30"/>
       <use xlink:href="#DejaVuSans-2e" x="63.623047"/>
       <use xlink:href="#DejaVuSans-30" x="95.410156"/>
      </g>
     </g>
    </g>
    <g id="ytick_2">
     <g id="line2d_2">
      <g>
       <use xlink:href="#md242927469" x="28.39" y="21.206667" style="stroke: #000000; stroke-width: 0.8"/>
      </g>
     </g>
     <g id="text_2">
      <!-- 0.2 -->
      <g transform="translate(8.6675 24.246042)scale(0.08 -0.08)">
       <defs>
        <path id="DejaVuSans-32" d="M 1228 531 
L 3431 531 
L 3431 0 
L 469 0 
L 469 531 
Q 828 903 1448 1529 
Q 2069 2156 2228 2338 
Q 2531 2678 2651 2914 
Q 2772 3150 2772 3378 
Q 2772 3750 2511 3984 
Q 2250 4219 1831 4219 
Q 1534 4219 1204 4116 
Q 875 4013 500 3803 
L 500 4441 
Q 881 4594 1212 4672 
Q 1544 4750 1819 4750 
Q 2544 4750 2975 4387 
Q 3406 4025 3406 3419 
Q 3406 3131 3298 2873 
Q 3191 2616 2906 2266 
Q 2828 2175 2409 1742 
Q 1991 1309 1228 531 
z
" transform="scale(0.015625)"/>
       </defs>
       <use xlink:href="#DejaVuSans-30"/>
       <use xlink:href="#DejaVuSans-2e" x="63.623047"/>
       <use xlink:href="#DejaVuSans-32" x="95.410156"/>
      </g>
     </g>
    </g>
   </g>
   <g id="line2d_3">
    <path d="M 63.875 46.34 
L 63.875 8.64 
" clip-path="url(#p0b9a9b32b5)" style="fill: none; stroke-dasharray: 5.55,2.4; stroke-dashoffset: 0; stroke: #000000; stroke-width: 1.5"/>
   </g>
   <g id="patch_4">
    <path d="M 28.39 46.34 
L 28.39 8.64 
" style="fill: none; stroke: #000000; stroke-width: 0.8; stroke-linejoin: miter; stroke-linecap: square"/>
   </g>
   <g id="patch_5">
    <path d="M 28.39 46.34 
L 99.36 46.34 
" style="fill: none; stroke: #000000; stroke-width: 0.8; stroke-linejoin: miter; stroke-linecap: square"/>
   </g>
  </g>
  <g id="axes_2">
   <g id="patch_6">
    <path d="M 28.39 98.18 
L 99.36 98.18 
L 99.36 60.48 
L 28.39 60.48 
z
" style="fill: #ffffff"/>
   </g>
   <g id="patch_7">
    <path d="M 31.615909 98.18 
L 31.615909 96.031852 
L 34.841818 96.031852 
L 34.841818 98.18 
L 38.067727 98.18 
L 38.067727 98.18 
L 41.293636 98.18 
L 41.293636 97.105926 
L 44.519545 97.105926 
L 44.519545 97.105926 
L 47.745455 97.105926 
L 47.745455 95.494815 
L 50.971364 95.494815 
L 50.971364 92.272593 
L 54.197273 92.272593 
L 54.197273 92.80963 
L 57.423182 92.80963 
L 57.423182 87.976296 
L 60.649091 87.976296 
L 60.649091 80.457778 
L 63.875 80.457778 
L 63.875 68.642963 
L 67.100909 68.642963 
L 67.100909 76.161481 
L 70.326818 76.161481 
L 70.326818 85.291111 
L 73.552727 85.291111 
L 73.552727 90.661481 
L 76.778636 90.661481 
L 76.778636 96.031852 
L 80.004545 96.031852 
L 80.004545 94.957778 
L 83.230455 94.957778 
L 83.230455 97.642963 
L 86.456364 97.642963 
L 86.456364 97.105926 
L 89.682273 97.105926 
L 89.682273 98.18 
L 92.908182 98.18 
L 92.908182 98.18 
L 96.134091 98.18 
L 96.134091 98.18 
L 92.908182 98.18 
L 92.908182 98.18 
L 89.682273 98.18 
L 89.682273 98.18 
L 86.456364 98.18 
L 86.456364 98.18 
L 83.230455 98.18 
L 83.230455 98.18 
L 80.004545 98.18 
L 80.004545 98.18 
L 76.778636 98.18 
L 76.778636 98.18 
L 73.552727 98.18 
L 73.552727 98.18 
L 70.326818 98.18 
L 70.326818 98.18 
L 67.100909 98.18 
L 67.100909 98.18 
L 63.875 98.18 
L 63.875 98.18 
L 60.649091 98.18 
L 60.649091 98.18 
L 57.423182 98.18 
L 57.423182 98.18 
L 54.197273 98.18 
L 54.197273 98.18 
L 50.971364 98.18 
L 50.971364 98.18 
L 47.745455 98.18 
L 47.745455 98.18 
L 44.519545 98.18 
L 44.519545 98.18 
L 41.293636 98.18 
L 41.293636 98.18 
L 38.067727 98.18 
L 38.067727 98.18 
L 34.841818 98.18 
L 34.841818 98.18 
z
" clip-path="url(#pa51fc0c1d8)" style="fill: #e09b9b; stroke: #000000; stroke-linejoin: miter"/>
   </g>
   <g id="matplotlib.axis_3"/>
   <g id="matplotlib.axis_4">
    <g id="ytick_3">
     <g id="line2d_4">
      <g>
       <use xlink:href="#md242927469" x="28.39" y="98.18" style="stroke: #000000; stroke-width: 0.8"/>
      </g>
     </g>
     <g id="text_3">
      <!-- 0.0 -->
      <g transform="translate(8.6675 101.219375)scale(0.08 -0.08)">
       <use xlink:href="#DejaVuSans-30"/>
       <use xlink:href="#DejaVuSans-2e" x="63.623047"/>
       <use xlink:href="#DejaVuSans-30" x="95.410156"/>
      </g>
     </g>
    </g>
    <g id="ytick_4">
     <g id="line2d_5">
      <g>
       <use xlink:href="#md242927469" x="28.39" y="73.046667" style="stroke: #000000; stroke-width: 0.8"/>
      </g>
     </g>
     <g id="text_4">
      <!-- 0.2 -->
      <g transform="translate(8.6675 76.086042)scale(0.08 -0.08)">
       <use xlink:href="#DejaVuSans-30"/>
       <use xlink:href="#DejaVuSans-2e" x="63.623047"/>
       <use xlink:href="#DejaVuSans-32" x="95.410156"/>
      </g>
     </g>
    </g>
   </g>
   <g id="line2d_6">
    <path d="M 63.875 98.18 
L 63.875 60.48 
" clip-path="url(#pa51fc0c1d8)" style="fill: none; stroke-dasharray: 5.55,2.4; stroke-dashoffset: 0; stroke: #000000; stroke-width: 1.5"/>
   </g>
   <g id="patch_8">
    <path d="M 28.39 98.18 
L 28.39 60.48 
" style="fill: none; stroke: #000000; stroke-width: 0.8; stroke-linejoin: miter; stroke-linecap: square"/>
   </g>
   <g id="patch_9">
    <path d="M 28.39 98.18 
L 99.36 98.18 
" style="fill: none; stroke: #000000; stroke-width: 0.8; stroke-linejoin: miter; stroke-linecap: square"/>
   </g>
  </g>
  <g id="axes_3">
   <g id="patch_10">
    <path d="M 28.39 150.02 
L 99.36 150.02 
L 99.36 112.32 
L 28.39 112.32 
z
" style="fill: #ffffff"/>
   </g>
   <g id="patch_11">
    <path d="M 31.615909 150.02 
L 31.615909 148.977123 
L 34.841818 148.977123 
L 34.841818 149.498562 
L 38.067727 149.498562 
L 38.067727 148.977123 
L 41.293636 148.977123 
L 41.293636 150.02 
L 44.519545 150.02 
L 44.519545 148.977123 
L 47.745455 148.977123 
L 47.745455 147.934246 
L 50.971364 147.934246 
L 50.971364 145.327054 
L 54.197273 145.327054 
L 54.197273 145.848492 
L 57.423182 145.848492 
L 57.423182 137.505477 
L 60.649091 137.505477 
L 60.649091 132.291093 
L 63.875 132.291093 
L 63.875 120.298008 
L 67.100909 120.298008 
L 67.100909 124.990954 
L 70.326818 124.990954 
L 70.326818 141.155546 
L 73.552727 141.155546 
L 73.552727 142.198423 
L 76.778636 142.198423 
L 76.778636 147.412808 
L 80.004545 147.412808 
L 80.004545 145.848492 
L 83.230455 145.848492 
L 83.230455 148.455685 
L 86.456364 148.455685 
L 86.456364 150.02 
L 89.682273 150.02 
L 89.682273 150.02 
L 92.908182 150.02 
L 92.908182 150.02 
L 96.134091 150.02 
L 96.134091 150.02 
L 92.908182 150.02 
L 92.908182 150.02 
L 89.682273 150.02 
L 89.682273 150.02 
L 86.456364 150.02 
L 86.456364 150.02 
L 83.230455 150.02 
L 83.230455 150.02 
L 80.004545 150.02 
L 80.004545 150.02 
L 76.778636 150.02 
L 76.778636 150.02 
L 73.552727 150.02 
L 73.552727 150.02 
L 70.326818 150.02 
L 70.326818 150.02 
L 67.100909 150.02 
L 67.100909 150.02 
L 63.875 150.02 
L 63.875 150.02 
L 60.649091 150.02 
L 60.649091 150.02 
L 57.423182 150.02 
L 57.423182 150.02 
L 54.197273 150.02 
L 54.197273 150.02 
L 50.971364 150.02 
L 50.971364 150.02 
L 47.745455 150.02 
L 47.745455 150.02 
L 44.519545 150.02 
L 44.519545 150.02 
L 41.293636 150.02 
L 41.293636 150.02 
L 38.067727 150.02 
L 38.067727 150.02 
L 34.841818 150.02 
L 34.841818 150.02 
z
" clip-path="url(#pb59d6f4361)" style="fill: #f06464; stroke: #000000; stroke-linejoin: miter"/>
   </g>
   <g id="matplotlib.axis_5"/>
   <g id="matplotlib.axis_6">
    <g id="ytick_5">
     <g id="line2d_7">
      <g>
       <use xlink:href="#md242927469" x="28.39" y="150.02" style="stroke: #000000; stroke-width: 0.8"/>
      </g>
     </g>
     <g id="text_5">
      <!-- 0.0 -->
      <g transform="translate(8.6675 153.059375)scale(0.08 -0.08)">
       <use xlink:href="#DejaVuSans-30"/>
       <use xlink:href="#DejaVuSans-2e" x="63.623047"/>
       <use xlink:href="#DejaVuSans-30" x="95.410156"/>
      </g>
     </g>
    </g>
    <g id="ytick_6">
     <g id="line2d_8">
      <g>
       <use xlink:href="#md242927469" x="28.39" y="124.886667" style="stroke: #000000; stroke-width: 0.8"/>
      </g>
     </g>
     <g id="text_6">
      <!-- 0.2 -->
      <g transform="translate(8.6675 127.926042)scale(0.08 -0.08)">
       <use xlink:href="#DejaVuSans-30"/>
       <use xlink:href="#DejaVuSans-2e" x="63.623047"/>
       <use xlink:href="#DejaVuSans-32" x="95.410156"/>
      </g>
     </g>
    </g>
   </g>
   <g id="line2d_9">
    <path d="M 63.875 150.02 
L 63.875 112.32 
" clip-path="url(#pb59d6f4361)" style="fill: none; stroke-dasharray: 5.55,2.4; stroke-dashoffset: 0; stroke: #000000; stroke-width: 1.5"/>
   </g>
   <g id="patch_12">
    <path d="M 28.39 150.02 
L 28.39 112.32 
" style="fill: none; stroke: #000000; stroke-width: 0.8; stroke-linejoin: miter; stroke-linecap: square"/>
   </g>
   <g id="patch_13">
    <path d="M 28.39 150.02 
L 99.36 150.02 
" style="fill: none; stroke: #000000; stroke-width: 0.8; stroke-linejoin: miter; stroke-linecap: square"/>
   </g>
  </g>
  <g id="axes_4">
   <g id="patch_14">
    <path d="M 28.39 201.86 
L 99.36 201.86 
L 99.36 164.16 
L 28.39 164.16 
z
" style="fill: #ffffff"/>
   </g>
   <g id="patch_15">
    <path d="M 31.615909 201.86 
L 31.615909 200.30856 
L 34.841818 200.30856 
L 34.841818 201.86 
L 38.067727 201.86 
L 38.067727 201.86 
L 41.293636 201.86 
L 41.293636 201.86 
L 44.519545 201.86 
L 44.519545 198.757119 
L 47.745455 198.757119 
L 47.745455 197.981399 
L 50.971364 197.981399 
L 50.971364 197.205679 
L 54.197273 197.205679 
L 54.197273 194.102798 
L 57.423182 194.102798 
L 57.423182 188.672757 
L 60.649091 188.672757 
L 60.649091 185.569877 
L 63.875 185.569877 
L 63.875 165.401152 
L 67.100909 165.401152 
L 67.100909 180.915556 
L 70.326818 180.915556 
L 70.326818 190.999918 
L 73.552727 190.999918 
L 73.552727 197.205679 
L 76.778636 197.205679 
L 76.778636 201.08428 
L 80.004545 201.08428 
L 80.004545 201.08428 
L 83.230455 201.08428 
L 83.230455 201.86 
L 86.456364 201.86 
L 86.456364 201.08428 
L 89.682273 201.08428 
L 89.682273 201.86 
L 92.908182 201.86 
L 92.908182 201.86 
L 96.134091 201.86 
L 96.134091 201.86 
L 92.908182 201.86 
L 92.908182 201.86 
L 89.682273 201.86 
L 89.682273 201.86 
L 86.456364 201.86 
L 86.456364 201.86 
L 83.230455 201.86 
L 83.230455 201.86 
L 80.004545 201.86 
L 80.004545 201.86 
L 76.778636 201.86 
L 76.778636 201.86 
L 73.552727 201.86 
L 73.552727 201.86 
L 70.326818 201.86 
L 70.326818 201.86 
L 67.100909 201.86 
L 67.100909 201.86 
L 63.875 201.86 
L 63.875 201.86 
L 60.649091 201.86 
L 60.649091 201.86 
L 57.423182 201.86 
L 57.423182 201.86 
L 54.197273 201.86 
L 54.197273 201.86 
L 50.971364 201.86 
L 50.971364 201.86 
L 47.745455 201.86 
L 47.745455 201.86 
L 44.519545 201.86 
L 44.519545 201.86 
L 41.293636 201.86 
L 41.293636 201.86 
L 38.067727 201.86 
L 38.067727 201.86 
L 34.841818 201.86 
L 34.841818 201.86 
z
" clip-path="url(#p15526d67af)" style="fill: #ff2e2e; stroke: #000000; stroke-linejoin: miter"/>
   </g>
   <g id="matplotlib.axis_7"/>
   <g id="matplotlib.axis_8">
    <g id="ytick_7">
     <g id="line2d_10">
      <g>
       <use xlink:href="#md242927469" x="28.39" y="201.86" style="stroke: #000000; stroke-width: 0.8"/>
      </g>
     </g>
     <g id="text_7">
      <!-- 0.0 -->
      <g transform="translate(8.6675 204.899375)scale(0.08 -0.08)">
       <use xlink:href="#DejaVuSans-30"/>
       <use xlink:href="#DejaVuSans-2e" x="63.623047"/>
       <use xlink:href="#DejaVuSans-30" x="95.410156"/>
      </g>
     </g>
    </g>
    <g id="ytick_8">
     <g id="line2d_11">
      <g>
       <use xlink:href="#md242927469" x="28.39" y="176.726667" style="stroke: #000000; stroke-width: 0.8"/>
      </g>
     </g>
     <g id="text_8">
      <!-- 0.2 -->
      <g transform="translate(8.6675 179.766042)scale(0.08 -0.08)">
       <use xlink:href="#DejaVuSans-30"/>
       <use xlink:href="#DejaVuSans-2e" x="63.623047"/>
       <use xlink:href="#DejaVuSans-32" x="95.410156"/>
      </g>
     </g>
    </g>
   </g>
   <g id="line2d_12">
    <path d="M 63.875 201.86 
L 63.875 164.16 
" clip-path="url(#p15526d67af)" style="fill: none; stroke-dasharray: 5.55,2.4; stroke-dashoffset: 0; stroke: #000000; stroke-width: 1.5"/>
   </g>
   <g id="patch_16">
    <path d="M 28.39 201.86 
L 28.39 164.16 
" style="fill: none; stroke: #000000; stroke-width: 0.8; stroke-linejoin: miter; stroke-linecap: square"/>
   </g>
   <g id="patch_17">
    <path d="M 28.39 201.86 
L 99.36 201.86 
" style="fill: none; stroke: #000000; stroke-width: 0.8; stroke-linejoin: miter; stroke-linecap: square"/>
   </g>
  </g>
 </g>
 <defs>
  <clipPath id="p0b9a9b32b5">
   <rect x="28.39" y="8.64" width="70.97" height="37.7"/>
  </clipPath>
  <clipPath id="pa51fc0c1d8">
   <rect x="28.39" y="60.48" width="70.97" height="37.7"/>
  </clipPath>
  <clipPath id="pb59d6f4361">
   <rect x="28.39" y="112.32" width="70.97" height="37.7"/>
  </clipPath>
  <clipPath id="p15526d67af">
   <rect x="28.39" y="164.16" width="70.97" height="37.7"/>
  </clipPath>
 </defs>
</svg>
