<?xml version="1.0" encoding="utf-8" standalone="no"?>
<!DOCTYPE svg PUBLIC "-//W3C//DTD SVG 1.1//EN"
  "http://www.w3.org/Graphics/SVG/1.1/DTD/svg11.dtd">
<svg xmlns:xlink="http://www.w3.org/1999/xlink" width="108pt" height="216pt" viewBox="0 0 108 216" xmlns="http://www.w3.org/2000/svg" version="1.1">
 <metadata>
  <rdf:RDF xmlns:dc="http://purl.org/dc/elements/1.1/" xmlns:cc="http://creativecommons.org/ns#" xmlns:rdf="http://www.w3.org/1999/02/22-rdf-syntax-ns#">
   <cc:Work>
    <dc:type rdf:resource="http://purl.org/dc/dcmitype/StillImage"/>
    <dc:date>2022-12-05T08:32:54.356957</dc:date>
    <dc:format>image/svg+xml</dc:format>
    <dc:creator>
     <cc:Agent>
      <dc:title>Matplotlib v3.5.1, https://matplotlib.org/</dc:title>
     </cc:Agent>
    </dc:creator>
   </cc:Work>
  </rdf:RDF>
 </metadata>
 <defs>
  <style type="text/css">*{stroke-linejoin: round; stroke-linecap: butt}</style>
 </defs>
 <g id="figure_1">
  <g id="patch_1">
   <path d="M 0 216 
L 108 216 
L 108 0 
L 0 0 
L 0 216 
z
" style="fill: none"/>
  </g>
  <g id="axes_1">
   <g id="patch_2">
    <path d="M 28.39 46.34 
L 99.36 46.34 
L 99.36 8.64 
L 28.39 8.64 
z
" style="fill: #ffffff"/>
   </g>
   <g id="patch_3">
    <path d="M 31.615909 46.34 
L 31.615909 45.350499 
L 34.841818 45.350499 
L 34.841818 46.34 
L 38.067727 46.34 
L 38.067727 46.34 
L 41.293636 46.34 
L 41.293636 45.350499 
L 44.519545 45.350499 
L 44.519545 45.350499 
L 47.745455 45.350499 
L 47.745455 44.360997 
L 50.971364 44.360997 
L 50.971364 43.371496 
L 54.197273 43.371496 
L 54.197273 41.392493 
L 57.423182 41.392493 
L 57.423182 33.476483 
L 60.649091 33.476483 
L 60.649091 21.602467 
L 63.875 21.602467 
L 63.875 14.675958 
L 67.100909 14.675958 
L 67.100909 32.486982 
L 70.326818 32.486982 
L 70.326818 29.518478 
L 73.552727 29.518478 
L 73.552727 42.381995 
L 76.778636 42.381995 
L 76.778636 42.381995 
L 80.004545 42.381995 
L 80.004545 42.381995 
L 83.230455 42.381995 
L 83.230455 45.350499 
L 86.456364 45.350499 
L 86.456364 46.34 
L 89.682273 46.34 
L 89.682273 46.34 
L 92.908182 46.34 
L 92.908182 46.34 
L 96.134091 46.34 
L 96.134091 46.34 
L 92.908182 46.34 
L 92.908182 46.34 
L 89.682273 46.34 
L 89.682273 46.34 
L 86.456364 46.34 
L 86.456364 46.34 
L 83.230455 46.34 
L 83.230455 46.34 
L 80.004545 46.34 
L 80.004545 46.34 
L 76.778636 46.34 
L 76.778636 46.34 
L 73.552727 46.34 
L 73.552727 46.34 
L 70.326818 46.34 
L 70.326818 46.34 
L 67.100909 46.34 
L 67.100909 46.34 
L 63.875 46.34 
L 63.875 46.34 
L 60.649091 46.34 
L 60.649091 46.34 
L 57.423182 46.34 
L 57.423182 46.34 
L 54.197273 46.34 
L 54.197273 46.34 
L 50.971364 46.34 
L 50.971364 46.34 
L 47.745455 46.34 
L 47.745455 46.34 
L 44.519545 46.34 
L 44.519545 46.34 
L 41.293636 46.34 
L 41.293636 46.34 
L 38.067727 46.34 
L 38.067727 46.34 
L 34.841818 46.34 
L 34.841818 46.34 
z
" clip-path="url(#p38a74c92b0)" style="fill: #d1d1d1; stroke: #000000; stroke-linejoin: miter"/>
   </g>
   <g id="matplotlib.axis_1"/>
   <g id="matplotlib.axis_2">
    <g id="ytick_1">
     <g id="line2d_1">
      <defs>
       <path id="m398e137137" d="M 0 0 
L -3.5 0 
" style="stroke: #000000; stroke-width: 0.8"/>
      </defs>
      <g>
       <use xlink:href="#m398e137137" x="28.39" y="46.34" style="stroke: #000000; stroke-width: 0.8"/>
      </g>
     </g>
     <g id="text_1">
      <!-- 0.0 -->
      <g transform="translate(8.6675 49.379375)scale(0.08 -0.08)">
       <defs>
        <path id="DejaVuSans-30" d="M 2034 4250 
Q 1547 4250 1301 3770 
Q 1056 3291 1056 2328 
Q 1056 1369 1301 889 
Q 1547 409 2034 409 
Q 2525 409 2770 889 
Q 3016 1369 3016 2328 
Q 3016 3291 2770 3770 
Q 2525 4250 2034 4250 
z
M 2034 4750 
Q 2819 4750 3233 4129 
Q 3647 3509 3647 2328 
Q 3647 1150 3233 529 
Q 2819 -91 2034 -91 
Q 1250 -91 836 529 
Q 422 1150 422 2328 
Q 422 3509 836 4129 
Q 1250 4750 2034 4750 
z
" transform="scale(0.015625)"/>
        <path id="DejaVuSans-2e" d="M 684 794 
L 1344 794 
L 1344 0 
L 684 0 
L 684 794 
z
" transform="scale(0.015625)"/>
       </defs>
       <use xlink:href="#DejaVuSans-30"/>
       <use xlink:href="#DejaVuSans-2e" x="63.623047"/>
       <use xlink:href="#DejaVuSans-30" x="95.410156"/>
      </g>
     </g>
    </g>
    <g id="ytick_2">
     <g id="line2d_2">
      <g>
       <use xlink:href="#m398e137137" x="28.39" y="21.206667" style="stroke: #000000; stroke-width: 0.8"/>
      </g>
     </g>
     <g id="text_2">
      <!-- 0.2 -->
      <g transform="translate(8.6675 24.246042)scale(0.08 -0.08)">
       <defs>
        <path id="DejaVuSans-32" d="M 1228 531 
L 3431 531 
L 3431 0 
L 469 0 
L 469 531 
Q 828 903 1448 1529 
Q 2069 2156 2228 2338 
Q 2531 2678 2651 2914 
Q 2772 3150 2772 3378 
Q 2772 3750 2511 3984 
Q 2250 4219 1831 4219 
Q 1534 4219 1204 4116 
Q 875 4013 500 3803 
L 500 4441 
Q 881 4594 1212 4672 
Q 1544 4750 1819 4750 
Q 2544 4750 2975 4387 
Q 3406 4025 3406 3419 
Q 3406 3131 3298 2873 
Q 3191 2616 2906 2266 
Q 2828 2175 2409 1742 
Q 1991 1309 1228 531 
z
" transform="scale(0.015625)"/>
       </defs>
       <use xlink:href="#DejaVuSans-30"/>
       <use xlink:href="#DejaVuSans-2e" x="63.623047"/>
       <use xlink:href="#DejaVuSans-32" x="95.410156"/>
      </g>
     </g>
    </g>
   </g>
   <g id="line2d_3">
    <path d="M 63.875 46.34 
L 63.875 8.64 
" clip-path="url(#p38a74c92b0)" style="fill: none; stroke-dasharray: 5.55,2.4; stroke-dashoffset: 0; stroke: #000000; stroke-width: 1.5"/>
   </g>
   <g id="patch_4">
    <path d="M 28.39 46.34 
L 28.39 8.64 
" style="fill: none; stroke: #000000; stroke-width: 0.8; stroke-linejoin: miter; stroke-linecap: square"/>
   </g>
   <g id="patch_5">
    <path d="M 28.39 46.34 
L 99.36 46.34 
" style="fill: none; stroke: #000000; stroke-width: 0.8; stroke-linejoin: miter; stroke-linecap: square"/>
   </g>
  </g>
  <g id="axes_2">
   <g id="patch_6">
    <path d="M 28.39 98.18 
L 99.36 98.18 
L 99.36 60.48 
L 28.39 60.48 
z
" style="fill: #ffffff"/>
   </g>
   <g id="patch_7">
    <path d="M 31.615909 98.18 
L 31.615909 97.220712 
L 34.841818 97.220712 
L 34.841818 98.18 
L 38.067727 98.18 
L 38.067727 98.18 
L 41.293636 98.18 
L 41.293636 98.18 
L 44.519545 98.18 
L 44.519545 97.220712 
L 47.745455 97.220712 
L 47.745455 93.383562 
L 50.971364 93.383562 
L 50.971364 92.424275 
L 54.197273 92.424275 
L 54.197273 94.34285 
L 57.423182 94.34285 
L 57.423182 89.546412 
L 60.649091 89.546412 
L 60.649091 88.587125 
L 63.875 88.587125 
L 63.875 60.767786 
L 67.100909 60.767786 
L 67.100909 67.482799 
L 70.326818 67.482799 
L 70.326818 87.627837 
L 73.552727 87.627837 
L 73.552727 92.424275 
L 76.778636 92.424275 
L 76.778636 95.302137 
L 80.004545 95.302137 
L 80.004545 97.220712 
L 83.230455 97.220712 
L 83.230455 97.220712 
L 86.456364 97.220712 
L 86.456364 96.261425 
L 89.682273 96.261425 
L 89.682273 98.18 
L 92.908182 98.18 
L 92.908182 98.18 
L 96.134091 98.18 
L 96.134091 98.18 
L 92.908182 98.18 
L 92.908182 98.18 
L 89.682273 98.18 
L 89.682273 98.18 
L 86.456364 98.18 
L 86.456364 98.18 
L 83.230455 98.18 
L 83.230455 98.18 
L 80.004545 98.18 
L 80.004545 98.18 
L 76.778636 98.18 
L 76.778636 98.18 
L 73.552727 98.18 
L 73.552727 98.18 
L 70.326818 98.18 
L 70.326818 98.18 
L 67.100909 98.18 
L 67.100909 98.18 
L 63.875 98.18 
L 63.875 98.18 
L 60.649091 98.18 
L 60.649091 98.18 
L 57.423182 98.18 
L 57.423182 98.18 
L 54.197273 98.18 
L 54.197273 98.18 
L 50.971364 98.18 
L 50.971364 98.18 
L 47.745455 98.18 
L 47.745455 98.18 
L 44.519545 98.18 
L 44.519545 98.18 
L 41.293636 98.18 
L 41.293636 98.18 
L 38.067727 98.18 
L 38.067727 98.18 
L 34.841818 98.18 
L 34.841818 98.18 
z
" clip-path="url(#p59d9835c3c)" style="fill: #e09b9b; stroke: #000000; stroke-linejoin: miter"/>
   </g>
   <g id="matplotlib.axis_3"/>
   <g id="matplotlib.axis_4">
    <g id="ytick_3">
     <g id="line2d_4">
      <g>
       <use xlink:href="#m398e137137" x="28.39" y="98.18" style="stroke: #000000; stroke-width: 0.8"/>
      </g>
     </g>
     <g id="text_3">
      <!-- 0.0 -->
      <g transform="translate(8.6675 101.219375)scale(0.08 -0.08)">
       <use xlink:href="#DejaVuSans-30"/>
       <use xlink:href="#DejaVuSans-2e" x="63.623047"/>
       <use xlink:href="#DejaVuSans-30" x="95.410156"/>
      </g>
     </g>
    </g>
    <g id="ytick_4">
     <g id="line2d_5">
      <g>
       <use xlink:href="#m398e137137" x="28.39" y="73.046667" style="stroke: #000000; stroke-width: 0.8"/>
      </g>
     </g>
     <g id="text_4">
      <!-- 0.2 -->
      <g transform="translate(8.6675 76.086042)scale(0.08 -0.08)">
       <use xlink:href="#DejaVuSans-30"/>
       <use xlink:href="#DejaVuSans-2e" x="63.623047"/>
       <use xlink:href="#DejaVuSans-32" x="95.410156"/>
      </g>
     </g>
    </g>
   </g>
   <g id="line2d_6">
    <path d="M 63.875 98.18 
L 63.875 60.48 
" clip-path="url(#p59d9835c3c)" style="fill: none; stroke-dasharray: 5.55,2.4; stroke-dashoffset: 0; stroke: #000000; stroke-width: 1.5"/>
   </g>
   <g id="patch_8">
    <path d="M 28.39 98.18 
L 28.39 60.48 
" style="fill: none; stroke: #000000; stroke-width: 0.8; stroke-linejoin: miter; stroke-linecap: square"/>
   </g>
   <g id="patch_9">
    <path d="M 28.39 98.18 
L 99.36 98.18 
" style="fill: none; stroke: #000000; stroke-width: 0.8; stroke-linejoin: miter; stroke-linecap: square"/>
   </g>
  </g>
  <g id="axes_3">
   <g id="patch_10">
    <path d="M 28.39 150.02 
L 99.36 150.02 
L 99.36 112.32 
L 28.39 112.32 
z
" style="fill: #ffffff"/>
   </g>
   <g id="patch_11">
    <path d="M 31.615909 150.02 
L 31.615909 148.439287 
L 34.841818 148.439287 
L 34.841818 149.229644 
L 38.067727 149.229644 
L 38.067727 150.02 
L 41.293636 150.02 
L 41.293636 149.229644 
L 44.519545 149.229644 
L 44.519545 148.439287 
L 47.745455 148.439287 
L 47.745455 148.439287 
L 50.971364 148.439287 
L 50.971364 146.068218 
L 54.197273 146.068218 
L 54.197273 146.858574 
L 57.423182 146.858574 
L 57.423182 140.535723 
L 60.649091 140.535723 
L 60.649091 135.003229 
L 63.875 135.003229 
L 63.875 120.776813 
L 67.100909 120.776813 
L 67.100909 127.890021 
L 70.326818 127.890021 
L 70.326818 131.841803 
L 73.552727 131.841803 
L 73.552727 142.906792 
L 76.778636 142.906792 
L 76.778636 145.277862 
L 80.004545 145.277862 
L 80.004545 146.858574 
L 83.230455 146.858574 
L 83.230455 149.229644 
L 86.456364 149.229644 
L 86.456364 148.439287 
L 89.682273 148.439287 
L 89.682273 149.229644 
L 92.908182 149.229644 
L 92.908182 150.02 
L 96.134091 150.02 
L 96.134091 150.02 
L 92.908182 150.02 
L 92.908182 150.02 
L 89.682273 150.02 
L 89.682273 150.02 
L 86.456364 150.02 
L 86.456364 150.02 
L 83.230455 150.02 
L 83.230455 150.02 
L 80.004545 150.02 
L 80.004545 150.02 
L 76.778636 150.02 
L 76.778636 150.02 
L 73.552727 150.02 
L 73.552727 150.02 
L 70.326818 150.02 
L 70.326818 150.02 
L 67.100909 150.02 
L 67.100909 150.02 
L 63.875 150.02 
L 63.875 150.02 
L 60.649091 150.02 
L 60.649091 150.02 
L 57.423182 150.02 
L 57.423182 150.02 
L 54.197273 150.02 
L 54.197273 150.02 
L 50.971364 150.02 
L 50.971364 150.02 
L 47.745455 150.02 
L 47.745455 150.02 
L 44.519545 150.02 
L 44.519545 150.02 
L 41.293636 150.02 
L 41.293636 150.02 
L 38.067727 150.02 
L 38.067727 150.02 
L 34.841818 150.02 
L 34.841818 150.02 
z
" clip-path="url(#p49ac5ebd03)" style="fill: #f06464; stroke: #000000; stroke-linejoin: miter"/>
   </g>
   <g id="matplotlib.axis_5"/>
   <g id="matplotlib.axis_6">
    <g id="ytick_5">
     <g id="line2d_7">
      <g>
       <use xlink:href="#m398e137137" x="28.39" y="150.02" style="stroke: #000000; stroke-width: 0.8"/>
      </g>
     </g>
     <g id="text_5">
      <!-- 0.0 -->
      <g transform="translate(8.6675 153.059375)scale(0.08 -0.08)">
       <use xlink:href="#DejaVuSans-30"/>
       <use xlink:href="#DejaVuSans-2e" x="63.623047"/>
       <use xlink:href="#DejaVuSans-30" x="95.410156"/>
      </g>
     </g>
    </g>
    <g id="ytick_6">
     <g id="line2d_8">
      <g>
       <use xlink:href="#m398e137137" x="28.39" y="124.886667" style="stroke: #000000; stroke-width: 0.8"/>
      </g>
     </g>
     <g id="text_6">
      <!-- 0.2 -->
      <g transform="translate(8.6675 127.926042)scale(0.08 -0.08)">
       <use xlink:href="#DejaVuSans-30"/>
       <use xlink:href="#DejaVuSans-2e" x="63.623047"/>
       <use xlink:href="#DejaVuSans-32" x="95.410156"/>
      </g>
     </g>
    </g>
   </g>
   <g id="line2d_9">
    <path d="M 63.875 150.02 
L 63.875 112.32 
" clip-path="url(#p49ac5ebd03)" style="fill: none; stroke-dasharray: 5.55,2.4; stroke-dashoffset: 0; stroke: #000000; stroke-width: 1.5"/>
   </g>
   <g id="patch_12">
    <path d="M 28.39 150.02 
L 28.39 112.32 
" style="fill: none; stroke: #000000; stroke-width: 0.8; stroke-linejoin: miter; stroke-linecap: square"/>
   </g>
   <g id="patch_13">
    <path d="M 28.39 150.02 
L 99.36 150.02 
" style="fill: none; stroke: #000000; stroke-width: 0.8; stroke-linejoin: miter; stroke-linecap: square"/>
   </g>
  </g>
  <g id="axes_4">
   <g id="patch_14">
    <path d="M 28.39 201.86 
L 99.36 201.86 
L 99.36 164.16 
L 28.39 164.16 
z
" style="fill: #ffffff"/>
   </g>
   <g id="patch_15">
    <path d="M 31.615909 201.86 
L 31.615909 201.86 
L 34.841818 201.86 
L 34.841818 201.86 
L 38.067727 201.86 
L 38.067727 200.854667 
L 41.293636 200.854667 
L 41.293636 200.854667 
L 44.519545 200.854667 
L 44.519545 198.844 
L 47.745455 198.844 
L 47.745455 198.844 
L 50.971364 198.844 
L 50.971364 195.828 
L 54.197273 195.828 
L 54.197273 197.838667 
L 57.423182 197.838667 
L 57.423182 191.806667 
L 60.649091 191.806667 
L 60.649091 185.774667 
L 63.875 185.774667 
L 63.875 179.742667 
L 67.100909 179.742667 
L 67.100909 174.716 
L 70.326818 174.716 
L 70.326818 185.774667 
L 73.552727 185.774667 
L 73.552727 191.806667 
L 76.778636 191.806667 
L 76.778636 198.844 
L 80.004545 198.844 
L 80.004545 200.854667 
L 83.230455 200.854667 
L 83.230455 200.854667 
L 86.456364 200.854667 
L 86.456364 200.854667 
L 89.682273 200.854667 
L 89.682273 201.86 
L 92.908182 201.86 
L 92.908182 201.86 
L 96.134091 201.86 
L 96.134091 201.86 
L 92.908182 201.86 
L 92.908182 201.86 
L 89.682273 201.86 
L 89.682273 201.86 
L 86.456364 201.86 
L 86.456364 201.86 
L 83.230455 201.86 
L 83.230455 201.86 
L 80.004545 201.86 
L 80.004545 201.86 
L 76.778636 201.86 
L 76.778636 201.86 
L 73.552727 201.86 
L 73.552727 201.86 
L 70.326818 201.86 
L 70.326818 201.86 
L 67.100909 201.86 
L 67.100909 201.86 
L 63.875 201.86 
L 63.875 201.86 
L 60.649091 201.86 
L 60.649091 201.86 
L 57.423182 201.86 
L 57.423182 201.86 
L 54.197273 201.86 
L 54.197273 201.86 
L 50.971364 201.86 
L 50.971364 201.86 
L 47.745455 201.86 
L 47.745455 201.86 
L 44.519545 201.86 
L 44.519545 201.86 
L 41.293636 201.86 
L 41.293636 201.86 
L 38.067727 201.86 
L 38.067727 201.86 
L 34.841818 201.86 
L 34.841818 201.86 
z
" clip-path="url(#p7a4f16c3e2)" style="fill: #ff2e2e; stroke: #000000; stroke-linejoin: miter"/>
   </g>
   <g id="matplotlib.axis_7"/>
   <g id="matplotlib.axis_8">
    <g id="ytick_7">
     <g id="line2d_10">
      <g>
       <use xlink:href="#m398e137137" x="28.39" y="201.86" style="stroke: #000000; stroke-width: 0.8"/>
      </g>
     </g>
     <g id="text_7">
      <!-- 0.0 -->
      <g transform="translate(8.6675 204.899375)scale(0.08 -0.08)">
       <use xlink:href="#DejaVuSans-30"/>
       <use xlink:href="#DejaVuSans-2e" x="63.623047"/>
       <use xlink:href="#DejaVuSans-30" x="95.410156"/>
      </g>
     </g>
    </g>
    <g id="ytick_8">
     <g id="line2d_11">
      <g>
       <use xlink:href="#m398e137137" x="28.39" y="176.726667" style="stroke: #000000; stroke-width: 0.8"/>
      </g>
     </g>
     <g id="text_8">
      <!-- 0.2 -->
      <g transform="translate(8.6675 179.766042)scale(0.08 -0.08)">
       <use xlink:href="#DejaVuSans-30"/>
       <use xlink:href="#DejaVuSans-2e" x="63.623047"/>
       <use xlink:href="#DejaVuSans-32" x="95.410156"/>
      </g>
     </g>
    </g>
   </g>
   <g id="line2d_12">
    <path d="M 63.875 201.86 
L 63.875 164.16 
" clip-path="url(#p7a4f16c3e2)" style="fill: none; stroke-dasharray: 5.55,2.4; stroke-dashoffset: 0; stroke: #000000; stroke-width: 1.5"/>
   </g>
   <g id="patch_16">
    <path d="M 28.39 201.86 
L 28.39 164.16 
" style="fill: none; stroke: #000000; stroke-width: 0.8; stroke-linejoin: miter; stroke-linecap: square"/>
   </g>
   <g id="patch_17">
    <path d="M 28.39 201.86 
L 99.36 201.86 
" style="fill: none; stroke: #000000; stroke-width: 0.8; stroke-linejoin: miter; stroke-linecap: square"/>
   </g>
  </g>
 </g>
 <defs>
  <clipPath id="p38a74c92b0">
   <rect x="28.39" y="8.64" width="70.97" height="37.7"/>
  </clipPath>
  <clipPath id="p59d9835c3c">
   <rect x="28.39" y="60.48" width="70.97" height="37.7"/>
  </clipPath>
  <clipPath id="p49ac5ebd03">
   <rect x="28.39" y="112.32" width="70.97" height="37.7"/>
  </clipPath>
  <clipPath id="p7a4f16c3e2">
   <rect x="28.39" y="164.16" width="70.97" height="37.7"/>
  </clipPath>
 </defs>
</svg>
