<?xml version="1.0" encoding="utf-8" standalone="no"?>
<!DOCTYPE svg PUBLIC "-//W3C//DTD SVG 1.1//EN"
  "http://www.w3.org/Graphics/SVG/1.1/DTD/svg11.dtd">
<svg xmlns:xlink="http://www.w3.org/1999/xlink" width="144pt" height="144pt" viewBox="0 0 144 144" xmlns="http://www.w3.org/2000/svg" version="1.1">
 <metadata>
  <rdf:RDF xmlns:dc="http://purl.org/dc/elements/1.1/" xmlns:cc="http://creativecommons.org/ns#" xmlns:rdf="http://www.w3.org/1999/02/22-rdf-syntax-ns#">
   <cc:Work>
    <dc:type rdf:resource="http://purl.org/dc/dcmitype/StillImage"/>
    <dc:date>2022-12-05T06:24:43.056129</dc:date>
    <dc:format>image/svg+xml</dc:format>
    <dc:creator>
     <cc:Agent>
      <dc:title>Matplotlib v3.5.1, https://matplotlib.org/</dc:title>
     </cc:Agent>
    </dc:creator>
   </cc:Work>
  </rdf:RDF>
 </metadata>
 <defs>
  <style type="text/css">*{stroke-linejoin: round; stroke-linecap: butt}</style>
 </defs>
 <g id="figure_1">
  <g id="patch_1">
   <path d="M 0 144 
L 144 144 
L 144 0 
L 0 0 
L 0 144 
z
" style="fill: none"/>
  </g>
  <g id="axes_1">
   <g id="patch_2">
    <path d="M 41.39 106.36 
L 119.16 106.36 
L 119.16 22.64 
L 41.39 22.64 
z
" style="fill: #ffffff"/>
   </g>
   <g id="matplotlib.axis_1">
    <g id="xtick_1">
     <g id="line2d_1">
      <defs>
       <path id="m05d7e5ce37" d="M 0 0 
L 0 3.5 
" style="stroke: #000000; stroke-width: 0.8"/>
      </defs>
      <g>
       <use xlink:href="#m05d7e5ce37" x="44.925" y="106.36" style="stroke: #000000; stroke-width: 0.8"/>
      </g>
     </g>
     <g id="text_1">
      <!-- 0 -->
      <g transform="translate(42.38 119.43875)scale(0.08 -0.08)">
       <defs>
        <path id="DejaVuSans-30" d="M 2034 4250 
Q 1547 4250 1301 3770 
Q 1056 3291 1056 2328 
Q 1056 1369 1301 889 
Q 1547 409 2034 409 
Q 2525 409 2770 889 
Q 3016 1369 3016 2328 
Q 3016 3291 2770 3770 
Q 2525 4250 2034 4250 
z
M 2034 4750 
Q 2819 4750 3233 4129 
Q 3647 3509 3647 2328 
Q 3647 1150 3233 529 
Q 2819 -91 2034 -91 
Q 1250 -91 836 529 
Q 422 1150 422 2328 
Q 422 3509 836 4129 
Q 1250 4750 2034 4750 
z
" transform="scale(0.015625)"/>
       </defs>
       <use xlink:href="#DejaVuSans-30"/>
      </g>
     </g>
    </g>
    <g id="xtick_2">
     <g id="line2d_2">
      <g>
       <use xlink:href="#m05d7e5ce37" x="95.497246" y="106.36" style="stroke: #000000; stroke-width: 0.8"/>
      </g>
     </g>
     <g id="text_2">
      <!-- 1 -->
      <g transform="translate(92.952246 119.43875)scale(0.08 -0.08)">
       <defs>
        <path id="DejaVuSans-31" d="M 794 531 
L 1825 531 
L 1825 4091 
L 703 3866 
L 703 4441 
L 1819 4666 
L 2450 4666 
L 2450 531 
L 3481 531 
L 3481 0 
L 794 0 
L 794 531 
z
" transform="scale(0.015625)"/>
       </defs>
       <use xlink:href="#DejaVuSans-31"/>
      </g>
     </g>
    </g>
    <g id="text_3">
     <!-- Reaction time (s) -->
     <g transform="translate(46.1175 131.18125)scale(0.08 -0.08)">
      <defs>
       <path id="DejaVuSans-52" d="M 2841 2188 
Q 3044 2119 3236 1894 
Q 3428 1669 3622 1275 
L 4263 0 
L 3584 0 
L 2988 1197 
Q 2756 1666 2539 1819 
Q 2322 1972 1947 1972 
L 1259 1972 
L 1259 0 
L 628 0 
L 628 4666 
L 2053 4666 
Q 2853 4666 3247 4331 
Q 3641 3997 3641 3322 
Q 3641 2881 3436 2590 
Q 3231 2300 2841 2188 
z
M 1259 4147 
L 1259 2491 
L 2053 2491 
Q 2509 2491 2742 2702 
Q 2975 2913 2975 3322 
Q 2975 3731 2742 3939 
Q 2509 4147 2053 4147 
L 1259 4147 
z
" transform="scale(0.015625)"/>
       <path id="DejaVuSans-65" d="M 3597 1894 
L 3597 1613 
L 953 1613 
Q 991 1019 1311 708 
Q 1631 397 2203 397 
Q 2534 397 2845 478 
Q 3156 559 3463 722 
L 3463 178 
Q 3153 47 2828 -22 
Q 2503 -91 2169 -91 
Q 1331 -91 842 396 
Q 353 884 353 1716 
Q 353 2575 817 3079 
Q 1281 3584 2069 3584 
Q 2775 3584 3186 3129 
Q 3597 2675 3597 1894 
z
M 3022 2063 
Q 3016 2534 2758 2815 
Q 2500 3097 2075 3097 
Q 1594 3097 1305 2825 
Q 1016 2553 972 2059 
L 3022 2063 
z
" transform="scale(0.015625)"/>
       <path id="DejaVuSans-61" d="M 2194 1759 
Q 1497 1759 1228 1600 
Q 959 1441 959 1056 
Q 959 750 1161 570 
Q 1363 391 1709 391 
Q 2188 391 2477 730 
Q 2766 1069 2766 1631 
L 2766 1759 
L 2194 1759 
z
M 3341 1997 
L 3341 0 
L 2766 0 
L 2766 531 
Q 2569 213 2275 61 
Q 1981 -91 1556 -91 
Q 1019 -91 701 211 
Q 384 513 384 1019 
Q 384 1609 779 1909 
Q 1175 2209 1959 2209 
L 2766 2209 
L 2766 2266 
Q 2766 2663 2505 2880 
Q 2244 3097 1772 3097 
Q 1472 3097 1187 3025 
Q 903 2953 641 2809 
L 641 3341 
Q 956 3463 1253 3523 
Q 1550 3584 1831 3584 
Q 2591 3584 2966 3190 
Q 3341 2797 3341 1997 
z
" transform="scale(0.015625)"/>
       <path id="DejaVuSans-63" d="M 3122 3366 
L 3122 2828 
Q 2878 2963 2633 3030 
Q 2388 3097 2138 3097 
Q 1578 3097 1268 2742 
Q 959 2388 959 1747 
Q 959 1106 1268 751 
Q 1578 397 2138 397 
Q 2388 397 2633 464 
Q 2878 531 3122 666 
L 3122 134 
Q 2881 22 2623 -34 
Q 2366 -91 2075 -91 
Q 1284 -91 818 406 
Q 353 903 353 1747 
Q 353 2603 823 3093 
Q 1294 3584 2113 3584 
Q 2378 3584 2631 3529 
Q 2884 3475 3122 3366 
z
" transform="scale(0.015625)"/>
       <path id="DejaVuSans-74" d="M 1172 4494 
L 1172 3500 
L 2356 3500 
L 2356 3053 
L 1172 3053 
L 1172 1153 
Q 1172 725 1289 603 
Q 1406 481 1766 481 
L 2356 481 
L 2356 0 
L 1766 0 
Q 1100 0 847 248 
Q 594 497 594 1153 
L 594 3053 
L 172 3053 
L 172 3500 
L 594 3500 
L 594 4494 
L 1172 4494 
z
" transform="scale(0.015625)"/>
       <path id="DejaVuSans-69" d="M 603 3500 
L 1178 3500 
L 1178 0 
L 603 0 
L 603 3500 
z
M 603 4863 
L 1178 4863 
L 1178 4134 
L 603 4134 
L 603 4863 
z
" transform="scale(0.015625)"/>
       <path id="DejaVuSans-6f" d="M 1959 3097 
Q 1497 3097 1228 2736 
Q 959 2375 959 1747 
Q 959 1119 1226 758 
Q 1494 397 1959 397 
Q 2419 397 2687 759 
Q 2956 1122 2956 1747 
Q 2956 2369 2687 2733 
Q 2419 3097 1959 3097 
z
M 1959 3584 
Q 2709 3584 3137 3096 
Q 3566 2609 3566 1747 
Q 3566 888 3137 398 
Q 2709 -91 1959 -91 
Q 1206 -91 779 398 
Q 353 888 353 1747 
Q 353 2609 779 3096 
Q 1206 3584 1959 3584 
z
" transform="scale(0.015625)"/>
       <path id="DejaVuSans-6e" d="M 3513 2113 
L 3513 0 
L 2938 0 
L 2938 2094 
Q 2938 2591 2744 2837 
Q 2550 3084 2163 3084 
Q 1697 3084 1428 2787 
Q 1159 2491 1159 1978 
L 1159 0 
L 581 0 
L 581 3500 
L 1159 3500 
L 1159 2956 
Q 1366 3272 1645 3428 
Q 1925 3584 2291 3584 
Q 2894 3584 3203 3211 
Q 3513 2838 3513 2113 
z
" transform="scale(0.015625)"/>
       <path id="DejaVuSans-20" transform="scale(0.015625)"/>
       <path id="DejaVuSans-6d" d="M 3328 2828 
Q 3544 3216 3844 3400 
Q 4144 3584 4550 3584 
Q 5097 3584 5394 3201 
Q 5691 2819 5691 2113 
L 5691 0 
L 5113 0 
L 5113 2094 
Q 5113 2597 4934 2840 
Q 4756 3084 4391 3084 
Q 3944 3084 3684 2787 
Q 3425 2491 3425 1978 
L 3425 0 
L 2847 0 
L 2847 2094 
Q 2847 2600 2669 2842 
Q 2491 3084 2119 3084 
Q 1678 3084 1418 2786 
Q 1159 2488 1159 1978 
L 1159 0 
L 581 0 
L 581 3500 
L 1159 3500 
L 1159 2956 
Q 1356 3278 1631 3431 
Q 1906 3584 2284 3584 
Q 2666 3584 2933 3390 
Q 3200 3197 3328 2828 
z
" transform="scale(0.015625)"/>
       <path id="DejaVuSans-28" d="M 1984 4856 
Q 1566 4138 1362 3434 
Q 1159 2731 1159 2009 
Q 1159 1288 1364 580 
Q 1569 -128 1984 -844 
L 1484 -844 
Q 1016 -109 783 600 
Q 550 1309 550 2009 
Q 550 2706 781 3412 
Q 1013 4119 1484 4856 
L 1984 4856 
z
" transform="scale(0.015625)"/>
       <path id="DejaVuSans-73" d="M 2834 3397 
L 2834 2853 
Q 2591 2978 2328 3040 
Q 2066 3103 1784 3103 
Q 1356 3103 1142 2972 
Q 928 2841 928 2578 
Q 928 2378 1081 2264 
Q 1234 2150 1697 2047 
L 1894 2003 
Q 2506 1872 2764 1633 
Q 3022 1394 3022 966 
Q 3022 478 2636 193 
Q 2250 -91 1575 -91 
Q 1294 -91 989 -36 
Q 684 19 347 128 
L 347 722 
Q 666 556 975 473 
Q 1284 391 1588 391 
Q 1994 391 2212 530 
Q 2431 669 2431 922 
Q 2431 1156 2273 1281 
Q 2116 1406 1581 1522 
L 1381 1569 
Q 847 1681 609 1914 
Q 372 2147 372 2553 
Q 372 3047 722 3315 
Q 1072 3584 1716 3584 
Q 2034 3584 2315 3537 
Q 2597 3491 2834 3397 
z
" transform="scale(0.015625)"/>
       <path id="DejaVuSans-29" d="M 513 4856 
L 1013 4856 
Q 1481 4119 1714 3412 
Q 1947 2706 1947 2009 
Q 1947 1309 1714 600 
Q 1481 -109 1013 -844 
L 513 -844 
Q 928 -128 1133 580 
Q 1338 1288 1338 2009 
Q 1338 2731 1133 3434 
Q 928 4138 513 4856 
z
" transform="scale(0.015625)"/>
      </defs>
      <use xlink:href="#DejaVuSans-52"/>
      <use xlink:href="#DejaVuSans-65" x="64.982422"/>
      <use xlink:href="#DejaVuSans-61" x="126.505859"/>
      <use xlink:href="#DejaVuSans-63" x="187.785156"/>
      <use xlink:href="#DejaVuSans-74" x="242.765625"/>
      <use xlink:href="#DejaVuSans-69" x="281.974609"/>
      <use xlink:href="#DejaVuSans-6f" x="309.757812"/>
      <use xlink:href="#DejaVuSans-6e" x="370.939453"/>
      <use xlink:href="#DejaVuSans-20" x="434.318359"/>
      <use xlink:href="#DejaVuSans-74" x="466.105469"/>
      <use xlink:href="#DejaVuSans-69" x="505.314453"/>
      <use xlink:href="#DejaVuSans-6d" x="533.097656"/>
      <use xlink:href="#DejaVuSans-65" x="630.509766"/>
      <use xlink:href="#DejaVuSans-20" x="692.033203"/>
      <use xlink:href="#DejaVuSans-28" x="723.820312"/>
      <use xlink:href="#DejaVuSans-73" x="762.833984"/>
      <use xlink:href="#DejaVuSans-29" x="814.933594"/>
     </g>
    </g>
   </g>
   <g id="matplotlib.axis_2">
    <g id="ytick_1">
     <g id="line2d_3">
      <defs>
       <path id="m1c1c7ca591" d="M 0 0 
L -3.5 0 
" style="stroke: #000000; stroke-width: 0.8"/>
      </defs>
      <g>
       <use xlink:href="#m1c1c7ca591" x="41.39" y="102.554545" style="stroke: #000000; stroke-width: 0.8"/>
      </g>
     </g>
     <g id="text_4">
      <!-- 0.0 -->
      <g transform="translate(21.6675 105.59392)scale(0.08 -0.08)">
       <defs>
        <path id="DejaVuSans-2e" d="M 684 794 
L 1344 794 
L 1344 0 
L 684 0 
L 684 794 
z
" transform="scale(0.015625)"/>
       </defs>
       <use xlink:href="#DejaVuSans-30"/>
       <use xlink:href="#DejaVuSans-2e" x="63.623047"/>
       <use xlink:href="#DejaVuSans-30" x="95.410156"/>
      </g>
     </g>
    </g>
    <g id="ytick_2">
     <g id="line2d_4">
      <g>
       <use xlink:href="#m1c1c7ca591" x="41.39" y="84.357554" style="stroke: #000000; stroke-width: 0.8"/>
      </g>
     </g>
     <g id="text_5">
      <!-- 0.2 -->
      <g transform="translate(21.6675 87.396929)scale(0.08 -0.08)">
       <defs>
        <path id="DejaVuSans-32" d="M 1228 531 
L 3431 531 
L 3431 0 
L 469 0 
L 469 531 
Q 828 903 1448 1529 
Q 2069 2156 2228 2338 
Q 2531 2678 2651 2914 
Q 2772 3150 2772 3378 
Q 2772 3750 2511 3984 
Q 2250 4219 1831 4219 
Q 1534 4219 1204 4116 
Q 875 4013 500 3803 
L 500 4441 
Q 881 4594 1212 4672 
Q 1544 4750 1819 4750 
Q 2544 4750 2975 4387 
Q 3406 4025 3406 3419 
Q 3406 3131 3298 2873 
Q 3191 2616 2906 2266 
Q 2828 2175 2409 1742 
Q 1991 1309 1228 531 
z
" transform="scale(0.015625)"/>
       </defs>
       <use xlink:href="#DejaVuSans-30"/>
       <use xlink:href="#DejaVuSans-2e" x="63.623047"/>
       <use xlink:href="#DejaVuSans-32" x="95.410156"/>
      </g>
     </g>
    </g>
    <g id="ytick_3">
     <g id="line2d_5">
      <g>
       <use xlink:href="#m1c1c7ca591" x="41.39" y="66.160562" style="stroke: #000000; stroke-width: 0.8"/>
      </g>
     </g>
     <g id="text_6">
      <!-- 0.4 -->
      <g transform="translate(21.6675 69.199937)scale(0.08 -0.08)">
       <defs>
        <path id="DejaVuSans-34" d="M 2419 4116 
L 825 1625 
L 2419 1625 
L 2419 4116 
z
M 2253 4666 
L 3047 4666 
L 3047 1625 
L 3713 1625 
L 3713 1100 
L 3047 1100 
L 3047 0 
L 2419 0 
L 2419 1100 
L 313 1100 
L 313 1709 
L 2253 4666 
z
" transform="scale(0.015625)"/>
       </defs>
       <use xlink:href="#DejaVuSans-30"/>
       <use xlink:href="#DejaVuSans-2e" x="63.623047"/>
       <use xlink:href="#DejaVuSans-34" x="95.410156"/>
      </g>
     </g>
    </g>
    <g id="ytick_4">
     <g id="line2d_6">
      <g>
       <use xlink:href="#m1c1c7ca591" x="41.39" y="47.96357" style="stroke: #000000; stroke-width: 0.8"/>
      </g>
     </g>
     <g id="text_7">
      <!-- 0.6 -->
      <g transform="translate(21.6675 51.002945)scale(0.08 -0.08)">
       <defs>
        <path id="DejaVuSans-36" d="M 2113 2584 
Q 1688 2584 1439 2293 
Q 1191 2003 1191 1497 
Q 1191 994 1439 701 
Q 1688 409 2113 409 
Q 2538 409 2786 701 
Q 3034 994 3034 1497 
Q 3034 2003 2786 2293 
Q 2538 2584 2113 2584 
z
M 3366 4563 
L 3366 3988 
Q 3128 4100 2886 4159 
Q 2644 4219 2406 4219 
Q 1781 4219 1451 3797 
Q 1122 3375 1075 2522 
Q 1259 2794 1537 2939 
Q 1816 3084 2150 3084 
Q 2853 3084 3261 2657 
Q 3669 2231 3669 1497 
Q 3669 778 3244 343 
Q 2819 -91 2113 -91 
Q 1303 -91 875 529 
Q 447 1150 447 2328 
Q 447 3434 972 4092 
Q 1497 4750 2381 4750 
Q 2619 4750 2861 4703 
Q 3103 4656 3366 4563 
z
" transform="scale(0.015625)"/>
       </defs>
       <use xlink:href="#DejaVuSans-30"/>
       <use xlink:href="#DejaVuSans-2e" x="63.623047"/>
       <use xlink:href="#DejaVuSans-36" x="95.410156"/>
      </g>
     </g>
    </g>
    <g id="ytick_5">
     <g id="line2d_7">
      <g>
       <use xlink:href="#m1c1c7ca591" x="41.39" y="29.766579" style="stroke: #000000; stroke-width: 0.8"/>
      </g>
     </g>
     <g id="text_8">
      <!-- 0.8 -->
      <g transform="translate(21.6675 32.805954)scale(0.08 -0.08)">
       <defs>
        <path id="DejaVuSans-38" d="M 2034 2216 
Q 1584 2216 1326 1975 
Q 1069 1734 1069 1313 
Q 1069 891 1326 650 
Q 1584 409 2034 409 
Q 2484 409 2743 651 
Q 3003 894 3003 1313 
Q 3003 1734 2745 1975 
Q 2488 2216 2034 2216 
z
M 1403 2484 
Q 997 2584 770 2862 
Q 544 3141 544 3541 
Q 544 4100 942 4425 
Q 1341 4750 2034 4750 
Q 2731 4750 3128 4425 
Q 3525 4100 3525 3541 
Q 3525 3141 3298 2862 
Q 3072 2584 2669 2484 
Q 3125 2378 3379 2068 
Q 3634 1759 3634 1313 
Q 3634 634 3220 271 
Q 2806 -91 2034 -91 
Q 1263 -91 848 271 
Q 434 634 434 1313 
Q 434 1759 690 2068 
Q 947 2378 1403 2484 
z
M 1172 3481 
Q 1172 3119 1398 2916 
Q 1625 2713 2034 2713 
Q 2441 2713 2670 2916 
Q 2900 3119 2900 3481 
Q 2900 3844 2670 4047 
Q 2441 4250 2034 4250 
Q 1625 4250 1398 4047 
Q 1172 3844 1172 3481 
z
" transform="scale(0.015625)"/>
       </defs>
       <use xlink:href="#DejaVuSans-30"/>
       <use xlink:href="#DejaVuSans-2e" x="63.623047"/>
       <use xlink:href="#DejaVuSans-38" x="95.410156"/>
      </g>
     </g>
    </g>
    <g id="text_9">
     <!-- Cummulative Probability -->
     <g transform="translate(16.00375 113.640625)rotate(-90)scale(0.08 -0.08)">
      <defs>
       <path id="DejaVuSans-43" d="M 4122 4306 
L 4122 3641 
Q 3803 3938 3442 4084 
Q 3081 4231 2675 4231 
Q 1875 4231 1450 3742 
Q 1025 3253 1025 2328 
Q 1025 1406 1450 917 
Q 1875 428 2675 428 
Q 3081 428 3442 575 
Q 3803 722 4122 1019 
L 4122 359 
Q 3791 134 3420 21 
Q 3050 -91 2638 -91 
Q 1578 -91 968 557 
Q 359 1206 359 2328 
Q 359 3453 968 4101 
Q 1578 4750 2638 4750 
Q 3056 4750 3426 4639 
Q 3797 4528 4122 4306 
z
" transform="scale(0.015625)"/>
       <path id="DejaVuSans-75" d="M 544 1381 
L 544 3500 
L 1119 3500 
L 1119 1403 
Q 1119 906 1312 657 
Q 1506 409 1894 409 
Q 2359 409 2629 706 
Q 2900 1003 2900 1516 
L 2900 3500 
L 3475 3500 
L 3475 0 
L 2900 0 
L 2900 538 
Q 2691 219 2414 64 
Q 2138 -91 1772 -91 
Q 1169 -91 856 284 
Q 544 659 544 1381 
z
M 1991 3584 
L 1991 3584 
z
" transform="scale(0.015625)"/>
       <path id="DejaVuSans-6c" d="M 603 4863 
L 1178 4863 
L 1178 0 
L 603 0 
L 603 4863 
z
" transform="scale(0.015625)"/>
       <path id="DejaVuSans-76" d="M 191 3500 
L 800 3500 
L 1894 563 
L 2988 3500 
L 3597 3500 
L 2284 0 
L 1503 0 
L 191 3500 
z
" transform="scale(0.015625)"/>
       <path id="DejaVuSans-50" d="M 1259 4147 
L 1259 2394 
L 2053 2394 
Q 2494 2394 2734 2622 
Q 2975 2850 2975 3272 
Q 2975 3691 2734 3919 
Q 2494 4147 2053 4147 
L 1259 4147 
z
M 628 4666 
L 2053 4666 
Q 2838 4666 3239 4311 
Q 3641 3956 3641 3272 
Q 3641 2581 3239 2228 
Q 2838 1875 2053 1875 
L 1259 1875 
L 1259 0 
L 628 0 
L 628 4666 
z
" transform="scale(0.015625)"/>
       <path id="DejaVuSans-72" d="M 2631 2963 
Q 2534 3019 2420 3045 
Q 2306 3072 2169 3072 
Q 1681 3072 1420 2755 
Q 1159 2438 1159 1844 
L 1159 0 
L 581 0 
L 581 3500 
L 1159 3500 
L 1159 2956 
Q 1341 3275 1631 3429 
Q 1922 3584 2338 3584 
Q 2397 3584 2469 3576 
Q 2541 3569 2628 3553 
L 2631 2963 
z
" transform="scale(0.015625)"/>
       <path id="DejaVuSans-62" d="M 3116 1747 
Q 3116 2381 2855 2742 
Q 2594 3103 2138 3103 
Q 1681 3103 1420 2742 
Q 1159 2381 1159 1747 
Q 1159 1113 1420 752 
Q 1681 391 2138 391 
Q 2594 391 2855 752 
Q 3116 1113 3116 1747 
z
M 1159 2969 
Q 1341 3281 1617 3432 
Q 1894 3584 2278 3584 
Q 2916 3584 3314 3078 
Q 3713 2572 3713 1747 
Q 3713 922 3314 415 
Q 2916 -91 2278 -91 
Q 1894 -91 1617 61 
Q 1341 213 1159 525 
L 1159 0 
L 581 0 
L 581 4863 
L 1159 4863 
L 1159 2969 
z
" transform="scale(0.015625)"/>
       <path id="DejaVuSans-79" d="M 2059 -325 
Q 1816 -950 1584 -1140 
Q 1353 -1331 966 -1331 
L 506 -1331 
L 506 -850 
L 844 -850 
Q 1081 -850 1212 -737 
Q 1344 -625 1503 -206 
L 1606 56 
L 191 3500 
L 800 3500 
L 1894 763 
L 2988 3500 
L 3597 3500 
L 2059 -325 
z
" transform="scale(0.015625)"/>
      </defs>
      <use xlink:href="#DejaVuSans-43"/>
      <use xlink:href="#DejaVuSans-75" x="69.824219"/>
      <use xlink:href="#DejaVuSans-6d" x="133.203125"/>
      <use xlink:href="#DejaVuSans-6d" x="230.615234"/>
      <use xlink:href="#DejaVuSans-75" x="328.027344"/>
      <use xlink:href="#DejaVuSans-6c" x="391.40625"/>
      <use xlink:href="#DejaVuSans-61" x="419.189453"/>
      <use xlink:href="#DejaVuSans-74" x="480.46875"/>
      <use xlink:href="#DejaVuSans-69" x="519.677734"/>
      <use xlink:href="#DejaVuSans-76" x="547.460938"/>
      <use xlink:href="#DejaVuSans-65" x="606.640625"/>
      <use xlink:href="#DejaVuSans-20" x="668.164062"/>
      <use xlink:href="#DejaVuSans-50" x="699.951172"/>
      <use xlink:href="#DejaVuSans-72" x="758.503906"/>
      <use xlink:href="#DejaVuSans-6f" x="797.367188"/>
      <use xlink:href="#DejaVuSans-62" x="858.548828"/>
      <use xlink:href="#DejaVuSans-61" x="922.025391"/>
      <use xlink:href="#DejaVuSans-62" x="983.304688"/>
      <use xlink:href="#DejaVuSans-69" x="1046.78125"/>
      <use xlink:href="#DejaVuSans-6c" x="1074.564453"/>
      <use xlink:href="#DejaVuSans-69" x="1102.347656"/>
      <use xlink:href="#DejaVuSans-74" x="1130.130859"/>
      <use xlink:href="#DejaVuSans-79" x="1169.339844"/>
     </g>
    </g>
   </g>
   <g id="line2d_8">
    <path d="M 44.925 102.554545 
L 44.925 102.488375 
L 45.026144 102.488375 
L 45.177861 102.488375 
L 45.177861 102.356033 
L 45.279006 102.356033 
L 45.329578 102.356033 
L 45.430722 102.091349 
L 45.481295 102.091349 
L 45.582439 101.495811 
L 45.683584 101.429641 
L 45.784728 101.098786 
L 46.088162 101.098786 
L 46.138734 100.701761 
L 46.189306 100.701761 
L 46.290451 100.63559 
L 46.290451 100.569419 
L 46.391595 100.569419 
L 46.49274 100.569419 
L 46.49274 100.437077 
L 46.593884 100.437077 
L 46.644456 100.437077 
L 46.745601 100.172394 
L 46.796173 100.172394 
L 46.846745 99.973881 
L 46.897318 99.973881 
L 47.049034 99.90771 
L 47.049034 99.709198 
L 47.150179 99.709198 
L 47.200751 99.709198 
L 47.301896 99.312172 
L 47.554757 99.246002 
L 47.605329 99.11366 
L 47.655901 99.11366 
L 47.807618 99.047489 
L 47.908763 98.915147 
L 48.111052 98.915147 
L 48.111052 98.716634 
L 48.212196 98.716634 
L 48.262768 98.716634 
L 48.262768 98.584293 
L 48.363913 98.584293 
L 48.515629 98.518122 
L 48.566202 98.319609 
L 48.616774 98.319609 
L 48.667346 98.319609 
L 48.768491 97.988755 
L 48.819063 97.988755 
L 48.920207 97.59173 
L 49.021352 97.525559 
L 49.122496 97.062362 
L 49.324785 96.996192 
L 49.42593 96.797679 
L 49.628219 96.731508 
L 49.729363 96.532995 
L 49.982225 96.466825 
L 50.083369 96.069799 
L 50.33623 96.003628 
L 50.437375 95.805116 
L 50.487947 95.805116 
L 50.589092 95.34192 
L 50.690236 95.34192 
L 50.791381 95.077236 
L 51.044242 95.077236 
L 51.044242 94.944894 
L 51.145386 94.944894 
L 51.297103 94.878723 
L 51.297103 94.812553 
L 51.398247 94.812553 
L 51.600536 94.746382 
L 51.651109 94.61404 
L 51.701681 94.61404 
L 51.853398 94.547869 
L 51.954542 94.349356 
L 52.106259 94.283186 
L 52.106259 94.217015 
L 52.207403 94.217015 
L 52.35912 94.150844 
L 52.460265 93.88616 
L 52.510837 93.88616 
L 52.611981 93.489135 
L 52.864843 93.489135 
L 52.915415 93.224452 
L 52.965987 93.224452 
L 53.370565 93.158281 
L 53.47171 93.025939 
L 53.623426 92.959768 
L 53.724571 92.827426 
L 53.775143 92.827426 
L 53.876288 92.496572 
L 53.977432 92.430401 
L 54.028004 92.231888 
L 54.078577 92.231888 
L 54.129149 92.231888 
L 54.230293 91.901034 
L 54.280866 91.901034 
L 54.331438 91.504009 
L 54.38201 91.504009 
L 54.736016 91.437838 
L 54.786588 91.305496 
L 54.83716 91.305496 
L 54.938305 91.305496 
L 54.938305 91.173154 
L 55.039449 91.173154 
L 55.191166 91.173154 
L 55.29231 90.908471 
L 55.444027 90.908471 
L 55.494599 90.643787 
L 55.545172 90.643787 
L 55.646316 90.577616 
L 55.646316 90.445275 
L 55.747461 90.445275 
L 55.798033 90.445275 
L 55.848605 89.915908 
L 55.899177 89.915908 
L 56.050894 89.849737 
L 56.050894 89.717395 
L 56.152039 89.717395 
L 56.202611 89.717395 
L 56.253183 89.518882 
L 56.303755 89.518882 
L 56.354328 89.518882 
L 56.455472 89.254199 
L 56.657761 89.188028 
L 56.708333 88.989515 
L 56.758906 88.989515 
L 56.809478 88.989515 
L 56.86005 88.791003 
L 56.910622 88.791003 
L 57.214056 88.724832 
L 57.3152 88.327806 
L 57.365773 88.327806 
L 57.416345 88.129294 
L 57.466917 88.129294 
L 57.517489 88.129294 
L 57.618634 87.533756 
L 57.669206 87.533756 
L 57.770351 87.07056 
L 58.174928 87.004389 
L 58.225501 86.805876 
L 58.276073 86.805876 
L 58.42779 86.739705 
L 58.42779 86.673534 
L 58.528934 86.673534 
L 58.579506 86.673534 
L 58.680651 86.475022 
L 58.832368 86.408851 
L 58.933512 86.144167 
L 59.034657 86.077997 
L 59.135801 85.747142 
L 59.186373 85.747142 
L 59.287518 85.482459 
L 59.489807 85.416288 
L 59.590951 85.217775 
L 59.692096 85.151604 
L 59.79324 85.019263 
L 59.894385 85.019263 
L 59.944957 84.754579 
L 59.995529 84.754579 
L 60.096674 84.688408 
L 60.147246 84.489895 
L 60.197818 84.489895 
L 60.400107 84.423725 
L 60.501252 84.159041 
L 60.602396 84.09287 
L 60.703541 83.762016 
L 60.855258 83.695845 
L 60.956402 83.431161 
L 61.158691 83.431161 
L 61.209263 83.232649 
L 61.259835 83.232649 
L 61.310408 83.232649 
L 61.411552 82.769453 
L 61.664413 82.703282 
L 61.714986 82.504769 
L 61.765558 82.504769 
L 61.866702 82.438598 
L 61.967847 82.240086 
L 62.068991 82.173915 
L 62.068991 82.041573 
L 62.170136 82.041573 
L 62.321853 81.975402 
L 62.422997 81.644548 
L 62.473569 81.644548 
L 62.524142 81.313693 
L 62.574714 81.313693 
L 62.675858 81.313693 
L 62.777003 80.850497 
L 63.029864 80.784326 
L 63.131009 80.585814 
L 63.282725 80.585814 
L 63.333298 80.387301 
L 63.38387 80.387301 
L 63.636731 80.32113 
L 63.737876 80.056447 
L 63.83902 79.990276 
L 63.940165 79.659421 
L 64.142454 79.59325 
L 64.243598 79.262396 
L 64.29417 79.262396 
L 64.395315 78.997713 
L 64.496459 78.931542 
L 64.547031 78.666858 
L 64.597604 78.666858 
L 64.850465 78.600687 
L 64.901037 78.468345 
L 64.951609 78.468345 
L 65.305615 78.468345 
L 65.305615 78.336004 
L 65.40676 78.336004 
L 65.659621 78.269833 
L 65.760765 78.07132 
L 65.86191 78.07132 
L 65.963054 77.806637 
L 66.013627 77.806637 
L 66.114771 76.880244 
L 66.266488 76.814074 
L 66.367632 76.54939 
L 66.468777 76.483219 
L 66.569921 76.284706 
L 66.721638 76.218536 
L 66.721638 76.086194 
L 66.822783 76.086194 
L 66.923927 76.020023 
L 67.025072 75.689169 
L 67.227361 75.689169 
L 67.328505 75.424485 
L 67.429649 75.358314 
L 67.480222 75.02746 
L 67.530794 75.02746 
L 67.631938 74.961289 
L 67.682511 74.828947 
L 67.733083 74.828947 
L 67.834227 74.762776 
L 67.935372 74.630435 
L 68.289378 74.564264 
L 68.390522 74.431922 
L 68.643383 74.365751 
L 68.643383 74.29958 
L 68.744528 74.29958 
L 68.845672 74.29958 
L 68.845672 74.101067 
L 68.946817 74.101067 
L 69.098534 74.034897 
L 69.199678 73.704042 
L 69.401967 73.704042 
L 69.452539 73.50553 
L 69.503112 73.50553 
L 69.857117 73.439359 
L 69.958262 73.240846 
L 70.160551 73.174675 
L 70.261695 73.042333 
L 70.463984 72.976163 
L 70.463984 72.909992 
L 70.565129 72.909992 
L 70.615701 72.909992 
L 70.666273 72.512966 
L 70.716845 72.512966 
L 70.767418 72.512966 
L 70.868562 72.314454 
L 71.020279 72.248283 
L 71.121423 71.983599 
L 71.27314 71.917428 
L 71.374285 71.652745 
L 71.576574 71.586574 
L 71.677718 71.321891 
L 71.829435 71.25572 
L 71.930579 70.924865 
L 72.031724 70.858694 
L 72.132868 70.594011 
L 72.234013 70.52784 
L 72.234013 70.461669 
L 72.335157 70.461669 
L 72.537446 70.461669 
L 72.588019 69.998473 
L 72.638591 69.998473 
L 72.689163 69.998473 
L 72.790308 69.469106 
L 72.891452 69.402935 
L 72.942024 69.204422 
L 72.992597 69.204422 
L 73.447747 69.138252 
L 73.447747 69.072081 
L 73.548891 69.072081 
L 73.700608 69.00591 
L 73.700608 68.939739 
L 73.801753 68.939739 
L 73.902897 68.873568 
L 74.004041 68.675055 
L 74.105186 68.675055 
L 74.155758 68.410372 
L 74.20633 68.410372 
L 74.256903 68.410372 
L 74.307475 68.013347 
L 74.358047 68.013347 
L 74.408619 68.013347 
L 74.509764 67.748663 
L 74.610908 67.682492 
L 74.712053 67.48398 
L 74.86377 67.48398 
L 74.964914 67.219296 
L 75.217775 67.153125 
L 75.217775 67.086954 
L 75.31892 67.086954 
L 75.470637 67.020783 
L 75.470637 66.888442 
L 75.571781 66.888442 
L 75.77407 66.822271 
L 75.875215 66.491416 
L 75.976359 66.491416 
L 76.077504 66.160562 
L 76.22922 66.160562 
L 76.279793 65.962049 
L 76.330365 65.962049 
L 76.532654 65.895878 
L 76.532654 65.763537 
L 76.633798 65.763537 
L 76.684371 65.763537 
L 76.785515 65.498853 
L 76.987804 65.432682 
L 76.987804 65.300341 
L 77.088948 65.300341 
L 77.392382 65.300341 
L 77.493526 64.969486 
L 77.594671 64.903315 
L 77.695815 64.440119 
L 77.79696 64.373948 
L 77.898104 63.976923 
L 78.100393 63.910752 
L 78.201538 63.77841 
L 78.302682 63.712239 
L 78.403827 63.579898 
L 78.656688 63.513727 
L 78.757833 63.315214 
L 78.808405 63.315214 
L 78.909549 63.116702 
L 79.162411 63.050531 
L 79.263555 62.719676 
L 79.465844 62.719676 
L 79.566989 62.322651 
L 79.617561 62.322651 
L 79.718705 62.057967 
L 79.870422 62.057967 
L 79.870422 61.925626 
L 79.971567 61.925626 
L 80.376144 61.859455 
L 80.477289 61.594771 
L 80.679578 61.5286 
L 80.679578 61.396259 
L 80.780722 61.396259 
L 80.831295 61.396259 
L 80.932439 60.73455 
L 81.033584 60.73455 
L 81.033584 60.469866 
L 81.134728 60.469866 
L 81.1853 60.469866 
L 81.286445 60.139012 
L 81.387589 60.072841 
L 81.488734 59.808158 
L 81.589878 59.808158 
L 81.691023 59.411132 
L 81.741595 59.411132 
L 81.84274 59.080278 
L 82.045029 59.014107 
L 82.146173 58.815594 
L 82.29789 58.815594 
L 82.29789 58.550911 
L 82.399034 58.550911 
L 82.550751 58.48474 
L 82.651896 58.220056 
L 82.75304 58.153886 
L 82.803612 57.889202 
L 82.854185 57.889202 
L 83.005901 57.823031 
L 83.107046 57.690689 
L 83.309335 57.690689 
L 83.359907 57.426006 
L 83.410479 57.426006 
L 83.461052 57.426006 
L 83.511624 57.227493 
L 83.562196 57.227493 
L 83.66334 57.161322 
L 83.764485 56.96281 
L 84.067918 56.896639 
L 84.169063 56.764297 
L 84.219635 56.764297 
L 84.32078 56.301101 
L 84.421924 56.23493 
L 84.472496 55.970247 
L 84.523069 55.970247 
L 84.624213 55.904076 
L 84.725358 55.771734 
L 84.978219 55.705563 
L 84.978219 55.639392 
L 85.079363 55.639392 
L 85.180508 55.639392 
L 85.23108 55.44088 
L 85.281652 55.44088 
L 85.382797 55.374709 
L 85.382797 55.308538 
L 85.483941 55.308538 
L 85.736803 55.242367 
L 85.837947 54.977683 
L 85.989664 54.911513 
L 86.090808 54.580658 
L 86.191953 54.514487 
L 86.293097 53.786608 
L 86.394242 53.786608 
L 86.495386 53.389582 
L 86.697675 53.323411 
L 86.79882 53.058728 
L 86.950536 52.992557 
L 87.051681 52.860215 
L 87.203398 52.794044 
L 87.203398 52.727874 
L 87.304542 52.727874 
L 87.506831 52.661703 
L 87.506831 52.595532 
L 87.607976 52.595532 
L 87.658548 52.595532 
L 87.759692 52.198507 
L 87.860837 52.198507 
L 87.961981 51.867652 
L 88.063126 51.801481 
L 88.16427 51.536798 
L 88.973426 51.470627 
L 89.074571 51.272114 
L 89.226288 51.205943 
L 89.226288 51.139772 
L 89.327432 51.139772 
L 89.378004 51.139772 
L 89.479149 50.875089 
L 89.529721 50.875089 
L 89.580293 50.544235 
L 89.630866 50.544235 
L 89.73201 50.544235 
L 89.782582 50.345722 
L 89.833155 50.345722 
L 89.934299 50.345722 
L 89.934299 50.21338 
L 90.035443 50.21338 
L 90.086016 50.21338 
L 90.086016 50.081038 
L 90.18716 50.081038 
L 90.541166 50.014867 
L 90.541166 49.948697 
L 90.64231 49.948697 
L 90.844599 49.882526 
L 90.945744 49.750184 
L 91.097461 49.684013 
L 91.198605 49.4855 
L 91.502039 49.41933 
L 91.603183 49.286988 
L 91.805472 49.220817 
L 91.906617 49.088475 
L 92.007761 49.022304 
L 92.007761 48.889963 
L 92.108906 48.889963 
L 92.159478 48.889963 
L 92.260622 48.69145 
L 92.361767 48.69145 
L 92.462911 48.492937 
L 92.6652 48.426766 
L 92.766345 48.162083 
L 92.816917 48.162083 
L 92.918062 47.897399 
L 92.968634 47.897399 
L 93.069778 47.368032 
L 93.170923 47.301861 
L 93.170923 47.235691 
L 93.272067 47.235691 
L 93.524928 47.16952 
L 93.575501 46.971007 
L 93.626073 46.971007 
L 93.727217 46.904836 
L 93.77779 46.706324 
L 93.828362 46.706324 
L 93.980079 46.640153 
L 93.980079 46.573982 
L 94.081223 46.573982 
L 94.283512 46.507811 
L 94.384657 46.309298 
L 94.435229 46.309298 
L 94.485801 45.71376 
L 94.536373 45.71376 
L 94.586946 45.71376 
L 94.68809 45.316735 
L 94.789235 45.316735 
L 94.890379 44.985881 
L 94.991524 44.91971 
L 95.042096 44.655026 
L 95.092668 44.655026 
L 95.193813 44.655026 
L 95.294957 44.258001 
L 95.446674 44.19183 
L 95.446674 44.125659 
L 95.547818 44.125659 
L 95.699535 44.125659 
L 95.750107 43.860976 
L 95.80068 43.860976 
L 95.901824 43.794805 
L 95.952396 43.596292 
L 96.002969 43.596292 
L 96.053541 43.596292 
L 96.154685 43.331609 
L 96.205258 43.331609 
L 96.306402 42.934583 
L 96.356974 42.934583 
L 96.458119 42.603729 
L 96.71098 42.537558 
L 96.71098 42.405216 
L 96.812124 42.405216 
L 96.862697 42.405216 
L 96.963841 42.206704 
L 97.064986 42.140533 
L 97.115558 41.94202 
L 97.16613 41.94202 
L 97.469564 41.94202 
L 97.469564 41.809678 
L 97.570708 41.809678 
L 97.823569 41.743508 
L 97.874142 41.280311 
L 97.924714 41.280311 
L 98.025858 41.214141 
L 98.127003 40.883286 
L 98.228147 40.817115 
L 98.329292 40.684774 
L 98.683298 40.618603 
L 98.683298 40.552432 
L 98.784442 40.552432 
L 99.037303 40.486261 
L 99.037303 40.353919 
L 99.138448 40.353919 
L 99.441881 40.287748 
L 99.543026 39.890723 
L 99.593598 39.890723 
L 99.694742 39.559869 
L 99.745315 39.559869 
L 99.846459 39.162843 
L 99.947604 39.096672 
L 99.998176 38.89816 
L 100.048748 38.89816 
L 100.149893 38.831989 
L 100.251037 38.699647 
L 100.503898 38.633476 
L 100.554471 38.501135 
L 100.605043 38.501135 
L 100.75676 38.501135 
L 100.75676 38.368793 
L 100.857904 38.368793 
L 101.110765 38.302622 
L 101.21191 38.104109 
L 101.262482 38.104109 
L 101.363627 37.707084 
L 101.515343 37.640913 
L 101.515343 37.508571 
L 101.616488 37.508571 
L 102.223355 37.4424 
L 102.223355 37.37623 
L 102.324499 37.37623 
L 102.526788 37.310059 
L 102.627933 37.177717 
L 102.880794 37.111546 
L 102.981938 36.846863 
L 103.184227 36.780692 
L 103.184227 36.582179 
L 103.285372 36.582179 
L 103.68995 36.582179 
L 103.68995 36.449837 
L 103.791094 36.449837 
L 104.246245 36.383666 
L 104.347389 36.251325 
L 104.448534 36.251325 
L 104.499106 36.052812 
L 104.549678 36.052812 
L 104.650823 35.986641 
L 104.650823 35.854299 
L 104.751967 35.854299 
L 104.802539 35.854299 
L 104.903684 35.655787 
L 105.409406 35.589616 
L 105.510551 35.391103 
L 105.965701 35.324932 
L 105.965701 35.12642 
L 106.066845 35.12642 
L 106.218562 35.12642 
L 106.218562 34.994078 
L 106.319707 34.994078 
L 107.331152 34.927907 
L 107.331152 34.861736 
L 107.432296 34.861736 
L 107.988591 34.795565 
L 108.089735 34.530882 
L 108.140308 34.530882 
L 108.19088 34.332369 
L 108.241452 34.332369 
L 108.848319 34.266198 
L 108.848319 34.133857 
L 108.949464 34.133857 
L 109.151753 34.067686 
L 109.252897 33.869173 
L 109.404614 33.803002 
L 109.404614 33.736831 
L 109.505758 33.736831 
L 109.809192 33.67066 
L 109.910336 33.538319 
L 110.011481 33.538319 
L 110.011481 33.339806 
L 110.112625 33.339806 
L 110.871209 33.273635 
L 110.871209 33.207464 
L 110.972353 33.207464 
L 111.376931 33.141293 
L 111.376931 33.075122 
L 111.478076 33.075122 
L 111.832082 33.008952 
L 111.832082 32.942781 
L 111.933226 32.942781 
L 112.337804 32.87661 
L 112.438948 32.744268 
L 112.742382 32.678097 
L 112.792954 32.479585 
L 112.843526 32.479585 
L 113.248104 32.413414 
L 113.298677 32.281072 
L 113.349249 32.281072 
L 113.399821 32.281072 
L 113.399821 32.14873 
L 113.500966 32.14873 
L 113.60211 32.14873 
L 113.60211 32.016388 
L 113.703255 32.016388 
L 114.208977 31.950218 
L 114.208977 31.884047 
L 114.310122 31.884047 
L 114.866416 31.817876 
L 114.866416 31.685534 
L 114.967561 31.685534 
L 115.523856 31.685534 
L 115.523856 31.553192 
L 115.625 31.553192 
" clip-path="url(#pbd368246b5)" style="fill: none; stroke: #d1d1d1; stroke-width: 2; stroke-linecap: square"/>
   </g>
   <g id="line2d_9">
    <path d="M 44.925 102.319442 
L 44.975572 102.319442 
L 44.975572 102.084339 
L 45.076717 102.084339 
L 45.228433 102.084339 
L 45.329578 101.614132 
L 45.481295 101.614132 
L 45.582439 101.143926 
L 45.683584 101.143926 
L 45.683584 100.908823 
L 45.784728 100.908823 
L 45.8353 100.908823 
L 45.8353 100.438616 
L 45.936445 100.438616 
L 46.189306 100.438616 
L 46.189306 100.203513 
L 46.290451 100.203513 
L 46.543312 100.203513 
L 46.543312 99.733306 
L 46.644456 99.733306 
L 46.695029 99.733306 
L 46.695029 99.2631 
L 46.796173 99.2631 
L 47.049034 99.2631 
L 47.049034 99.027997 
L 47.150179 99.027997 
L 47.251323 99.027997 
L 47.251323 98.792893 
L 47.352468 98.792893 
L 47.504185 98.792893 
L 47.504185 98.55779 
L 47.605329 98.55779 
L 47.757046 98.55779 
L 47.757046 98.087584 
L 47.85819 98.087584 
L 48.161624 98.087584 
L 48.262768 97.382274 
L 48.363913 97.382274 
L 48.363913 97.147171 
L 48.465057 97.147171 
L 48.717918 97.147171 
L 48.717918 96.912067 
L 48.819063 96.912067 
L 49.223641 96.912067 
L 49.274213 96.441861 
L 49.324785 96.441861 
L 49.729363 96.441861 
L 49.830508 95.971654 
L 49.931652 95.971654 
L 49.931652 95.736551 
L 50.032797 95.736551 
L 50.184514 95.736551 
L 50.184514 95.501448 
L 50.285658 95.501448 
L 50.437375 95.501448 
L 50.487947 95.031241 
L 50.538519 95.031241 
L 50.690236 95.031241 
L 50.690236 94.325932 
L 50.791381 94.325932 
L 50.943097 94.325932 
L 50.943097 94.090828 
L 51.044242 94.090828 
L 51.195959 94.090828 
L 51.195959 93.855725 
L 51.297103 93.855725 
L 51.499392 93.855725 
L 51.549964 93.385519 
L 51.600536 93.385519 
L 51.853398 93.385519 
L 51.954542 92.445106 
L 52.005114 92.445106 
L 52.005114 92.210002 
L 52.106259 92.210002 
L 52.308548 92.210002 
L 52.308548 91.974899 
L 52.409692 91.974899 
L 53.168276 91.974899 
L 53.269421 91.504693 
L 53.319993 91.504693 
L 53.319993 91.269589 
L 53.421137 91.269589 
L 53.47171 91.269589 
L 53.572854 90.799383 
L 53.623426 90.799383 
L 53.673999 90.094073 
L 53.724571 90.094073 
L 53.92686 90.094073 
L 53.92686 89.85897 
L 54.028004 89.85897 
L 54.078577 89.85897 
L 54.078577 89.388763 
L 54.179721 89.388763 
L 54.230293 89.388763 
L 54.230293 89.15366 
L 54.331438 89.15366 
L 54.736016 89.15366 
L 54.83716 88.683454 
L 54.938305 88.683454 
L 54.938305 88.44835 
L 55.039449 88.44835 
L 55.342883 88.44835 
L 55.342883 88.213247 
L 55.444027 88.213247 
L 55.595744 88.213247 
L 55.696888 87.507937 
L 55.747461 87.507937 
L 55.747461 87.272834 
L 55.848605 87.272834 
L 56.050894 87.272834 
L 56.050894 87.037731 
L 56.152039 87.037731 
L 56.202611 87.037731 
L 56.202611 86.802628 
L 56.303755 86.802628 
L 56.354328 86.802628 
L 56.354328 86.567524 
L 56.455472 86.567524 
L 56.506044 86.567524 
L 56.506044 86.332421 
L 56.607189 86.332421 
L 57.264628 86.332421 
L 57.365773 85.862215 
L 57.416345 85.862215 
L 57.416345 85.627111 
L 57.517489 85.627111 
L 57.770351 85.627111 
L 57.770351 85.392008 
L 57.871495 85.392008 
L 58.42779 85.392008 
L 58.42779 85.156905 
L 58.528934 85.156905 
L 58.832368 85.156905 
L 58.88294 83.981389 
L 58.933512 83.981389 
L 59.034657 83.981389 
L 59.085229 83.511182 
L 59.135801 83.511182 
L 59.236946 83.511182 
L 59.236946 83.040976 
L 59.33809 83.040976 
L 59.439235 83.040976 
L 59.489807 82.570769 
L 59.540379 82.570769 
L 59.742668 82.570769 
L 59.742668 82.335666 
L 59.843813 82.335666 
L 59.894385 82.335666 
L 59.894385 82.100562 
L 59.995529 82.100562 
L 60.147246 82.100562 
L 60.147246 81.865459 
L 60.248391 81.865459 
L 60.298963 81.865459 
L 60.298963 81.395253 
L 60.400107 81.395253 
L 60.501252 81.395253 
L 60.501252 81.160149 
L 60.602396 81.160149 
L 60.754113 81.160149 
L 60.855258 79.74953 
L 60.90583 79.74953 
L 60.90583 79.514427 
L 61.006974 79.514427 
L 61.209263 79.514427 
L 61.209263 79.279323 
L 61.310408 79.279323 
L 61.512697 79.279323 
L 61.563269 78.809117 
L 61.613841 78.809117 
L 61.765558 78.809117 
L 61.866702 78.33891 
L 61.967847 78.33891 
L 61.967847 78.103807 
L 62.068991 78.103807 
L 62.119564 78.103807 
L 62.119564 77.633601 
L 62.220708 77.633601 
L 62.372425 77.633601 
L 62.372425 77.163394 
L 62.473569 77.163394 
L 62.524142 77.163394 
L 62.574714 76.222981 
L 62.625286 76.222981 
L 62.675858 76.222981 
L 62.675858 75.752775 
L 62.777003 75.752775 
L 62.827575 75.752775 
L 62.827575 75.517671 
L 62.92872 75.517671 
L 63.080436 75.517671 
L 63.181581 75.047465 
L 63.282725 75.047465 
L 63.282725 74.812362 
L 63.38387 74.812362 
L 63.485014 74.812362 
L 63.485014 74.342155 
L 63.586159 74.342155 
L 63.636731 74.342155 
L 63.636731 74.107052 
L 63.737876 74.107052 
L 64.041309 74.107052 
L 64.142454 73.401742 
L 64.193026 73.401742 
L 64.29417 72.696432 
L 64.445887 72.696432 
L 64.445887 72.461329 
L 64.547031 72.461329 
L 64.597604 72.461329 
L 64.597604 72.226226 
L 64.698748 72.226226 
L 65.609049 72.226226 
L 65.710193 71.520916 
L 65.760765 71.520916 
L 65.86191 70.580503 
L 65.912482 70.580503 
L 66.013627 70.110297 
L 66.31706 70.110297 
L 66.31706 69.875193 
L 66.418205 69.875193 
L 66.671066 69.875193 
L 66.721638 69.404987 
L 66.77221 69.404987 
L 67.025072 69.404987 
L 67.025072 69.169884 
L 67.126216 69.169884 
L 67.176788 69.169884 
L 67.227361 68.699677 
L 67.277933 68.699677 
L 67.480222 68.699677 
L 67.581366 68.229471 
L 67.631938 68.229471 
L 67.682511 67.524161 
L 67.733083 67.524161 
L 67.783655 67.524161 
L 67.834227 67.053954 
L 67.8848 67.053954 
L 67.935372 67.053954 
L 68.036516 66.583748 
L 68.289378 66.583748 
L 68.390522 65.878438 
L 68.592811 65.878438 
L 68.693956 65.408232 
L 68.744528 65.408232 
L 68.744528 65.173128 
L 68.845672 65.173128 
L 68.946817 65.173128 
L 68.997389 64.702922 
L 69.047961 64.702922 
L 69.199678 64.702922 
L 69.300823 63.997612 
L 69.553684 63.997612 
L 69.654828 63.057199 
L 69.806545 63.057199 
L 69.806545 62.822096 
L 69.90769 62.822096 
L 70.109979 62.822096 
L 70.211123 62.116786 
L 70.261695 62.116786 
L 70.36284 61.64658 
L 70.868562 61.64658 
L 70.969707 60.94127 
L 71.070851 60.94127 
L 71.121423 60.23596 
L 71.171996 60.23596 
L 71.374285 60.23596 
L 71.424857 59.765754 
L 71.475429 59.765754 
L 71.576574 59.765754 
L 71.576574 59.53065 
L 71.677718 59.53065 
L 72.38573 59.53065 
L 72.38573 59.060444 
L 72.486874 59.060444 
L 72.942024 59.060444 
L 72.942024 58.825341 
L 73.043169 58.825341 
L 73.700608 58.825341 
L 73.700608 58.590237 
L 73.801753 58.590237 
L 74.20633 58.590237 
L 74.20633 58.355134 
L 74.307475 58.355134 
L 74.358047 58.355134 
L 74.358047 58.120031 
L 74.459192 58.120031 
L 74.509764 58.120031 
L 74.509764 57.884927 
L 74.610908 57.884927 
L 75.723498 57.884927 
L 75.723498 57.649824 
L 75.824642 57.649824 
L 76.330365 57.649824 
L 76.330365 57.414721 
L 76.431509 57.414721 
L 76.734943 57.414721 
L 76.734943 57.179618 
L 76.836087 57.179618 
L 77.442954 57.179618 
L 77.442954 56.944514 
L 77.544099 56.944514 
L 77.645243 56.944514 
L 77.645243 56.709411 
L 77.746388 56.709411 
L 77.999249 56.709411 
L 77.999249 56.474308 
L 78.100393 56.474308 
L 78.504971 56.474308 
L 78.504971 56.239205 
L 78.606116 56.239205 
L 79.111838 56.239205 
L 79.162411 55.768998 
L 79.212983 55.768998 
L 79.314127 55.768998 
L 79.3647 55.298792 
L 79.415272 55.298792 
L 80.275 55.298792 
L 80.275 55.063688 
L 80.376144 55.063688 
L 80.932439 55.063688 
L 80.932439 54.828585 
L 81.033584 54.828585 
L 81.286445 54.828585 
L 81.387589 54.358379 
L 81.640451 54.358379 
L 81.640451 54.123275 
L 81.741595 54.123275 
L 81.84274 54.123275 
L 81.84274 53.888172 
L 81.943884 53.888172 
L 81.994456 53.888172 
L 81.994456 53.653069 
L 82.095601 53.653069 
L 82.75304 53.653069 
L 82.75304 53.417966 
L 82.854185 53.417966 
L 82.904757 53.417966 
L 82.904757 53.182862 
L 83.005901 53.182862 
L 83.056474 53.182862 
L 83.056474 52.947759 
L 83.157618 52.947759 
L 84.017346 52.947759 
L 84.017346 52.712656 
L 84.118491 52.712656 
L 84.573641 52.712656 
L 84.573641 52.477553 
L 84.674785 52.477553 
L 84.725358 52.477553 
L 84.725358 52.242449 
L 84.826502 52.242449 
L 85.028791 52.242449 
L 85.028791 52.007346 
L 85.129936 52.007346 
L 85.736803 52.007346 
L 85.787375 51.53714 
L 85.837947 51.53714 
L 86.647103 51.53714 
L 86.647103 51.302036 
L 86.748247 51.302036 
L 87.607976 51.302036 
L 87.658548 50.83183 
L 87.70912 50.83183 
L 87.810265 50.83183 
L 87.860837 50.12652 
L 87.911409 50.12652 
L 88.82171 50.12652 
L 88.82171 49.891417 
L 88.922854 49.891417 
L 90.338877 49.891417 
L 90.389449 49.42121 
L 90.440021 49.42121 
L 91.148033 49.42121 
L 91.198605 48.951004 
L 91.249177 48.951004 
L 91.552611 48.951004 
L 91.603183 48.480797 
L 91.653755 48.480797 
L 91.7549 48.480797 
L 91.7549 48.245694 
L 91.856044 48.245694 
L 92.6652 48.245694 
L 92.6652 48.010591 
L 92.766345 48.010591 
L 93.423784 48.010591 
L 93.423784 47.775488 
L 93.524928 47.775488 
L 93.575501 47.775488 
L 93.575501 47.540384 
L 93.676645 47.540384 
L 94.23294 47.540384 
L 94.283512 47.070178 
L 94.334084 47.070178 
L 95.14324 47.070178 
L 95.14324 46.835075 
L 95.244385 46.835075 
L 95.80068 46.835075 
L 95.80068 46.599971 
L 95.901824 46.599971 
L 95.952396 46.599971 
L 95.952396 46.364868 
L 96.053541 46.364868 
L 96.154685 46.364868 
L 96.205258 45.894662 
L 96.25583 45.894662 
L 96.407546 45.894662 
L 96.508691 44.954249 
L 97.064986 44.954249 
L 97.064986 44.719145 
L 97.16613 44.719145 
L 97.469564 44.719145 
L 97.469564 44.484042 
L 97.570708 44.484042 
L 98.076431 44.484042 
L 98.076431 44.248939 
L 98.177575 44.248939 
L 98.835014 44.248939 
L 98.936159 43.778732 
L 99.391309 43.778732 
L 99.391309 43.543629 
L 99.492454 43.543629 
L 99.543026 43.543629 
L 99.543026 43.308526 
L 99.64417 43.308526 
L 99.795887 43.308526 
L 99.795887 43.073423 
L 99.897031 43.073423 
L 101.869349 43.073423 
L 101.869349 42.838319 
L 101.970494 42.838319 
L 102.12221 42.838319 
L 102.12221 42.603216 
L 102.223355 42.603216 
L 102.476216 42.603216 
L 102.476216 42.368113 
L 102.577361 42.368113 
L 103.083083 42.368113 
L 103.083083 42.13301 
L 103.184227 42.13301 
L 103.437089 42.13301 
L 103.437089 41.897906 
L 103.538233 41.897906 
L 104.448534 41.897906 
L 104.549678 41.192597 
L 104.853112 41.192597 
L 104.853112 40.957493 
L 104.954256 40.957493 
L 105.156545 40.957493 
L 105.156545 40.72239 
L 105.25769 40.72239 
L 105.308262 40.72239 
L 105.409406 40.01708 
L 105.71284 40.01708 
L 105.71284 39.781977 
L 105.813984 39.781977 
L 107.07829 39.781977 
L 107.07829 39.546874 
L 107.179435 39.546874 
L 107.73573 39.546874 
L 107.836874 38.841564 
L 107.887446 38.841564 
L 107.887446 38.606461 
L 107.988591 38.606461 
L 108.292024 38.606461 
L 108.292024 38.371358 
L 108.393169 38.371358 
L 109.758619 38.371358 
L 109.758619 38.136254 
L 109.859764 38.136254 
L 109.910336 38.136254 
L 109.910336 37.901151 
L 110.011481 37.901151 
L 110.416059 37.901151 
L 110.416059 37.666048 
L 110.517203 37.666048 
L 110.719492 37.666048 
L 110.719492 37.430945 
L 110.820637 37.430945 
L 111.073498 37.430945 
L 111.12407 36.960738 
L 111.174642 36.960738 
L 114.158405 36.960738 
L 114.158405 36.725635 
L 114.259549 36.725635 
L 114.562983 36.725635 
L 114.562983 36.490532 
L 114.664127 36.490532 
L 115.220422 36.490532 
L 115.220422 36.255428 
L 115.321567 36.255428 
L 115.473283 36.255428 
L 115.473283 36.020325 
L 115.574428 36.020325 
L 115.625 36.020325 
L 115.625 36.020325 
" clip-path="url(#pbd368246b5)" style="fill: none; stroke: #dda8a8; stroke-width: 2; stroke-linecap: square"/>
   </g>
   <g id="line2d_10">
    <path d="M 44.925 102.554545 
L 45.076717 102.554545 
L 45.076717 102.431759 
L 45.177861 102.431759 
L 45.279006 102.431759 
L 45.38015 101.940612 
L 45.430722 101.940612 
L 45.430722 101.817825 
L 45.531867 101.817825 
L 45.582439 101.817825 
L 45.633011 101.326678 
L 45.683584 101.326678 
L 45.734156 101.326678 
L 45.8353 100.589958 
L 45.936445 100.589958 
L 45.987017 100.221598 
L 46.037589 100.221598 
L 46.088162 100.221598 
L 46.088162 100.098811 
L 46.189306 100.098811 
L 46.290451 100.098811 
L 46.290451 99.976024 
L 46.391595 99.976024 
L 46.543312 99.976024 
L 46.543312 99.853238 
L 46.644456 99.853238 
L 46.695029 99.853238 
L 46.745601 99.607664 
L 46.796173 99.607664 
L 46.846745 99.607664 
L 46.846745 99.484877 
L 46.94789 99.484877 
L 46.998462 99.484877 
L 47.099607 99.116517 
L 47.150179 99.116517 
L 47.150179 98.993731 
L 47.251323 98.993731 
L 47.301896 98.993731 
L 47.352468 98.748157 
L 47.40304 98.748157 
L 47.453612 98.748157 
L 47.554757 98.502584 
L 47.605329 98.502584 
L 47.655901 98.25701 
L 47.706474 98.25701 
L 47.908763 98.25701 
L 47.908763 98.134224 
L 48.009907 98.134224 
L 48.060479 98.134224 
L 48.060479 98.011437 
L 48.161624 98.011437 
L 48.31334 98.011437 
L 48.363913 97.765863 
L 48.414485 97.765863 
L 48.616774 97.765863 
L 48.717918 97.52029 
L 48.768491 97.52029 
L 48.869635 96.906356 
L 48.920207 96.906356 
L 49.021352 96.169636 
L 49.071924 96.169636 
L 49.122496 95.924063 
L 49.173069 95.924063 
L 49.274213 95.924063 
L 49.375358 95.555702 
L 49.42593 95.555702 
L 49.476502 95.310129 
L 49.527074 95.310129 
L 50.437375 95.310129 
L 50.487947 95.064556 
L 50.538519 95.064556 
L 50.639664 95.064556 
L 50.740808 94.696195 
L 50.841953 94.696195 
L 50.943097 94.327835 
L 51.094814 94.327835 
L 51.094814 94.082262 
L 51.195959 94.082262 
L 51.297103 94.082262 
L 51.297103 93.959475 
L 51.398247 93.959475 
L 51.549964 93.959475 
L 51.600536 93.713902 
L 51.651109 93.713902 
L 51.701681 93.713902 
L 51.701681 93.591115 
L 51.802825 93.591115 
L 51.853398 93.591115 
L 51.853398 93.468328 
L 51.954542 93.468328 
L 52.005114 93.468328 
L 52.055687 93.222755 
L 52.106259 93.222755 
L 52.156831 93.222755 
L 52.257976 92.731608 
L 52.35912 92.731608 
L 52.460265 92.240461 
L 52.713126 92.240461 
L 52.713126 91.994888 
L 52.81427 91.994888 
L 52.864843 91.994888 
L 52.965987 91.749314 
L 53.117704 91.749314 
L 53.117704 91.503741 
L 53.218848 91.503741 
L 53.370565 91.503741 
L 53.47171 91.135381 
L 53.572854 91.135381 
L 53.623426 90.889807 
L 53.673999 90.889807 
L 53.825715 90.889807 
L 53.92686 90.521447 
L 54.078577 90.521447 
L 54.179721 90.153087 
L 54.280866 90.153087 
L 54.331438 89.784727 
L 54.38201 89.784727 
L 54.432582 89.784727 
L 54.533727 89.539153 
L 55.140594 89.539153 
L 55.140594 89.416367 
L 55.241738 89.416367 
L 55.29231 89.416367 
L 55.393455 89.170793 
L 55.444027 89.170793 
L 55.545172 88.92522 
L 55.646316 88.92522 
L 55.747461 88.679646 
L 55.798033 88.679646 
L 55.848605 88.311286 
L 55.899177 88.311286 
L 55.94975 88.311286 
L 55.94975 88.188499 
L 56.050894 88.188499 
L 56.152039 88.188499 
L 56.202611 87.942926 
L 56.253183 87.942926 
L 56.506044 87.942926 
L 56.556617 87.574566 
L 56.607189 87.574566 
L 56.657761 87.574566 
L 56.657761 87.328992 
L 56.758906 87.328992 
L 56.809478 87.328992 
L 56.809478 87.206206 
L 56.910622 87.206206 
L 57.011767 87.206206 
L 57.112911 86.960632 
L 57.214056 86.960632 
L 57.214056 86.837845 
L 57.3152 86.837845 
L 57.416345 86.837845 
L 57.517489 86.469485 
L 57.669206 86.469485 
L 57.770351 86.101125 
L 57.871495 86.101125 
L 57.972639 85.855552 
L 58.023212 85.855552 
L 58.023212 85.732765 
L 58.124356 85.732765 
L 58.225501 85.732765 
L 58.276073 85.487192 
L 58.326645 85.487192 
L 58.377217 85.487192 
L 58.377217 85.364405 
L 58.478362 85.364405 
L 58.781795 85.364405 
L 58.88294 84.750471 
L 58.933512 84.750471 
L 59.034657 84.136538 
L 59.085229 84.136538 
L 59.186373 83.522604 
L 59.236946 83.522604 
L 59.33809 83.277031 
L 59.489807 83.277031 
L 59.540379 83.031457 
L 59.590951 83.031457 
L 59.692096 83.031457 
L 59.692096 82.90867 
L 59.79324 82.90867 
L 59.843813 82.90867 
L 59.843813 82.785884 
L 59.944957 82.785884 
L 60.046102 82.785884 
L 60.096674 82.54031 
L 60.147246 82.54031 
L 60.197818 82.54031 
L 60.298963 82.17195 
L 60.400107 82.17195 
L 60.400107 82.049163 
L 60.501252 82.049163 
L 60.602396 82.049163 
L 60.652969 81.558017 
L 60.703541 81.558017 
L 60.754113 81.558017 
L 60.804685 81.312443 
L 60.855258 81.312443 
L 60.90583 81.312443 
L 61.006974 80.330149 
L 61.057546 80.330149 
L 61.158691 79.716216 
L 61.259835 79.716216 
L 61.36098 79.347856 
L 61.411552 79.347856 
L 61.512697 79.102282 
L 61.563269 79.102282 
L 61.613841 78.856709 
L 61.664413 78.856709 
L 61.765558 78.856709 
L 61.866702 78.488349 
L 61.917275 78.488349 
L 61.917275 78.365562 
L 62.018419 78.365562 
L 62.068991 78.365562 
L 62.119564 78.119988 
L 62.170136 78.119988 
L 62.220708 78.119988 
L 62.27128 77.874415 
L 62.321853 77.874415 
L 62.372425 77.874415 
L 62.473569 77.260481 
L 62.524142 77.260481 
L 62.574714 76.892121 
L 62.625286 76.892121 
L 62.726431 76.892121 
L 62.827575 76.646548 
L 62.878147 76.646548 
L 62.878147 76.523761 
L 62.979292 76.523761 
L 63.029864 76.523761 
L 63.131009 76.278188 
L 63.333298 76.278188 
L 63.333298 76.032614 
L 63.434442 76.032614 
L 63.636731 76.032614 
L 63.636731 75.909827 
L 63.737876 75.909827 
L 63.788448 75.909827 
L 63.83902 75.664254 
L 63.889592 75.664254 
L 63.940165 75.664254 
L 64.041309 75.295894 
L 64.091881 75.295894 
L 64.193026 74.68196 
L 64.243598 74.68196 
L 64.243598 74.436387 
L 64.344742 74.436387 
L 64.597604 74.436387 
L 64.597604 74.3136 
L 64.698748 74.3136 
L 64.799893 74.3136 
L 64.850465 74.068027 
L 64.901037 74.068027 
L 65.052754 74.068027 
L 65.153898 73.699667 
L 65.255043 73.699667 
L 65.305615 73.331306 
L 65.356187 73.331306 
L 65.507904 73.331306 
L 65.609049 72.594586 
L 65.659621 72.594586 
L 65.760765 71.980652 
L 65.912482 71.980652 
L 66.013627 71.243932 
L 66.064199 71.243932 
L 66.064199 71.121145 
L 66.165343 71.121145 
L 66.215916 71.121145 
L 66.31706 70.875572 
L 66.468777 70.875572 
L 66.468777 70.752785 
L 66.569921 70.752785 
L 66.671066 70.752785 
L 66.671066 70.629999 
L 66.77221 70.629999 
L 66.822783 70.629999 
L 66.923927 70.261638 
L 66.974499 70.261638 
L 67.075644 70.016065 
L 67.328505 70.016065 
L 67.379077 69.279345 
L 67.429649 69.279345 
L 67.480222 69.279345 
L 67.581366 68.542624 
L 67.631938 68.542624 
L 67.682511 68.051477 
L 67.733083 68.051477 
L 67.8848 68.051477 
L 67.8848 67.928691 
L 67.985944 67.928691 
L 68.087089 67.928691 
L 68.087089 67.805904 
L 68.188233 67.805904 
L 68.289378 67.805904 
L 68.289378 67.560331 
L 68.390522 67.560331 
L 68.542239 67.560331 
L 68.643383 67.19197 
L 68.693956 67.19197 
L 68.7951 66.82361 
L 69.047961 66.82361 
L 69.149106 66.332463 
L 69.199678 66.332463 
L 69.300823 65.841317 
L 69.351395 65.841317 
L 69.452539 65.227383 
L 69.503112 65.227383 
L 69.604256 64.736236 
L 69.654828 64.736236 
L 69.755973 64.367876 
L 69.857117 64.367876 
L 69.90769 63.999516 
L 69.958262 63.999516 
L 70.059406 63.999516 
L 70.160551 63.631156 
L 70.36284 63.631156 
L 70.36284 63.508369 
L 70.463984 63.508369 
L 70.514557 63.508369 
L 70.514557 63.385582 
L 70.615701 63.385582 
L 70.666273 63.385582 
L 70.767418 63.017222 
L 70.81799 63.017222 
L 70.919134 62.526075 
L 70.969707 62.526075 
L 71.020279 61.789355 
L 71.070851 61.789355 
L 71.121423 61.789355 
L 71.222568 61.175421 
L 71.27314 61.175421 
L 71.27314 61.052634 
L 71.374285 61.052634 
L 71.475429 61.052634 
L 71.576574 60.807061 
L 71.627146 60.807061 
L 71.677718 60.561488 
L 71.72829 60.561488 
L 71.880007 60.561488 
L 71.880007 60.438701 
L 71.981152 60.438701 
L 72.082296 60.438701 
L 72.082296 60.193127 
L 72.183441 60.193127 
L 72.234013 60.193127 
L 72.234013 60.070341 
L 72.335157 60.070341 
L 72.38573 60.070341 
L 72.486874 59.33362 
L 72.537446 59.33362 
L 72.588019 58.842474 
L 72.638591 58.842474 
L 72.689163 58.842474 
L 72.739735 58.474113 
L 72.790308 58.474113 
L 73.043169 58.474113 
L 73.043169 58.22854 
L 73.144313 58.22854 
L 73.194886 58.22854 
L 73.245458 57.982967 
L 73.29603 57.982967 
L 73.447747 57.982967 
L 73.447747 57.86018 
L 73.548891 57.86018 
L 73.599464 57.86018 
L 73.700608 57.614606 
L 73.852325 57.614606 
L 73.902897 57.246246 
L 73.953469 57.246246 
L 74.054614 57.246246 
L 74.054614 57.123459 
L 74.155758 57.123459 
L 74.509764 57.123459 
L 74.560336 56.877886 
L 74.610908 56.877886 
L 75.015486 56.877886 
L 75.066059 56.632313 
L 75.116631 56.632313 
L 75.369492 56.632313 
L 75.369492 56.509526 
L 75.470637 56.509526 
L 75.521209 56.509526 
L 75.521209 56.386739 
L 75.622353 56.386739 
L 75.723498 56.386739 
L 75.723498 56.263952 
L 75.824642 56.263952 
L 75.925787 56.263952 
L 76.026931 55.895592 
L 76.178648 55.895592 
L 76.22922 55.650019 
L 76.279793 55.650019 
L 76.330365 55.650019 
L 76.330365 55.527232 
L 76.431509 55.527232 
L 76.532654 55.527232 
L 76.583226 55.281659 
L 76.633798 55.281659 
L 76.937232 55.281659 
L 76.937232 55.036085 
L 77.038376 55.036085 
L 77.088948 55.036085 
L 77.190093 54.544938 
L 77.392382 54.544938 
L 77.392382 54.299365 
L 77.493526 54.299365 
L 77.645243 54.299365 
L 77.695815 53.931005 
L 77.746388 53.931005 
L 77.79696 53.931005 
L 77.898104 53.439858 
L 77.948677 53.439858 
L 78.049821 52.948711 
L 78.100393 52.948711 
L 78.100393 52.825924 
L 78.201538 52.825924 
L 78.25211 52.825924 
L 78.25211 52.703138 
L 78.353255 52.703138 
L 78.504971 52.703138 
L 78.504971 52.580351 
L 78.606116 52.580351 
L 78.909549 52.580351 
L 78.909549 52.457564 
L 79.010694 52.457564 
L 79.111838 52.457564 
L 79.111838 52.211991 
L 79.212983 52.211991 
L 79.415272 52.211991 
L 79.415272 52.089204 
L 79.516416 52.089204 
L 79.668133 52.089204 
L 79.668133 51.966417 
L 79.769278 51.966417 
L 79.81985 51.966417 
L 79.81985 51.843631 
L 79.920994 51.843631 
L 79.971567 51.843631 
L 79.971567 51.720844 
L 80.072711 51.720844 
L 80.173856 51.720844 
L 80.224428 51.352484 
L 80.275 51.352484 
L 80.578433 51.352484 
L 80.578433 51.10691 
L 80.679578 51.10691 
L 80.73015 51.10691 
L 80.831295 50.37019 
L 80.881867 50.37019 
L 80.932439 50.00183 
L 80.983011 50.00183 
L 81.033584 50.00183 
L 81.134728 49.510683 
L 81.337017 49.510683 
L 81.337017 49.387896 
L 81.438162 49.387896 
L 82.550751 49.387896 
L 82.550751 49.142323 
L 82.651896 49.142323 
L 82.702468 49.142323 
L 82.803612 48.896749 
L 83.005901 48.896749 
L 83.005901 48.773963 
L 83.107046 48.773963 
L 83.157618 48.773963 
L 83.157618 48.651176 
L 83.258763 48.651176 
L 83.410479 48.651176 
L 83.511624 48.405602 
L 83.713913 48.405602 
L 83.713913 48.282816 
L 83.815057 48.282816 
L 84.017346 48.282816 
L 84.067918 47.914456 
L 84.118491 47.914456 
L 84.523069 47.914456 
L 84.624213 47.546095 
L 84.725358 47.546095 
L 84.725358 47.423309 
L 84.826502 47.423309 
L 85.028791 47.423309 
L 85.129936 47.177735 
L 85.332225 47.177735 
L 85.332225 47.054949 
L 85.433369 47.054949 
L 85.585086 47.054949 
L 85.585086 46.809375 
L 85.68623 46.809375 
L 85.989664 46.809375 
L 86.090808 45.949868 
L 86.191953 45.949868 
L 86.191953 45.827081 
L 86.293097 45.827081 
L 86.394242 45.827081 
L 86.444814 45.581508 
L 86.495386 45.581508 
L 87.860837 45.581508 
L 87.860837 45.458721 
L 87.961981 45.458721 
L 88.16427 45.458721 
L 88.16427 45.335934 
L 88.265415 45.335934 
L 88.568848 45.335934 
L 88.568848 45.213148 
L 88.669993 45.213148 
L 88.771137 45.213148 
L 88.771137 45.090361 
L 88.872282 45.090361 
L 89.125143 45.090361 
L 89.125143 44.967574 
L 89.226288 44.967574 
L 89.327432 44.967574 
L 89.327432 44.844788 
L 89.428577 44.844788 
L 89.580293 44.844788 
L 89.580293 44.722001 
L 89.681438 44.722001 
L 89.883727 44.722001 
L 89.934299 44.476427 
L 89.984871 44.476427 
L 90.086016 44.476427 
L 90.086016 44.353641 
L 90.18716 44.353641 
L 90.288305 44.353641 
L 90.288305 44.230854 
L 90.389449 44.230854 
L 90.490594 44.230854 
L 90.541166 43.862494 
L 90.591738 43.862494 
L 90.64231 43.862494 
L 90.64231 43.739707 
L 90.743455 43.739707 
L 91.097461 43.739707 
L 91.198605 43.371347 
L 91.249177 43.371347 
L 91.249177 43.24856 
L 91.350322 43.24856 
L 91.400894 43.24856 
L 91.400894 43.125774 
L 91.502039 43.125774 
L 91.653755 43.125774 
L 91.653755 43.002987 
L 91.7549 43.002987 
L 91.856044 43.002987 
L 91.957189 42.757413 
L 92.21005 42.757413 
L 92.21005 42.634627 
L 92.311195 42.634627 
L 92.513484 42.634627 
L 92.513484 42.51184 
L 92.614628 42.51184 
L 92.766345 42.51184 
L 92.816917 42.266266 
L 92.867489 42.266266 
L 93.221495 42.266266 
L 93.272067 41.897906 
L 93.322639 41.897906 
L 93.373212 41.897906 
L 93.474356 41.652333 
L 93.575501 41.652333 
L 93.575501 41.529546 
L 93.676645 41.529546 
L 93.727217 41.529546 
L 93.828362 41.283973 
L 93.980079 41.283973 
L 93.980079 41.161186 
L 94.081223 41.161186 
L 94.182368 41.161186 
L 94.283512 40.547252 
L 94.586946 40.547252 
L 94.586946 40.424466 
L 94.68809 40.424466 
L 95.193813 40.424466 
L 95.193813 40.301679 
L 95.294957 40.301679 
L 95.396102 40.301679 
L 95.497246 40.056106 
L 95.699535 40.056106 
L 95.699535 39.933319 
L 95.80068 39.933319 
L 95.851252 39.933319 
L 95.851252 39.810532 
L 95.952396 39.810532 
L 96.053541 39.810532 
L 96.053541 39.687745 
L 96.154685 39.687745 
L 96.205258 39.687745 
L 96.205258 39.564959 
L 96.306402 39.564959 
L 96.660408 39.564959 
L 96.660408 39.442172 
L 96.761552 39.442172 
L 97.418991 39.442172 
L 97.418991 39.319385 
L 97.520136 39.319385 
L 97.62128 39.319385 
L 97.722425 39.073812 
L 97.975286 39.073812 
L 98.076431 38.582665 
L 98.329292 38.582665 
L 98.430436 38.214305 
L 99.441881 38.214305 
L 99.441881 38.091518 
L 99.543026 38.091518 
L 99.593598 38.091518 
L 99.593598 37.968731 
L 99.694742 37.968731 
L 100.048748 37.968731 
L 100.048748 37.845945 
L 100.149893 37.845945 
L 100.301609 37.845945 
L 100.301609 37.723158 
L 100.402754 37.723158 
L 100.554471 37.723158 
L 100.554471 37.600371 
L 100.655615 37.600371 
L 100.75676 37.600371 
L 100.75676 37.477584 
L 100.857904 37.477584 
L 101.009621 37.477584 
L 101.009621 37.354798 
L 101.110765 37.354798 
L 101.717632 37.354798 
L 101.818777 36.863651 
L 102.071638 36.863651 
L 102.071638 36.740864 
L 102.172783 36.740864 
L 102.223355 36.740864 
L 102.223355 36.495291 
L 102.324499 36.495291 
L 102.830222 36.495291 
L 102.830222 36.372504 
L 102.931366 36.372504 
L 102.981938 36.372504 
L 103.032511 36.004144 
L 103.083083 36.004144 
L 103.133655 36.004144 
L 103.133655 35.881357 
L 103.2348 35.881357 
L 103.437089 35.881357 
L 103.437089 35.75857 
L 103.538233 35.75857 
L 103.740522 35.75857 
L 103.740522 35.635784 
L 103.841667 35.635784 
L 104.397961 35.635784 
L 104.397961 35.512997 
L 104.499106 35.512997 
L 104.60025 35.512997 
L 104.60025 35.39021 
L 104.701395 35.39021 
L 104.802539 35.39021 
L 104.802539 35.144637 
L 104.903684 35.144637 
L 105.409406 35.144637 
L 105.409406 35.02185 
L 105.510551 35.02185 
L 105.763412 35.02185 
L 105.763412 34.899063 
L 105.864557 34.899063 
L 107.230007 34.899063 
L 107.230007 34.776277 
L 107.331152 34.776277 
L 107.584013 34.776277 
L 107.584013 34.65349 
L 107.685157 34.65349 
L 107.836874 34.65349 
L 107.836874 34.530703 
L 107.938019 34.530703 
L 108.595458 34.530703 
L 108.595458 34.407916 
L 108.696602 34.407916 
L 108.949464 34.407916 
L 108.949464 34.28513 
L 109.050608 34.28513 
L 109.354041 34.28513 
L 109.354041 34.162343 
L 109.455186 34.162343 
L 109.505758 34.162343 
L 109.505758 33.91677 
L 109.606903 33.91677 
L 109.657475 33.91677 
L 109.657475 33.793983 
L 109.758619 33.793983 
L 109.859764 33.793983 
L 109.960908 33.548409 
L 110.011481 33.548409 
L 110.011481 33.425623 
L 110.112625 33.425623 
L 110.314914 33.425623 
L 110.416059 33.180049 
L 110.820637 33.180049 
L 110.820637 33.057263 
L 110.921781 33.057263 
L 111.427504 33.057263 
L 111.478076 32.811689 
L 111.528648 32.811689 
L 111.680365 32.811689 
L 111.730937 32.566116 
L 111.781509 32.566116 
L 111.933226 32.566116 
L 111.933226 32.443329 
L 112.034371 32.443329 
L 112.590665 32.443329 
L 112.590665 32.320542 
L 112.69181 32.320542 
L 113.298677 32.320542 
L 113.298677 32.197756 
L 113.399821 32.197756 
L 113.703255 32.197756 
L 113.703255 32.074969 
L 113.804399 32.074969 
L 113.905544 32.074969 
L 113.905544 31.952182 
L 114.006688 31.952182 
L 114.05726 31.952182 
L 114.05726 31.829395 
L 114.158405 31.829395 
L 114.461838 31.829395 
L 114.562983 31.461035 
L 114.967561 31.461035 
L 114.967561 31.338249 
L 115.068705 31.338249 
L 115.16985 31.338249 
L 115.16985 31.215462 
L 115.270994 31.215462 
L 115.372139 31.215462 
L 115.372139 30.969888 
L 115.473283 30.969888 
L 115.523856 30.969888 
L 115.523856 30.847102 
L 115.625 30.847102 
" clip-path="url(#pbd368246b5)" style="fill: none; stroke: #e88080; stroke-width: 2; stroke-linecap: square"/>
   </g>
   <g id="line2d_11">
    <path d="M 44.925 102.554545 
L 44.975572 102.554545 
L 44.975572 102.361985 
L 45.076717 102.361985 
L 45.279006 102.265704 
L 45.38015 101.784302 
L 45.430722 101.784302 
L 45.531867 101.302901 
L 45.936445 101.20662 
L 45.987017 100.917779 
L 46.037589 100.917779 
L 46.088162 100.917779 
L 46.189306 100.436377 
L 46.442167 100.340097 
L 46.543312 99.954975 
L 46.644456 99.858695 
L 46.695029 99.666134 
L 46.745601 99.666134 
L 46.846745 99.569854 
L 46.94789 99.281013 
L 47.150179 99.184732 
L 47.200751 98.895891 
L 47.251323 98.895891 
L 47.301896 98.895891 
L 47.40304 98.414489 
L 47.453612 98.414489 
L 47.554757 97.836807 
L 47.85819 97.740526 
L 47.959335 97.451685 
L 48.060479 97.355405 
L 48.111052 97.066564 
L 48.161624 97.066564 
L 48.363913 97.066564 
L 48.465057 96.681442 
L 48.515629 96.681442 
L 48.616774 96.296321 
L 48.667346 96.296321 
L 48.768491 95.814919 
L 48.819063 95.814919 
L 48.920207 95.526078 
L 48.97078 95.526078 
L 49.071924 95.140956 
L 49.324785 95.044676 
L 49.42593 94.755835 
L 49.577647 94.659554 
L 49.628219 94.274433 
L 49.678791 94.274433 
L 49.88108 94.178152 
L 49.88108 94.081872 
L 49.982225 94.081872 
L 50.386803 93.985592 
L 50.437375 93.793031 
L 50.487947 93.793031 
L 50.639664 93.696751 
L 50.740808 93.119068 
L 51.195959 93.022788 
L 51.246531 92.830227 
L 51.297103 92.830227 
L 51.651109 92.733947 
L 51.651109 92.637666 
L 51.752253 92.637666 
L 51.853398 92.637666 
L 51.853398 92.445106 
L 51.954542 92.445106 
L 52.055687 92.348825 
L 52.156831 92.059984 
L 52.308548 91.963704 
L 52.409692 91.674863 
L 52.763698 91.578582 
L 52.763698 91.386021 
L 52.864843 91.386021 
L 53.016559 91.289741 
L 53.016559 91.193461 
L 53.117704 91.193461 
L 53.724571 91.09718 
L 53.724571 91.0009 
L 53.825715 91.0009 
L 53.977432 90.90462 
L 54.078577 90.519498 
L 54.230293 90.423218 
L 54.230293 90.326937 
L 54.331438 90.326937 
L 54.533727 90.230657 
L 54.533727 90.134376 
L 54.634871 90.134376 
L 54.83716 90.038096 
L 54.938305 89.749255 
L 55.140594 89.652975 
L 55.140594 89.556694 
L 55.241738 89.556694 
L 55.444027 89.460414 
L 55.545172 89.171573 
L 55.646316 89.075292 
L 55.696888 88.882732 
L 55.747461 88.882732 
L 55.798033 88.882732 
L 55.899177 88.40133 
L 55.94975 88.40133 
L 56.050894 88.016208 
L 56.101466 88.016208 
L 56.152039 87.727367 
L 56.202611 87.727367 
L 56.4049 87.631087 
L 56.506044 87.342245 
L 56.708333 87.245965 
L 56.758906 87.053404 
L 56.809478 87.053404 
L 56.910622 86.957124 
L 57.011767 86.572002 
L 57.163484 86.475722 
L 57.264628 85.801759 
L 57.365773 85.705479 
L 57.365773 85.512918 
L 57.466917 85.512918 
L 57.517489 85.512918 
L 57.618634 84.935236 
L 57.871495 84.935236 
L 57.871495 84.742675 
L 57.972639 84.742675 
L 58.174928 84.646395 
L 58.276073 83.876152 
L 58.377217 83.779871 
L 58.42779 83.587311 
L 58.478362 83.587311 
L 58.680651 83.49103 
L 58.781795 82.720787 
L 58.88294 82.624507 
L 58.933512 82.143105 
L 58.984084 82.143105 
L 59.085229 82.046825 
L 59.135801 81.757983 
L 59.186373 81.757983 
L 59.236946 81.757983 
L 59.33809 81.084021 
L 59.388662 81.084021 
L 59.439235 80.79518 
L 59.489807 80.79518 
L 59.742668 80.698899 
L 59.843813 80.313778 
L 60.096674 80.217497 
L 60.096674 80.121217 
L 60.197818 80.121217 
L 60.248391 80.121217 
L 60.298963 79.639815 
L 60.349535 79.639815 
L 60.501252 79.543535 
L 60.551824 79.254694 
L 60.602396 79.254694 
L 60.652969 79.254694 
L 60.703541 78.869572 
L 60.754113 78.869572 
L 60.90583 78.869572 
L 60.956402 78.29189 
L 61.006974 78.29189 
L 61.209263 78.195609 
L 61.259835 77.906768 
L 61.310408 77.906768 
L 61.36098 77.906768 
L 61.36098 77.521647 
L 61.462124 77.521647 
L 61.765558 77.425366 
L 61.866702 77.040245 
L 62.018419 76.943964 
L 62.068991 76.558843 
L 62.119564 76.558843 
L 62.170136 76.558843 
L 62.27128 76.173721 
L 62.372425 76.077441 
L 62.473569 75.403478 
L 62.524142 75.403478 
L 62.625286 74.536955 
L 62.777003 74.440675 
L 62.878147 74.055553 
L 63.232153 73.959273 
L 63.333298 73.670432 
L 63.535587 73.574151 
L 63.636731 73.28531 
L 63.83902 73.28531 
L 63.889592 72.611347 
L 63.940165 72.611347 
L 64.193026 72.515067 
L 64.29417 72.129946 
L 64.445887 72.033665 
L 64.547031 71.552263 
L 64.799893 71.552263 
L 64.901037 70.974581 
L 65.052754 70.878301 
L 65.153898 70.493179 
L 65.40676 70.396899 
L 65.40676 70.300618 
L 65.507904 70.300618 
L 65.710193 70.204338 
L 65.811338 69.337815 
L 65.86191 69.337815 
L 65.963054 68.760132 
L 66.114771 68.663852 
L 66.215916 68.471291 
L 66.266488 68.471291 
L 66.367632 68.18245 
L 66.468777 68.18245 
L 66.519349 67.893609 
L 66.569921 67.893609 
L 66.620494 67.893609 
L 66.620494 67.701048 
L 66.721638 67.701048 
L 66.974499 67.701048 
L 67.025072 67.315927 
L 67.075644 67.315927 
L 67.227361 67.219646 
L 67.328505 66.738244 
L 67.429649 66.738244 
L 67.530794 66.160562 
L 67.581366 66.160562 
L 67.682511 65.58288 
L 67.834227 65.486599 
L 67.8848 65.294039 
L 67.935372 65.294039 
L 68.137661 65.197758 
L 68.188233 64.812637 
L 68.238805 64.812637 
L 68.441094 64.716356 
L 68.542239 64.331235 
L 68.643383 64.331235 
L 68.693956 63.657272 
L 68.744528 63.657272 
L 68.946817 63.560992 
L 69.047961 62.790749 
L 69.149106 62.694468 
L 69.25025 61.731665 
L 69.300823 61.731665 
L 69.401967 60.48002 
L 69.553684 60.383739 
L 69.654828 59.998618 
L 69.755973 59.998618 
L 69.755973 59.806057 
L 69.857117 59.806057 
L 69.958262 59.709777 
L 70.059406 59.132094 
L 70.211123 59.035814 
L 70.312268 58.746973 
L 70.514557 58.650692 
L 70.615701 58.16929 
L 70.666273 58.16929 
L 70.767418 56.821365 
L 70.81799 56.821365 
L 70.919134 56.339963 
L 71.070851 56.243683 
L 71.171996 55.377159 
L 71.222568 55.377159 
L 71.222568 54.992038 
L 71.323712 54.992038 
L 71.475429 54.895758 
L 71.576574 54.414356 
L 71.829435 54.318075 
L 71.880007 53.932954 
L 71.930579 53.932954 
L 72.082296 53.932954 
L 72.183441 53.355272 
L 72.335157 53.258991 
L 72.436302 52.681309 
L 72.588019 52.585028 
L 72.689163 51.622225 
L 72.790308 51.525944 
L 72.891452 51.237103 
L 73.043169 51.140823 
L 73.144313 50.659421 
L 73.194886 50.659421 
L 73.245458 50.178019 
L 73.29603 50.178019 
L 73.548891 50.081739 
L 73.548891 49.696617 
L 73.650036 49.696617 
L 73.801753 49.696617 
L 73.902897 49.407776 
L 74.054614 49.407776 
L 74.054614 49.215215 
L 74.155758 49.215215 
L 74.256903 49.215215 
L 74.307475 48.637533 
L 74.358047 48.637533 
L 74.509764 48.541253 
L 74.610908 48.156131 
L 74.914342 48.059851 
L 74.964914 47.86729 
L 75.015486 47.86729 
L 75.167203 47.771009 
L 75.268348 47.482168 
L 75.521209 47.385888 
L 75.521209 47.289608 
L 75.622353 47.289608 
L 75.77407 47.193327 
L 75.875215 47.000766 
L 76.178648 46.904486 
L 76.279793 46.423084 
L 76.482082 46.326804 
L 76.532654 46.037963 
L 76.583226 46.037963 
L 76.633798 46.037963 
L 76.734943 45.749122 
L 76.937232 45.749122 
L 76.987804 45.46028 
L 77.038376 45.46028 
L 77.190093 45.364 
L 77.240665 45.171439 
L 77.291237 45.171439 
L 77.442954 45.075159 
L 77.544099 44.882598 
L 77.695815 44.786318 
L 77.746388 44.497477 
L 77.79696 44.497477 
L 78.201538 44.401196 
L 78.25211 44.208635 
L 78.302682 44.208635 
L 78.70726 44.112355 
L 78.70726 44.016075 
L 78.808405 44.016075 
L 79.111838 43.919794 
L 79.162411 43.630953 
L 79.212983 43.630953 
L 79.3647 43.534673 
L 79.465844 43.245832 
L 79.870422 43.149551 
L 79.870422 43.053271 
L 79.971567 43.053271 
L 80.73015 42.956991 
L 80.831295 42.668149 
L 81.640451 42.571869 
L 81.691023 42.379308 
L 81.741595 42.379308 
L 81.943884 42.283028 
L 81.994456 42.090467 
L 82.045029 42.090467 
L 82.449607 41.994187 
L 82.500179 41.801626 
L 82.550751 41.801626 
L 82.702468 41.705346 
L 82.803612 41.512785 
L 83.309335 41.416504 
L 83.309335 41.320224 
L 83.410479 41.320224 
L 83.562196 41.320224 
L 83.66334 41.031383 
L 84.017346 40.935103 
L 84.067918 40.646261 
L 84.118491 40.646261 
L 84.32078 40.549981 
L 84.421924 40.26114 
L 84.624213 40.16486 
L 84.725358 39.683458 
L 85.180508 39.587177 
L 85.23108 39.394616 
L 85.281652 39.394616 
L 86.141381 39.298336 
L 86.242525 39.105775 
L 86.545959 39.009495 
L 86.545959 38.913215 
L 86.647103 38.913215 
L 86.950536 38.816934 
L 86.950536 38.720654 
L 87.051681 38.720654 
L 87.506831 38.624373 
L 87.506831 38.528093 
L 87.607976 38.528093 
L 87.860837 38.431813 
L 87.961981 38.239252 
L 88.16427 38.142972 
L 88.16427 38.046691 
L 88.265415 38.046691 
L 88.922854 37.950411 
L 88.922854 37.85413 
L 89.023999 37.85413 
L 89.074571 37.85413 
L 89.125143 37.565289 
L 89.175715 37.565289 
L 89.27686 37.469009 
L 89.378004 37.180168 
L 89.73201 37.083887 
L 89.833155 36.795046 
L 90.338877 36.698766 
L 90.338877 36.602485 
L 90.440021 36.602485 
L 90.794027 36.506205 
L 90.844599 36.217364 
L 90.895172 36.217364 
L 90.996316 36.121084 
L 91.046888 35.735962 
L 91.097461 35.735962 
L 91.7549 35.639682 
L 91.805472 35.350841 
L 91.856044 35.350841 
L 92.614628 35.25456 
L 92.614628 35.15828 
L 92.715773 35.15828 
L 92.968634 35.061999 
L 92.968634 34.965719 
L 93.069778 34.965719 
L 93.575501 34.965719 
L 93.575501 34.773158 
L 93.676645 34.773158 
L 93.77779 34.773158 
L 93.77779 34.580597 
L 93.878934 34.580597 
L 94.586946 34.484317 
L 94.586946 34.388037 
L 94.68809 34.388037 
L 94.738662 34.388037 
L 94.839807 34.002915 
L 94.991524 33.906635 
L 94.991524 33.810354 
L 95.092668 33.810354 
L 95.244385 33.714074 
L 95.244385 33.617794 
L 95.345529 33.617794 
L 95.80068 33.521513 
L 95.80068 33.328953 
L 95.901824 33.328953 
L 96.154685 33.232672 
L 96.25583 32.847551 
L 96.508691 32.75127 
L 96.609835 32.462429 
L 96.761552 32.366149 
L 96.761552 32.269868 
L 96.862697 32.269868 
L 97.16613 32.173588 
L 97.16613 32.077308 
L 97.267275 32.077308 
L 98.885587 31.981027 
L 98.885587 31.884747 
L 98.986731 31.884747 
L 99.745315 31.788466 
L 99.745315 31.692186 
L 99.846459 31.692186 
L 101.970494 31.595906 
L 101.970494 31.499625 
L 102.071638 31.499625 
L 102.476216 31.403345 
L 102.476216 31.307065 
L 102.577361 31.307065 
L 103.083083 31.210784 
L 103.184227 31.018223 
L 103.68995 30.921943 
L 103.68995 30.825663 
L 103.791094 30.825663 
L 105.004828 30.729382 
L 105.004828 30.633102 
L 105.105973 30.633102 
L 105.965701 30.536822 
L 105.965701 30.440541 
L 106.066845 30.440541 
L 106.572568 30.344261 
L 106.572568 30.24798 
L 106.673712 30.24798 
L 108.140308 30.1517 
L 108.19088 29.959139 
L 108.241452 29.959139 
L 109.303469 29.862859 
L 109.354041 29.670298 
L 109.404614 29.670298 
L 109.708047 29.574018 
L 109.708047 29.477737 
L 109.809192 29.477737 
L 111.326359 29.381457 
L 111.326359 29.285177 
L 111.427504 29.285177 
L 112.995243 29.188896 
L 112.995243 28.996335 
L 113.096388 28.996335 
L 113.905544 28.900055 
L 113.905544 28.803775 
L 114.006688 28.803775 
L 115.119278 28.707494 
L 115.119278 28.611214 
L 115.220422 28.611214 
L 115.372139 28.611214 
L 115.372139 28.418653 
L 115.473283 28.418653 
L 115.625 28.418653 
L 115.625 28.418653 
" clip-path="url(#pbd368246b5)" style="fill: none; stroke: #f45757; stroke-width: 2; stroke-linecap: square"/>
   </g>
   <g id="line2d_12">
    <path d="M 44.925 102.554545 
L 45.026144 102.468058 
L 45.076717 102.208595 
L 45.127289 102.208595 
L 45.329578 102.208595 
L 45.38015 101.776157 
L 45.430722 101.776157 
L 45.531867 101.689669 
L 45.633011 101.084256 
L 45.784728 100.997769 
L 45.885873 100.478843 
L 45.987017 100.392355 
L 46.088162 100.132893 
L 46.239878 100.046405 
L 46.290451 99.87343 
L 46.341023 99.87343 
L 46.391595 99.87343 
L 46.49274 99.613967 
L 46.593884 99.527479 
L 46.695029 99.268017 
L 46.796173 99.181529 
L 46.897318 98.835579 
L 46.998462 98.749091 
L 46.998462 98.662603 
L 47.099607 98.662603 
L 47.251323 98.576116 
L 47.301896 97.970702 
L 47.352468 97.970702 
L 47.40304 97.970702 
L 47.504185 97.192314 
L 47.655901 97.105826 
L 47.655901 97.019339 
L 47.757046 97.019339 
L 48.262768 96.932851 
L 48.363913 96.759876 
L 48.566202 96.673388 
L 48.566202 96.586901 
L 48.667346 96.586901 
L 48.717918 96.586901 
L 48.819063 96.154463 
L 48.97078 96.067975 
L 49.021352 95.895 
L 49.071924 95.895 
L 49.122496 95.895 
L 49.223641 95.289587 
L 49.274213 95.289587 
L 49.324785 95.030124 
L 49.375358 95.030124 
L 49.678791 94.943636 
L 49.729363 94.684174 
L 49.779936 94.684174 
L 50.133941 94.597686 
L 50.235086 94.165248 
L 50.538519 94.07876 
L 50.639664 93.38686 
L 50.690236 93.38686 
L 50.791381 93.040909 
L 50.943097 93.040909 
L 50.943097 92.867934 
L 51.044242 92.867934 
L 51.195959 92.867934 
L 51.195959 92.608471 
L 51.297103 92.608471 
L 51.398247 92.608471 
L 51.499392 92.349008 
L 51.90397 92.262521 
L 52.005114 92.089545 
L 52.106259 92.089545 
L 52.207403 91.657107 
L 52.308548 91.57062 
L 52.35912 91.311157 
L 52.409692 91.311157 
L 52.510837 91.224669 
L 52.611981 90.705744 
L 52.662554 90.705744 
L 52.763698 90.446281 
L 53.117704 90.359793 
L 53.218848 90.186818 
L 53.370565 90.186818 
L 53.47171 89.927355 
L 53.522282 89.927355 
L 53.623426 89.667893 
L 53.92686 89.667893 
L 54.028004 89.40843 
L 54.078577 89.40843 
L 54.179721 88.889504 
L 54.230293 88.889504 
L 54.331438 88.284091 
L 54.38201 88.284091 
L 54.432582 88.024628 
L 54.483155 88.024628 
L 54.634871 87.93814 
L 54.634871 87.851653 
L 54.736016 87.851653 
L 54.988877 87.765165 
L 55.090021 87.59219 
L 55.191166 87.59219 
L 55.191166 87.419215 
L 55.29231 87.419215 
L 55.393455 87.419215 
L 55.494599 87.159752 
L 55.595744 87.073264 
L 55.646316 86.294876 
L 55.696888 86.294876 
L 55.747461 86.294876 
L 55.848605 85.689463 
L 55.899177 85.689463 
L 56.000322 85.170537 
L 56.101466 85.170537 
L 56.202611 84.651612 
L 56.4049 84.565124 
L 56.506044 84.046198 
L 56.657761 83.959711 
L 56.758906 83.700248 
L 57.214056 83.61376 
L 57.3152 83.354298 
L 57.365773 83.354298 
L 57.466917 83.008347 
L 57.517489 83.008347 
L 57.618634 82.662397 
L 57.719778 82.575909 
L 57.820923 82.143471 
L 58.023212 82.143471 
L 58.073784 81.797521 
L 58.124356 81.797521 
L 58.174928 81.797521 
L 58.225501 81.45157 
L 58.276073 81.45157 
L 58.326645 81.45157 
L 58.42779 81.10562 
L 58.478362 81.10562 
L 58.579506 80.846157 
L 58.731223 80.846157 
L 58.781795 80.586694 
L 58.832368 80.586694 
L 58.933512 80.500207 
L 59.034657 79.808306 
L 59.135801 79.721818 
L 59.236946 79.202893 
L 59.287518 79.202893 
L 59.388662 78.770455 
L 59.540379 78.683967 
L 59.641524 78.510992 
L 59.79324 78.424504 
L 59.894385 78.251529 
L 59.944957 78.251529 
L 60.046102 77.646116 
L 60.096674 77.646116 
L 60.096674 77.386653 
L 60.197818 77.386653 
L 60.45068 77.300165 
L 60.551824 77.040702 
L 60.703541 76.954215 
L 60.804685 76.348802 
L 60.855258 76.348802 
L 60.956402 75.224463 
L 61.108119 75.137975 
L 61.209263 74.532562 
L 61.411552 74.446074 
L 61.512697 74.013636 
L 61.765558 73.927149 
L 61.866702 73.581198 
L 62.119564 73.494711 
L 62.220708 73.321736 
L 62.321853 73.235248 
L 62.422997 72.629835 
L 62.473569 72.629835 
L 62.574714 72.024421 
L 62.625286 72.024421 
L 62.726431 71.246033 
L 62.777003 71.246033 
L 62.878147 70.813595 
L 63.181581 70.727107 
L 63.181581 70.64062 
L 63.282725 70.64062 
L 63.434442 70.554132 
L 63.434442 70.467645 
L 63.535587 70.467645 
L 63.737876 70.381157 
L 63.83902 70.035207 
L 63.940165 69.948719 
L 64.041309 69.602769 
L 64.142454 69.516281 
L 64.243598 68.997355 
L 64.395315 68.910868 
L 64.496459 68.47843 
L 64.648176 68.47843 
L 64.648176 68.305455 
L 64.74932 68.305455 
L 64.799893 68.305455 
L 64.901037 68.045992 
L 65.103326 67.959504 
L 65.153898 67.786529 
L 65.204471 67.786529 
L 65.255043 67.786529 
L 65.255043 67.527066 
L 65.356187 67.527066 
L 65.558476 67.527066 
L 65.659621 67.181116 
L 65.760765 67.181116 
L 65.86191 66.489215 
L 65.912482 66.489215 
L 66.013627 66.143264 
L 66.165343 66.143264 
L 66.215916 65.883802 
L 66.266488 65.883802 
L 66.367632 65.797314 
L 66.468777 65.537851 
L 66.620494 65.451364 
L 66.721638 65.105413 
L 66.873355 65.018926 
L 66.974499 64.5 
L 67.025072 64.5 
L 67.075644 64.15405 
L 67.126216 64.15405 
L 67.227361 64.067562 
L 67.277933 63.808099 
L 67.328505 63.808099 
L 67.379077 63.808099 
L 67.480222 63.289174 
L 67.581366 63.202686 
L 67.682511 62.597273 
L 67.783655 62.510785 
L 67.8848 62.078347 
L 68.087089 61.99186 
L 68.188233 61.732397 
L 68.289378 61.645909 
L 68.289378 61.472934 
L 68.390522 61.472934 
L 68.643383 61.386446 
L 68.693956 61.126983 
L 68.744528 61.126983 
L 68.845672 61.040496 
L 68.845672 60.954008 
L 68.946817 60.954008 
L 68.997389 60.954008 
L 69.098534 60.608058 
L 69.149106 60.608058 
L 69.199678 59.829669 
L 69.25025 59.829669 
L 69.300823 59.829669 
L 69.401967 59.051281 
L 69.452539 59.051281 
L 69.553684 58.532355 
L 69.604256 58.532355 
L 69.705401 58.099917 
L 69.90769 58.099917 
L 70.008834 57.667479 
L 70.160551 57.580992 
L 70.261695 57.235041 
L 70.413412 57.148554 
L 70.463984 56.54314 
L 70.514557 56.54314 
L 70.615701 56.456653 
L 70.666273 56.024215 
L 70.716845 56.024215 
L 70.767418 56.024215 
L 70.868562 55.591777 
L 70.919134 55.591777 
L 71.020279 54.986364 
L 71.121423 54.899876 
L 71.222568 54.207975 
L 71.374285 54.121488 
L 71.424857 53.862025 
L 71.475429 53.862025 
L 71.576574 53.862025 
L 71.677718 53.343099 
L 71.72829 53.343099 
L 71.829435 52.910661 
L 72.031724 52.824174 
L 72.132868 52.564711 
L 72.183441 52.564711 
L 72.284585 52.132273 
L 72.436302 52.045785 
L 72.537446 51.87281 
L 72.588019 51.87281 
L 72.689163 51.267397 
L 72.739735 51.267397 
L 72.84088 50.748471 
L 72.891452 50.748471 
L 72.992597 50.229545 
L 73.194886 50.143058 
L 73.194886 50.05657 
L 73.29603 50.05657 
L 73.498319 49.970083 
L 73.498319 49.883595 
L 73.599464 49.883595 
L 73.650036 49.883595 
L 73.650036 49.71062 
L 73.75118 49.71062 
L 73.852325 49.624132 
L 73.953469 49.364669 
L 74.105186 49.278182 
L 74.20633 48.845744 
L 74.256903 48.845744 
L 74.358047 48.240331 
L 74.408619 48.240331 
L 74.509764 47.721405 
L 74.661481 47.634917 
L 74.712053 47.375455 
L 74.762625 47.375455 
L 74.86377 47.288967 
L 74.964914 47.029504 
L 75.116631 46.943017 
L 75.217775 46.597066 
L 75.470637 46.510579 
L 75.571781 46.164628 
L 75.824642 46.07814 
L 75.925787 45.73219 
L 75.976359 45.73219 
L 76.077504 45.299752 
L 76.22922 45.299752 
L 76.22922 45.126777 
L 76.330365 45.126777 
L 76.684371 45.040289 
L 76.684371 44.953802 
L 76.785515 44.953802 
L 76.937232 44.867314 
L 76.937232 44.780826 
L 77.038376 44.780826 
L 77.139521 44.694339 
L 77.240665 44.434876 
L 77.291237 44.434876 
L 77.392382 44.175413 
L 77.594671 44.088926 
L 77.695815 43.483512 
L 77.746388 43.483512 
L 77.746388 43.310537 
L 77.847532 43.310537 
L 78.201538 43.22405 
L 78.201538 43.137562 
L 78.302682 43.137562 
L 78.403827 43.137562 
L 78.403827 42.964587 
L 78.504971 42.964587 
L 78.858977 42.878099 
L 78.960122 42.705124 
L 79.061266 42.705124 
L 79.162411 42.359174 
L 79.3647 42.272686 
L 79.3647 42.099711 
L 79.465844 42.099711 
L 79.516416 42.099711 
L 79.617561 41.667273 
L 79.81985 41.580785 
L 79.81985 41.494298 
L 79.920994 41.494298 
L 80.224428 41.40781 
L 80.325572 41.234835 
L 80.679578 41.148347 
L 80.73015 40.802397 
L 80.780722 40.802397 
L 80.932439 40.715909 
L 80.983011 40.283471 
L 81.033584 40.283471 
L 81.134728 40.196983 
L 81.1853 40.024008 
L 81.235873 40.024008 
L 81.741595 39.937521 
L 81.792167 39.678058 
L 81.84274 39.678058 
L 82.399034 39.59157 
L 82.399034 39.505083 
L 82.500179 39.505083 
L 82.550751 39.505083 
L 82.550751 39.332107 
L 82.651896 39.332107 
L 82.803612 39.24562 
L 82.904757 38.986157 
L 83.562196 38.899669 
L 83.612768 38.726694 
L 83.66334 38.726694 
L 83.966774 38.640207 
L 84.017346 38.380744 
L 84.067918 38.380744 
L 84.219635 38.294256 
L 84.32078 38.034793 
L 84.725358 37.948306 
L 84.725358 37.775331 
L 84.826502 37.775331 
L 85.837947 37.688843 
L 85.888519 37.515868 
L 85.939092 37.515868 
L 86.444814 37.42938 
L 86.495386 37.08343 
L 86.545959 37.08343 
L 87.102253 36.996942 
L 87.152825 36.823967 
L 87.203398 36.823967 
L 87.405687 36.823967 
L 87.506831 36.478017 
L 87.70912 36.391529 
L 87.759692 36.218554 
L 87.810265 36.218554 
L 87.961981 36.132066 
L 87.961981 36.045579 
L 88.063126 36.045579 
L 88.214843 35.959091 
L 88.214843 35.872603 
L 88.315987 35.872603 
L 88.720565 35.786116 
L 88.720565 35.61314 
L 88.82171 35.61314 
L 88.922854 35.61314 
L 88.922854 35.440165 
L 89.023999 35.440165 
L 89.580293 35.353678 
L 89.580293 35.180702 
L 89.681438 35.180702 
L 90.237732 35.094215 
L 90.237732 34.92124 
L 90.338877 34.92124 
L 91.148033 34.834752 
L 91.249177 34.575289 
L 91.400894 34.488802 
L 91.400894 34.402314 
L 91.502039 34.402314 
L 91.653755 34.315826 
L 91.7549 34.056364 
L 92.462911 33.969876 
L 92.564056 33.796901 
L 92.968634 33.710413 
L 92.968634 33.537438 
L 93.069778 33.537438 
L 95.14324 33.45095 
L 95.14324 33.364463 
L 95.244385 33.364463 
L 95.446674 33.364463 
L 95.446674 33.191488 
L 95.547818 33.191488 
L 96.25583 33.105 
L 96.25583 33.018512 
L 96.356974 33.018512 
L 96.458119 32.932025 
L 96.458119 32.845537 
L 96.559263 32.845537 
L 97.317847 32.75905 
L 97.317847 32.672562 
L 97.418991 32.672562 
L 97.823569 32.586074 
L 97.924714 32.240124 
L 98.430436 32.153636 
L 98.430436 32.067149 
L 98.531581 32.067149 
L 99.543026 31.980661 
L 99.543026 31.894174 
L 99.64417 31.894174 
L 99.795887 31.807686 
L 99.795887 31.721198 
L 99.897031 31.721198 
L 100.149893 31.634711 
L 100.149893 31.548223 
L 100.251037 31.548223 
L 100.402754 31.548223 
L 100.503898 31.28876 
L 101.060193 31.202273 
L 101.110765 31.029298 
L 101.161338 31.029298 
L 101.262482 30.94281 
L 101.313054 30.769835 
L 101.363627 30.769835 
L 101.565916 30.683347 
L 101.565916 30.59686 
L 101.66706 30.59686 
L 101.869349 30.510372 
L 101.869349 30.423884 
L 101.970494 30.423884 
L 102.880794 30.337397 
L 102.931366 30.164421 
L 102.981938 30.164421 
L 103.487661 30.077934 
L 103.487661 29.991446 
L 103.588805 29.991446 
L 104.397961 29.991446 
L 104.499106 29.645496 
L 104.903684 29.559008 
L 104.954256 29.386033 
L 105.004828 29.386033 
L 105.409406 29.299545 
L 105.409406 29.213058 
L 105.510551 29.213058 
L 106.218562 29.12657 
L 106.218562 29.040083 
L 106.319707 29.040083 
L 106.420851 28.953595 
L 106.420851 28.867107 
L 106.521996 28.867107 
L 107.07829 28.78062 
L 107.07829 28.694132 
L 107.179435 28.694132 
L 107.381724 28.607645 
L 107.381724 28.434669 
L 107.482868 28.434669 
L 107.634585 28.348182 
L 107.634585 28.261694 
L 107.73573 28.261694 
L 108.140308 28.175207 
L 108.140308 28.088719 
L 108.241452 28.088719 
L 109.606903 28.002231 
L 109.657475 27.829256 
L 109.708047 27.829256 
L 111.073498 27.742769 
L 111.174642 27.569793 
L 112.034371 27.483306 
L 112.034371 27.396818 
L 112.135515 27.396818 
L 112.590665 27.310331 
L 112.590665 27.223843 
L 112.69181 27.223843 
L 113.248104 27.137355 
L 113.248104 27.050868 
L 113.349249 27.050868 
L 114.107833 26.96438 
L 114.107833 26.877893 
L 114.208977 26.877893 
L 114.916989 26.791405 
L 114.967561 26.61843 
L 115.018133 26.61843 
L 115.523856 26.531942 
L 115.523856 26.445455 
L 115.625 26.445455 
" clip-path="url(#pbd368246b5)" style="fill: none; stroke: #ff2e2e; stroke-width: 2; stroke-linecap: square"/>
   </g>
   <g id="patch_3">
    <path d="M 41.39 106.36 
L 41.39 22.64 
" style="fill: none; stroke: #000000; stroke-width: 0.8; stroke-linejoin: miter; stroke-linecap: square"/>
   </g>
   <g id="patch_4">
    <path d="M 41.39 106.36 
L 119.16 106.36 
" style="fill: none; stroke: #000000; stroke-width: 0.8; stroke-linejoin: miter; stroke-linecap: square"/>
   </g>
   <g id="text_10">
    <!-- Clathrus -->
    <g transform="translate(60.20875 16.64)scale(0.096 -0.096)">
     <defs>
      <path id="DejaVuSans-68" d="M 3513 2113 
L 3513 0 
L 2938 0 
L 2938 2094 
Q 2938 2591 2744 2837 
Q 2550 3084 2163 3084 
Q 1697 3084 1428 2787 
Q 1159 2491 1159 1978 
L 1159 0 
L 581 0 
L 581 4863 
L 1159 4863 
L 1159 2956 
Q 1366 3272 1645 3428 
Q 1925 3584 2291 3584 
Q 2894 3584 3203 3211 
Q 3513 2838 3513 2113 
z
" transform="scale(0.015625)"/>
     </defs>
     <use xlink:href="#DejaVuSans-43"/>
     <use xlink:href="#DejaVuSans-6c" x="69.824219"/>
     <use xlink:href="#DejaVuSans-61" x="97.607422"/>
     <use xlink:href="#DejaVuSans-74" x="158.886719"/>
     <use xlink:href="#DejaVuSans-68" x="198.095703"/>
     <use xlink:href="#DejaVuSans-72" x="261.474609"/>
     <use xlink:href="#DejaVuSans-75" x="302.587891"/>
     <use xlink:href="#DejaVuSans-73" x="365.966797"/>
    </g>
   </g>
   <g id="legend_1">
    <g id="line2d_13">
     <path d="M 48.59 47.72625 
L 48.59 47.72625 
L 56.59 47.72625 
L 56.59 47.72625 
L 64.59 47.72625 
" style="fill: none; stroke: #d1d1d1; stroke-width: 2; stroke-linecap: square"/>
    </g>
    <g id="text_11">
     <!-- Catch -->
     <g transform="translate(70.99 50.52625)scale(0.08 -0.08)">
      <use xlink:href="#DejaVuSans-43"/>
      <use xlink:href="#DejaVuSans-61" x="69.824219"/>
      <use xlink:href="#DejaVuSans-74" x="131.103516"/>
      <use xlink:href="#DejaVuSans-63" x="170.3125"/>
      <use xlink:href="#DejaVuSans-68" x="225.292969"/>
     </g>
    </g>
    <g id="line2d_14">
     <path d="M 48.59 59.46875 
L 48.59 59.46875 
L 56.59 59.46875 
L 56.59 59.46875 
L 64.59 59.46875 
" style="fill: none; stroke: #dda8a8; stroke-width: 2; stroke-linecap: square"/>
    </g>
    <g id="text_12">
     <!-- -10 dB, n=40, d'=0.201 -->
     <g transform="translate(70.99 62.26875)scale(0.08 -0.08)">
      <defs>
       <path id="DejaVuSans-2d" d="M 313 2009 
L 1997 2009 
L 1997 1497 
L 313 1497 
L 313 2009 
z
" transform="scale(0.015625)"/>
       <path id="DejaVuSans-64" d="M 2906 2969 
L 2906 4863 
L 3481 4863 
L 3481 0 
L 2906 0 
L 2906 525 
Q 2725 213 2448 61 
Q 2172 -91 1784 -91 
Q 1150 -91 751 415 
Q 353 922 353 1747 
Q 353 2572 751 3078 
Q 1150 3584 1784 3584 
Q 2172 3584 2448 3432 
Q 2725 3281 2906 2969 
z
M 947 1747 
Q 947 1113 1208 752 
Q 1469 391 1925 391 
Q 2381 391 2643 752 
Q 2906 1113 2906 1747 
Q 2906 2381 2643 2742 
Q 2381 3103 1925 3103 
Q 1469 3103 1208 2742 
Q 947 2381 947 1747 
z
" transform="scale(0.015625)"/>
       <path id="DejaVuSans-42" d="M 1259 2228 
L 1259 519 
L 2272 519 
Q 2781 519 3026 730 
Q 3272 941 3272 1375 
Q 3272 1813 3026 2020 
Q 2781 2228 2272 2228 
L 1259 2228 
z
M 1259 4147 
L 1259 2741 
L 2194 2741 
Q 2656 2741 2882 2914 
Q 3109 3088 3109 3444 
Q 3109 3797 2882 3972 
Q 2656 4147 2194 4147 
L 1259 4147 
z
M 628 4666 
L 2241 4666 
Q 2963 4666 3353 4366 
Q 3744 4066 3744 3513 
Q 3744 3084 3544 2831 
Q 3344 2578 2956 2516 
Q 3422 2416 3680 2098 
Q 3938 1781 3938 1306 
Q 3938 681 3513 340 
Q 3088 0 2303 0 
L 628 0 
L 628 4666 
z
" transform="scale(0.015625)"/>
       <path id="DejaVuSans-2c" d="M 750 794 
L 1409 794 
L 1409 256 
L 897 -744 
L 494 -744 
L 750 256 
L 750 794 
z
" transform="scale(0.015625)"/>
       <path id="DejaVuSans-3d" d="M 678 2906 
L 4684 2906 
L 4684 2381 
L 678 2381 
L 678 2906 
z
M 678 1631 
L 4684 1631 
L 4684 1100 
L 678 1100 
L 678 1631 
z
" transform="scale(0.015625)"/>
       <path id="DejaVuSans-27" d="M 1147 4666 
L 1147 2931 
L 616 2931 
L 616 4666 
L 1147 4666 
z
" transform="scale(0.015625)"/>
      </defs>
      <use xlink:href="#DejaVuSans-2d"/>
      <use xlink:href="#DejaVuSans-31" x="36.083984"/>
      <use xlink:href="#DejaVuSans-30" x="99.707031"/>
      <use xlink:href="#DejaVuSans-20" x="163.330078"/>
      <use xlink:href="#DejaVuSans-64" x="195.117188"/>
      <use xlink:href="#DejaVuSans-42" x="258.59375"/>
      <use xlink:href="#DejaVuSans-2c" x="327.197266"/>
      <use xlink:href="#DejaVuSans-20" x="358.984375"/>
      <use xlink:href="#DejaVuSans-6e" x="390.771484"/>
      <use xlink:href="#DejaVuSans-3d" x="454.150391"/>
      <use xlink:href="#DejaVuSans-34" x="537.939453"/>
      <use xlink:href="#DejaVuSans-30" x="601.5625"/>
      <use xlink:href="#DejaVuSans-2c" x="665.185547"/>
      <use xlink:href="#DejaVuSans-20" x="696.972656"/>
      <use xlink:href="#DejaVuSans-64" x="728.759766"/>
      <use xlink:href="#DejaVuSans-27" x="792.236328"/>
      <use xlink:href="#DejaVuSans-3d" x="819.726562"/>
      <use xlink:href="#DejaVuSans-30" x="903.515625"/>
      <use xlink:href="#DejaVuSans-2e" x="967.138672"/>
      <use xlink:href="#DejaVuSans-32" x="998.925781"/>
      <use xlink:href="#DejaVuSans-30" x="1062.548828"/>
      <use xlink:href="#DejaVuSans-31" x="1126.171875"/>
     </g>
    </g>
    <g id="line2d_15">
     <path d="M 48.59 71.21125 
L 48.59 71.21125 
L 56.59 71.21125 
L 56.59 71.21125 
L 64.59 71.21125 
" style="fill: none; stroke: #e88080; stroke-width: 2; stroke-linecap: square"/>
    </g>
    <g id="text_13">
     <!-- -5 dB, n=42, d'=0.223 -->
     <g transform="translate(70.99 74.01125)scale(0.08 -0.08)">
      <defs>
       <path id="DejaVuSans-35" d="M 691 4666 
L 3169 4666 
L 3169 4134 
L 1269 4134 
L 1269 2991 
Q 1406 3038 1543 3061 
Q 1681 3084 1819 3084 
Q 2600 3084 3056 2656 
Q 3513 2228 3513 1497 
Q 3513 744 3044 326 
Q 2575 -91 1722 -91 
Q 1428 -91 1123 -41 
Q 819 9 494 109 
L 494 744 
Q 775 591 1075 516 
Q 1375 441 1709 441 
Q 2250 441 2565 725 
Q 2881 1009 2881 1497 
Q 2881 1984 2565 2268 
Q 2250 2553 1709 2553 
Q 1456 2553 1204 2497 
Q 953 2441 691 2322 
L 691 4666 
z
" transform="scale(0.015625)"/>
       <path id="DejaVuSans-33" d="M 2597 2516 
Q 3050 2419 3304 2112 
Q 3559 1806 3559 1356 
Q 3559 666 3084 287 
Q 2609 -91 1734 -91 
Q 1441 -91 1130 -33 
Q 819 25 488 141 
L 488 750 
Q 750 597 1062 519 
Q 1375 441 1716 441 
Q 2309 441 2620 675 
Q 2931 909 2931 1356 
Q 2931 1769 2642 2001 
Q 2353 2234 1838 2234 
L 1294 2234 
L 1294 2753 
L 1863 2753 
Q 2328 2753 2575 2939 
Q 2822 3125 2822 3475 
Q 2822 3834 2567 4026 
Q 2313 4219 1838 4219 
Q 1578 4219 1281 4162 
Q 984 4106 628 3988 
L 628 4550 
Q 988 4650 1302 4700 
Q 1616 4750 1894 4750 
Q 2613 4750 3031 4423 
Q 3450 4097 3450 3541 
Q 3450 3153 3228 2886 
Q 3006 2619 2597 2516 
z
" transform="scale(0.015625)"/>
      </defs>
      <use xlink:href="#DejaVuSans-2d"/>
      <use xlink:href="#DejaVuSans-35" x="36.083984"/>
      <use xlink:href="#DejaVuSans-20" x="99.707031"/>
      <use xlink:href="#DejaVuSans-64" x="131.494141"/>
      <use xlink:href="#DejaVuSans-42" x="194.970703"/>
      <use xlink:href="#DejaVuSans-2c" x="263.574219"/>
      <use xlink:href="#DejaVuSans-20" x="295.361328"/>
      <use xlink:href="#DejaVuSans-6e" x="327.148438"/>
      <use xlink:href="#DejaVuSans-3d" x="390.527344"/>
      <use xlink:href="#DejaVuSans-34" x="474.316406"/>
      <use xlink:href="#DejaVuSans-32" x="537.939453"/>
      <use xlink:href="#DejaVuSans-2c" x="601.5625"/>
      <use xlink:href="#DejaVuSans-20" x="633.349609"/>
      <use xlink:href="#DejaVuSans-64" x="665.136719"/>
      <use xlink:href="#DejaVuSans-27" x="728.613281"/>
      <use xlink:href="#DejaVuSans-3d" x="756.103516"/>
      <use xlink:href="#DejaVuSans-30" x="839.892578"/>
      <use xlink:href="#DejaVuSans-2e" x="903.515625"/>
      <use xlink:href="#DejaVuSans-32" x="935.302734"/>
      <use xlink:href="#DejaVuSans-32" x="998.925781"/>
      <use xlink:href="#DejaVuSans-33" x="1062.548828"/>
     </g>
    </g>
    <g id="line2d_16">
     <path d="M 48.59 82.95375 
L 48.59 82.95375 
L 56.59 82.95375 
L 56.59 82.95375 
L 64.59 82.95375 
" style="fill: none; stroke: #f45757; stroke-width: 2; stroke-linecap: square"/>
    </g>
    <g id="text_14">
     <!-- 0 dB, n=45, d'=0.396 -->
     <g transform="translate(70.99 85.75375)scale(0.08 -0.08)">
      <defs>
       <path id="DejaVuSans-39" d="M 703 97 
L 703 672 
Q 941 559 1184 500 
Q 1428 441 1663 441 
Q 2288 441 2617 861 
Q 2947 1281 2994 2138 
Q 2813 1869 2534 1725 
Q 2256 1581 1919 1581 
Q 1219 1581 811 2004 
Q 403 2428 403 3163 
Q 403 3881 828 4315 
Q 1253 4750 1959 4750 
Q 2769 4750 3195 4129 
Q 3622 3509 3622 2328 
Q 3622 1225 3098 567 
Q 2575 -91 1691 -91 
Q 1453 -91 1209 -44 
Q 966 3 703 97 
z
M 1959 2075 
Q 2384 2075 2632 2365 
Q 2881 2656 2881 3163 
Q 2881 3666 2632 3958 
Q 2384 4250 1959 4250 
Q 1534 4250 1286 3958 
Q 1038 3666 1038 3163 
Q 1038 2656 1286 2365 
Q 1534 2075 1959 2075 
z
" transform="scale(0.015625)"/>
      </defs>
      <use xlink:href="#DejaVuSans-30"/>
      <use xlink:href="#DejaVuSans-20" x="63.623047"/>
      <use xlink:href="#DejaVuSans-64" x="95.410156"/>
      <use xlink:href="#DejaVuSans-42" x="158.886719"/>
      <use xlink:href="#DejaVuSans-2c" x="227.490234"/>
      <use xlink:href="#DejaVuSans-20" x="259.277344"/>
      <use xlink:href="#DejaVuSans-6e" x="291.064453"/>
      <use xlink:href="#DejaVuSans-3d" x="354.443359"/>
      <use xlink:href="#DejaVuSans-34" x="438.232422"/>
      <use xlink:href="#DejaVuSans-35" x="501.855469"/>
      <use xlink:href="#DejaVuSans-2c" x="565.478516"/>
      <use xlink:href="#DejaVuSans-20" x="597.265625"/>
      <use xlink:href="#DejaVuSans-64" x="629.052734"/>
      <use xlink:href="#DejaVuSans-27" x="692.529297"/>
      <use xlink:href="#DejaVuSans-3d" x="720.019531"/>
      <use xlink:href="#DejaVuSans-30" x="803.808594"/>
      <use xlink:href="#DejaVuSans-2e" x="867.431641"/>
      <use xlink:href="#DejaVuSans-33" x="899.21875"/>
      <use xlink:href="#DejaVuSans-39" x="962.841797"/>
      <use xlink:href="#DejaVuSans-36" x="1026.464844"/>
     </g>
    </g>
    <g id="line2d_17">
     <path d="M 48.59 94.69625 
L 48.59 94.69625 
L 56.59 94.69625 
L 56.59 94.69625 
L 64.59 94.69625 
" style="fill: none; stroke: #ff2e2e; stroke-width: 2; stroke-linecap: square"/>
    </g>
    <g id="text_15">
     <!-- inf dB, n=45, d'=0.658 -->
     <g transform="translate(70.99 97.49625)scale(0.08 -0.08)">
      <defs>
       <path id="DejaVuSans-66" d="M 2375 4863 
L 2375 4384 
L 1825 4384 
Q 1516 4384 1395 4259 
Q 1275 4134 1275 3809 
L 1275 3500 
L 2222 3500 
L 2222 3053 
L 1275 3053 
L 1275 0 
L 697 0 
L 697 3053 
L 147 3053 
L 147 3500 
L 697 3500 
L 697 3744 
Q 697 4328 969 4595 
Q 1241 4863 1831 4863 
L 2375 4863 
z
" transform="scale(0.015625)"/>
      </defs>
      <use xlink:href="#DejaVuSans-69"/>
      <use xlink:href="#DejaVuSans-6e" x="27.783203"/>
      <use xlink:href="#DejaVuSans-66" x="91.162109"/>
      <use xlink:href="#DejaVuSans-20" x="126.367188"/>
      <use xlink:href="#DejaVuSans-64" x="158.154297"/>
      <use xlink:href="#DejaVuSans-42" x="221.630859"/>
      <use xlink:href="#DejaVuSans-2c" x="290.234375"/>
      <use xlink:href="#DejaVuSans-20" x="322.021484"/>
      <use xlink:href="#DejaVuSans-6e" x="353.808594"/>
      <use xlink:href="#DejaVuSans-3d" x="417.1875"/>
      <use xlink:href="#DejaVuSans-34" x="500.976562"/>
      <use xlink:href="#DejaVuSans-35" x="564.599609"/>
      <use xlink:href="#DejaVuSans-2c" x="628.222656"/>
      <use xlink:href="#DejaVuSans-20" x="660.009766"/>
      <use xlink:href="#DejaVuSans-64" x="691.796875"/>
      <use xlink:href="#DejaVuSans-27" x="755.273438"/>
      <use xlink:href="#DejaVuSans-3d" x="782.763672"/>
      <use xlink:href="#DejaVuSans-30" x="866.552734"/>
      <use xlink:href="#DejaVuSans-2e" x="930.175781"/>
      <use xlink:href="#DejaVuSans-36" x="961.962891"/>
      <use xlink:href="#DejaVuSans-35" x="1025.585938"/>
      <use xlink:href="#DejaVuSans-38" x="1089.208984"/>
     </g>
    </g>
   </g>
  </g>
 </g>
 <defs>
  <clipPath id="pbd368246b5">
   <rect x="41.39" y="22.64" width="77.77" height="83.72"/>
  </clipPath>
 </defs>
</svg>
