<?xml version="1.0" encoding="utf-8" standalone="no"?>
<!DOCTYPE svg PUBLIC "-//W3C//DTD SVG 1.1//EN"
  "http://www.w3.org/Graphics/SVG/1.1/DTD/svg11.dtd">
<svg xmlns:xlink="http://www.w3.org/1999/xlink" width="144pt" height="144pt" viewBox="0 0 144 144" xmlns="http://www.w3.org/2000/svg" version="1.1">
 <metadata>
  <rdf:RDF xmlns:dc="http://purl.org/dc/elements/1.1/" xmlns:cc="http://creativecommons.org/ns#" xmlns:rdf="http://www.w3.org/1999/02/22-rdf-syntax-ns#">
   <cc:Work>
    <dc:type rdf:resource="http://purl.org/dc/dcmitype/StillImage"/>
    <dc:date>2022-12-05T06:24:42.758202</dc:date>
    <dc:format>image/svg+xml</dc:format>
    <dc:creator>
     <cc:Agent>
      <dc:title>Matplotlib v3.5.1, https://matplotlib.org/</dc:title>
     </cc:Agent>
    </dc:creator>
   </cc:Work>
  </rdf:RDF>
 </metadata>
 <defs>
  <style type="text/css">*{stroke-linejoin: round; stroke-linecap: butt}</style>
 </defs>
 <g id="figure_1">
  <g id="patch_1">
   <path d="M 0 144 
L 144 144 
L 144 0 
L 0 0 
L 0 144 
z
" style="fill: none"/>
  </g>
  <g id="axes_1">
   <g id="patch_2">
    <path d="M 41.39 106.36 
L 122.16 106.36 
L 122.16 22.64 
L 41.39 22.64 
z
" style="fill: #ffffff"/>
   </g>
   <g id="matplotlib.axis_1">
    <g id="xtick_1">
     <g id="line2d_1">
      <defs>
       <path id="m08eb6ff5ad" d="M 0 0 
L 0 3.5 
" style="stroke: #000000; stroke-width: 0.8"/>
      </defs>
      <g>
       <use xlink:href="#m08eb6ff5ad" x="45.061364" y="106.36" style="stroke: #000000; stroke-width: 0.8"/>
      </g>
     </g>
     <g id="text_1">
      <!-- 0 -->
      <g transform="translate(42.516364 119.43875)scale(0.08 -0.08)">
       <defs>
        <path id="DejaVuSans-30" d="M 2034 4250 
Q 1547 4250 1301 3770 
Q 1056 3291 1056 2328 
Q 1056 1369 1301 889 
Q 1547 409 2034 409 
Q 2525 409 2770 889 
Q 3016 1369 3016 2328 
Q 3016 3291 2770 3770 
Q 2525 4250 2034 4250 
z
M 2034 4750 
Q 2819 4750 3233 4129 
Q 3647 3509 3647 2328 
Q 3647 1150 3233 529 
Q 2819 -91 2034 -91 
Q 1250 -91 836 529 
Q 422 1150 422 2328 
Q 422 3509 836 4129 
Q 1250 4750 2034 4750 
z
" transform="scale(0.015625)"/>
       </defs>
       <use xlink:href="#DejaVuSans-30"/>
      </g>
     </g>
    </g>
    <g id="xtick_2">
     <g id="line2d_2">
      <g>
       <use xlink:href="#m08eb6ff5ad" x="97.584449" y="106.36" style="stroke: #000000; stroke-width: 0.8"/>
      </g>
     </g>
     <g id="text_2">
      <!-- 1 -->
      <g transform="translate(95.039449 119.43875)scale(0.08 -0.08)">
       <defs>
        <path id="DejaVuSans-31" d="M 794 531 
L 1825 531 
L 1825 4091 
L 703 3866 
L 703 4441 
L 1819 4666 
L 2450 4666 
L 2450 531 
L 3481 531 
L 3481 0 
L 794 0 
L 794 531 
z
" transform="scale(0.015625)"/>
       </defs>
       <use xlink:href="#DejaVuSans-31"/>
      </g>
     </g>
    </g>
    <g id="text_3">
     <!-- Reaction time (s) -->
     <g transform="translate(47.6175 131.18125)scale(0.08 -0.08)">
      <defs>
       <path id="DejaVuSans-52" d="M 2841 2188 
Q 3044 2119 3236 1894 
Q 3428 1669 3622 1275 
L 4263 0 
L 3584 0 
L 2988 1197 
Q 2756 1666 2539 1819 
Q 2322 1972 1947 1972 
L 1259 1972 
L 1259 0 
L 628 0 
L 628 4666 
L 2053 4666 
Q 2853 4666 3247 4331 
Q 3641 3997 3641 3322 
Q 3641 2881 3436 2590 
Q 3231 2300 2841 2188 
z
M 1259 4147 
L 1259 2491 
L 2053 2491 
Q 2509 2491 2742 2702 
Q 2975 2913 2975 3322 
Q 2975 3731 2742 3939 
Q 2509 4147 2053 4147 
L 1259 4147 
z
" transform="scale(0.015625)"/>
       <path id="DejaVuSans-65" d="M 3597 1894 
L 3597 1613 
L 953 1613 
Q 991 1019 1311 708 
Q 1631 397 2203 397 
Q 2534 397 2845 478 
Q 3156 559 3463 722 
L 3463 178 
Q 3153 47 2828 -22 
Q 2503 -91 2169 -91 
Q 1331 -91 842 396 
Q 353 884 353 1716 
Q 353 2575 817 3079 
Q 1281 3584 2069 3584 
Q 2775 3584 3186 3129 
Q 3597 2675 3597 1894 
z
M 3022 2063 
Q 3016 2534 2758 2815 
Q 2500 3097 2075 3097 
Q 1594 3097 1305 2825 
Q 1016 2553 972 2059 
L 3022 2063 
z
" transform="scale(0.015625)"/>
       <path id="DejaVuSans-61" d="M 2194 1759 
Q 1497 1759 1228 1600 
Q 959 1441 959 1056 
Q 959 750 1161 570 
Q 1363 391 1709 391 
Q 2188 391 2477 730 
Q 2766 1069 2766 1631 
L 2766 1759 
L 2194 1759 
z
M 3341 1997 
L 3341 0 
L 2766 0 
L 2766 531 
Q 2569 213 2275 61 
Q 1981 -91 1556 -91 
Q 1019 -91 701 211 
Q 384 513 384 1019 
Q 384 1609 779 1909 
Q 1175 2209 1959 2209 
L 2766 2209 
L 2766 2266 
Q 2766 2663 2505 2880 
Q 2244 3097 1772 3097 
Q 1472 3097 1187 3025 
Q 903 2953 641 2809 
L 641 3341 
Q 956 3463 1253 3523 
Q 1550 3584 1831 3584 
Q 2591 3584 2966 3190 
Q 3341 2797 3341 1997 
z
" transform="scale(0.015625)"/>
       <path id="DejaVuSans-63" d="M 3122 3366 
L 3122 2828 
Q 2878 2963 2633 3030 
Q 2388 3097 2138 3097 
Q 1578 3097 1268 2742 
Q 959 2388 959 1747 
Q 959 1106 1268 751 
Q 1578 397 2138 397 
Q 2388 397 2633 464 
Q 2878 531 3122 666 
L 3122 134 
Q 2881 22 2623 -34 
Q 2366 -91 2075 -91 
Q 1284 -91 818 406 
Q 353 903 353 1747 
Q 353 2603 823 3093 
Q 1294 3584 2113 3584 
Q 2378 3584 2631 3529 
Q 2884 3475 3122 3366 
z
" transform="scale(0.015625)"/>
       <path id="DejaVuSans-74" d="M 1172 4494 
L 1172 3500 
L 2356 3500 
L 2356 3053 
L 1172 3053 
L 1172 1153 
Q 1172 725 1289 603 
Q 1406 481 1766 481 
L 2356 481 
L 2356 0 
L 1766 0 
Q 1100 0 847 248 
Q 594 497 594 1153 
L 594 3053 
L 172 3053 
L 172 3500 
L 594 3500 
L 594 4494 
L 1172 4494 
z
" transform="scale(0.015625)"/>
       <path id="DejaVuSans-69" d="M 603 3500 
L 1178 3500 
L 1178 0 
L 603 0 
L 603 3500 
z
M 603 4863 
L 1178 4863 
L 1178 4134 
L 603 4134 
L 603 4863 
z
" transform="scale(0.015625)"/>
       <path id="DejaVuSans-6f" d="M 1959 3097 
Q 1497 3097 1228 2736 
Q 959 2375 959 1747 
Q 959 1119 1226 758 
Q 1494 397 1959 397 
Q 2419 397 2687 759 
Q 2956 1122 2956 1747 
Q 2956 2369 2687 2733 
Q 2419 3097 1959 3097 
z
M 1959 3584 
Q 2709 3584 3137 3096 
Q 3566 2609 3566 1747 
Q 3566 888 3137 398 
Q 2709 -91 1959 -91 
Q 1206 -91 779 398 
Q 353 888 353 1747 
Q 353 2609 779 3096 
Q 1206 3584 1959 3584 
z
" transform="scale(0.015625)"/>
       <path id="DejaVuSans-6e" d="M 3513 2113 
L 3513 0 
L 2938 0 
L 2938 2094 
Q 2938 2591 2744 2837 
Q 2550 3084 2163 3084 
Q 1697 3084 1428 2787 
Q 1159 2491 1159 1978 
L 1159 0 
L 581 0 
L 581 3500 
L 1159 3500 
L 1159 2956 
Q 1366 3272 1645 3428 
Q 1925 3584 2291 3584 
Q 2894 3584 3203 3211 
Q 3513 2838 3513 2113 
z
" transform="scale(0.015625)"/>
       <path id="DejaVuSans-20" transform="scale(0.015625)"/>
       <path id="DejaVuSans-6d" d="M 3328 2828 
Q 3544 3216 3844 3400 
Q 4144 3584 4550 3584 
Q 5097 3584 5394 3201 
Q 5691 2819 5691 2113 
L 5691 0 
L 5113 0 
L 5113 2094 
Q 5113 2597 4934 2840 
Q 4756 3084 4391 3084 
Q 3944 3084 3684 2787 
Q 3425 2491 3425 1978 
L 3425 0 
L 2847 0 
L 2847 2094 
Q 2847 2600 2669 2842 
Q 2491 3084 2119 3084 
Q 1678 3084 1418 2786 
Q 1159 2488 1159 1978 
L 1159 0 
L 581 0 
L 581 3500 
L 1159 3500 
L 1159 2956 
Q 1356 3278 1631 3431 
Q 1906 3584 2284 3584 
Q 2666 3584 2933 3390 
Q 3200 3197 3328 2828 
z
" transform="scale(0.015625)"/>
       <path id="DejaVuSans-28" d="M 1984 4856 
Q 1566 4138 1362 3434 
Q 1159 2731 1159 2009 
Q 1159 1288 1364 580 
Q 1569 -128 1984 -844 
L 1484 -844 
Q 1016 -109 783 600 
Q 550 1309 550 2009 
Q 550 2706 781 3412 
Q 1013 4119 1484 4856 
L 1984 4856 
z
" transform="scale(0.015625)"/>
       <path id="DejaVuSans-73" d="M 2834 3397 
L 2834 2853 
Q 2591 2978 2328 3040 
Q 2066 3103 1784 3103 
Q 1356 3103 1142 2972 
Q 928 2841 928 2578 
Q 928 2378 1081 2264 
Q 1234 2150 1697 2047 
L 1894 2003 
Q 2506 1872 2764 1633 
Q 3022 1394 3022 966 
Q 3022 478 2636 193 
Q 2250 -91 1575 -91 
Q 1294 -91 989 -36 
Q 684 19 347 128 
L 347 722 
Q 666 556 975 473 
Q 1284 391 1588 391 
Q 1994 391 2212 530 
Q 2431 669 2431 922 
Q 2431 1156 2273 1281 
Q 2116 1406 1581 1522 
L 1381 1569 
Q 847 1681 609 1914 
Q 372 2147 372 2553 
Q 372 3047 722 3315 
Q 1072 3584 1716 3584 
Q 2034 3584 2315 3537 
Q 2597 3491 2834 3397 
z
" transform="scale(0.015625)"/>
       <path id="DejaVuSans-29" d="M 513 4856 
L 1013 4856 
Q 1481 4119 1714 3412 
Q 1947 2706 1947 2009 
Q 1947 1309 1714 600 
Q 1481 -109 1013 -844 
L 513 -844 
Q 928 -128 1133 580 
Q 1338 1288 1338 2009 
Q 1338 2731 1133 3434 
Q 928 4138 513 4856 
z
" transform="scale(0.015625)"/>
      </defs>
      <use xlink:href="#DejaVuSans-52"/>
      <use xlink:href="#DejaVuSans-65" x="64.982422"/>
      <use xlink:href="#DejaVuSans-61" x="126.505859"/>
      <use xlink:href="#DejaVuSans-63" x="187.785156"/>
      <use xlink:href="#DejaVuSans-74" x="242.765625"/>
      <use xlink:href="#DejaVuSans-69" x="281.974609"/>
      <use xlink:href="#DejaVuSans-6f" x="309.757812"/>
      <use xlink:href="#DejaVuSans-6e" x="370.939453"/>
      <use xlink:href="#DejaVuSans-20" x="434.318359"/>
      <use xlink:href="#DejaVuSans-74" x="466.105469"/>
      <use xlink:href="#DejaVuSans-69" x="505.314453"/>
      <use xlink:href="#DejaVuSans-6d" x="533.097656"/>
      <use xlink:href="#DejaVuSans-65" x="630.509766"/>
      <use xlink:href="#DejaVuSans-20" x="692.033203"/>
      <use xlink:href="#DejaVuSans-28" x="723.820312"/>
      <use xlink:href="#DejaVuSans-73" x="762.833984"/>
      <use xlink:href="#DejaVuSans-29" x="814.933594"/>
     </g>
    </g>
   </g>
   <g id="matplotlib.axis_2">
    <g id="ytick_1">
     <g id="line2d_3">
      <defs>
       <path id="m4c343aade2" d="M 0 0 
L -3.5 0 
" style="stroke: #000000; stroke-width: 0.8"/>
      </defs>
      <g>
       <use xlink:href="#m4c343aade2" x="41.39" y="102.554545" style="stroke: #000000; stroke-width: 0.8"/>
      </g>
     </g>
     <g id="text_4">
      <!-- 0.0 -->
      <g transform="translate(21.6675 105.59392)scale(0.08 -0.08)">
       <defs>
        <path id="DejaVuSans-2e" d="M 684 794 
L 1344 794 
L 1344 0 
L 684 0 
L 684 794 
z
" transform="scale(0.015625)"/>
       </defs>
       <use xlink:href="#DejaVuSans-30"/>
       <use xlink:href="#DejaVuSans-2e" x="63.623047"/>
       <use xlink:href="#DejaVuSans-30" x="95.410156"/>
      </g>
     </g>
    </g>
    <g id="ytick_2">
     <g id="line2d_4">
      <g>
       <use xlink:href="#m4c343aade2" x="41.39" y="84.986808" style="stroke: #000000; stroke-width: 0.8"/>
      </g>
     </g>
     <g id="text_5">
      <!-- 0.2 -->
      <g transform="translate(21.6675 88.026183)scale(0.08 -0.08)">
       <defs>
        <path id="DejaVuSans-32" d="M 1228 531 
L 3431 531 
L 3431 0 
L 469 0 
L 469 531 
Q 828 903 1448 1529 
Q 2069 2156 2228 2338 
Q 2531 2678 2651 2914 
Q 2772 3150 2772 3378 
Q 2772 3750 2511 3984 
Q 2250 4219 1831 4219 
Q 1534 4219 1204 4116 
Q 875 4013 500 3803 
L 500 4441 
Q 881 4594 1212 4672 
Q 1544 4750 1819 4750 
Q 2544 4750 2975 4387 
Q 3406 4025 3406 3419 
Q 3406 3131 3298 2873 
Q 3191 2616 2906 2266 
Q 2828 2175 2409 1742 
Q 1991 1309 1228 531 
z
" transform="scale(0.015625)"/>
       </defs>
       <use xlink:href="#DejaVuSans-30"/>
       <use xlink:href="#DejaVuSans-2e" x="63.623047"/>
       <use xlink:href="#DejaVuSans-32" x="95.410156"/>
      </g>
     </g>
    </g>
    <g id="ytick_3">
     <g id="line2d_5">
      <g>
       <use xlink:href="#m4c343aade2" x="41.39" y="67.41907" style="stroke: #000000; stroke-width: 0.8"/>
      </g>
     </g>
     <g id="text_6">
      <!-- 0.4 -->
      <g transform="translate(21.6675 70.458445)scale(0.08 -0.08)">
       <defs>
        <path id="DejaVuSans-34" d="M 2419 4116 
L 825 1625 
L 2419 1625 
L 2419 4116 
z
M 2253 4666 
L 3047 4666 
L 3047 1625 
L 3713 1625 
L 3713 1100 
L 3047 1100 
L 3047 0 
L 2419 0 
L 2419 1100 
L 313 1100 
L 313 1709 
L 2253 4666 
z
" transform="scale(0.015625)"/>
       </defs>
       <use xlink:href="#DejaVuSans-30"/>
       <use xlink:href="#DejaVuSans-2e" x="63.623047"/>
       <use xlink:href="#DejaVuSans-34" x="95.410156"/>
      </g>
     </g>
    </g>
    <g id="ytick_4">
     <g id="line2d_6">
      <g>
       <use xlink:href="#m4c343aade2" x="41.39" y="49.851333" style="stroke: #000000; stroke-width: 0.8"/>
      </g>
     </g>
     <g id="text_7">
      <!-- 0.6 -->
      <g transform="translate(21.6675 52.890708)scale(0.08 -0.08)">
       <defs>
        <path id="DejaVuSans-36" d="M 2113 2584 
Q 1688 2584 1439 2293 
Q 1191 2003 1191 1497 
Q 1191 994 1439 701 
Q 1688 409 2113 409 
Q 2538 409 2786 701 
Q 3034 994 3034 1497 
Q 3034 2003 2786 2293 
Q 2538 2584 2113 2584 
z
M 3366 4563 
L 3366 3988 
Q 3128 4100 2886 4159 
Q 2644 4219 2406 4219 
Q 1781 4219 1451 3797 
Q 1122 3375 1075 2522 
Q 1259 2794 1537 2939 
Q 1816 3084 2150 3084 
Q 2853 3084 3261 2657 
Q 3669 2231 3669 1497 
Q 3669 778 3244 343 
Q 2819 -91 2113 -91 
Q 1303 -91 875 529 
Q 447 1150 447 2328 
Q 447 3434 972 4092 
Q 1497 4750 2381 4750 
Q 2619 4750 2861 4703 
Q 3103 4656 3366 4563 
z
" transform="scale(0.015625)"/>
       </defs>
       <use xlink:href="#DejaVuSans-30"/>
       <use xlink:href="#DejaVuSans-2e" x="63.623047"/>
       <use xlink:href="#DejaVuSans-36" x="95.410156"/>
      </g>
     </g>
    </g>
    <g id="ytick_5">
     <g id="line2d_7">
      <g>
       <use xlink:href="#m4c343aade2" x="41.39" y="32.283595" style="stroke: #000000; stroke-width: 0.8"/>
      </g>
     </g>
     <g id="text_8">
      <!-- 0.8 -->
      <g transform="translate(21.6675 35.32297)scale(0.08 -0.08)">
       <defs>
        <path id="DejaVuSans-38" d="M 2034 2216 
Q 1584 2216 1326 1975 
Q 1069 1734 1069 1313 
Q 1069 891 1326 650 
Q 1584 409 2034 409 
Q 2484 409 2743 651 
Q 3003 894 3003 1313 
Q 3003 1734 2745 1975 
Q 2488 2216 2034 2216 
z
M 1403 2484 
Q 997 2584 770 2862 
Q 544 3141 544 3541 
Q 544 4100 942 4425 
Q 1341 4750 2034 4750 
Q 2731 4750 3128 4425 
Q 3525 4100 3525 3541 
Q 3525 3141 3298 2862 
Q 3072 2584 2669 2484 
Q 3125 2378 3379 2068 
Q 3634 1759 3634 1313 
Q 3634 634 3220 271 
Q 2806 -91 2034 -91 
Q 1263 -91 848 271 
Q 434 634 434 1313 
Q 434 1759 690 2068 
Q 947 2378 1403 2484 
z
M 1172 3481 
Q 1172 3119 1398 2916 
Q 1625 2713 2034 2713 
Q 2441 2713 2670 2916 
Q 2900 3119 2900 3481 
Q 2900 3844 2670 4047 
Q 2441 4250 2034 4250 
Q 1625 4250 1398 4047 
Q 1172 3844 1172 3481 
z
" transform="scale(0.015625)"/>
       </defs>
       <use xlink:href="#DejaVuSans-30"/>
       <use xlink:href="#DejaVuSans-2e" x="63.623047"/>
       <use xlink:href="#DejaVuSans-38" x="95.410156"/>
      </g>
     </g>
    </g>
    <g id="text_9">
     <!-- Cummulative Probability -->
     <g transform="translate(16.00375 113.640625)rotate(-90)scale(0.08 -0.08)">
      <defs>
       <path id="DejaVuSans-43" d="M 4122 4306 
L 4122 3641 
Q 3803 3938 3442 4084 
Q 3081 4231 2675 4231 
Q 1875 4231 1450 3742 
Q 1025 3253 1025 2328 
Q 1025 1406 1450 917 
Q 1875 428 2675 428 
Q 3081 428 3442 575 
Q 3803 722 4122 1019 
L 4122 359 
Q 3791 134 3420 21 
Q 3050 -91 2638 -91 
Q 1578 -91 968 557 
Q 359 1206 359 2328 
Q 359 3453 968 4101 
Q 1578 4750 2638 4750 
Q 3056 4750 3426 4639 
Q 3797 4528 4122 4306 
z
" transform="scale(0.015625)"/>
       <path id="DejaVuSans-75" d="M 544 1381 
L 544 3500 
L 1119 3500 
L 1119 1403 
Q 1119 906 1312 657 
Q 1506 409 1894 409 
Q 2359 409 2629 706 
Q 2900 1003 2900 1516 
L 2900 3500 
L 3475 3500 
L 3475 0 
L 2900 0 
L 2900 538 
Q 2691 219 2414 64 
Q 2138 -91 1772 -91 
Q 1169 -91 856 284 
Q 544 659 544 1381 
z
M 1991 3584 
L 1991 3584 
z
" transform="scale(0.015625)"/>
       <path id="DejaVuSans-6c" d="M 603 4863 
L 1178 4863 
L 1178 0 
L 603 0 
L 603 4863 
z
" transform="scale(0.015625)"/>
       <path id="DejaVuSans-76" d="M 191 3500 
L 800 3500 
L 1894 563 
L 2988 3500 
L 3597 3500 
L 2284 0 
L 1503 0 
L 191 3500 
z
" transform="scale(0.015625)"/>
       <path id="DejaVuSans-50" d="M 1259 4147 
L 1259 2394 
L 2053 2394 
Q 2494 2394 2734 2622 
Q 2975 2850 2975 3272 
Q 2975 3691 2734 3919 
Q 2494 4147 2053 4147 
L 1259 4147 
z
M 628 4666 
L 2053 4666 
Q 2838 4666 3239 4311 
Q 3641 3956 3641 3272 
Q 3641 2581 3239 2228 
Q 2838 1875 2053 1875 
L 1259 1875 
L 1259 0 
L 628 0 
L 628 4666 
z
" transform="scale(0.015625)"/>
       <path id="DejaVuSans-72" d="M 2631 2963 
Q 2534 3019 2420 3045 
Q 2306 3072 2169 3072 
Q 1681 3072 1420 2755 
Q 1159 2438 1159 1844 
L 1159 0 
L 581 0 
L 581 3500 
L 1159 3500 
L 1159 2956 
Q 1341 3275 1631 3429 
Q 1922 3584 2338 3584 
Q 2397 3584 2469 3576 
Q 2541 3569 2628 3553 
L 2631 2963 
z
" transform="scale(0.015625)"/>
       <path id="DejaVuSans-62" d="M 3116 1747 
Q 3116 2381 2855 2742 
Q 2594 3103 2138 3103 
Q 1681 3103 1420 2742 
Q 1159 2381 1159 1747 
Q 1159 1113 1420 752 
Q 1681 391 2138 391 
Q 2594 391 2855 752 
Q 3116 1113 3116 1747 
z
M 1159 2969 
Q 1341 3281 1617 3432 
Q 1894 3584 2278 3584 
Q 2916 3584 3314 3078 
Q 3713 2572 3713 1747 
Q 3713 922 3314 415 
Q 2916 -91 2278 -91 
Q 1894 -91 1617 61 
Q 1341 213 1159 525 
L 1159 0 
L 581 0 
L 581 4863 
L 1159 4863 
L 1159 2969 
z
" transform="scale(0.015625)"/>
       <path id="DejaVuSans-79" d="M 2059 -325 
Q 1816 -950 1584 -1140 
Q 1353 -1331 966 -1331 
L 506 -1331 
L 506 -850 
L 844 -850 
Q 1081 -850 1212 -737 
Q 1344 -625 1503 -206 
L 1606 56 
L 191 3500 
L 800 3500 
L 1894 763 
L 2988 3500 
L 3597 3500 
L 2059 -325 
z
" transform="scale(0.015625)"/>
      </defs>
      <use xlink:href="#DejaVuSans-43"/>
      <use xlink:href="#DejaVuSans-75" x="69.824219"/>
      <use xlink:href="#DejaVuSans-6d" x="133.203125"/>
      <use xlink:href="#DejaVuSans-6d" x="230.615234"/>
      <use xlink:href="#DejaVuSans-75" x="328.027344"/>
      <use xlink:href="#DejaVuSans-6c" x="391.40625"/>
      <use xlink:href="#DejaVuSans-61" x="419.189453"/>
      <use xlink:href="#DejaVuSans-74" x="480.46875"/>
      <use xlink:href="#DejaVuSans-69" x="519.677734"/>
      <use xlink:href="#DejaVuSans-76" x="547.460938"/>
      <use xlink:href="#DejaVuSans-65" x="606.640625"/>
      <use xlink:href="#DejaVuSans-20" x="668.164062"/>
      <use xlink:href="#DejaVuSans-50" x="699.951172"/>
      <use xlink:href="#DejaVuSans-72" x="758.503906"/>
      <use xlink:href="#DejaVuSans-6f" x="797.367188"/>
      <use xlink:href="#DejaVuSans-62" x="858.548828"/>
      <use xlink:href="#DejaVuSans-61" x="922.025391"/>
      <use xlink:href="#DejaVuSans-62" x="983.304688"/>
      <use xlink:href="#DejaVuSans-69" x="1046.78125"/>
      <use xlink:href="#DejaVuSans-6c" x="1074.564453"/>
      <use xlink:href="#DejaVuSans-69" x="1102.347656"/>
      <use xlink:href="#DejaVuSans-74" x="1130.130859"/>
      <use xlink:href="#DejaVuSans-79" x="1169.339844"/>
     </g>
    </g>
   </g>
   <g id="line2d_8">
    <path d="M 45.061364 102.554545 
L 45.16641 102.554545 
L 45.218933 102.142157 
L 45.271456 102.142157 
L 45.376502 102.142157 
L 45.481548 101.867232 
L 45.534071 101.867232 
L 45.639118 101.454844 
L 45.744164 101.454844 
L 45.84921 100.904993 
L 45.954256 100.904993 
L 46.059302 100.492604 
L 46.111825 100.492604 
L 46.111825 100.355142 
L 46.216872 100.355142 
L 46.374441 100.355142 
L 46.479487 99.667828 
L 46.53201 99.667828 
L 46.637056 99.392903 
L 46.689579 99.392903 
L 46.794625 98.705589 
L 46.899672 98.705589 
L 47.004718 98.155738 
L 47.109764 98.155738 
L 47.109764 97.880812 
L 47.21481 97.880812 
L 47.424902 97.880812 
L 47.529949 97.330961 
L 47.582472 97.330961 
L 47.687518 97.056036 
L 47.845087 97.056036 
L 47.845087 96.918573 
L 47.950133 96.918573 
L 48.002656 96.918573 
L 48.107703 96.643648 
L 48.317795 96.643648 
L 48.370318 96.368722 
L 48.422841 96.368722 
L 48.475364 96.368722 
L 48.527887 96.093797 
L 48.58041 96.093797 
L 48.685456 96.093797 
L 48.685456 95.818871 
L 48.790503 95.818871 
L 48.948072 95.818871 
L 48.948072 95.681409 
L 49.053118 95.681409 
L 49.158164 95.681409 
L 49.26321 95.26902 
L 49.893487 95.26902 
L 49.893487 95.131558 
L 49.998534 95.131558 
L 50.156103 95.131558 
L 50.156103 94.994095 
L 50.261149 94.994095 
L 50.471241 94.994095 
L 50.471241 94.856632 
L 50.576288 94.856632 
L 50.628811 94.856632 
L 50.733857 94.581707 
L 50.78638 94.581707 
L 50.78638 94.306781 
L 50.891426 94.306781 
L 51.154041 94.306781 
L 51.154041 94.169319 
L 51.259088 94.169319 
L 51.311611 94.169319 
L 51.416657 93.482005 
L 51.574226 93.482005 
L 51.574226 93.207079 
L 51.679272 93.207079 
L 51.731795 93.207079 
L 51.731795 93.069617 
L 51.836842 93.069617 
L 51.889365 93.069617 
L 51.941888 92.794691 
L 51.994411 92.794691 
L 52.099457 92.794691 
L 52.099457 92.657228 
L 52.204503 92.657228 
L 52.309549 92.657228 
L 52.414596 92.382303 
L 52.624688 92.382303 
L 52.624688 92.24484 
L 52.729734 92.24484 
L 52.939826 92.24484 
L 53.044873 91.969915 
L 53.570103 91.969915 
L 53.622626 91.694989 
L 53.67515 91.694989 
L 53.832719 91.694989 
L 53.937765 91.420064 
L 54.042811 91.420064 
L 54.042811 91.282601 
L 54.147857 91.282601 
L 54.725611 91.282601 
L 54.778134 91.007676 
L 54.830657 91.007676 
L 54.883181 91.007676 
L 54.883181 90.870213 
L 54.988227 90.870213 
L 55.250842 90.870213 
L 55.355888 90.457825 
L 55.460934 90.457825 
L 55.460934 90.320362 
L 55.565981 90.320362 
L 55.72355 90.320362 
L 55.828596 90.045437 
L 56.143735 90.045437 
L 56.143735 89.907974 
L 56.248781 89.907974 
L 56.40635 89.907974 
L 56.511396 89.633048 
L 56.931581 89.633048 
L 56.931581 89.495586 
L 57.036627 89.495586 
L 57.08915 89.495586 
L 57.08915 89.358123 
L 57.194196 89.358123 
L 57.246719 89.358123 
L 57.351766 88.945735 
L 57.404289 88.945735 
L 57.509335 88.533346 
L 58.139612 88.533346 
L 58.192135 87.983495 
L 58.244658 87.983495 
L 58.45475 87.983495 
L 58.559796 87.70857 
L 58.979981 87.70857 
L 58.979981 87.571107 
L 59.085027 87.571107 
L 59.400166 87.571107 
L 59.400166 87.433645 
L 59.505212 87.433645 
L 59.610258 87.433645 
L 59.715304 86.746331 
L 59.925397 86.746331 
L 59.925397 86.471405 
L 60.030443 86.471405 
L 60.450628 86.471405 
L 60.450628 86.333943 
L 60.555674 86.333943 
L 60.66072 86.333943 
L 60.66072 86.19648 
L 60.765766 86.19648 
L 60.870812 86.19648 
L 60.870812 85.921554 
L 60.975858 85.921554 
L 61.185951 85.921554 
L 61.290997 85.371703 
L 61.396043 85.371703 
L 61.396043 85.096778 
L 61.501089 85.096778 
L 61.658658 85.096778 
L 61.711182 84.821853 
L 61.763705 84.821853 
L 61.921274 84.821853 
L 61.921274 84.68439 
L 62.02632 84.68439 
L 62.131366 84.68439 
L 62.131366 84.546927 
L 62.236412 84.546927 
L 62.499028 84.546927 
L 62.551551 84.272002 
L 62.604074 84.272002 
L 63.076782 84.272002 
L 63.181828 83.997076 
L 63.339397 83.997076 
L 63.39192 83.722151 
L 63.444443 83.722151 
L 63.707059 83.722151 
L 63.707059 83.584688 
L 63.812105 83.584688 
L 64.284813 83.584688 
L 64.284813 83.447225 
L 64.389859 83.447225 
L 64.599951 83.447225 
L 64.704997 83.1723 
L 65.072659 83.1723 
L 65.177705 82.897374 
L 65.230228 82.897374 
L 65.230228 82.759912 
L 65.335274 82.759912 
L 65.440321 82.759912 
L 65.545367 82.484986 
L 65.807982 82.484986 
L 65.807982 82.347523 
L 65.913028 82.347523 
L 66.228167 82.347523 
L 66.228167 82.210061 
L 66.333213 82.210061 
L 66.700875 82.210061 
L 66.805921 81.797672 
L 67.016013 81.797672 
L 67.016013 81.66021 
L 67.121059 81.66021 
L 67.278629 81.66021 
L 67.278629 81.522747 
L 67.383675 81.522747 
L 67.436198 81.522747 
L 67.436198 81.385284 
L 67.541244 81.385284 
L 67.751336 81.385284 
L 67.856382 81.110359 
L 68.013952 81.110359 
L 68.066475 80.69797 
L 68.118998 80.69797 
L 68.224044 80.69797 
L 68.224044 80.560508 
L 68.32909 80.560508 
L 68.696752 80.560508 
L 68.696752 80.423045 
L 68.801798 80.423045 
L 69.116937 80.423045 
L 69.116937 80.285582 
L 69.221983 80.285582 
L 69.274506 80.285582 
L 69.274506 80.14812 
L 69.379552 80.14812 
L 70.272444 80.14812 
L 70.377491 79.735731 
L 70.482537 79.735731 
L 70.587583 79.18588 
L 70.692629 79.18588 
L 70.692629 78.910955 
L 70.797675 78.910955 
L 71.007768 78.910955 
L 71.060291 78.636029 
L 71.112814 78.636029 
L 71.21786 78.636029 
L 71.21786 78.498567 
L 71.322906 78.498567 
L 71.848137 78.498567 
L 71.953183 78.223641 
L 72.005706 78.223641 
L 72.110752 77.536328 
L 72.163275 77.536328 
L 72.215799 77.123939 
L 72.268322 77.123939 
L 72.373368 77.123939 
L 72.373368 76.986477 
L 72.478414 76.986477 
L 72.530937 76.986477 
L 72.530937 76.849014 
L 72.635983 76.849014 
L 72.951122 76.849014 
L 73.056168 76.299163 
L 73.423829 76.299163 
L 73.528876 75.611849 
L 73.581399 75.611849 
L 73.686445 75.199461 
L 73.844014 75.199461 
L 73.844014 75.061998 
L 73.94906 75.061998 
L 74.001583 75.061998 
L 74.10663 74.787073 
L 74.159153 74.787073 
L 74.211676 74.512147 
L 74.264199 74.512147 
L 74.421768 74.512147 
L 74.421768 74.374685 
L 74.526814 74.374685 
L 74.946999 74.374685 
L 75.052045 74.099759 
L 75.104568 74.099759 
L 75.209614 73.687371 
L 75.314661 73.687371 
L 75.314661 73.549908 
L 75.419707 73.549908 
L 75.524753 73.549908 
L 75.524753 73.412445 
L 75.629799 73.412445 
L 75.839891 73.412445 
L 75.839891 73.274983 
L 75.944938 73.274983 
L 76.049984 73.274983 
L 76.049984 73.13752 
L 76.15503 73.13752 
L 76.470168 73.13752 
L 76.470168 73.000057 
L 76.575215 73.000057 
L 76.942876 73.000057 
L 77.047922 72.587669 
L 77.152969 72.587669 
L 77.152969 72.450206 
L 77.258015 72.450206 
L 77.468107 72.450206 
L 77.468107 72.312744 
L 77.573153 72.312744 
L 77.625676 72.312744 
L 77.730722 72.037818 
L 77.888292 72.037818 
L 77.888292 71.900355 
L 77.993338 71.900355 
L 78.098384 71.900355 
L 78.098384 71.762893 
L 78.20343 71.762893 
L 78.308476 71.762893 
L 78.308476 71.62543 
L 78.413523 71.62543 
L 78.571092 71.62543 
L 78.676138 71.213042 
L 78.991276 71.213042 
L 79.0438 70.938116 
L 79.096323 70.938116 
L 79.201369 70.938116 
L 79.306415 70.663191 
L 79.831646 70.663191 
L 79.831646 70.388265 
L 79.936692 70.388265 
L 79.989215 70.388265 
L 79.989215 70.250803 
L 80.094261 70.250803 
L 80.146784 70.250803 
L 80.146784 70.11334 
L 80.251831 70.11334 
L 80.4094 70.11334 
L 80.4094 69.975877 
L 80.514446 69.975877 
L 80.829584 69.975877 
L 80.829584 69.838414 
L 80.934631 69.838414 
L 81.302292 69.838414 
L 81.407338 69.563489 
L 82.300231 69.563489 
L 82.352754 69.288563 
L 82.405277 69.288563 
L 82.4578 69.288563 
L 82.4578 69.151101 
L 82.562846 69.151101 
L 83.1406 69.151101 
L 83.245646 68.876175 
L 83.560785 68.876175 
L 83.665831 68.60125 
L 83.98097 68.60125 
L 83.98097 68.463787 
L 84.086016 68.463787 
L 84.138539 68.463787 
L 84.138539 68.326324 
L 84.243585 68.326324 
L 84.401154 68.326324 
L 84.453677 68.051399 
L 84.5062 68.051399 
L 84.558724 68.051399 
L 84.558724 67.913936 
L 84.66377 67.913936 
L 84.821339 67.913936 
L 84.926385 67.639011 
L 85.241524 67.639011 
L 85.294047 67.364085 
L 85.34657 67.364085 
L 85.609185 67.364085 
L 85.609185 67.226622 
L 85.714231 67.226622 
L 85.819278 67.226622 
L 85.819278 67.08916 
L 85.924324 67.08916 
L 86.291985 67.08916 
L 86.344508 66.814234 
L 86.397031 66.814234 
L 86.869739 66.814234 
L 86.869739 66.676771 
L 86.974785 66.676771 
L 87.027308 66.676771 
L 87.027308 66.401846 
L 87.132355 66.401846 
L 87.815155 66.401846 
L 87.815155 66.264383 
L 87.920201 66.264383 
L 88.287863 66.264383 
L 88.392909 65.851995 
L 89.285801 65.851995 
L 89.338324 65.57707 
L 89.390847 65.57707 
L 89.44337 65.57707 
L 89.495893 65.164681 
L 89.548417 65.164681 
L 90.178694 65.164681 
L 90.178694 65.027219 
L 90.28374 65.027219 
L 90.493832 65.027219 
L 90.493832 64.752293 
L 90.598878 64.752293 
L 90.703924 64.752293 
L 90.703924 64.61483 
L 90.808971 64.61483 
L 90.96654 64.61483 
L 91.071586 64.339905 
L 91.229155 64.339905 
L 91.229155 64.202442 
L 91.334201 64.202442 
L 91.544294 64.202442 
L 91.544294 64.064979 
L 91.64934 64.064979 
L 91.701863 64.064979 
L 91.701863 63.927517 
L 91.806909 63.927517 
L 92.227094 63.927517 
L 92.227094 63.790054 
L 92.33214 63.790054 
L 92.857371 63.790054 
L 92.857371 63.652591 
L 92.962417 63.652591 
L 93.330079 63.652591 
L 93.382602 63.377666 
L 93.435125 63.377666 
L 93.69774 63.377666 
L 93.69774 63.240203 
L 93.802786 63.240203 
L 94.433063 63.240203 
L 94.485587 62.965278 
L 94.53811 62.965278 
L 94.643156 62.965278 
L 94.748202 62.690352 
L 94.958294 62.690352 
L 94.958294 62.552889 
L 95.06334 62.552889 
L 95.536048 62.552889 
L 95.536048 62.415427 
L 95.641094 62.415427 
L 95.693618 62.415427 
L 95.693618 62.277964 
L 95.798664 62.277964 
L 96.008756 62.277964 
L 96.008756 62.140501 
L 96.113802 62.140501 
L 96.166325 62.140501 
L 96.166325 62.003038 
L 96.271371 62.003038 
L 96.428941 62.003038 
L 96.428941 61.865576 
L 96.533987 61.865576 
L 96.639033 61.865576 
L 96.691556 61.59065 
L 96.744079 61.59065 
L 96.849125 61.59065 
L 96.849125 61.453187 
L 96.954172 61.453187 
L 97.426879 61.453187 
L 97.426879 61.315725 
L 97.531925 61.315725 
L 97.899587 61.315725 
L 98.004633 61.040799 
L 98.109679 61.040799 
L 98.214726 60.490948 
L 98.267249 60.490948 
L 98.267249 60.353486 
L 98.372295 60.353486 
L 98.529864 60.353486 
L 98.582387 59.941097 
L 98.63491 59.941097 
L 98.687433 59.941097 
L 98.687433 59.803635 
L 98.79248 59.803635 
L 99.160141 59.803635 
L 99.160141 59.666172 
L 99.265187 59.666172 
L 99.31771 59.666172 
L 99.31771 59.528709 
L 99.422757 59.528709 
L 99.527803 59.528709 
L 99.527803 59.391246 
L 99.632849 59.391246 
L 99.790418 59.391246 
L 99.790418 59.253784 
L 99.895464 59.253784 
L 100.105557 59.253784 
L 100.105557 59.116321 
L 100.210603 59.116321 
L 100.315649 59.116321 
L 100.315649 58.978858 
L 100.420695 58.978858 
L 100.525741 58.978858 
L 100.630787 58.703933 
L 101.943865 58.703933 
L 101.943865 58.56647 
L 102.048911 58.56647 
L 102.311526 58.56647 
L 102.311526 58.429007 
L 102.416572 58.429007 
L 102.521619 58.429007 
L 102.574142 58.154082 
L 102.626665 58.154082 
L 102.679188 58.154082 
L 102.679188 58.016619 
L 102.784234 58.016619 
L 102.88928 58.016619 
L 102.994326 57.741694 
L 103.309465 57.741694 
L 103.309465 57.604231 
L 103.414511 57.604231 
L 103.677126 57.604231 
L 103.677126 57.466768 
L 103.782173 57.466768 
L 103.887219 57.466768 
L 103.939742 57.05438 
L 103.992265 57.05438 
L 104.780111 57.05438 
L 104.780111 56.916917 
L 104.885157 56.916917 
L 104.93768 56.916917 
L 104.93768 56.779454 
L 105.042727 56.779454 
L 105.252819 56.779454 
L 105.252819 56.641992 
L 105.357865 56.641992 
L 105.830573 56.641992 
L 105.830573 56.504529 
L 105.935619 56.504529 
L 106.093188 56.504529 
L 106.093188 56.367066 
L 106.198234 56.367066 
L 108.036542 56.367066 
L 108.036542 56.229604 
L 108.141589 56.229604 
L 108.299158 56.229604 
L 108.299158 55.954678 
L 108.404204 55.954678 
L 109.244573 55.954678 
L 109.244573 55.817215 
L 109.34962 55.817215 
L 109.769804 55.817215 
L 109.769804 55.679753 
L 109.87485 55.679753 
L 110.03242 55.679753 
L 110.137466 55.267364 
L 110.872789 55.267364 
L 110.872789 55.129902 
L 110.977835 55.129902 
L 111.082881 55.129902 
L 111.082881 54.992439 
L 111.187928 54.992439 
L 112.08082 54.992439 
L 112.08082 54.854976 
L 112.185866 54.854976 
L 112.448482 54.854976 
L 112.448482 54.717513 
L 112.553528 54.717513 
L 112.711097 54.717513 
L 112.711097 54.580051 
L 112.816143 54.580051 
L 114.024174 54.580051 
L 114.024174 54.442588 
L 114.12922 54.442588 
L 114.181743 54.442588 
L 114.181743 54.305125 
L 114.28679 54.305125 
L 115.074636 54.305125 
L 115.074636 54.167662 
L 115.179682 54.167662 
L 115.442297 54.167662 
L 115.442297 54.0302 
L 115.547344 54.0302 
L 115.65239 54.0302 
L 115.757436 53.617812 
L 116.072574 53.617812 
L 116.177621 53.342886 
L 116.860421 53.342886 
L 116.860421 53.205423 
L 116.965467 53.205423 
L 117.333128 53.205423 
L 117.438175 52.930498 
L 117.543221 52.930498 
L 117.543221 52.793035 
L 117.648267 52.793035 
L 118.488636 52.793035 
L 118.488636 52.793035 
" clip-path="url(#pb7ff9962ee)" style="fill: none; stroke: #d1d1d1; stroke-width: 2; stroke-linecap: square"/>
   </g>
   <g id="line2d_9">
    <path d="M 45.061364 102.554545 
L 45.16641 102.554545 
L 45.218933 102.313892 
L 45.271456 102.313892 
L 45.323979 102.313892 
L 45.429025 101.351276 
L 45.481548 101.351276 
L 45.534071 101.110622 
L 45.586594 101.110622 
L 45.744164 101.110622 
L 45.744164 100.869968 
L 45.84921 100.869968 
L 45.954256 100.869968 
L 46.006779 100.629314 
L 46.059302 100.629314 
L 46.164348 100.629314 
L 46.269395 99.907352 
L 46.321918 99.907352 
L 46.374441 99.426044 
L 46.426964 99.426044 
L 46.479487 99.426044 
L 46.584533 97.982121 
L 46.847149 97.982121 
L 46.952195 97.500813 
L 47.004718 97.500813 
L 47.057241 97.260159 
L 47.109764 97.260159 
L 48.002656 97.260159 
L 48.002656 97.019505 
L 48.107703 97.019505 
L 48.370318 97.019505 
L 48.422841 96.297543 
L 48.475364 96.297543 
L 48.685456 96.297543 
L 48.73798 95.816235 
L 48.790503 95.816235 
L 48.843026 95.816235 
L 48.895549 95.094273 
L 48.948072 95.094273 
L 49.000595 95.094273 
L 49.053118 94.372311 
L 49.105641 94.372311 
L 49.158164 94.372311 
L 49.210687 94.131658 
L 49.26321 94.131658 
L 49.525826 94.131658 
L 49.525826 93.891004 
L 49.630872 93.891004 
L 49.735918 93.891004 
L 49.735918 93.409696 
L 49.840964 93.409696 
L 49.998534 93.409696 
L 50.10358 92.928388 
L 50.208626 92.928388 
L 50.208626 92.687734 
L 50.313672 92.687734 
L 50.366195 92.687734 
L 50.471241 92.206426 
L 50.523764 92.206426 
L 50.523764 91.965772 
L 50.628811 91.965772 
L 50.838903 91.965772 
L 50.891426 91.725118 
L 50.943949 91.725118 
L 51.048995 91.725118 
L 51.154041 91.24381 
L 51.206565 91.24381 
L 51.259088 91.003156 
L 51.311611 91.003156 
L 52.782257 91.003156 
L 52.887303 90.521848 
L 53.149919 90.521848 
L 53.149919 90.281195 
L 53.254965 90.281195 
L 53.622626 90.281195 
L 53.67515 89.799887 
L 53.727673 89.799887 
L 53.990288 89.799887 
L 53.990288 89.559233 
L 54.095334 89.559233 
L 54.673088 89.559233 
L 54.725611 89.318579 
L 54.778134 89.318579 
L 54.988227 89.318579 
L 54.988227 89.077925 
L 55.093273 89.077925 
L 55.460934 89.077925 
L 55.513458 88.837271 
L 55.565981 88.837271 
L 55.776073 88.837271 
L 55.828596 88.596617 
L 55.881119 88.596617 
L 56.511396 88.596617 
L 56.511396 88.355963 
L 56.616442 88.355963 
L 56.826535 88.355963 
L 56.879058 88.115309 
L 56.931581 88.115309 
L 57.08915 88.115309 
L 57.08915 87.874655 
L 57.194196 87.874655 
L 57.666904 87.874655 
L 57.719427 87.393347 
L 57.77195 87.393347 
L 58.349704 87.393347 
L 58.402227 87.152693 
L 58.45475 87.152693 
L 58.769889 87.152693 
L 58.769889 86.912039 
L 58.874935 86.912039 
L 58.979981 86.912039 
L 59.032504 86.671385 
L 59.085027 86.671385 
L 59.452689 86.671385 
L 59.452689 86.430731 
L 59.557735 86.430731 
L 59.610258 86.430731 
L 59.662781 86.190078 
L 59.715304 86.190078 
L 60.870812 86.190078 
L 60.975858 85.468116 
L 61.028381 85.468116 
L 61.133428 84.986808 
L 61.396043 84.986808 
L 61.501089 84.5055 
L 61.606135 84.5055 
L 61.658658 84.024192 
L 61.711182 84.024192 
L 61.868751 84.024192 
L 61.921274 83.783538 
L 61.973797 83.783538 
L 62.02632 83.783538 
L 62.078843 83.30223 
L 62.131366 83.30223 
L 62.288935 83.30223 
L 62.288935 83.061576 
L 62.393982 83.061576 
L 62.499028 83.061576 
L 62.499028 82.820922 
L 62.604074 82.820922 
L 63.181828 82.820922 
L 63.286874 82.098961 
L 63.654536 82.098961 
L 63.654536 81.858307 
L 63.759582 81.858307 
L 63.917151 81.858307 
L 63.917151 81.376999 
L 64.022197 81.376999 
L 64.389859 81.376999 
L 64.442382 80.895691 
L 64.494905 80.895691 
L 64.704997 80.895691 
L 64.704997 80.655037 
L 64.810044 80.655037 
L 65.072659 80.655037 
L 65.177705 80.173729 
L 65.230228 80.173729 
L 65.282751 79.933075 
L 65.335274 79.933075 
L 65.440321 79.933075 
L 65.492844 79.692421 
L 65.545367 79.692421 
L 65.650413 79.692421 
L 65.702936 79.211113 
L 65.755459 79.211113 
L 65.807982 79.211113 
L 65.807982 78.729805 
L 65.913028 78.729805 
L 65.965551 78.729805 
L 66.018075 78.248498 
L 66.070598 78.248498 
L 66.175644 78.248498 
L 66.228167 77.76719 
L 66.28069 77.76719 
L 66.333213 77.76719 
L 66.385736 77.285882 
L 66.438259 77.285882 
L 66.595828 77.285882 
L 66.648352 77.045228 
L 66.700875 77.045228 
L 66.805921 77.045228 
L 66.805921 76.804574 
L 66.910967 76.804574 
L 66.96349 76.804574 
L 66.96349 76.56392 
L 67.068536 76.56392 
L 67.541244 76.56392 
L 67.593767 76.082612 
L 67.64629 76.082612 
L 68.171521 76.082612 
L 68.171521 75.841958 
L 68.276567 75.841958 
L 68.48666 75.841958 
L 68.539183 75.119996 
L 68.591706 75.119996 
L 68.696752 75.119996 
L 68.801798 74.398034 
L 68.959367 74.398034 
L 68.959367 73.916727 
L 69.064413 73.916727 
L 69.274506 73.916727 
L 69.327029 73.676073 
L 69.379552 73.676073 
L 69.484598 73.676073 
L 69.589644 73.194765 
L 69.642167 73.194765 
L 69.747214 72.713457 
L 69.85226 72.713457 
L 69.904783 72.232149 
L 69.957306 72.232149 
L 70.009829 72.232149 
L 70.062352 71.750841 
L 70.114875 71.750841 
L 70.167398 71.750841 
L 70.167398 71.510187 
L 70.272444 71.510187 
L 70.430014 71.510187 
L 70.53506 70.788225 
L 70.692629 70.788225 
L 70.692629 70.066264 
L 70.797675 70.066264 
L 70.902721 70.066264 
L 70.955245 69.82561 
L 71.007768 69.82561 
L 71.112814 69.82561 
L 71.21786 69.103648 
L 71.322906 69.103648 
L 71.427952 68.381686 
L 71.480475 68.381686 
L 71.480475 68.141032 
L 71.585522 68.141032 
L 71.743091 68.141032 
L 71.795614 67.900378 
L 71.848137 67.900378 
L 71.90066 67.900378 
L 71.953183 67.41907 
L 72.005706 67.41907 
L 72.058229 67.41907 
L 72.163275 66.697108 
L 72.215799 66.697108 
L 72.268322 66.215801 
L 72.320845 66.215801 
L 72.373368 66.215801 
L 72.478414 65.734493 
L 72.741029 65.734493 
L 72.741029 65.493839 
L 72.846076 65.493839 
L 72.898599 65.493839 
L 73.003645 65.012531 
L 73.108691 65.012531 
L 73.161214 64.771877 
L 73.213737 64.771877 
L 73.318783 64.771877 
L 73.371306 64.531223 
L 73.423829 64.531223 
L 73.476353 64.531223 
L 73.528876 64.049915 
L 73.581399 64.049915 
L 73.791491 64.049915 
L 73.791491 63.568607 
L 73.896537 63.568607 
L 74.001583 63.568607 
L 74.001583 63.327953 
L 74.10663 63.327953 
L 74.264199 63.327953 
L 74.264199 63.087299 
L 74.369245 63.087299 
L 74.526814 63.087299 
L 74.526814 62.605991 
L 74.63186 62.605991 
L 74.684384 62.605991 
L 74.736907 62.365337 
L 74.78943 62.365337 
L 75.104568 62.365337 
L 75.209614 61.88403 
L 75.262137 61.88403 
L 75.314661 61.162068 
L 75.367184 61.162068 
L 75.419707 61.162068 
L 75.419707 60.921414 
L 75.524753 60.921414 
L 75.839891 60.921414 
L 75.839891 60.440106 
L 75.944938 60.440106 
L 76.102507 60.440106 
L 76.102507 60.199452 
L 76.207553 60.199452 
L 76.260076 60.199452 
L 76.312599 59.47749 
L 76.365122 59.47749 
L 76.83783 59.47749 
L 76.83783 59.236836 
L 76.942876 59.236836 
L 76.995399 59.236836 
L 76.995399 58.996182 
L 77.100445 58.996182 
L 77.573153 58.996182 
L 77.678199 58.514874 
L 77.730722 58.514874 
L 77.730722 58.27422 
L 77.835769 58.27422 
L 78.20343 58.27422 
L 78.255953 58.033567 
L 78.308476 58.033567 
L 78.360999 58.033567 
L 78.360999 57.792913 
L 78.466046 57.792913 
L 78.833707 57.792913 
L 78.833707 57.552259 
L 78.938753 57.552259 
L 79.096323 57.552259 
L 79.148846 57.311605 
L 79.201369 57.311605 
L 79.253892 57.311605 
L 79.253892 57.070951 
L 79.358938 57.070951 
L 79.7266 57.070951 
L 79.779123 56.830297 
L 79.831646 56.830297 
L 80.356877 56.830297 
L 80.356877 56.589643 
L 80.461923 56.589643 
L 80.514446 56.589643 
L 80.619492 56.108335 
L 80.882108 56.108335 
L 80.934631 55.627027 
L 80.987154 55.627027 
L 81.459861 55.627027 
L 81.459861 55.386373 
L 81.564908 55.386373 
L 81.617431 55.386373 
L 81.722477 54.905065 
L 81.827523 54.905065 
L 81.880046 54.423757 
L 81.932569 54.423757 
L 82.300231 54.423757 
L 82.300231 54.183104 
L 82.405277 54.183104 
L 82.510323 54.183104 
L 82.562846 53.94245 
L 82.615369 53.94245 
L 82.930508 53.94245 
L 82.930508 53.701796 
L 83.035554 53.701796 
L 83.875923 53.701796 
L 83.875923 53.461142 
L 83.98097 53.461142 
L 84.926385 53.461142 
L 85.031431 52.979834 
L 85.976847 52.979834 
L 85.976847 52.73918 
L 86.081893 52.73918 
L 86.239462 52.73918 
L 86.291985 52.498526 
L 86.344508 52.498526 
L 86.922262 52.498526 
L 87.027308 52.017218 
L 89.128232 52.017218 
L 89.180755 51.776564 
L 89.233278 51.776564 
L 90.546355 51.776564 
L 90.546355 51.53591 
L 90.651401 51.53591 
L 91.176632 51.53591 
L 91.176632 51.295256 
L 91.281678 51.295256 
L 92.33214 51.295256 
L 92.33214 51.054602 
L 92.437186 51.054602 
L 93.435125 51.054602 
L 93.487648 50.813948 
L 93.540171 50.813948 
L 94.170448 50.813948 
L 94.275494 50.091987 
L 95.06334 50.091987 
L 95.06334 49.851333 
L 95.168387 49.851333 
L 95.22091 49.851333 
L 95.273433 49.610679 
L 95.325956 49.610679 
L 95.746141 49.610679 
L 95.746141 49.129371 
L 95.851187 49.129371 
L 96.113802 49.129371 
L 96.113802 48.888717 
L 96.218848 48.888717 
L 97.006695 48.888717 
L 97.059218 48.407409 
L 97.111741 48.407409 
L 97.636972 48.407409 
L 97.689495 48.166755 
L 97.742018 48.166755 
L 97.899587 48.166755 
L 98.004633 47.685447 
L 98.162202 47.685447 
L 98.214726 47.444793 
L 98.267249 47.444793 
L 98.319772 47.444793 
L 98.319772 47.204139 
L 98.424818 47.204139 
L 98.845003 47.204139 
L 98.950049 46.241523 
L 100.053034 46.241523 
L 100.053034 45.760216 
L 100.15808 45.760216 
L 104.149834 45.760216 
L 104.149834 45.519562 
L 104.25488 45.519562 
L 104.727588 45.519562 
L 104.780111 45.278908 
L 104.832634 45.278908 
L 105.410388 45.278908 
L 105.410388 45.038254 
L 105.515434 45.038254 
L 105.988142 45.038254 
L 105.988142 44.7976 
L 106.093188 44.7976 
L 107.353742 44.7976 
L 107.406265 44.556946 
L 107.458789 44.556946 
L 112.973712 44.556946 
L 112.973712 44.316292 
L 113.078759 44.316292 
L 115.232205 44.316292 
L 115.232205 44.075638 
L 115.337251 44.075638 
L 115.862482 44.075638 
L 115.862482 43.834984 
L 115.967528 43.834984 
L 118.488636 43.834984 
L 118.488636 43.834984 
" clip-path="url(#pb7ff9962ee)" style="fill: none; stroke: #e09b9b; stroke-width: 2; stroke-linecap: square"/>
   </g>
   <g id="line2d_10">
    <path d="M 45.061364 102.554545 
L 45.061364 102.05968 
L 45.16641 102.05968 
L 45.218933 102.05968 
L 45.218933 101.812247 
L 45.323979 101.812247 
L 45.481548 101.812247 
L 45.534071 101.069948 
L 45.586594 101.069948 
L 45.744164 101.069948 
L 45.796687 100.080216 
L 45.84921 100.080216 
L 45.901733 100.080216 
L 45.901733 99.58535 
L 46.006779 99.58535 
L 46.059302 99.58535 
L 46.164348 99.090485 
L 46.952195 99.090485 
L 46.952195 98.843052 
L 47.057241 98.843052 
L 47.267333 98.843052 
L 47.267333 98.348186 
L 47.372379 98.348186 
L 47.529949 98.348186 
L 47.582472 97.605887 
L 47.634995 97.605887 
L 47.792564 97.605887 
L 47.845087 97.111021 
L 47.89761 97.111021 
L 48.002656 97.111021 
L 48.002656 96.863588 
L 48.107703 96.863588 
L 48.422841 96.863588 
L 48.422841 96.616155 
L 48.527887 96.616155 
L 48.58041 96.616155 
L 48.685456 96.121289 
L 48.843026 96.121289 
L 48.948072 95.626424 
L 49.053118 95.626424 
L 49.053118 95.378991 
L 49.158164 95.378991 
L 49.210687 95.378991 
L 49.315734 94.884125 
L 49.525826 94.884125 
L 49.630872 94.389259 
L 50.051057 94.389259 
L 50.10358 93.894393 
L 50.156103 93.894393 
L 50.471241 93.894393 
L 50.471241 93.64696 
L 50.576288 93.64696 
L 50.78638 93.64696 
L 50.891426 93.152094 
L 51.836842 93.152094 
L 51.836842 92.904661 
L 51.941888 92.904661 
L 52.414596 92.904661 
L 52.414596 92.657228 
L 52.519642 92.657228 
L 52.887303 92.657228 
L 52.887303 92.409796 
L 52.992349 92.409796 
L 53.412534 92.409796 
L 53.412534 92.162363 
L 53.51758 92.162363 
L 53.885242 92.162363 
L 53.937765 91.667497 
L 53.990288 91.667497 
L 54.095334 91.667497 
L 54.095334 91.420064 
L 54.20038 91.420064 
L 54.305427 91.420064 
L 54.305427 91.172631 
L 54.410473 91.172631 
L 54.462996 91.172631 
L 54.462996 90.925198 
L 54.568042 90.925198 
L 54.725611 90.925198 
L 54.725611 90.677765 
L 54.830657 90.677765 
L 55.72355 90.677765 
L 55.828596 90.182899 
L 56.038688 90.182899 
L 56.038688 89.935466 
L 56.143735 89.935466 
L 56.196258 89.935466 
L 56.196258 89.688033 
L 56.301304 89.688033 
L 56.511396 89.688033 
L 56.511396 89.4406 
L 56.616442 89.4406 
L 58.297181 89.4406 
L 58.402227 88.698302 
L 58.874935 88.698302 
L 58.979981 88.203436 
L 59.13755 88.203436 
L 59.13755 87.956003 
L 59.242597 87.956003 
L 59.400166 87.956003 
L 59.505212 87.461137 
L 59.925397 87.461137 
L 59.925397 87.213704 
L 60.030443 87.213704 
L 61.290997 87.213704 
L 61.290997 86.966271 
L 61.396043 86.966271 
L 61.658658 86.966271 
L 61.658658 86.718838 
L 61.763705 86.718838 
L 61.816228 86.718838 
L 61.816228 86.471405 
L 61.921274 86.471405 
L 62.236412 86.471405 
L 62.341459 85.729107 
L 62.393982 85.729107 
L 62.393982 85.481674 
L 62.499028 85.481674 
L 62.551551 85.481674 
L 62.656597 84.739375 
L 62.971736 84.739375 
L 62.971736 84.491942 
L 63.076782 84.491942 
L 63.181828 84.491942 
L 63.234351 83.997076 
L 63.286874 83.997076 
L 63.54949 83.997076 
L 63.654536 83.254777 
L 63.759582 83.254777 
L 63.864628 82.759912 
L 64.022197 82.759912 
L 64.022197 82.265046 
L 64.127243 82.265046 
L 64.179767 82.265046 
L 64.179767 82.017613 
L 64.284813 82.017613 
L 64.494905 82.017613 
L 64.599951 81.522747 
L 64.652474 81.522747 
L 64.704997 81.027881 
L 64.75752 81.027881 
L 64.810044 81.027881 
L 64.91509 80.533015 
L 64.967613 80.533015 
L 65.020136 80.038149 
L 65.072659 80.038149 
L 65.650413 80.038149 
L 65.650413 79.790716 
L 65.755459 79.790716 
L 65.807982 79.790716 
L 65.913028 79.295851 
L 66.070598 79.295851 
L 66.070598 79.048418 
L 66.175644 79.048418 
L 66.228167 79.048418 
L 66.333213 78.306119 
L 66.385736 78.306119 
L 66.490782 77.56382 
L 66.595828 77.56382 
L 66.700875 76.821521 
L 66.753398 76.821521 
L 66.753398 76.574088 
L 66.858444 76.574088 
L 66.910967 76.574088 
L 66.910967 76.326655 
L 67.016013 76.326655 
L 67.121059 76.326655 
L 67.226105 75.089491 
L 67.278629 75.089491 
L 67.383675 74.347192 
L 67.436198 74.347192 
L 67.488721 73.852326 
L 67.541244 73.852326 
L 67.698813 73.852326 
L 67.698813 73.604893 
L 67.803859 73.604893 
L 67.856382 73.604893 
L 67.961429 72.615162 
L 68.066475 72.615162 
L 68.171521 71.130564 
L 68.224044 71.130564 
L 68.224044 70.883131 
L 68.32909 70.883131 
L 68.48666 70.883131 
L 68.539183 69.645967 
L 68.591706 69.645967 
L 68.696752 69.645967 
L 68.696752 68.903668 
L 68.801798 68.903668 
L 68.959367 68.903668 
L 69.064413 68.161369 
L 69.116937 68.161369 
L 69.221983 66.924204 
L 69.327029 66.924204 
L 69.327029 66.429339 
L 69.432075 66.429339 
L 69.484598 66.429339 
L 69.537121 64.697308 
L 69.589644 64.697308 
L 69.747214 64.697308 
L 69.747214 64.202442 
L 69.85226 64.202442 
L 69.904783 64.202442 
L 69.904783 63.955009 
L 70.009829 63.955009 
L 70.062352 63.955009 
L 70.114875 62.222979 
L 70.167398 62.222979 
L 70.219921 62.222979 
L 70.324967 61.728113 
L 70.377491 61.728113 
L 70.377491 61.48068 
L 70.482537 61.48068 
L 70.53506 61.48068 
L 70.640106 59.74865 
L 70.692629 59.74865 
L 70.797675 58.016619 
L 70.955245 58.016619 
L 71.060291 57.27432 
L 71.480475 57.27432 
L 71.585522 56.284589 
L 71.638045 56.284589 
L 71.638045 55.54229 
L 71.743091 55.54229 
L 71.848137 55.54229 
L 71.953183 54.305125 
L 72.005706 54.305125 
L 72.058229 53.562826 
L 72.110752 53.562826 
L 72.215799 53.562826 
L 72.268322 52.078229 
L 72.320845 52.078229 
L 72.425891 52.078229 
L 72.530937 51.583363 
L 72.58346 51.583363 
L 72.688506 50.593631 
L 72.741029 50.593631 
L 72.846076 49.6039 
L 72.898599 49.6039 
L 72.898599 49.109034 
L 73.003645 49.109034 
L 73.056168 49.109034 
L 73.161214 48.366735 
L 73.26626 48.366735 
L 73.26626 48.119302 
L 73.371306 48.119302 
L 73.686445 48.119302 
L 73.686445 47.871869 
L 73.791491 47.871869 
L 73.896537 47.871869 
L 73.896537 47.377003 
L 74.001583 47.377003 
L 74.211676 47.377003 
L 74.211676 47.12957 
L 74.316722 47.12957 
L 74.369245 47.12957 
L 74.369245 46.882137 
L 74.474291 46.882137 
L 74.736907 46.882137 
L 74.841953 46.387272 
L 74.999522 46.387272 
L 75.104568 45.892406 
L 75.157091 45.892406 
L 75.262137 45.39754 
L 75.314661 45.39754 
L 75.314661 44.902674 
L 75.419707 44.902674 
L 75.47223 44.902674 
L 75.47223 44.655241 
L 75.577276 44.655241 
L 75.629799 44.655241 
L 75.734845 43.912942 
L 75.839891 43.912942 
L 75.944938 43.418077 
L 75.997461 43.418077 
L 76.102507 42.428345 
L 76.15503 42.428345 
L 76.15503 42.180912 
L 76.260076 42.180912 
L 76.995399 42.180912 
L 76.995399 41.933479 
L 77.100445 41.933479 
L 77.258015 41.933479 
L 77.310538 41.438613 
L 77.363061 41.438613 
L 77.783246 41.438613 
L 77.888292 40.943747 
L 78.150907 40.943747 
L 78.150907 40.201449 
L 78.255953 40.201449 
L 78.308476 40.201449 
L 78.308476 39.954016 
L 78.413523 39.954016 
L 79.201369 39.954016 
L 79.306415 39.45915 
L 79.516507 39.45915 
L 79.516507 39.211717 
L 79.621554 39.211717 
L 79.7266 39.211717 
L 79.831646 38.716851 
L 81.354815 38.716851 
L 81.354815 38.469418 
L 81.459861 38.469418 
L 82.090139 38.469418 
L 82.090139 38.221985 
L 82.195185 38.221985 
L 82.300231 38.221985 
L 82.300231 37.974552 
L 82.405277 37.974552 
L 83.245646 37.974552 
L 83.245646 37.727119 
L 83.350693 37.727119 
L 83.665831 37.727119 
L 83.665831 37.479686 
L 83.770877 37.479686 
L 84.768816 37.479686 
L 84.821339 36.984821 
L 84.873862 36.984821 
L 85.083954 36.984821 
L 85.083954 36.737388 
L 85.189001 36.737388 
L 85.241524 36.737388 
L 85.241524 36.489955 
L 85.34657 36.489955 
L 88.07777 36.489955 
L 88.07777 36.242522 
L 88.182816 36.242522 
L 88.392909 36.242522 
L 88.392909 35.995089 
L 88.497955 35.995089 
L 88.76057 35.995089 
L 88.76057 35.747656 
L 88.865616 35.747656 
L 89.338324 35.747656 
L 89.338324 35.500223 
L 89.44337 35.500223 
L 94.170448 35.500223 
L 94.170448 35.25279 
L 94.275494 35.25279 
L 95.90371 35.25279 
L 96.008756 34.757924 
L 99.055095 34.757924 
L 99.055095 34.510491 
L 99.160141 34.510491 
L 100.788357 34.510491 
L 100.788357 34.263058 
L 100.893403 34.263058 
L 102.731711 34.263058 
L 102.731711 34.015625 
L 102.836757 34.015625 
L 113.656513 34.015625 
L 113.656513 33.768193 
L 113.761559 33.768193 
L 118.015929 33.768193 
L 118.015929 33.52076 
L 118.120975 33.52076 
L 118.488636 33.52076 
L 118.488636 33.52076 
" clip-path="url(#pb7ff9962ee)" style="fill: none; stroke: #f06464; stroke-width: 2; stroke-linecap: square"/>
   </g>
   <g id="line2d_11">
    <path d="M 45.061364 102.554545 
L 45.113887 102.154673 
L 45.16641 102.154673 
L 45.218933 102.154673 
L 45.323979 101.7548 
L 45.376502 101.7548 
L 45.376502 101.621509 
L 45.481548 101.621509 
L 45.534071 101.621509 
L 45.534071 101.488218 
L 45.639118 101.488218 
L 45.691641 101.488218 
L 45.691641 101.354928 
L 45.796687 101.354928 
L 45.84921 101.354928 
L 45.954256 100.688473 
L 46.059302 100.688473 
L 46.164348 100.15531 
L 46.269395 100.15531 
L 46.374441 99.622146 
L 46.426964 99.622146 
L 46.479487 99.222274 
L 46.53201 99.222274 
L 46.584533 99.222274 
L 46.584533 99.088983 
L 46.689579 99.088983 
L 46.742102 99.088983 
L 46.794625 98.822401 
L 46.847149 98.822401 
L 46.899672 98.822401 
L 47.004718 98.555819 
L 47.109764 98.555819 
L 47.21481 98.289237 
L 47.267333 98.289237 
L 47.267333 98.022656 
L 47.372379 98.022656 
L 47.529949 98.022656 
L 47.634995 97.622783 
L 47.687518 97.622783 
L 47.792564 96.956329 
L 47.845087 96.956329 
L 47.845087 96.823038 
L 47.950133 96.823038 
L 48.160226 96.823038 
L 48.265272 96.423165 
L 48.370318 96.423165 
L 48.370318 96.289874 
L 48.475364 96.289874 
L 48.527887 96.289874 
L 48.58041 95.890002 
L 48.632933 95.890002 
L 48.790503 95.890002 
L 48.895549 95.62342 
L 49.105641 95.62342 
L 49.105641 95.490129 
L 49.210687 95.490129 
L 49.42078 95.490129 
L 49.42078 95.356838 
L 49.525826 95.356838 
L 49.578349 95.356838 
L 49.630872 95.090256 
L 49.683395 95.090256 
L 49.840964 95.090256 
L 49.946011 94.823675 
L 50.051057 94.823675 
L 50.051057 94.557093 
L 50.156103 94.557093 
L 50.208626 94.557093 
L 50.208626 94.423802 
L 50.313672 94.423802 
L 50.471241 94.423802 
L 50.471241 94.290511 
L 50.576288 94.290511 
L 50.628811 94.290511 
L 50.628811 94.15722 
L 50.733857 94.15722 
L 50.78638 94.15722 
L 50.78638 93.890638 
L 50.891426 93.890638 
L 50.943949 93.890638 
L 51.048995 93.624057 
L 51.101518 93.624057 
L 51.154041 93.357475 
L 51.206565 93.357475 
L 51.311611 93.357475 
L 51.364134 93.090893 
L 51.416657 93.090893 
L 51.784319 93.090893 
L 51.889365 92.824311 
L 52.099457 92.824311 
L 52.15198 92.55773 
L 52.204503 92.55773 
L 52.309549 92.55773 
L 52.309549 92.424439 
L 52.414596 92.424439 
L 53.727673 92.424439 
L 53.832719 92.157857 
L 55.093273 92.157857 
L 55.145796 91.891275 
L 55.198319 91.891275 
L 55.565981 91.891275 
L 55.565981 91.757984 
L 55.671027 91.757984 
L 56.091211 91.757984 
L 56.091211 91.624694 
L 56.196258 91.624694 
L 56.879058 91.624694 
L 56.879058 91.358112 
L 56.984104 91.358112 
L 58.139612 91.358112 
L 58.139612 91.224821 
L 58.244658 91.224821 
L 58.559796 91.224821 
L 58.559796 91.09153 
L 58.664843 91.09153 
L 58.822412 91.09153 
L 58.874935 90.824948 
L 58.927458 90.824948 
L 59.400166 90.824948 
L 59.400166 90.691657 
L 59.505212 90.691657 
L 60.608197 90.691657 
L 60.66072 90.425076 
L 60.713243 90.425076 
L 61.080905 90.425076 
L 61.133428 90.158494 
L 61.185951 90.158494 
L 61.238474 90.158494 
L 61.238474 90.025203 
L 61.34352 90.025203 
L 61.658658 90.025203 
L 61.658658 89.891912 
L 61.763705 89.891912 
L 61.816228 89.891912 
L 61.816228 89.758621 
L 61.921274 89.758621 
L 62.131366 89.758621 
L 62.236412 89.492039 
L 62.656597 89.492039 
L 62.761643 89.225458 
L 62.919213 89.225458 
L 63.024259 88.958876 
L 63.129305 88.958876 
L 63.129305 88.825585 
L 63.234351 88.825585 
L 63.286874 88.825585 
L 63.339397 88.559003 
L 63.39192 88.559003 
L 63.54949 88.559003 
L 63.54949 88.425712 
L 63.654536 88.425712 
L 63.812105 88.425712 
L 63.917151 87.892549 
L 64.127243 87.892549 
L 64.127243 87.759258 
L 64.23229 87.759258 
L 64.599951 87.759258 
L 64.599951 87.625967 
L 64.704997 87.625967 
L 64.862567 87.625967 
L 64.862567 87.359385 
L 64.967613 87.359385 
L 65.020136 87.359385 
L 65.125182 86.826222 
L 65.230228 86.826222 
L 65.335274 86.293058 
L 65.440321 86.293058 
L 65.545367 85.893186 
L 65.650413 85.893186 
L 65.650413 85.626604 
L 65.755459 85.626604 
L 65.807982 85.626604 
L 65.860505 85.360022 
L 65.913028 85.360022 
L 65.965551 85.360022 
L 66.070598 84.560277 
L 66.123121 84.560277 
L 66.228167 83.893823 
L 66.28069 83.893823 
L 66.333213 83.094077 
L 66.385736 83.094077 
L 66.438259 83.094077 
L 66.543305 82.694205 
L 66.648352 82.694205 
L 66.700875 82.161041 
L 66.753398 82.161041 
L 66.805921 82.161041 
L 66.910967 81.361296 
L 66.96349 81.361296 
L 66.96349 81.094714 
L 67.068536 81.094714 
L 67.121059 81.094714 
L 67.226105 80.028387 
L 67.278629 80.028387 
L 67.383675 79.228642 
L 67.436198 79.228642 
L 67.541244 78.96206 
L 67.593767 78.96206 
L 67.698813 77.36257 
L 67.751336 77.36257 
L 67.856382 76.829406 
L 67.908906 76.829406 
L 68.013952 76.296243 
L 68.066475 76.296243 
L 68.171521 75.096625 
L 68.224044 75.096625 
L 68.32909 74.030298 
L 68.381613 74.030298 
L 68.48666 72.963971 
L 68.591706 72.963971 
L 68.696752 71.631062 
L 68.749275 71.631062 
L 68.854321 70.698026 
L 68.906844 70.698026 
L 69.01189 69.898281 
L 69.064413 69.898281 
L 69.16946 69.098535 
L 69.221983 69.098535 
L 69.327029 66.965881 
L 69.379552 66.965881 
L 69.484598 65.2331 
L 69.537121 65.2331 
L 69.589644 64.300064 
L 69.642167 64.300064 
L 69.69469 64.300064 
L 69.799737 63.367028 
L 69.85226 63.367028 
L 69.957306 61.767537 
L 70.009829 61.767537 
L 70.114875 60.567919 
L 70.167398 60.567919 
L 70.219921 59.634883 
L 70.272444 59.634883 
L 70.324967 59.634883 
L 70.430014 58.301974 
L 70.482537 58.301974 
L 70.587583 57.502229 
L 70.640106 57.502229 
L 70.745152 56.569193 
L 70.797675 56.569193 
L 70.850198 55.502866 
L 70.902721 55.502866 
L 70.955245 55.502866 
L 71.060291 54.836411 
L 71.112814 54.836411 
L 71.21786 54.169957 
L 71.270383 54.169957 
L 71.375429 53.636794 
L 71.427952 53.636794 
L 71.480475 52.570466 
L 71.532998 52.570466 
L 71.638045 52.570466 
L 71.743091 52.037303 
L 71.848137 52.037303 
L 71.953183 51.104267 
L 72.005706 51.104267 
L 72.058229 50.03794 
L 72.110752 50.03794 
L 72.215799 50.03794 
L 72.320845 49.371485 
L 72.373368 49.371485 
L 72.478414 48.438449 
L 72.530937 48.438449 
L 72.635983 47.771995 
L 72.688506 47.771995 
L 72.741029 47.372122 
L 72.793552 47.372122 
L 72.898599 47.372122 
L 73.003645 46.97225 
L 73.056168 46.97225 
L 73.161214 46.439086 
L 73.213737 46.439086 
L 73.318783 45.905923 
L 73.371306 45.905923 
L 73.476353 45.372759 
L 73.528876 45.372759 
L 73.633922 44.573014 
L 73.896537 44.573014 
L 74.001583 43.639978 
L 74.054107 43.639978 
L 74.159153 43.240105 
L 74.211676 43.240105 
L 74.264199 42.44036 
L 74.316722 42.44036 
L 74.526814 42.44036 
L 74.63186 41.773905 
L 74.736907 41.773905 
L 74.841953 41.107451 
L 74.894476 41.107451 
L 74.999522 40.574288 
L 75.104568 40.574288 
L 75.157091 40.307706 
L 75.209614 40.307706 
L 75.314661 40.307706 
L 75.419707 39.907833 
L 75.682322 39.907833 
L 75.682322 39.641251 
L 75.787368 39.641251 
L 75.839891 39.641251 
L 75.944938 39.241379 
L 75.997461 39.241379 
L 76.102507 38.841506 
L 76.15503 38.841506 
L 76.260076 38.441633 
L 76.312599 38.441633 
L 76.312599 38.175052 
L 76.417645 38.175052 
L 76.522692 38.175052 
L 76.575215 37.775179 
L 76.627738 37.775179 
L 76.680261 37.775179 
L 76.785307 37.108725 
L 76.890353 37.108725 
L 76.890353 36.975434 
L 76.995399 36.975434 
L 77.047922 36.975434 
L 77.047922 36.842143 
L 77.152969 36.842143 
L 77.310538 36.842143 
L 77.310538 36.575561 
L 77.415584 36.575561 
L 77.573153 36.575561 
L 77.678199 36.175689 
L 77.835769 36.175689 
L 77.888292 35.909107 
L 77.940815 35.909107 
L 78.045861 35.909107 
L 78.150907 35.242652 
L 78.255953 35.242652 
L 78.308476 34.709489 
L 78.360999 34.709489 
L 78.518569 34.709489 
L 78.571092 34.442907 
L 78.623615 34.442907 
L 78.781184 34.442907 
L 78.88623 34.176325 
L 79.0438 34.176325 
L 79.0438 34.043035 
L 79.148846 34.043035 
L 79.358938 34.043035 
L 79.411461 33.643162 
L 79.463984 33.643162 
L 79.516507 33.643162 
L 79.56903 33.37658 
L 79.621554 33.37658 
L 79.7266 33.37658 
L 79.831646 32.976708 
L 80.041738 32.976708 
L 80.146784 32.710126 
L 80.199307 32.710126 
L 80.199307 32.576835 
L 80.304354 32.576835 
L 80.356877 32.576835 
L 80.356877 32.443544 
L 80.461923 32.443544 
L 80.672015 32.443544 
L 80.724538 32.176962 
L 80.777061 32.176962 
L 80.934631 32.176962 
L 80.934631 32.043671 
L 81.039677 32.043671 
L 81.144723 32.043671 
L 81.144723 31.910381 
L 81.249769 31.910381 
L 81.354815 31.910381 
L 81.354815 31.77709 
L 81.459861 31.77709 
L 81.985092 31.77709 
L 81.985092 31.643799 
L 82.090139 31.643799 
L 82.142662 31.643799 
L 82.247708 31.377217 
L 82.405277 31.377217 
L 82.405277 31.243926 
L 82.510323 31.243926 
L 82.615369 31.243926 
L 82.720416 30.977344 
L 83.035554 30.977344 
L 83.035554 30.844053 
L 83.1406 30.844053 
L 83.245646 30.844053 
L 83.350693 30.577472 
L 84.138539 30.577472 
L 84.138539 30.444181 
L 84.243585 30.444181 
L 84.296108 30.444181 
L 84.296108 30.31089 
L 84.401154 30.31089 
L 84.611247 30.31089 
L 84.716293 30.044308 
L 84.873862 30.044308 
L 84.873862 29.911017 
L 84.978908 29.911017 
L 85.241524 29.911017 
L 85.241524 29.777726 
L 85.34657 29.777726 
L 85.714231 29.777726 
L 85.766754 29.511145 
L 85.819278 29.511145 
L 86.659647 29.511145 
L 86.659647 29.377854 
L 86.764693 29.377854 
L 87.605062 29.377854 
L 87.657586 29.111272 
L 87.710109 29.111272 
L 89.285801 29.111272 
L 89.285801 28.977981 
L 89.390847 28.977981 
L 92.594755 28.977981 
L 92.647279 28.711399 
L 92.699802 28.711399 
L 93.067463 28.711399 
L 93.067463 28.578109 
L 93.172509 28.578109 
L 95.693618 28.578109 
L 95.693618 28.444818 
L 95.798664 28.444818 
L 96.113802 28.444818 
L 96.113802 28.311527 
L 96.218848 28.311527 
L 97.847064 28.311527 
L 97.847064 28.178236 
L 97.95211 28.178236 
L 98.687433 28.178236 
L 98.739956 27.911654 
L 98.79248 27.911654 
L 100.525741 27.911654 
L 100.525741 27.778363 
L 100.630787 27.778363 
L 101.52368 27.778363 
L 101.52368 27.645072 
L 101.628726 27.645072 
L 102.048911 27.645072 
L 102.048911 27.511782 
L 102.153957 27.511782 
L 102.784234 27.511782 
L 102.836757 27.2452 
L 102.88928 27.2452 
L 103.309465 27.2452 
L 103.309465 26.978618 
L 103.414511 26.978618 
L 104.832634 26.978618 
L 104.832634 26.845327 
L 104.93768 26.845327 
L 106.565896 26.845327 
L 106.565896 26.712036 
L 106.670942 26.712036 
L 110.872789 26.712036 
L 110.872789 26.578745 
L 110.977835 26.578745 
L 115.389774 26.578745 
L 115.389774 26.445455 
L 115.494821 26.445455 
L 118.488636 26.445455 
L 118.488636 26.445455 
" clip-path="url(#pb7ff9962ee)" style="fill: none; stroke: #ff2e2e; stroke-width: 2; stroke-linecap: square"/>
   </g>
   <g id="patch_3">
    <path d="M 41.39 106.36 
L 41.39 22.64 
" style="fill: none; stroke: #000000; stroke-width: 0.8; stroke-linejoin: miter; stroke-linecap: square"/>
   </g>
   <g id="patch_4">
    <path d="M 41.39 106.36 
L 122.16 106.36 
" style="fill: none; stroke: #000000; stroke-width: 0.8; stroke-linejoin: miter; stroke-linecap: square"/>
   </g>
   <g id="text_10">
    <!-- Armillaria -->
    <g transform="translate(58.7365 16.64)scale(0.096 -0.096)">
     <defs>
      <path id="DejaVuSans-41" d="M 2188 4044 
L 1331 1722 
L 3047 1722 
L 2188 4044 
z
M 1831 4666 
L 2547 4666 
L 4325 0 
L 3669 0 
L 3244 1197 
L 1141 1197 
L 716 0 
L 50 0 
L 1831 4666 
z
" transform="scale(0.015625)"/>
     </defs>
     <use xlink:href="#DejaVuSans-41"/>
     <use xlink:href="#DejaVuSans-72" x="68.408203"/>
     <use xlink:href="#DejaVuSans-6d" x="107.771484"/>
     <use xlink:href="#DejaVuSans-69" x="205.183594"/>
     <use xlink:href="#DejaVuSans-6c" x="232.966797"/>
     <use xlink:href="#DejaVuSans-6c" x="260.75"/>
     <use xlink:href="#DejaVuSans-61" x="288.533203"/>
     <use xlink:href="#DejaVuSans-72" x="349.8125"/>
     <use xlink:href="#DejaVuSans-69" x="390.925781"/>
     <use xlink:href="#DejaVuSans-61" x="418.708984"/>
    </g>
   </g>
   <g id="legend_1">
    <g id="line2d_12">
     <path d="M 0.33375 46.29375 
L 0.33375 46.29375 
L 8.33375 46.29375 
L 8.33375 46.29375 
L 16.33375 46.29375 
" style="fill: none; stroke: #d1d1d1; stroke-width: 2; stroke-linecap: square"/>
    </g>
    <g id="text_11">
     <!-- Catch -->
     <g transform="translate(22.73375 49.09375)scale(0.08 -0.08)">
      <defs>
       <path id="DejaVuSans-68" d="M 3513 2113 
L 3513 0 
L 2938 0 
L 2938 2094 
Q 2938 2591 2744 2837 
Q 2550 3084 2163 3084 
Q 1697 3084 1428 2787 
Q 1159 2491 1159 1978 
L 1159 0 
L 581 0 
L 581 4863 
L 1159 4863 
L 1159 2956 
Q 1366 3272 1645 3428 
Q 1925 3584 2291 3584 
Q 2894 3584 3203 3211 
Q 3513 2838 3513 2113 
z
" transform="scale(0.015625)"/>
      </defs>
      <use xlink:href="#DejaVuSans-43"/>
      <use xlink:href="#DejaVuSans-61" x="69.824219"/>
      <use xlink:href="#DejaVuSans-74" x="131.103516"/>
      <use xlink:href="#DejaVuSans-63" x="170.3125"/>
      <use xlink:href="#DejaVuSans-68" x="225.292969"/>
     </g>
    </g>
    <g id="line2d_13">
     <path d="M 0.33375 58.03625 
L 0.33375 58.03625 
L 8.33375 58.03625 
L 8.33375 58.03625 
L 16.33375 58.03625 
" style="fill: none; stroke: #e09b9b; stroke-width: 2; stroke-linecap: square"/>
    </g>
    <g id="text_12">
     <!-- -5 dB, n=18, d'=0.354 -->
     <g transform="translate(22.73375 60.83625)scale(0.08 -0.08)">
      <defs>
       <path id="DejaVuSans-2d" d="M 313 2009 
L 1997 2009 
L 1997 1497 
L 313 1497 
L 313 2009 
z
" transform="scale(0.015625)"/>
       <path id="DejaVuSans-35" d="M 691 4666 
L 3169 4666 
L 3169 4134 
L 1269 4134 
L 1269 2991 
Q 1406 3038 1543 3061 
Q 1681 3084 1819 3084 
Q 2600 3084 3056 2656 
Q 3513 2228 3513 1497 
Q 3513 744 3044 326 
Q 2575 -91 1722 -91 
Q 1428 -91 1123 -41 
Q 819 9 494 109 
L 494 744 
Q 775 591 1075 516 
Q 1375 441 1709 441 
Q 2250 441 2565 725 
Q 2881 1009 2881 1497 
Q 2881 1984 2565 2268 
Q 2250 2553 1709 2553 
Q 1456 2553 1204 2497 
Q 953 2441 691 2322 
L 691 4666 
z
" transform="scale(0.015625)"/>
       <path id="DejaVuSans-64" d="M 2906 2969 
L 2906 4863 
L 3481 4863 
L 3481 0 
L 2906 0 
L 2906 525 
Q 2725 213 2448 61 
Q 2172 -91 1784 -91 
Q 1150 -91 751 415 
Q 353 922 353 1747 
Q 353 2572 751 3078 
Q 1150 3584 1784 3584 
Q 2172 3584 2448 3432 
Q 2725 3281 2906 2969 
z
M 947 1747 
Q 947 1113 1208 752 
Q 1469 391 1925 391 
Q 2381 391 2643 752 
Q 2906 1113 2906 1747 
Q 2906 2381 2643 2742 
Q 2381 3103 1925 3103 
Q 1469 3103 1208 2742 
Q 947 2381 947 1747 
z
" transform="scale(0.015625)"/>
       <path id="DejaVuSans-42" d="M 1259 2228 
L 1259 519 
L 2272 519 
Q 2781 519 3026 730 
Q 3272 941 3272 1375 
Q 3272 1813 3026 2020 
Q 2781 2228 2272 2228 
L 1259 2228 
z
M 1259 4147 
L 1259 2741 
L 2194 2741 
Q 2656 2741 2882 2914 
Q 3109 3088 3109 3444 
Q 3109 3797 2882 3972 
Q 2656 4147 2194 4147 
L 1259 4147 
z
M 628 4666 
L 2241 4666 
Q 2963 4666 3353 4366 
Q 3744 4066 3744 3513 
Q 3744 3084 3544 2831 
Q 3344 2578 2956 2516 
Q 3422 2416 3680 2098 
Q 3938 1781 3938 1306 
Q 3938 681 3513 340 
Q 3088 0 2303 0 
L 628 0 
L 628 4666 
z
" transform="scale(0.015625)"/>
       <path id="DejaVuSans-2c" d="M 750 794 
L 1409 794 
L 1409 256 
L 897 -744 
L 494 -744 
L 750 256 
L 750 794 
z
" transform="scale(0.015625)"/>
       <path id="DejaVuSans-3d" d="M 678 2906 
L 4684 2906 
L 4684 2381 
L 678 2381 
L 678 2906 
z
M 678 1631 
L 4684 1631 
L 4684 1100 
L 678 1100 
L 678 1631 
z
" transform="scale(0.015625)"/>
       <path id="DejaVuSans-27" d="M 1147 4666 
L 1147 2931 
L 616 2931 
L 616 4666 
L 1147 4666 
z
" transform="scale(0.015625)"/>
       <path id="DejaVuSans-33" d="M 2597 2516 
Q 3050 2419 3304 2112 
Q 3559 1806 3559 1356 
Q 3559 666 3084 287 
Q 2609 -91 1734 -91 
Q 1441 -91 1130 -33 
Q 819 25 488 141 
L 488 750 
Q 750 597 1062 519 
Q 1375 441 1716 441 
Q 2309 441 2620 675 
Q 2931 909 2931 1356 
Q 2931 1769 2642 2001 
Q 2353 2234 1838 2234 
L 1294 2234 
L 1294 2753 
L 1863 2753 
Q 2328 2753 2575 2939 
Q 2822 3125 2822 3475 
Q 2822 3834 2567 4026 
Q 2313 4219 1838 4219 
Q 1578 4219 1281 4162 
Q 984 4106 628 3988 
L 628 4550 
Q 988 4650 1302 4700 
Q 1616 4750 1894 4750 
Q 2613 4750 3031 4423 
Q 3450 4097 3450 3541 
Q 3450 3153 3228 2886 
Q 3006 2619 2597 2516 
z
" transform="scale(0.015625)"/>
      </defs>
      <use xlink:href="#DejaVuSans-2d"/>
      <use xlink:href="#DejaVuSans-35" x="36.083984"/>
      <use xlink:href="#DejaVuSans-20" x="99.707031"/>
      <use xlink:href="#DejaVuSans-64" x="131.494141"/>
      <use xlink:href="#DejaVuSans-42" x="194.970703"/>
      <use xlink:href="#DejaVuSans-2c" x="263.574219"/>
      <use xlink:href="#DejaVuSans-20" x="295.361328"/>
      <use xlink:href="#DejaVuSans-6e" x="327.148438"/>
      <use xlink:href="#DejaVuSans-3d" x="390.527344"/>
      <use xlink:href="#DejaVuSans-31" x="474.316406"/>
      <use xlink:href="#DejaVuSans-38" x="537.939453"/>
      <use xlink:href="#DejaVuSans-2c" x="601.5625"/>
      <use xlink:href="#DejaVuSans-20" x="633.349609"/>
      <use xlink:href="#DejaVuSans-64" x="665.136719"/>
      <use xlink:href="#DejaVuSans-27" x="728.613281"/>
      <use xlink:href="#DejaVuSans-3d" x="756.103516"/>
      <use xlink:href="#DejaVuSans-30" x="839.892578"/>
      <use xlink:href="#DejaVuSans-2e" x="903.515625"/>
      <use xlink:href="#DejaVuSans-33" x="935.302734"/>
      <use xlink:href="#DejaVuSans-35" x="998.925781"/>
      <use xlink:href="#DejaVuSans-34" x="1062.548828"/>
     </g>
    </g>
    <g id="line2d_14">
     <path d="M 0.33375 69.77875 
L 0.33375 69.77875 
L 8.33375 69.77875 
L 8.33375 69.77875 
L 16.33375 69.77875 
" style="fill: none; stroke: #f06464; stroke-width: 2; stroke-linecap: square"/>
    </g>
    <g id="text_13">
     <!-- 0 dB, n=18, d'=0.73 -->
     <g transform="translate(22.73375 72.57875)scale(0.08 -0.08)">
      <defs>
       <path id="DejaVuSans-37" d="M 525 4666 
L 3525 4666 
L 3525 4397 
L 1831 0 
L 1172 0 
L 2766 4134 
L 525 4134 
L 525 4666 
z
" transform="scale(0.015625)"/>
      </defs>
      <use xlink:href="#DejaVuSans-30"/>
      <use xlink:href="#DejaVuSans-20" x="63.623047"/>
      <use xlink:href="#DejaVuSans-64" x="95.410156"/>
      <use xlink:href="#DejaVuSans-42" x="158.886719"/>
      <use xlink:href="#DejaVuSans-2c" x="227.490234"/>
      <use xlink:href="#DejaVuSans-20" x="259.277344"/>
      <use xlink:href="#DejaVuSans-6e" x="291.064453"/>
      <use xlink:href="#DejaVuSans-3d" x="354.443359"/>
      <use xlink:href="#DejaVuSans-31" x="438.232422"/>
      <use xlink:href="#DejaVuSans-38" x="501.855469"/>
      <use xlink:href="#DejaVuSans-2c" x="565.478516"/>
      <use xlink:href="#DejaVuSans-20" x="597.265625"/>
      <use xlink:href="#DejaVuSans-64" x="629.052734"/>
      <use xlink:href="#DejaVuSans-27" x="692.529297"/>
      <use xlink:href="#DejaVuSans-3d" x="720.019531"/>
      <use xlink:href="#DejaVuSans-30" x="803.808594"/>
      <use xlink:href="#DejaVuSans-2e" x="867.431641"/>
      <use xlink:href="#DejaVuSans-37" x="899.21875"/>
      <use xlink:href="#DejaVuSans-33" x="962.841797"/>
     </g>
    </g>
    <g id="line2d_15">
     <path d="M 0.33375 81.52125 
L 0.33375 81.52125 
L 8.33375 81.52125 
L 8.33375 81.52125 
L 16.33375 81.52125 
" style="fill: none; stroke: #ff2e2e; stroke-width: 2; stroke-linecap: square"/>
    </g>
    <g id="text_14">
     <!-- inf dB, n=18, d'=1.008 -->
     <g transform="translate(22.73375 84.32125)scale(0.08 -0.08)">
      <defs>
       <path id="DejaVuSans-66" d="M 2375 4863 
L 2375 4384 
L 1825 4384 
Q 1516 4384 1395 4259 
Q 1275 4134 1275 3809 
L 1275 3500 
L 2222 3500 
L 2222 3053 
L 1275 3053 
L 1275 0 
L 697 0 
L 697 3053 
L 147 3053 
L 147 3500 
L 697 3500 
L 697 3744 
Q 697 4328 969 4595 
Q 1241 4863 1831 4863 
L 2375 4863 
z
" transform="scale(0.015625)"/>
      </defs>
      <use xlink:href="#DejaVuSans-69"/>
      <use xlink:href="#DejaVuSans-6e" x="27.783203"/>
      <use xlink:href="#DejaVuSans-66" x="91.162109"/>
      <use xlink:href="#DejaVuSans-20" x="126.367188"/>
      <use xlink:href="#DejaVuSans-64" x="158.154297"/>
      <use xlink:href="#DejaVuSans-42" x="221.630859"/>
      <use xlink:href="#DejaVuSans-2c" x="290.234375"/>
      <use xlink:href="#DejaVuSans-20" x="322.021484"/>
      <use xlink:href="#DejaVuSans-6e" x="353.808594"/>
      <use xlink:href="#DejaVuSans-3d" x="417.1875"/>
      <use xlink:href="#DejaVuSans-31" x="500.976562"/>
      <use xlink:href="#DejaVuSans-38" x="564.599609"/>
      <use xlink:href="#DejaVuSans-2c" x="628.222656"/>
      <use xlink:href="#DejaVuSans-20" x="660.009766"/>
      <use xlink:href="#DejaVuSans-64" x="691.796875"/>
      <use xlink:href="#DejaVuSans-27" x="755.273438"/>
      <use xlink:href="#DejaVuSans-3d" x="782.763672"/>
      <use xlink:href="#DejaVuSans-31" x="866.552734"/>
      <use xlink:href="#DejaVuSans-2e" x="930.175781"/>
      <use xlink:href="#DejaVuSans-30" x="961.962891"/>
      <use xlink:href="#DejaVuSans-30" x="1025.585938"/>
      <use xlink:href="#DejaVuSans-38" x="1089.208984"/>
     </g>
    </g>
   </g>
  </g>
 </g>
 <defs>
  <clipPath id="pb7ff9962ee">
   <rect x="41.39" y="22.64" width="80.77" height="83.72"/>
  </clipPath>
 </defs>
</svg>
