<?xml version="1.0" encoding="utf-8" standalone="no"?>
<!DOCTYPE svg PUBLIC "-//W3C//DTD SVG 1.1//EN"
  "http://www.w3.org/Graphics/SVG/1.1/DTD/svg11.dtd">
<svg xmlns:xlink="http://www.w3.org/1999/xlink" width="144pt" height="144pt" viewBox="0 0 144 144" xmlns="http://www.w3.org/2000/svg" version="1.1">
 <metadata>
  <rdf:RDF xmlns:dc="http://purl.org/dc/elements/1.1/" xmlns:cc="http://creativecommons.org/ns#" xmlns:rdf="http://www.w3.org/1999/02/22-rdf-syntax-ns#">
   <cc:Work>
    <dc:type rdf:resource="http://purl.org/dc/dcmitype/StillImage"/>
    <dc:date>2022-12-05T06:24:42.967473</dc:date>
    <dc:format>image/svg+xml</dc:format>
    <dc:creator>
     <cc:Agent>
      <dc:title>Matplotlib v3.5.1, https://matplotlib.org/</dc:title>
     </cc:Agent>
    </dc:creator>
   </cc:Work>
  </rdf:RDF>
 </metadata>
 <defs>
  <style type="text/css">*{stroke-linejoin: round; stroke-linecap: butt}</style>
 </defs>
 <g id="figure_1">
  <g id="patch_1">
   <path d="M 0 144 
L 144 144 
L 144 0 
L 0 0 
L 0 144 
z
" style="fill: none"/>
  </g>
  <g id="axes_1">
   <g id="patch_2">
    <path d="M 41.39 106.36 
L 122.16 106.36 
L 122.16 22.64 
L 41.39 22.64 
z
" style="fill: #ffffff"/>
   </g>
   <g id="matplotlib.axis_1">
    <g id="xtick_1">
     <g id="line2d_1">
      <defs>
       <path id="m7c93f57c1b" d="M 0 0 
L 0 3.5 
" style="stroke: #000000; stroke-width: 0.8"/>
      </defs>
      <g>
       <use xlink:href="#m7c93f57c1b" x="45.061364" y="106.36" style="stroke: #000000; stroke-width: 0.8"/>
      </g>
     </g>
     <g id="text_1">
      <!-- 0 -->
      <g transform="translate(42.516364 119.43875)scale(0.08 -0.08)">
       <defs>
        <path id="DejaVuSans-30" d="M 2034 4250 
Q 1547 4250 1301 3770 
Q 1056 3291 1056 2328 
Q 1056 1369 1301 889 
Q 1547 409 2034 409 
Q 2525 409 2770 889 
Q 3016 1369 3016 2328 
Q 3016 3291 2770 3770 
Q 2525 4250 2034 4250 
z
M 2034 4750 
Q 2819 4750 3233 4129 
Q 3647 3509 3647 2328 
Q 3647 1150 3233 529 
Q 2819 -91 2034 -91 
Q 1250 -91 836 529 
Q 422 1150 422 2328 
Q 422 3509 836 4129 
Q 1250 4750 2034 4750 
z
" transform="scale(0.015625)"/>
       </defs>
       <use xlink:href="#DejaVuSans-30"/>
      </g>
     </g>
    </g>
    <g id="xtick_2">
     <g id="line2d_2">
      <g>
       <use xlink:href="#m7c93f57c1b" x="97.584449" y="106.36" style="stroke: #000000; stroke-width: 0.8"/>
      </g>
     </g>
     <g id="text_2">
      <!-- 1 -->
      <g transform="translate(95.039449 119.43875)scale(0.08 -0.08)">
       <defs>
        <path id="DejaVuSans-31" d="M 794 531 
L 1825 531 
L 1825 4091 
L 703 3866 
L 703 4441 
L 1819 4666 
L 2450 4666 
L 2450 531 
L 3481 531 
L 3481 0 
L 794 0 
L 794 531 
z
" transform="scale(0.015625)"/>
       </defs>
       <use xlink:href="#DejaVuSans-31"/>
      </g>
     </g>
    </g>
    <g id="text_3">
     <!-- Reaction time (s) -->
     <g transform="translate(47.6175 131.18125)scale(0.08 -0.08)">
      <defs>
       <path id="DejaVuSans-52" d="M 2841 2188 
Q 3044 2119 3236 1894 
Q 3428 1669 3622 1275 
L 4263 0 
L 3584 0 
L 2988 1197 
Q 2756 1666 2539 1819 
Q 2322 1972 1947 1972 
L 1259 1972 
L 1259 0 
L 628 0 
L 628 4666 
L 2053 4666 
Q 2853 4666 3247 4331 
Q 3641 3997 3641 3322 
Q 3641 2881 3436 2590 
Q 3231 2300 2841 2188 
z
M 1259 4147 
L 1259 2491 
L 2053 2491 
Q 2509 2491 2742 2702 
Q 2975 2913 2975 3322 
Q 2975 3731 2742 3939 
Q 2509 4147 2053 4147 
L 1259 4147 
z
" transform="scale(0.015625)"/>
       <path id="DejaVuSans-65" d="M 3597 1894 
L 3597 1613 
L 953 1613 
Q 991 1019 1311 708 
Q 1631 397 2203 397 
Q 2534 397 2845 478 
Q 3156 559 3463 722 
L 3463 178 
Q 3153 47 2828 -22 
Q 2503 -91 2169 -91 
Q 1331 -91 842 396 
Q 353 884 353 1716 
Q 353 2575 817 3079 
Q 1281 3584 2069 3584 
Q 2775 3584 3186 3129 
Q 3597 2675 3597 1894 
z
M 3022 2063 
Q 3016 2534 2758 2815 
Q 2500 3097 2075 3097 
Q 1594 3097 1305 2825 
Q 1016 2553 972 2059 
L 3022 2063 
z
" transform="scale(0.015625)"/>
       <path id="DejaVuSans-61" d="M 2194 1759 
Q 1497 1759 1228 1600 
Q 959 1441 959 1056 
Q 959 750 1161 570 
Q 1363 391 1709 391 
Q 2188 391 2477 730 
Q 2766 1069 2766 1631 
L 2766 1759 
L 2194 1759 
z
M 3341 1997 
L 3341 0 
L 2766 0 
L 2766 531 
Q 2569 213 2275 61 
Q 1981 -91 1556 -91 
Q 1019 -91 701 211 
Q 384 513 384 1019 
Q 384 1609 779 1909 
Q 1175 2209 1959 2209 
L 2766 2209 
L 2766 2266 
Q 2766 2663 2505 2880 
Q 2244 3097 1772 3097 
Q 1472 3097 1187 3025 
Q 903 2953 641 2809 
L 641 3341 
Q 956 3463 1253 3523 
Q 1550 3584 1831 3584 
Q 2591 3584 2966 3190 
Q 3341 2797 3341 1997 
z
" transform="scale(0.015625)"/>
       <path id="DejaVuSans-63" d="M 3122 3366 
L 3122 2828 
Q 2878 2963 2633 3030 
Q 2388 3097 2138 3097 
Q 1578 3097 1268 2742 
Q 959 2388 959 1747 
Q 959 1106 1268 751 
Q 1578 397 2138 397 
Q 2388 397 2633 464 
Q 2878 531 3122 666 
L 3122 134 
Q 2881 22 2623 -34 
Q 2366 -91 2075 -91 
Q 1284 -91 818 406 
Q 353 903 353 1747 
Q 353 2603 823 3093 
Q 1294 3584 2113 3584 
Q 2378 3584 2631 3529 
Q 2884 3475 3122 3366 
z
" transform="scale(0.015625)"/>
       <path id="DejaVuSans-74" d="M 1172 4494 
L 1172 3500 
L 2356 3500 
L 2356 3053 
L 1172 3053 
L 1172 1153 
Q 1172 725 1289 603 
Q 1406 481 1766 481 
L 2356 481 
L 2356 0 
L 1766 0 
Q 1100 0 847 248 
Q 594 497 594 1153 
L 594 3053 
L 172 3053 
L 172 3500 
L 594 3500 
L 594 4494 
L 1172 4494 
z
" transform="scale(0.015625)"/>
       <path id="DejaVuSans-69" d="M 603 3500 
L 1178 3500 
L 1178 0 
L 603 0 
L 603 3500 
z
M 603 4863 
L 1178 4863 
L 1178 4134 
L 603 4134 
L 603 4863 
z
" transform="scale(0.015625)"/>
       <path id="DejaVuSans-6f" d="M 1959 3097 
Q 1497 3097 1228 2736 
Q 959 2375 959 1747 
Q 959 1119 1226 758 
Q 1494 397 1959 397 
Q 2419 397 2687 759 
Q 2956 1122 2956 1747 
Q 2956 2369 2687 2733 
Q 2419 3097 1959 3097 
z
M 1959 3584 
Q 2709 3584 3137 3096 
Q 3566 2609 3566 1747 
Q 3566 888 3137 398 
Q 2709 -91 1959 -91 
Q 1206 -91 779 398 
Q 353 888 353 1747 
Q 353 2609 779 3096 
Q 1206 3584 1959 3584 
z
" transform="scale(0.015625)"/>
       <path id="DejaVuSans-6e" d="M 3513 2113 
L 3513 0 
L 2938 0 
L 2938 2094 
Q 2938 2591 2744 2837 
Q 2550 3084 2163 3084 
Q 1697 3084 1428 2787 
Q 1159 2491 1159 1978 
L 1159 0 
L 581 0 
L 581 3500 
L 1159 3500 
L 1159 2956 
Q 1366 3272 1645 3428 
Q 1925 3584 2291 3584 
Q 2894 3584 3203 3211 
Q 3513 2838 3513 2113 
z
" transform="scale(0.015625)"/>
       <path id="DejaVuSans-20" transform="scale(0.015625)"/>
       <path id="DejaVuSans-6d" d="M 3328 2828 
Q 3544 3216 3844 3400 
Q 4144 3584 4550 3584 
Q 5097 3584 5394 3201 
Q 5691 2819 5691 2113 
L 5691 0 
L 5113 0 
L 5113 2094 
Q 5113 2597 4934 2840 
Q 4756 3084 4391 3084 
Q 3944 3084 3684 2787 
Q 3425 2491 3425 1978 
L 3425 0 
L 2847 0 
L 2847 2094 
Q 2847 2600 2669 2842 
Q 2491 3084 2119 3084 
Q 1678 3084 1418 2786 
Q 1159 2488 1159 1978 
L 1159 0 
L 581 0 
L 581 3500 
L 1159 3500 
L 1159 2956 
Q 1356 3278 1631 3431 
Q 1906 3584 2284 3584 
Q 2666 3584 2933 3390 
Q 3200 3197 3328 2828 
z
" transform="scale(0.015625)"/>
       <path id="DejaVuSans-28" d="M 1984 4856 
Q 1566 4138 1362 3434 
Q 1159 2731 1159 2009 
Q 1159 1288 1364 580 
Q 1569 -128 1984 -844 
L 1484 -844 
Q 1016 -109 783 600 
Q 550 1309 550 2009 
Q 550 2706 781 3412 
Q 1013 4119 1484 4856 
L 1984 4856 
z
" transform="scale(0.015625)"/>
       <path id="DejaVuSans-73" d="M 2834 3397 
L 2834 2853 
Q 2591 2978 2328 3040 
Q 2066 3103 1784 3103 
Q 1356 3103 1142 2972 
Q 928 2841 928 2578 
Q 928 2378 1081 2264 
Q 1234 2150 1697 2047 
L 1894 2003 
Q 2506 1872 2764 1633 
Q 3022 1394 3022 966 
Q 3022 478 2636 193 
Q 2250 -91 1575 -91 
Q 1294 -91 989 -36 
Q 684 19 347 128 
L 347 722 
Q 666 556 975 473 
Q 1284 391 1588 391 
Q 1994 391 2212 530 
Q 2431 669 2431 922 
Q 2431 1156 2273 1281 
Q 2116 1406 1581 1522 
L 1381 1569 
Q 847 1681 609 1914 
Q 372 2147 372 2553 
Q 372 3047 722 3315 
Q 1072 3584 1716 3584 
Q 2034 3584 2315 3537 
Q 2597 3491 2834 3397 
z
" transform="scale(0.015625)"/>
       <path id="DejaVuSans-29" d="M 513 4856 
L 1013 4856 
Q 1481 4119 1714 3412 
Q 1947 2706 1947 2009 
Q 1947 1309 1714 600 
Q 1481 -109 1013 -844 
L 513 -844 
Q 928 -128 1133 580 
Q 1338 1288 1338 2009 
Q 1338 2731 1133 3434 
Q 928 4138 513 4856 
z
" transform="scale(0.015625)"/>
      </defs>
      <use xlink:href="#DejaVuSans-52"/>
      <use xlink:href="#DejaVuSans-65" x="64.982422"/>
      <use xlink:href="#DejaVuSans-61" x="126.505859"/>
      <use xlink:href="#DejaVuSans-63" x="187.785156"/>
      <use xlink:href="#DejaVuSans-74" x="242.765625"/>
      <use xlink:href="#DejaVuSans-69" x="281.974609"/>
      <use xlink:href="#DejaVuSans-6f" x="309.757812"/>
      <use xlink:href="#DejaVuSans-6e" x="370.939453"/>
      <use xlink:href="#DejaVuSans-20" x="434.318359"/>
      <use xlink:href="#DejaVuSans-74" x="466.105469"/>
      <use xlink:href="#DejaVuSans-69" x="505.314453"/>
      <use xlink:href="#DejaVuSans-6d" x="533.097656"/>
      <use xlink:href="#DejaVuSans-65" x="630.509766"/>
      <use xlink:href="#DejaVuSans-20" x="692.033203"/>
      <use xlink:href="#DejaVuSans-28" x="723.820312"/>
      <use xlink:href="#DejaVuSans-73" x="762.833984"/>
      <use xlink:href="#DejaVuSans-29" x="814.933594"/>
     </g>
    </g>
   </g>
   <g id="matplotlib.axis_2">
    <g id="ytick_1">
     <g id="line2d_3">
      <defs>
       <path id="m638bfb08a1" d="M 0 0 
L -3.5 0 
" style="stroke: #000000; stroke-width: 0.8"/>
      </defs>
      <g>
       <use xlink:href="#m638bfb08a1" x="41.39" y="102.554545" style="stroke: #000000; stroke-width: 0.8"/>
      </g>
     </g>
     <g id="text_4">
      <!-- 0.0 -->
      <g transform="translate(21.6675 105.59392)scale(0.08 -0.08)">
       <defs>
        <path id="DejaVuSans-2e" d="M 684 794 
L 1344 794 
L 1344 0 
L 684 0 
L 684 794 
z
" transform="scale(0.015625)"/>
       </defs>
       <use xlink:href="#DejaVuSans-30"/>
       <use xlink:href="#DejaVuSans-2e" x="63.623047"/>
       <use xlink:href="#DejaVuSans-30" x="95.410156"/>
      </g>
     </g>
    </g>
    <g id="ytick_2">
     <g id="line2d_4">
      <g>
       <use xlink:href="#m638bfb08a1" x="41.39" y="85.308659" style="stroke: #000000; stroke-width: 0.8"/>
      </g>
     </g>
     <g id="text_5">
      <!-- 0.2 -->
      <g transform="translate(21.6675 88.348034)scale(0.08 -0.08)">
       <defs>
        <path id="DejaVuSans-32" d="M 1228 531 
L 3431 531 
L 3431 0 
L 469 0 
L 469 531 
Q 828 903 1448 1529 
Q 2069 2156 2228 2338 
Q 2531 2678 2651 2914 
Q 2772 3150 2772 3378 
Q 2772 3750 2511 3984 
Q 2250 4219 1831 4219 
Q 1534 4219 1204 4116 
Q 875 4013 500 3803 
L 500 4441 
Q 881 4594 1212 4672 
Q 1544 4750 1819 4750 
Q 2544 4750 2975 4387 
Q 3406 4025 3406 3419 
Q 3406 3131 3298 2873 
Q 3191 2616 2906 2266 
Q 2828 2175 2409 1742 
Q 1991 1309 1228 531 
z
" transform="scale(0.015625)"/>
       </defs>
       <use xlink:href="#DejaVuSans-30"/>
       <use xlink:href="#DejaVuSans-2e" x="63.623047"/>
       <use xlink:href="#DejaVuSans-32" x="95.410156"/>
      </g>
     </g>
    </g>
    <g id="ytick_3">
     <g id="line2d_5">
      <g>
       <use xlink:href="#m638bfb08a1" x="41.39" y="68.062773" style="stroke: #000000; stroke-width: 0.8"/>
      </g>
     </g>
     <g id="text_6">
      <!-- 0.4 -->
      <g transform="translate(21.6675 71.102148)scale(0.08 -0.08)">
       <defs>
        <path id="DejaVuSans-34" d="M 2419 4116 
L 825 1625 
L 2419 1625 
L 2419 4116 
z
M 2253 4666 
L 3047 4666 
L 3047 1625 
L 3713 1625 
L 3713 1100 
L 3047 1100 
L 3047 0 
L 2419 0 
L 2419 1100 
L 313 1100 
L 313 1709 
L 2253 4666 
z
" transform="scale(0.015625)"/>
       </defs>
       <use xlink:href="#DejaVuSans-30"/>
       <use xlink:href="#DejaVuSans-2e" x="63.623047"/>
       <use xlink:href="#DejaVuSans-34" x="95.410156"/>
      </g>
     </g>
    </g>
    <g id="ytick_4">
     <g id="line2d_6">
      <g>
       <use xlink:href="#m638bfb08a1" x="41.39" y="50.816887" style="stroke: #000000; stroke-width: 0.8"/>
      </g>
     </g>
     <g id="text_7">
      <!-- 0.6 -->
      <g transform="translate(21.6675 53.856262)scale(0.08 -0.08)">
       <defs>
        <path id="DejaVuSans-36" d="M 2113 2584 
Q 1688 2584 1439 2293 
Q 1191 2003 1191 1497 
Q 1191 994 1439 701 
Q 1688 409 2113 409 
Q 2538 409 2786 701 
Q 3034 994 3034 1497 
Q 3034 2003 2786 2293 
Q 2538 2584 2113 2584 
z
M 3366 4563 
L 3366 3988 
Q 3128 4100 2886 4159 
Q 2644 4219 2406 4219 
Q 1781 4219 1451 3797 
Q 1122 3375 1075 2522 
Q 1259 2794 1537 2939 
Q 1816 3084 2150 3084 
Q 2853 3084 3261 2657 
Q 3669 2231 3669 1497 
Q 3669 778 3244 343 
Q 2819 -91 2113 -91 
Q 1303 -91 875 529 
Q 447 1150 447 2328 
Q 447 3434 972 4092 
Q 1497 4750 2381 4750 
Q 2619 4750 2861 4703 
Q 3103 4656 3366 4563 
z
" transform="scale(0.015625)"/>
       </defs>
       <use xlink:href="#DejaVuSans-30"/>
       <use xlink:href="#DejaVuSans-2e" x="63.623047"/>
       <use xlink:href="#DejaVuSans-36" x="95.410156"/>
      </g>
     </g>
    </g>
    <g id="ytick_5">
     <g id="line2d_7">
      <g>
       <use xlink:href="#m638bfb08a1" x="41.39" y="33.571" style="stroke: #000000; stroke-width: 0.8"/>
      </g>
     </g>
     <g id="text_8">
      <!-- 0.8 -->
      <g transform="translate(21.6675 36.610375)scale(0.08 -0.08)">
       <defs>
        <path id="DejaVuSans-38" d="M 2034 2216 
Q 1584 2216 1326 1975 
Q 1069 1734 1069 1313 
Q 1069 891 1326 650 
Q 1584 409 2034 409 
Q 2484 409 2743 651 
Q 3003 894 3003 1313 
Q 3003 1734 2745 1975 
Q 2488 2216 2034 2216 
z
M 1403 2484 
Q 997 2584 770 2862 
Q 544 3141 544 3541 
Q 544 4100 942 4425 
Q 1341 4750 2034 4750 
Q 2731 4750 3128 4425 
Q 3525 4100 3525 3541 
Q 3525 3141 3298 2862 
Q 3072 2584 2669 2484 
Q 3125 2378 3379 2068 
Q 3634 1759 3634 1313 
Q 3634 634 3220 271 
Q 2806 -91 2034 -91 
Q 1263 -91 848 271 
Q 434 634 434 1313 
Q 434 1759 690 2068 
Q 947 2378 1403 2484 
z
M 1172 3481 
Q 1172 3119 1398 2916 
Q 1625 2713 2034 2713 
Q 2441 2713 2670 2916 
Q 2900 3119 2900 3481 
Q 2900 3844 2670 4047 
Q 2441 4250 2034 4250 
Q 1625 4250 1398 4047 
Q 1172 3844 1172 3481 
z
" transform="scale(0.015625)"/>
       </defs>
       <use xlink:href="#DejaVuSans-30"/>
       <use xlink:href="#DejaVuSans-2e" x="63.623047"/>
       <use xlink:href="#DejaVuSans-38" x="95.410156"/>
      </g>
     </g>
    </g>
    <g id="text_9">
     <!-- Cummulative Probability -->
     <g transform="translate(16.00375 113.640625)rotate(-90)scale(0.08 -0.08)">
      <defs>
       <path id="DejaVuSans-43" d="M 4122 4306 
L 4122 3641 
Q 3803 3938 3442 4084 
Q 3081 4231 2675 4231 
Q 1875 4231 1450 3742 
Q 1025 3253 1025 2328 
Q 1025 1406 1450 917 
Q 1875 428 2675 428 
Q 3081 428 3442 575 
Q 3803 722 4122 1019 
L 4122 359 
Q 3791 134 3420 21 
Q 3050 -91 2638 -91 
Q 1578 -91 968 557 
Q 359 1206 359 2328 
Q 359 3453 968 4101 
Q 1578 4750 2638 4750 
Q 3056 4750 3426 4639 
Q 3797 4528 4122 4306 
z
" transform="scale(0.015625)"/>
       <path id="DejaVuSans-75" d="M 544 1381 
L 544 3500 
L 1119 3500 
L 1119 1403 
Q 1119 906 1312 657 
Q 1506 409 1894 409 
Q 2359 409 2629 706 
Q 2900 1003 2900 1516 
L 2900 3500 
L 3475 3500 
L 3475 0 
L 2900 0 
L 2900 538 
Q 2691 219 2414 64 
Q 2138 -91 1772 -91 
Q 1169 -91 856 284 
Q 544 659 544 1381 
z
M 1991 3584 
L 1991 3584 
z
" transform="scale(0.015625)"/>
       <path id="DejaVuSans-6c" d="M 603 4863 
L 1178 4863 
L 1178 0 
L 603 0 
L 603 4863 
z
" transform="scale(0.015625)"/>
       <path id="DejaVuSans-76" d="M 191 3500 
L 800 3500 
L 1894 563 
L 2988 3500 
L 3597 3500 
L 2284 0 
L 1503 0 
L 191 3500 
z
" transform="scale(0.015625)"/>
       <path id="DejaVuSans-50" d="M 1259 4147 
L 1259 2394 
L 2053 2394 
Q 2494 2394 2734 2622 
Q 2975 2850 2975 3272 
Q 2975 3691 2734 3919 
Q 2494 4147 2053 4147 
L 1259 4147 
z
M 628 4666 
L 2053 4666 
Q 2838 4666 3239 4311 
Q 3641 3956 3641 3272 
Q 3641 2581 3239 2228 
Q 2838 1875 2053 1875 
L 1259 1875 
L 1259 0 
L 628 0 
L 628 4666 
z
" transform="scale(0.015625)"/>
       <path id="DejaVuSans-72" d="M 2631 2963 
Q 2534 3019 2420 3045 
Q 2306 3072 2169 3072 
Q 1681 3072 1420 2755 
Q 1159 2438 1159 1844 
L 1159 0 
L 581 0 
L 581 3500 
L 1159 3500 
L 1159 2956 
Q 1341 3275 1631 3429 
Q 1922 3584 2338 3584 
Q 2397 3584 2469 3576 
Q 2541 3569 2628 3553 
L 2631 2963 
z
" transform="scale(0.015625)"/>
       <path id="DejaVuSans-62" d="M 3116 1747 
Q 3116 2381 2855 2742 
Q 2594 3103 2138 3103 
Q 1681 3103 1420 2742 
Q 1159 2381 1159 1747 
Q 1159 1113 1420 752 
Q 1681 391 2138 391 
Q 2594 391 2855 752 
Q 3116 1113 3116 1747 
z
M 1159 2969 
Q 1341 3281 1617 3432 
Q 1894 3584 2278 3584 
Q 2916 3584 3314 3078 
Q 3713 2572 3713 1747 
Q 3713 922 3314 415 
Q 2916 -91 2278 -91 
Q 1894 -91 1617 61 
Q 1341 213 1159 525 
L 1159 0 
L 581 0 
L 581 4863 
L 1159 4863 
L 1159 2969 
z
" transform="scale(0.015625)"/>
       <path id="DejaVuSans-79" d="M 2059 -325 
Q 1816 -950 1584 -1140 
Q 1353 -1331 966 -1331 
L 506 -1331 
L 506 -850 
L 844 -850 
Q 1081 -850 1212 -737 
Q 1344 -625 1503 -206 
L 1606 56 
L 191 3500 
L 800 3500 
L 1894 763 
L 2988 3500 
L 3597 3500 
L 2059 -325 
z
" transform="scale(0.015625)"/>
      </defs>
      <use xlink:href="#DejaVuSans-43"/>
      <use xlink:href="#DejaVuSans-75" x="69.824219"/>
      <use xlink:href="#DejaVuSans-6d" x="133.203125"/>
      <use xlink:href="#DejaVuSans-6d" x="230.615234"/>
      <use xlink:href="#DejaVuSans-75" x="328.027344"/>
      <use xlink:href="#DejaVuSans-6c" x="391.40625"/>
      <use xlink:href="#DejaVuSans-61" x="419.189453"/>
      <use xlink:href="#DejaVuSans-74" x="480.46875"/>
      <use xlink:href="#DejaVuSans-69" x="519.677734"/>
      <use xlink:href="#DejaVuSans-76" x="547.460938"/>
      <use xlink:href="#DejaVuSans-65" x="606.640625"/>
      <use xlink:href="#DejaVuSans-20" x="668.164062"/>
      <use xlink:href="#DejaVuSans-50" x="699.951172"/>
      <use xlink:href="#DejaVuSans-72" x="758.503906"/>
      <use xlink:href="#DejaVuSans-6f" x="797.367188"/>
      <use xlink:href="#DejaVuSans-62" x="858.548828"/>
      <use xlink:href="#DejaVuSans-61" x="922.025391"/>
      <use xlink:href="#DejaVuSans-62" x="983.304688"/>
      <use xlink:href="#DejaVuSans-69" x="1046.78125"/>
      <use xlink:href="#DejaVuSans-6c" x="1074.564453"/>
      <use xlink:href="#DejaVuSans-69" x="1102.347656"/>
      <use xlink:href="#DejaVuSans-74" x="1130.130859"/>
      <use xlink:href="#DejaVuSans-79" x="1169.339844"/>
     </g>
    </g>
   </g>
   <g id="line2d_8">
    <path d="M 45.061364 102.554545 
L 45.16641 102.300265 
L 45.218933 102.300265 
L 45.323979 101.989477 
L 45.429025 101.904717 
L 45.534071 101.622183 
L 45.691641 101.565676 
L 45.796687 101.141875 
L 45.901733 101.057114 
L 46.006779 100.802834 
L 46.111825 100.718073 
L 46.216872 100.60506 
L 46.321918 100.520299 
L 46.374441 100.463793 
L 46.426964 100.463793 
L 46.479487 100.463793 
L 46.584533 100.096498 
L 46.742102 100.011738 
L 46.847149 99.842217 
L 47.004718 99.785711 
L 47.109764 99.587937 
L 47.21481 99.53143 
L 47.319856 99.192389 
L 47.372379 99.192389 
L 47.477426 98.994615 
L 47.529949 98.994615 
L 47.634995 98.599067 
L 47.687518 98.599067 
L 47.792564 98.288279 
L 47.89761 98.260026 
L 47.950133 98.147012 
L 48.002656 98.147012 
L 48.160226 98.062252 
L 48.160226 98.033999 
L 48.265272 98.033999 
L 48.527887 97.949238 
L 48.632933 97.694958 
L 48.790503 97.610197 
L 48.895549 97.497184 
L 48.948072 97.497184 
L 49.053118 97.214649 
L 49.105641 97.214649 
L 49.158164 96.903862 
L 49.210687 96.903862 
L 49.26321 96.903862 
L 49.368257 96.677835 
L 49.525826 96.593074 
L 49.630872 96.536567 
L 49.788441 96.451807 
L 49.893487 96.254033 
L 50.10358 96.197526 
L 50.208626 96.056259 
L 50.418718 95.999753 
L 50.523764 95.886739 
L 50.733857 95.858485 
L 50.838903 95.547698 
L 51.048995 95.462938 
L 51.154041 95.32167 
L 51.416657 95.23691 
L 51.521703 95.180403 
L 51.679272 95.095643 
L 51.731795 95.039136 
L 51.784319 95.039136 
L 52.046934 94.954376 
L 52.046934 94.926123 
L 52.15198 94.926123 
L 52.257026 94.841362 
L 52.362072 94.615335 
L 52.519642 94.530575 
L 52.624688 94.332801 
L 52.729734 94.304547 
L 52.83478 94.16328 
L 53.044873 94.135027 
L 53.149919 94.022013 
L 53.360011 93.937253 
L 53.360011 93.767732 
L 53.465057 93.767732 
L 54.095334 93.682972 
L 54.20038 93.541705 
L 54.35795 93.456945 
L 54.462996 93.343931 
L 54.568042 93.287424 
L 54.673088 93.117904 
L 54.935704 93.061397 
L 54.988227 92.976637 
L 55.04075 92.976637 
L 55.408411 92.891877 
L 55.460934 92.778863 
L 55.513458 92.778863 
L 55.565981 92.778863 
L 55.671027 92.609342 
L 55.776073 92.552836 
L 55.828596 92.383315 
L 55.881119 92.383315 
L 55.986165 92.355062 
L 56.091211 92.016021 
L 56.248781 91.93126 
L 56.353827 91.818247 
L 56.458873 91.733486 
L 56.563919 91.620473 
L 56.826535 91.563966 
L 56.931581 91.450952 
L 57.036627 91.366192 
L 57.141673 91.309685 
L 57.299242 91.224925 
L 57.404289 91.140165 
L 57.509335 91.055404 
L 57.614381 90.575096 
L 57.77195 90.490336 
L 57.876996 90.349069 
L 58.034566 90.264309 
L 58.139612 90.179548 
L 58.349704 90.123042 
L 58.349704 90.038281 
L 58.45475 90.038281 
L 58.559796 89.953521 
L 58.664843 89.897014 
L 58.822412 89.840507 
L 58.927458 89.670987 
L 59.032504 89.642733 
L 59.13755 89.360199 
L 59.29512 89.275439 
L 59.400166 88.964651 
L 59.452689 88.964651 
L 59.557735 88.427837 
L 59.610258 88.427837 
L 59.715304 88.173556 
L 59.820351 88.117049 
L 59.925397 88.004035 
L 59.97792 88.004035 
L 60.082966 87.778008 
L 60.135489 87.778008 
L 60.240535 87.438967 
L 60.398104 87.354207 
L 60.503151 87.241193 
L 60.66072 87.156433 
L 60.765766 86.873899 
L 60.870812 86.817392 
L 60.975858 86.563111 
L 61.080905 86.506604 
L 61.185951 86.026296 
L 61.238474 86.026296 
L 61.34352 85.687255 
L 61.448566 85.630748 
L 61.553612 85.319961 
L 61.658658 85.2352 
L 61.763705 85.06568 
L 61.816228 85.06568 
L 61.921274 84.670132 
L 61.973797 84.670132 
L 62.078843 84.387598 
L 62.131366 84.387598 
L 62.236412 84.189824 
L 62.393982 84.105064 
L 62.446505 83.935543 
L 62.499028 83.935543 
L 62.656597 83.850783 
L 62.761643 83.539995 
L 62.866689 83.511742 
L 62.971736 83.172701 
L 63.024259 83.172701 
L 63.129305 82.805406 
L 63.181828 82.805406 
L 63.286874 82.438112 
L 63.444443 82.353352 
L 63.54949 82.183831 
L 63.654536 82.099071 
L 63.654536 82.042564 
L 63.759582 82.042564 
L 64.127243 81.957804 
L 64.23229 81.788283 
L 64.284813 81.788283 
L 64.389859 81.562256 
L 64.442382 81.562256 
L 64.547428 81.110201 
L 64.599951 81.110201 
L 64.704997 80.799414 
L 64.75752 80.799414 
L 64.75752 80.658147 
L 64.862567 80.658147 
L 64.967613 80.573386 
L 65.072659 80.488626 
L 65.177705 80.432119 
L 65.282751 80.206092 
L 65.335274 80.206092 
L 65.440321 79.980065 
L 65.702936 79.895304 
L 65.807982 79.810544 
L 65.965551 79.754037 
L 66.070598 79.556263 
L 66.228167 79.499756 
L 66.333213 79.330236 
L 66.438259 79.273729 
L 66.490782 79.132462 
L 66.543305 79.132462 
L 66.595828 79.132462 
L 66.700875 78.821674 
L 66.805921 78.793421 
L 66.910967 78.595647 
L 67.121059 78.510887 
L 67.226105 78.341366 
L 67.541244 78.256606 
L 67.541244 78.228353 
L 67.64629 78.228353 
L 67.803859 78.171846 
L 67.908906 77.974072 
L 68.013952 77.917565 
L 68.066475 77.804551 
L 68.118998 77.804551 
L 68.32909 77.719791 
L 68.434136 77.493764 
L 68.539183 77.409004 
L 68.644229 77.154723 
L 68.801798 77.069963 
L 68.854321 76.928695 
L 68.906844 76.928695 
L 69.116937 76.872189 
L 69.221983 76.787428 
L 69.484598 76.702668 
L 69.589644 76.617908 
L 69.747214 76.533148 
L 69.85226 76.335374 
L 69.957306 76.335374 
L 70.009829 76.194107 
L 70.062352 76.194107 
L 70.114875 76.194107 
L 70.219921 75.911572 
L 70.377491 75.883319 
L 70.430014 75.657292 
L 70.482537 75.657292 
L 70.53506 75.657292 
L 70.587583 75.487771 
L 70.640106 75.487771 
L 71.112814 75.403011 
L 71.165337 75.346504 
L 71.21786 75.346504 
L 71.532998 75.261744 
L 71.585522 75.092223 
L 71.638045 75.092223 
L 71.743091 75.035716 
L 71.848137 74.753182 
L 71.90066 74.753182 
L 72.005706 74.442395 
L 72.163275 74.385888 
L 72.268322 74.216367 
L 72.425891 74.131607 
L 72.530937 74.046847 
L 72.846076 73.962087 
L 72.846076 73.90558 
L 72.951122 73.90558 
L 73.056168 73.849073 
L 73.161214 73.736059 
L 73.26626 73.679552 
L 73.371306 73.453525 
L 73.528876 73.397018 
L 73.633922 73.170991 
L 73.791491 73.086231 
L 73.844014 72.888457 
L 73.896537 72.888457 
L 74.369245 72.83195 
L 74.474291 72.662429 
L 74.78943 72.577669 
L 74.894476 72.464655 
L 75.052045 72.436402 
L 75.157091 72.182121 
L 75.314661 72.097361 
L 75.419707 71.984347 
L 75.577276 71.899587 
L 75.682322 71.814827 
L 75.787368 71.75832 
L 75.787368 71.645306 
L 75.892414 71.645306 
L 76.365122 71.560546 
L 76.470168 71.504039 
L 76.680261 71.419279 
L 76.785307 71.306265 
L 76.995399 71.306265 
L 77.047922 71.108491 
L 77.100445 71.108491 
L 77.258015 71.051985 
L 77.310538 70.938971 
L 77.363061 70.938971 
L 77.52063 70.882464 
L 77.625676 70.741197 
L 78.098384 70.68469 
L 78.150907 70.59993 
L 78.20343 70.59993 
L 78.518569 70.51517 
L 78.623615 70.402156 
L 78.938753 70.317396 
L 78.938753 70.289142 
L 79.0438 70.289142 
L 79.306415 70.204382 
L 79.411461 70.091368 
L 79.621554 70.006608 
L 79.621554 69.978355 
L 79.7266 69.978355 
L 80.356877 69.893594 
L 80.461923 69.837088 
L 80.777061 69.752327 
L 80.777061 69.724074 
L 80.882108 69.724074 
L 81.459861 69.639314 
L 81.459861 69.61106 
L 81.564908 69.61106 
L 81.985092 69.5263 
L 82.090139 69.328526 
L 82.405277 69.243766 
L 82.405277 69.215512 
L 82.510323 69.215512 
L 82.877985 69.130752 
L 82.983031 69.017738 
L 83.245646 68.932978 
L 83.350693 68.848218 
L 83.613308 68.763458 
L 83.718354 68.678697 
L 83.928446 68.593937 
L 84.033493 68.509177 
L 84.138539 68.424417 
L 84.243585 68.226643 
L 84.453677 68.170136 
L 84.5062 67.972362 
L 84.558724 67.972362 
L 84.66377 67.887602 
L 84.768816 67.831095 
L 85.083954 67.746335 
L 85.189001 67.605068 
L 85.399093 67.548561 
L 85.504139 67.322533 
L 85.661708 67.266027 
L 85.766754 67.124759 
L 85.871801 67.068253 
L 85.976847 66.898732 
L 86.134416 66.842225 
L 86.239462 66.616198 
L 86.291985 66.616198 
L 86.397031 66.333664 
L 86.71217 66.248903 
L 86.764693 66.13589 
L 86.817216 66.13589 
L 86.922262 66.107636 
L 87.027308 65.881609 
L 87.184878 65.796849 
L 87.184878 65.740342 
L 87.289924 65.740342 
L 87.39497 65.712089 
L 87.500016 65.542568 
L 87.657586 65.514315 
L 87.762632 65.288287 
L 87.867678 65.203527 
L 87.972724 64.9775 
L 88.07777 64.920993 
L 88.130293 64.779726 
L 88.182816 64.779726 
L 88.235339 64.779726 
L 88.340386 64.581952 
L 88.392909 64.581952 
L 88.497955 64.412431 
L 88.655524 64.327671 
L 88.76057 64.186404 
L 88.813093 64.186404 
L 88.91814 63.847363 
L 89.023186 63.847363 
L 89.128232 63.649589 
L 89.233278 63.593082 
L 89.338324 63.480069 
L 89.390847 63.480069 
L 89.495893 63.084521 
L 89.548417 63.084521 
L 89.653463 62.801987 
L 89.705986 62.801987 
L 89.811032 62.604213 
L 89.916078 62.547706 
L 90.021124 62.462945 
L 90.178694 62.378185 
L 90.28374 62.236918 
L 90.388786 62.180411 
L 90.493832 62.039144 
L 90.703924 62.010891 
L 90.808971 61.700103 
L 90.96654 61.67185 
L 91.071586 61.417569 
L 91.281678 61.389316 
L 91.386725 61.135035 
L 91.491771 61.050275 
L 91.596817 60.965514 
L 92.069525 60.880754 
L 92.122048 60.739487 
L 92.174571 60.739487 
L 92.279617 60.711234 
L 92.384663 60.541713 
L 92.437186 60.541713 
L 92.542232 60.400446 
L 92.647279 60.372193 
L 92.699802 60.146165 
L 92.752325 60.146165 
L 92.962417 60.061405 
L 93.067463 59.891884 
L 93.225033 59.835378 
L 93.330079 59.637604 
L 93.435125 59.552843 
L 93.487648 59.496337 
L 93.540171 59.496337 
L 94.065402 59.411576 
L 94.117925 59.35507 
L 94.170448 59.35507 
L 94.328017 59.270309 
L 94.328017 59.242056 
L 94.433063 59.242056 
L 94.485587 59.242056 
L 94.590633 59.016029 
L 94.748202 58.959522 
L 94.853248 58.846508 
L 95.06334 58.761748 
L 95.115864 58.620481 
L 95.168387 58.620481 
L 95.483525 58.53572 
L 95.588571 58.394453 
L 95.90371 58.309693 
L 96.008756 58.140173 
L 96.166325 58.083666 
L 96.271371 57.885892 
L 96.533987 57.801132 
L 96.639033 57.716371 
L 97.059218 57.631611 
L 97.164264 57.518597 
L 97.584449 57.490344 
L 97.689495 57.264317 
L 97.95211 57.20781 
L 98.057156 56.897022 
L 98.162202 56.840515 
L 98.267249 56.642741 
L 98.529864 56.557981 
L 98.582387 56.529728 
L 98.63491 56.529728 
L 98.950049 56.473221 
L 99.002572 56.388461 
L 99.055095 56.388461 
L 99.265187 56.331954 
L 99.370233 56.190687 
L 99.790418 56.105926 
L 99.895464 55.964659 
L 100.263126 55.879899 
L 100.263126 55.851646 
L 100.368172 55.851646 
L 100.683311 55.766885 
L 100.788357 55.653872 
L 101.156018 55.569112 
L 101.261065 55.484351 
L 101.313588 55.484351 
L 101.418634 55.343084 
L 101.52368 55.286577 
L 101.628726 55.201817 
L 101.786295 55.117057 
L 101.786295 55.088803 
L 101.891342 55.088803 
L 102.101434 55.06055 
L 102.101434 54.97579 
L 102.20648 54.97579 
L 102.836757 54.891029 
L 102.941803 54.749762 
L 103.782173 54.665002 
L 103.834696 54.580242 
L 103.887219 54.580242 
L 104.464973 54.495482 
L 104.570019 54.410721 
L 104.93768 54.354215 
L 104.93768 54.241201 
L 105.042727 54.241201 
L 105.357865 54.212947 
L 105.462911 54.07168 
L 106.303281 53.98692 
L 106.355804 53.90216 
L 106.408327 53.90216 
L 107.038604 53.8174 
L 107.14365 53.704386 
L 107.301219 53.619626 
L 107.406265 53.534865 
L 107.773927 53.450105 
L 107.878973 53.393598 
L 108.561773 53.308838 
L 108.666819 53.252331 
L 108.981958 53.195824 
L 109.087004 53.111064 
L 109.612235 53.054557 
L 109.717281 52.91329 
L 109.979897 52.82853 
L 110.03242 52.772023 
L 110.084943 52.772023 
L 110.242512 52.687263 
L 110.295035 52.574249 
L 110.347558 52.574249 
L 110.505127 52.489489 
L 110.505127 52.432982 
L 110.610174 52.432982 
L 110.71522 52.376475 
L 110.820266 52.150448 
L 111.135404 52.065688 
L 111.187928 52.009181 
L 111.240451 52.009181 
L 111.608112 51.952674 
L 111.660635 51.811407 
L 111.713158 51.811407 
L 111.923251 51.726647 
L 112.028297 51.500619 
L 112.238389 51.415859 
L 112.343435 51.274592 
L 112.448482 51.274592 
L 112.553528 51.076818 
L 112.76362 50.992058 
L 112.868666 50.879044 
L 113.183805 50.794284 
L 113.288851 50.709524 
L 113.44642 50.624763 
L 113.498943 50.51175 
L 113.551466 50.51175 
L 113.709036 50.426989 
L 113.814082 50.285722 
L 113.866605 50.285722 
L 113.971651 49.890175 
L 114.12922 49.833668 
L 114.234266 49.43812 
L 114.759497 49.35336 
L 114.864544 49.268599 
L 115.074636 49.183839 
L 115.179682 49.070825 
L 115.389774 48.986065 
L 115.494821 48.816545 
L 115.547344 48.816545 
L 115.65239 48.53401 
L 115.757436 48.477504 
L 115.862482 48.194969 
L 116.020051 48.110209 
L 116.072574 47.997196 
L 116.125098 47.997196 
L 116.230144 47.912435 
L 116.33519 47.855928 
L 116.755375 47.771168 
L 116.807898 47.686408 
L 116.860421 47.686408 
L 117.123036 47.601648 
L 117.228082 47.432127 
L 117.385652 47.347367 
L 117.438175 47.2061 
L 117.490698 47.2061 
L 117.70079 47.12134 
L 117.805836 46.951819 
L 117.963406 46.867059 
L 117.963406 46.810552 
L 118.068452 46.810552 
L 118.436113 46.754045 
L 118.436113 46.697538 
L 118.488636 46.697538 
" clip-path="url(#pfb434495d3)" style="fill: none; stroke: #d1d1d1; stroke-width: 2; stroke-linecap: square"/>
   </g>
   <g id="line2d_9">
    <path d="M 45.061364 102.500279 
L 45.16641 102.17468 
L 45.218933 102.17468 
L 45.323979 101.414949 
L 45.376502 101.414949 
L 45.481548 100.980818 
L 45.586594 100.872285 
L 45.691641 100.600952 
L 45.796687 100.492419 
L 45.901733 100.058288 
L 46.006779 100.004021 
L 46.111825 99.24429 
L 46.321918 99.135757 
L 46.426964 98.918692 
L 46.584533 98.810159 
L 46.584533 98.755892 
L 46.689579 98.755892 
L 46.847149 98.647359 
L 46.899672 98.48456 
L 46.952195 98.48456 
L 47.057241 98.430293 
L 47.109764 98.158961 
L 47.162287 98.158961 
L 47.267333 98.050428 
L 47.372379 97.453497 
L 47.477426 97.344964 
L 47.529949 96.910832 
L 47.582472 96.910832 
L 47.634995 96.910832 
L 47.740041 96.4767 
L 47.792564 96.4767 
L 47.89761 96.205368 
L 48.055179 96.096835 
L 48.160226 95.934035 
L 48.265272 95.825502 
L 48.370318 95.662703 
L 48.475364 95.55417 
L 48.527887 95.391371 
L 48.58041 95.391371 
L 48.632933 95.391371 
L 48.73798 95.120038 
L 48.790503 95.120038 
L 48.843026 94.794439 
L 48.895549 94.794439 
L 49.000595 94.740173 
L 49.105641 94.414574 
L 49.158164 94.414574 
L 49.26321 93.980442 
L 49.42078 93.871909 
L 49.525826 93.492044 
L 49.735918 93.383511 
L 49.840964 93.057912 
L 50.156103 92.949379 
L 50.261149 92.78658 
L 50.418718 92.678047 
L 50.523764 92.515247 
L 50.733857 92.406714 
L 50.838903 92.026849 
L 51.048995 91.918316 
L 51.154041 91.484184 
L 51.259088 91.484184 
L 51.364134 91.158585 
L 51.679272 91.050052 
L 51.679272 90.995786 
L 51.784319 90.995786 
L 52.046934 90.887253 
L 52.046934 90.832987 
L 52.15198 90.832987 
L 52.309549 90.724454 
L 52.309549 90.670187 
L 52.414596 90.670187 
L 52.572165 90.561654 
L 52.677211 90.236055 
L 53.044873 90.127522 
L 53.097396 90.018989 
L 53.149919 90.018989 
L 53.465057 89.964723 
L 53.51758 89.747657 
L 53.570103 89.747657 
L 53.727673 89.69339 
L 53.832719 89.530591 
L 53.990288 89.476325 
L 54.095334 89.150726 
L 54.20038 89.096459 
L 54.305427 88.716594 
L 54.568042 88.608061 
L 54.673088 88.228196 
L 54.935704 88.119663 
L 54.935704 88.065396 
L 55.04075 88.065396 
L 55.093273 88.065396 
L 55.198319 87.84833 
L 55.303365 87.794064 
L 55.408411 87.576998 
L 55.776073 87.468465 
L 55.881119 87.197133 
L 56.038688 87.0886 
L 56.143735 86.763001 
L 56.301304 86.708734 
L 56.40635 86.545935 
L 56.668965 86.437402 
L 56.721488 86.220336 
L 56.774012 86.220336 
L 56.984104 86.111803 
L 56.984104 85.949004 
L 57.08915 85.949004 
L 57.141673 85.949004 
L 57.246719 85.731938 
L 57.351766 85.623405 
L 57.456812 85.189273 
L 57.614381 85.135006 
L 57.719427 84.809408 
L 57.77195 84.809408 
L 57.876996 84.429542 
L 57.982043 84.375276 
L 58.087089 83.886877 
L 58.139612 83.886877 
L 58.244658 83.289946 
L 58.402227 83.23568 
L 58.507273 82.855814 
L 58.559796 82.855814 
L 58.664843 82.475949 
L 58.717366 82.475949 
L 58.822412 82.15035 
L 58.874935 82.15035 
L 58.979981 81.607685 
L 59.13755 81.553419 
L 59.242597 81.282087 
L 59.347643 81.22782 
L 59.452689 80.30529 
L 59.505212 80.30529 
L 59.610258 79.708359 
L 59.715304 79.599826 
L 59.820351 79.165694 
L 59.872874 79.165694 
L 59.97792 78.894362 
L 60.030443 78.894362 
L 60.135489 78.29743 
L 60.240535 78.188897 
L 60.345581 78.080364 
L 60.398104 78.080364 
L 60.503151 77.591966 
L 60.713243 77.483433 
L 60.818289 77.157834 
L 60.923335 77.049301 
L 61.028381 76.343837 
L 61.133428 76.343837 
L 61.238474 75.52984 
L 61.34352 75.475574 
L 61.448566 74.878642 
L 61.553612 74.824376 
L 61.658658 74.390244 
L 61.763705 74.335978 
L 61.868751 74.010379 
L 61.921274 74.010379 
L 62.02632 73.576247 
L 62.236412 73.467714 
L 62.341459 73.142115 
L 62.446505 73.033582 
L 62.551551 72.76225 
L 62.656597 72.653717 
L 62.761643 72.056786 
L 62.919213 71.948253 
L 63.024259 71.459854 
L 63.129305 71.405588 
L 63.234351 70.700124 
L 63.286874 70.700124 
L 63.39192 69.83186 
L 63.496966 69.777594 
L 63.602013 69.397728 
L 63.654536 69.397728 
L 63.759582 68.855063 
L 63.812105 68.855063 
L 63.917151 68.637998 
L 64.179767 68.637998 
L 64.284813 68.366665 
L 64.442382 68.258132 
L 64.494905 67.661201 
L 64.547428 67.661201 
L 64.704997 67.552668 
L 64.810044 67.118536 
L 64.91509 67.010003 
L 65.020136 66.575871 
L 65.125182 66.467338 
L 65.230228 66.196006 
L 65.335274 66.196006 
L 65.440321 65.870407 
L 65.702936 65.761874 
L 65.755459 65.599075 
L 65.807982 65.599075 
L 65.913028 65.544808 
L 66.018075 65.273476 
L 66.123121 65.164943 
L 66.228167 64.730811 
L 66.28069 64.730811 
L 66.333213 64.459479 
L 66.385736 64.459479 
L 66.490782 64.350946 
L 66.595828 64.025347 
L 66.700875 63.916814 
L 66.805921 63.482682 
L 66.910967 63.374149 
L 67.016013 62.994284 
L 67.226105 62.885751 
L 67.331152 62.668685 
L 67.541244 62.614419 
L 67.64629 62.343086 
L 67.803859 62.28882 
L 67.908906 62.071754 
L 68.066475 62.017487 
L 68.171521 61.637622 
L 68.224044 61.637622 
L 68.32909 61.149224 
L 68.48666 61.040691 
L 68.48666 60.932158 
L 68.591706 60.932158 
L 68.644229 60.932158 
L 68.749275 60.552293 
L 68.959367 60.498026 
L 69.064413 60.226694 
L 69.16946 60.118161 
L 69.221983 59.955361 
L 69.274506 59.955361 
L 69.484598 59.955361 
L 69.589644 59.629762 
L 69.747214 59.575496 
L 69.85226 59.35843 
L 69.957306 59.249897 
L 70.062352 58.815765 
L 70.167398 58.707232 
L 70.219921 58.327367 
L 70.272444 58.327367 
L 70.430014 58.218834 
L 70.53506 57.947502 
L 70.745152 57.838969 
L 70.850198 57.730436 
L 71.060291 57.621903 
L 71.060291 57.567636 
L 71.165337 57.567636 
L 71.322906 57.459103 
L 71.322906 57.404837 
L 71.427952 57.404837 
L 71.90066 57.35057 
L 72.005706 56.699373 
L 72.110752 56.59084 
L 72.163275 56.482307 
L 72.215799 56.482307 
L 72.268322 56.482307 
L 72.373368 56.265241 
L 72.741029 56.210974 
L 72.846076 55.885376 
L 73.056168 55.776843 
L 73.161214 55.451244 
L 73.318783 55.396977 
L 73.423829 55.125645 
L 73.528876 55.017112 
L 73.633922 54.74578 
L 73.791491 54.637247 
L 73.896537 54.311648 
L 74.001583 54.311648 
L 74.10663 54.040315 
L 74.316722 53.931782 
L 74.421768 53.823249 
L 74.63186 53.768983 
L 74.63186 53.66045 
L 74.736907 53.66045 
L 74.946999 53.551917 
L 75.052045 53.334851 
L 75.157091 53.280585 
L 75.262137 52.73792 
L 75.419707 52.629387 
L 75.524753 52.303788 
L 75.892414 52.195255 
L 75.997461 52.032456 
L 76.417645 51.923923 
L 76.470168 51.81539 
L 76.522692 51.81539 
L 76.680261 51.761123 
L 76.785307 51.489791 
L 76.942876 51.435524 
L 76.942876 51.326992 
L 77.047922 51.326992 
L 77.100445 51.326992 
L 77.205492 51.001393 
L 77.415584 50.89286 
L 77.52063 50.784327 
L 77.835769 50.675794 
L 77.835769 50.621527 
L 77.940815 50.621527 
L 78.308476 50.512994 
L 78.413523 50.404461 
L 78.571092 50.350195 
L 78.623615 50.187396 
L 78.676138 50.187396 
L 78.833707 50.133129 
L 78.88623 49.97033 
L 78.938753 49.97033 
L 79.0438 49.861797 
L 79.148846 49.698997 
L 79.463984 49.590464 
L 79.516507 49.481931 
L 79.56903 49.481931 
L 80.041738 49.373398 
L 80.041738 49.319132 
L 80.146784 49.319132 
L 80.566969 49.210599 
L 80.672015 49.0478 
L 80.829584 48.939267 
L 80.829584 48.885 
L 80.934631 48.885 
L 81.302292 48.830734 
L 81.354815 48.505135 
L 81.407338 48.505135 
L 81.827523 48.396602 
L 81.880046 48.233802 
L 81.932569 48.233802 
L 82.142662 48.125269 
L 82.142662 48.016736 
L 82.247708 48.016736 
L 82.562846 47.908203 
L 82.615369 47.745404 
L 82.667892 47.745404 
L 83.035554 47.636871 
L 83.088077 47.528338 
L 83.1406 47.528338 
L 83.560785 47.419805 
L 83.613308 47.202739 
L 83.665831 47.202739 
L 83.8234 47.094206 
L 83.928446 46.822874 
L 84.243585 46.714341 
L 84.243585 46.605808 
L 84.348631 46.605808 
L 84.611247 46.551542 
L 84.716293 46.280209 
L 84.821339 46.171676 
L 84.926385 45.95461 
L 85.241524 45.846077 
L 85.34657 45.629011 
L 85.609185 45.520479 
L 85.661708 45.357679 
L 85.714231 45.357679 
L 85.976847 45.249146 
L 86.081893 45.086347 
L 86.502078 44.977814 
L 86.502078 44.923547 
L 86.607124 44.923547 
L 86.974785 44.815014 
L 87.079832 44.435149 
L 87.132355 44.435149 
L 87.237401 44.10955 
L 87.39497 44.001017 
L 87.500016 43.729685 
L 87.657586 43.621152 
L 87.762632 43.349819 
L 87.920201 43.295553 
L 87.920201 43.078487 
L 88.025247 43.078487 
L 88.550478 43.024221 
L 88.655524 42.752888 
L 88.91814 42.698622 
L 89.023186 42.535822 
L 89.338324 42.427289 
L 89.44337 42.155957 
L 89.60094 42.047424 
L 89.653463 41.830358 
L 89.705986 41.830358 
L 89.916078 41.721825 
L 90.021124 41.613292 
L 90.441309 41.504759 
L 90.441309 41.450493 
L 90.546355 41.450493 
L 90.861494 41.34196 
L 90.96654 41.124894 
L 91.334201 41.070627 
L 91.334201 40.962094 
L 91.439248 40.962094 
L 91.859432 40.853562 
L 91.964478 40.745029 
L 92.227094 40.690762 
L 92.227094 40.582229 
L 92.33214 40.582229 
L 92.699802 40.527963 
L 92.752325 40.202364 
L 92.804848 40.202364 
L 92.909894 40.148097 
L 93.01494 39.876765 
L 93.172509 39.822498 
L 93.277556 39.551166 
L 93.85531 39.442633 
L 93.960356 39.279834 
L 94.222971 39.171301 
L 94.328017 38.899968 
L 94.643156 38.791435 
L 94.695679 38.628636 
L 94.748202 38.628636 
L 95.693618 38.520103 
L 95.693618 38.465837 
L 95.798664 38.465837 
L 96.376418 38.357304 
L 96.376418 38.303037 
L 96.481464 38.303037 
L 97.374356 38.194504 
L 97.374356 38.085971 
L 97.479402 38.085971 
L 97.899587 37.977438 
L 98.004633 37.868905 
L 98.162202 37.760372 
L 98.162202 37.706106 
L 98.267249 37.706106 
L 98.687433 37.597573 
L 98.687433 37.543306 
L 98.79248 37.543306 
L 100.315649 37.434774 
L 100.315649 37.380507 
L 100.420695 37.380507 
L 101.261065 37.271974 
L 101.261065 37.217708 
L 101.366111 37.217708 
L 101.838818 37.109175 
L 101.838818 37.000642 
L 101.943865 37.000642 
L 102.574142 36.946375 
L 102.626665 36.783576 
L 102.679188 36.783576 
L 103.046849 36.675043 
L 103.151896 36.56651 
L 103.834696 36.457977 
L 103.939742 36.349444 
L 104.41245 36.240911 
L 104.41245 36.186645 
L 104.517496 36.186645 
L 105.410388 36.078112 
L 105.410388 36.023845 
L 105.515434 36.023845 
L 107.091127 35.915312 
L 107.091127 35.861046 
L 107.196173 35.861046 
L 108.089066 35.752513 
L 108.089066 35.698246 
L 108.194112 35.698246 
L 108.614296 35.589713 
L 108.666819 35.426914 
L 108.719343 35.426914 
L 109.612235 35.318381 
L 109.612235 35.264114 
L 109.717281 35.264114 
L 110.557651 35.155581 
L 110.557651 35.101315 
L 110.662697 35.101315 
L 110.872789 35.047049 
L 110.872789 34.938516 
L 110.977835 34.938516 
L 112.448482 34.829983 
L 112.501005 34.72145 
L 112.553528 34.72145 
L 112.973712 34.667183 
L 112.973712 34.55865 
L 113.078759 34.55865 
L 113.551466 34.450117 
L 113.656513 34.341584 
L 113.814082 34.233051 
L 113.919128 33.907453 
L 114.181743 33.853186 
L 114.181743 33.690387 
L 114.28679 33.690387 
L 115.074636 33.63612 
L 115.074636 33.473321 
L 115.179682 33.473321 
L 116.072574 33.364788 
L 116.072574 33.310521 
L 116.177621 33.310521 
L 117.175559 33.201988 
L 117.175559 33.147722 
L 117.280605 33.147722 
L 118.488636 33.039189 
L 118.488636 33.039189 
" clip-path="url(#pfb434495d3)" style="fill: none; stroke: #e09b9b; stroke-width: 2; stroke-linecap: square"/>
   </g>
   <g id="line2d_10">
    <path d="M 45.061364 102.451277 
L 45.16641 102.14147 
L 45.218933 102.14147 
L 45.323979 101.78003 
L 45.376502 101.78003 
L 45.481548 101.31532 
L 45.639118 101.263686 
L 45.744164 100.850611 
L 45.796687 100.850611 
L 45.901733 100.437535 
L 46.059302 100.334267 
L 46.111825 100.127729 
L 46.164348 100.127729 
L 46.269395 100.127729 
L 46.321918 99.921192 
L 46.374441 99.921192 
L 46.479487 99.869557 
L 46.584533 99.404848 
L 46.742102 99.301579 
L 46.794625 99.043407 
L 46.847149 99.043407 
L 47.004718 98.940138 
L 47.109764 98.423794 
L 47.21481 98.423794 
L 47.319856 97.855816 
L 47.372379 97.855816 
L 47.477426 97.494375 
L 47.529949 97.494375 
L 47.634995 96.926397 
L 47.740041 96.823128 
L 47.845087 96.410053 
L 47.89761 96.410053 
L 48.002656 96.100247 
L 48.212749 96.048612 
L 48.317795 95.893709 
L 48.475364 95.79044 
L 48.58041 95.377365 
L 48.632933 95.377365 
L 48.73798 95.015925 
L 48.790503 95.015925 
L 48.895549 94.706118 
L 49.000595 94.602849 
L 49.105641 93.725065 
L 49.158164 93.725065 
L 49.26321 93.31199 
L 49.315734 93.31199 
L 49.42078 92.84728 
L 49.525826 92.84728 
L 49.630872 92.485839 
L 49.788441 92.382571 
L 49.893487 92.124399 
L 50.051057 92.072764 
L 50.051057 91.969495 
L 50.156103 91.969495 
L 50.261149 91.969495 
L 50.261149 91.659689 
L 50.366195 91.659689 
L 50.523764 91.55642 
L 50.576288 91.298248 
L 50.628811 91.298248 
L 50.681334 91.298248 
L 50.78638 90.988442 
L 50.891426 90.885173 
L 50.996472 90.523733 
L 51.101518 90.472098 
L 51.206565 90.265561 
L 51.364134 90.162292 
L 51.416657 89.90412 
L 51.46918 89.90412 
L 51.836842 89.90412 
L 51.941888 89.645948 
L 52.15198 89.542679 
L 52.257026 89.336142 
L 52.309549 89.336142 
L 52.414596 88.974701 
L 52.729734 88.871432 
L 52.83478 88.716529 
L 52.992349 88.61326 
L 52.992349 88.509991 
L 53.097396 88.509991 
L 53.307488 88.406723 
L 53.307488 88.303454 
L 53.412534 88.303454 
L 53.832719 88.200185 
L 53.832719 88.148551 
L 53.937765 88.148551 
L 54.095334 88.045282 
L 54.095334 87.993647 
L 54.20038 87.993647 
L 54.35795 87.890379 
L 54.410473 87.528938 
L 54.462996 87.528938 
L 55.04075 87.425669 
L 55.145796 87.219132 
L 55.355888 87.167497 
L 55.460934 86.96096 
L 55.565981 86.96096 
L 55.565981 86.806056 
L 55.671027 86.806056 
L 55.828596 86.754422 
L 55.933642 86.341347 
L 56.038688 86.238078 
L 56.143735 85.876637 
L 56.511396 85.773369 
L 56.616442 85.411928 
L 56.826535 85.411928 
L 56.931581 85.102122 
L 57.141673 84.998853 
L 57.141673 84.947218 
L 57.246719 84.947218 
L 57.351766 84.895584 
L 57.351766 84.792315 
L 57.456812 84.792315 
L 57.561858 84.792315 
L 57.666904 84.327606 
L 57.719427 84.327606 
L 57.824473 83.759627 
L 57.876996 83.759627 
L 57.982043 83.398187 
L 58.034566 83.398187 
L 58.139612 82.933477 
L 58.192135 82.933477 
L 58.244658 82.572037 
L 58.297181 82.572037 
L 58.349704 82.572037 
L 58.45475 82.26223 
L 58.507273 82.26223 
L 58.61232 81.797521 
L 58.664843 81.797521 
L 58.769889 81.539349 
L 58.822412 81.539349 
L 58.927458 81.023005 
L 58.979981 81.023005 
L 59.085027 80.351758 
L 59.13755 80.351758 
L 59.242597 79.267436 
L 59.29512 79.267436 
L 59.400166 78.02821 
L 59.452689 78.02821 
L 59.557735 77.408598 
L 59.610258 77.408598 
L 59.715304 76.892254 
L 59.767827 76.892254 
L 59.872874 76.169372 
L 59.925397 76.169372 
L 60.030443 75.549759 
L 60.082966 75.549759 
L 60.188012 75.188319 
L 60.398104 75.188319 
L 60.503151 74.62034 
L 60.608197 74.517072 
L 60.713243 74.207265 
L 60.765766 74.207265 
L 60.870812 73.690921 
L 60.923335 73.690921 
L 61.028381 72.916406 
L 61.080905 72.916406 
L 61.185951 71.832083 
L 61.238474 71.832083 
L 61.34352 71.005933 
L 61.448566 70.954299 
L 61.553612 70.128149 
L 61.658658 70.076514 
L 61.763705 69.250364 
L 61.868751 69.147095 
L 61.973797 68.579117 
L 62.02632 68.579117 
L 62.131366 68.217676 
L 62.236412 68.217676 
L 62.288935 67.856235 
L 62.341459 67.856235 
L 62.393982 67.856235 
L 62.446505 67.236623 
L 62.499028 67.236623 
L 62.551551 67.236623 
L 62.656597 66.1523 
L 62.70912 66.1523 
L 62.814166 65.377785 
L 62.866689 65.377785 
L 62.971736 64.448366 
L 63.024259 64.448366 
L 63.129305 63.777119 
L 63.181828 63.777119 
L 63.286874 62.950968 
L 63.339397 62.950968 
L 63.444443 62.228087 
L 63.496966 62.228087 
L 63.602013 61.505205 
L 63.654536 61.505205 
L 63.759582 60.988861 
L 63.812105 60.988861 
L 63.917151 60.73069 
L 64.022197 60.627421 
L 64.127243 60.317614 
L 64.179767 60.317614 
L 64.284813 59.749636 
L 64.337336 59.749636 
L 64.442382 59.233292 
L 64.547428 59.130023 
L 64.599951 58.768583 
L 64.652474 58.768583 
L 64.704997 58.768583 
L 64.810044 58.14897 
L 64.91509 58.045701 
L 65.020136 57.632626 
L 65.072659 57.632626 
L 65.177705 57.013013 
L 65.230228 57.013013 
L 65.335274 56.548304 
L 65.387798 56.548304 
L 65.492844 55.722154 
L 65.59789 55.618885 
L 65.702936 55.257444 
L 65.807982 55.154175 
L 65.913028 54.947638 
L 65.965551 54.947638 
L 66.070598 54.534563 
L 66.175644 54.482928 
L 66.28069 54.069853 
L 66.385736 53.966584 
L 66.490782 53.605144 
L 66.595828 53.501875 
L 66.700875 53.037165 
L 66.753398 53.037165 
L 66.858444 52.314284 
L 66.96349 52.26265 
L 67.068536 51.849574 
L 67.226105 51.746306 
L 67.331152 51.281596 
L 67.436198 51.178327 
L 67.541244 51.023424 
L 67.698813 50.97179 
L 67.803859 50.403812 
L 67.908906 50.352177 
L 68.013952 50.094005 
L 68.118998 50.042371 
L 68.224044 49.68093 
L 68.276567 49.68093 
L 68.381613 49.267855 
L 68.48666 49.216221 
L 68.591706 48.596608 
L 68.696752 48.544973 
L 68.801798 48.235167 
L 68.854321 48.235167 
L 68.959367 47.873726 
L 69.221983 47.822092 
L 69.327029 47.615554 
L 69.484598 47.56392 
L 69.484598 47.460651 
L 69.589644 47.460651 
L 69.69469 47.357383 
L 69.799737 46.841039 
L 69.904783 46.73777 
L 70.009829 46.221426 
L 70.062352 46.221426 
L 70.167398 45.808351 
L 70.272444 45.705082 
L 70.377491 45.44691 
L 70.587583 45.395276 
L 70.692629 45.240373 
L 70.850198 45.137104 
L 70.902721 44.930566 
L 70.955245 44.930566 
L 71.112814 44.827297 
L 71.21786 44.672394 
L 71.375429 44.569125 
L 71.427952 44.465857 
L 71.480475 44.465857 
L 71.585522 44.362588 
L 71.690568 44.052782 
L 71.743091 44.052782 
L 71.848137 43.536438 
L 71.953183 43.484803 
L 72.058229 42.761922 
L 72.110752 42.761922 
L 72.163275 42.50375 
L 72.215799 42.50375 
L 72.268322 42.50375 
L 72.268322 42.348847 
L 72.373368 42.348847 
L 72.530937 42.297212 
L 72.635983 41.987406 
L 72.951122 41.884137 
L 73.056168 41.780868 
L 73.26626 41.6776 
L 73.371306 41.419428 
L 73.528876 41.367793 
L 73.633922 41.21289 
L 73.686445 41.21289 
L 73.791491 40.438374 
L 73.94906 40.38674 
L 74.054107 40.128568 
L 74.211676 40.025299 
L 74.264199 39.870396 
L 74.316722 39.870396 
L 74.421768 39.767127 
L 74.526814 39.663858 
L 74.78943 39.612224 
L 74.894476 39.302418 
L 75.052045 39.199149 
L 75.157091 39.044246 
L 75.209614 39.044246 
L 75.314661 38.579536 
L 75.419707 38.527902 
L 75.524753 38.218095 
L 75.682322 38.114827 
L 75.787368 38.011558 
L 76.102507 37.908289 
L 76.102507 37.856655 
L 76.207553 37.856655 
L 76.312599 37.856655 
L 76.417645 37.546848 
L 76.575215 37.44358 
L 76.627738 37.288676 
L 76.680261 37.288676 
L 76.942876 37.237042 
L 77.047922 37.030505 
L 77.310538 36.97887 
L 77.415584 36.720698 
L 77.678199 36.617429 
L 77.783246 36.410892 
L 78.308476 36.307623 
L 78.308476 36.204354 
L 78.413523 36.204354 
L 78.518569 36.15272 
L 78.571092 35.946182 
L 78.623615 35.946182 
L 78.676138 35.946182 
L 78.781184 35.636376 
L 79.201369 35.533107 
L 79.306415 35.32657 
L 79.56903 35.274935 
L 79.56903 35.171666 
L 79.674077 35.171666 
L 79.989215 35.068398 
L 80.041738 34.965129 
L 80.094261 34.965129 
L 80.566969 34.86186 
L 80.672015 34.706957 
L 80.934631 34.655323 
L 80.934631 34.552054 
L 81.039677 34.552054 
L 81.302292 34.448785 
L 81.302292 34.397151 
L 81.407338 34.397151 
L 81.827523 34.293882 
L 81.932569 34.087344 
L 82.300231 33.984075 
L 82.352754 33.880807 
L 82.405277 33.880807 
L 82.667892 33.777538 
L 82.772939 33.622635 
L 82.930508 33.519366 
L 83.035554 33.416097 
L 83.298169 33.312828 
L 83.350693 33.20956 
L 83.403216 33.20956 
L 83.8234 33.106291 
L 83.875923 32.899753 
L 83.928446 32.899753 
L 84.296108 32.848119 
L 84.296108 32.74485 
L 84.401154 32.74485 
L 84.873862 32.641581 
L 84.873862 32.538313 
L 84.978908 32.538313 
L 85.504139 32.435044 
L 85.556662 32.280141 
L 85.609185 32.280141 
L 85.924324 32.176872 
L 85.976847 32.073603 
L 86.02937 32.073603 
L 86.134416 31.970334 
L 86.134416 31.9187 
L 86.239462 31.9187 
L 86.397031 31.815431 
L 86.397031 31.712162 
L 86.502078 31.712162 
L 87.079832 31.608894 
L 87.079832 31.557259 
L 87.184878 31.557259 
L 87.342447 31.45399 
L 87.39497 31.350722 
L 87.447493 31.350722 
L 87.710109 31.247453 
L 87.762632 31.09255 
L 87.815155 31.09255 
L 88.025247 30.989281 
L 88.130293 30.886012 
L 88.655524 30.782743 
L 88.708047 30.679475 
L 88.76057 30.679475 
L 89.548417 30.576206 
L 89.653463 30.421303 
L 91.019063 30.318034 
L 91.019063 30.266399 
L 91.124109 30.266399 
L 91.439248 30.214765 
L 91.544294 30.059862 
L 92.699802 29.956593 
L 92.752325 29.853324 
L 92.804848 29.853324 
L 93.69774 29.750056 
L 93.69774 29.698421 
L 93.802786 29.698421 
L 94.748202 29.595152 
L 94.748202 29.491884 
L 94.853248 29.491884 
L 96.58651 29.388615 
L 96.58651 29.33698 
L 96.691556 29.33698 
L 97.95211 29.285346 
L 97.95211 29.182077 
L 98.057156 29.182077 
L 98.845003 29.078808 
L 98.845003 29.027174 
L 98.950049 29.027174 
L 99.790418 28.923905 
L 99.895464 28.820636 
L 100.315649 28.717368 
L 100.315649 28.665733 
L 100.420695 28.665733 
L 101.52368 28.562465 
L 101.628726 28.459196 
L 104.097311 28.355927 
L 104.097311 28.304293 
L 104.202357 28.304293 
L 105.305342 28.201024 
L 105.305342 28.149389 
L 105.410388 28.149389 
L 106.355804 28.046121 
L 106.355804 27.994486 
L 106.46085 27.994486 
L 107.931496 27.891217 
L 107.931496 27.839583 
L 108.036542 27.839583 
L 110.452604 27.736314 
L 110.557651 27.633046 
L 111.870728 27.529777 
L 111.870728 27.478142 
L 111.975774 27.478142 
L 113.131282 27.374874 
L 113.183805 27.271605 
L 113.236328 27.271605 
L 113.866605 27.168336 
L 113.866605 27.116702 
L 113.971651 27.116702 
L 114.181743 27.065067 
L 114.181743 26.961798 
L 114.28679 26.961798 
L 115.232205 26.85853 
L 115.232205 26.806895 
L 115.337251 26.806895 
L 116.020051 26.703626 
L 116.020051 26.600358 
L 116.125098 26.600358 
L 117.490698 26.497089 
L 117.490698 26.445455 
L 117.595744 26.445455 
L 118.488636 26.445455 
L 118.488636 26.445455 
" clip-path="url(#pfb434495d3)" style="fill: none; stroke: #f06464; stroke-width: 2; stroke-linecap: square"/>
   </g>
   <g id="line2d_11">
    <path d="M 45.061364 102.487727 
L 45.16641 102.086815 
L 45.218933 102.086815 
L 45.323979 101.819541 
L 45.429025 101.752722 
L 45.534071 101.35181 
L 45.639118 101.251582 
L 45.744164 100.817261 
L 45.796687 100.817261 
L 45.84921 100.549987 
L 45.901733 100.549987 
L 46.006779 100.483168 
L 46.111825 100.249303 
L 46.216872 100.149075 
L 46.321918 100.015438 
L 46.479487 99.948619 
L 46.584533 99.714754 
L 46.689579 99.614526 
L 46.794625 99.480889 
L 46.899672 99.380661 
L 47.004718 98.912931 
L 47.057241 98.912931 
L 47.162287 98.612247 
L 47.267333 98.545428 
L 47.372379 98.244744 
L 47.529949 98.144516 
L 47.634995 97.576558 
L 47.687518 97.576558 
L 47.792564 97.108828 
L 47.950133 97.042009 
L 48.002656 96.908372 
L 48.055179 96.908372 
L 48.317795 96.808144 
L 48.422841 96.574279 
L 48.527887 96.540869 
L 48.632933 96.340414 
L 48.73798 96.240186 
L 48.843026 95.872683 
L 48.895549 95.872683 
L 49.000595 95.371544 
L 49.105641 95.271316 
L 49.210687 94.970632 
L 49.315734 94.870404 
L 49.42078 94.603129 
L 49.630872 94.502902 
L 49.735918 94.402674 
L 49.946011 94.302446 
L 50.051057 94.035171 
L 50.156103 93.934943 
L 50.261149 93.701078 
L 50.418718 93.60085 
L 50.523764 93.500622 
L 50.681334 93.400394 
L 50.733857 93.166529 
L 50.78638 93.166529 
L 50.891426 93.13312 
L 50.996472 92.531752 
L 51.048995 92.531752 
L 51.154041 92.197659 
L 51.259088 92.13084 
L 51.364134 91.930385 
L 51.731795 91.830157 
L 51.784319 91.763338 
L 51.836842 91.763338 
L 52.099457 91.66311 
L 52.204503 91.429245 
L 52.309549 91.362426 
L 52.414596 90.994924 
L 52.572165 90.928105 
L 52.624688 90.69424 
L 52.677211 90.69424 
L 52.83478 90.594012 
L 52.83478 90.527194 
L 52.939826 90.527194 
L 53.202442 90.426966 
L 53.307488 90.293328 
L 53.780196 90.1931 
L 53.885242 90.092873 
L 53.990288 90.059463 
L 54.095334 89.892417 
L 54.252903 89.792189 
L 54.35795 89.491505 
L 54.410473 89.491505 
L 54.462996 89.25764 
L 54.515519 89.25764 
L 54.620565 89.157412 
L 54.725611 88.990365 
L 54.935704 88.923547 
L 55.04075 88.823319 
L 55.250842 88.7565 
L 55.355888 88.589454 
L 55.828596 88.489226 
L 55.933642 88.28877 
L 56.038688 88.188542 
L 56.143735 87.988086 
L 56.301304 87.887858 
L 56.40635 87.587174 
L 56.511396 87.520356 
L 56.616442 87.420128 
L 56.721488 87.386718 
L 56.826535 87.186262 
L 57.036627 87.086035 
L 57.141673 87.019216 
L 57.456812 86.985807 
L 57.561858 86.685123 
L 57.614381 86.685123 
L 57.719427 85.916709 
L 57.77195 85.916709 
L 57.876996 85.38216 
L 57.929519 85.38216 
L 58.034566 85.215113 
L 58.139612 85.148294 
L 58.244658 84.713973 
L 58.297181 84.713973 
L 58.402227 84.513518 
L 58.507273 84.41329 
L 58.61232 84.279652 
L 58.717366 84.179424 
L 58.822412 84.012378 
L 58.979981 83.945559 
L 59.085027 83.544648 
L 59.13755 83.544648 
L 59.242597 82.976689 
L 59.29512 82.976689 
L 59.400166 82.275094 
L 59.452689 82.275094 
L 59.557735 81.740545 
L 59.610258 81.740545 
L 59.715304 81.306224 
L 59.767827 81.306224 
L 59.872874 80.604628 
L 59.925397 80.604628 
L 60.030443 80.170307 
L 60.135489 80.070079 
L 60.240535 79.53553 
L 60.345581 79.468712 
L 60.450628 79.134619 
L 60.608197 79.034391 
L 60.713243 78.60007 
L 60.818289 78.56666 
L 60.923335 77.998702 
L 60.975858 77.998702 
L 61.080905 77.363925 
L 61.133428 77.363925 
L 61.238474 76.395055 
L 61.290997 76.395055 
L 61.396043 75.559822 
L 61.448566 75.559822 
L 61.553612 75.292548 
L 61.606135 75.292548 
L 61.711182 74.557543 
L 61.763705 74.557543 
L 61.868751 74.123222 
L 61.921274 74.123222 
L 62.02632 73.488445 
L 62.131366 73.455036 
L 62.236412 72.820259 
L 62.393982 72.720031 
L 62.499028 72.319119 
L 62.604074 72.218891 
L 62.70912 70.949337 
L 62.761643 70.949337 
L 62.866689 70.180923 
L 62.919213 70.180923 
L 63.024259 69.278872 
L 63.129305 69.178644 
L 63.234351 68.510458 
L 63.339397 68.477048 
L 63.444443 67.775453 
L 63.496966 67.775453 
L 63.602013 67.207495 
L 63.654536 67.207495 
L 63.759582 66.672946 
L 63.812105 66.672946 
L 63.917151 66.305443 
L 64.022197 66.205215 
L 64.127243 65.871122 
L 64.179767 65.871122 
L 64.284813 65.403392 
L 64.337336 65.403392 
L 64.442382 64.568159 
L 64.494905 64.568159 
L 64.599951 64.133838 
L 64.652474 64.133838 
L 64.75752 62.897693 
L 64.810044 62.897693 
L 64.91509 61.928823 
L 64.967613 61.928823 
L 65.072659 61.193819 
L 65.125182 61.193819 
L 65.230228 60.492223 
L 65.282751 60.492223 
L 65.387798 59.957674 
L 65.440321 59.957674 
L 65.545367 59.489944 
L 65.650413 59.389716 
L 65.755459 58.988804 
L 65.913028 58.921985 
L 66.018075 58.587892 
L 66.070598 58.587892 
L 66.175644 58.019934 
L 66.228167 58.019934 
L 66.333213 57.451976 
L 66.438259 57.418566 
L 66.543305 56.716971 
L 66.595828 56.716971 
L 66.700875 56.015375 
L 66.753398 56.015375 
L 66.858444 55.581054 
L 66.910967 55.581054 
L 67.016013 55.046505 
L 67.068536 55.046505 
L 67.173582 54.612184 
L 67.278629 54.511956 
L 67.383675 54.211273 
L 67.436198 54.211273 
L 67.541244 53.776952 
L 67.64629 53.710133 
L 67.698813 53.242403 
L 67.751336 53.242403 
L 67.856382 53.142175 
L 67.961429 52.774672 
L 68.066475 52.741263 
L 68.171521 52.206714 
L 68.224044 52.206714 
L 68.32909 51.705574 
L 68.434136 51.605346 
L 68.539183 51.037388 
L 68.591706 51.037388 
L 68.696752 50.502839 
L 68.801798 50.43602 
L 68.906844 50.035109 
L 68.959367 50.035109 
L 69.064413 49.667606 
L 69.221983 49.567378 
L 69.327029 49.333513 
L 69.432075 49.266695 
L 69.537121 49.032829 
L 69.589644 49.032829 
L 69.69469 48.732146 
L 69.747214 48.732146 
L 69.85226 48.364643 
L 69.957306 48.297825 
L 70.062352 47.796685 
L 70.167398 47.696457 
L 70.272444 47.262136 
L 70.377491 47.228727 
L 70.482537 46.727587 
L 70.53506 46.727587 
L 70.640106 46.393494 
L 70.797675 46.293266 
L 70.902721 46.226447 
L 71.007768 46.126219 
L 71.112814 45.858945 
L 71.21786 45.758717 
L 71.322906 45.458033 
L 71.480475 45.357805 
L 71.585522 45.12394 
L 71.743091 45.023712 
L 71.848137 44.489163 
L 71.953183 44.388935 
L 72.058229 44.121661 
L 72.110752 44.121661 
L 72.215799 43.720749 
L 72.320845 43.620521 
L 72.373368 43.553702 
L 72.425891 43.553702 
L 72.58346 43.486884 
L 72.688506 43.219609 
L 72.741029 43.219609 
L 72.846076 42.918926 
L 73.003645 42.852107 
L 73.108691 42.618242 
L 73.213737 42.518014 
L 73.26626 42.350967 
L 73.318783 42.350967 
L 73.371306 42.350967 
L 73.476353 42.050283 
L 73.581399 41.950056 
L 73.686445 41.649372 
L 73.791491 41.615962 
L 73.896537 41.114823 
L 74.054107 41.014595 
L 74.159153 40.914367 
L 74.526814 40.814139 
L 74.63186 40.613683 
L 74.78943 40.546864 
L 74.894476 40.179362 
L 74.999522 40.079134 
L 75.104568 39.644813 
L 75.209614 39.544585 
L 75.262137 39.444357 
L 75.314661 39.444357 
L 75.367184 39.444357 
L 75.47223 39.010036 
L 75.524753 39.010036 
L 75.629799 38.642534 
L 75.892414 38.542306 
L 75.997461 38.408669 
L 76.15503 38.308441 
L 76.260076 38.208213 
L 76.365122 38.107985 
L 76.470168 37.974348 
L 76.732784 37.940938 
L 76.83783 37.673664 
L 76.942876 37.640254 
L 77.047922 37.37298 
L 77.152969 37.272752 
L 77.258015 37.005478 
L 77.363061 36.90525 
L 77.468107 36.738203 
L 77.835769 36.637975 
L 77.940815 36.437519 
L 78.045861 36.337291 
L 78.045861 36.237063 
L 78.150907 36.237063 
L 78.571092 36.136835 
L 78.676138 35.836152 
L 78.833707 35.769333 
L 78.938753 35.568877 
L 79.096323 35.502059 
L 79.201369 35.268193 
L 79.463984 35.167965 
L 79.56903 35.067737 
L 79.936692 34.96751 
L 80.041738 34.800463 
L 80.304354 34.700235 
L 80.4094 34.366142 
L 80.672015 34.299323 
L 80.672015 34.098867 
L 80.777061 34.098867 
L 80.934631 33.99864 
L 80.934631 33.931821 
L 81.039677 33.931821 
L 81.197246 33.831593 
L 81.302292 33.764774 
L 81.669954 33.664546 
L 81.775 33.597728 
L 81.985092 33.4975 
L 82.090139 33.430681 
L 82.352754 33.330453 
L 82.4578 33.196816 
L 82.877985 33.096588 
L 82.877985 33.02977 
L 82.983031 33.02977 
L 83.350693 32.962951 
L 83.350693 32.862723 
L 83.455739 32.862723 
L 83.875923 32.795904 
L 83.875923 32.695676 
L 83.98097 32.695676 
L 84.453677 32.595448 
L 84.558724 32.461811 
L 84.926385 32.361583 
L 84.926385 32.328174 
L 85.031431 32.328174 
L 85.189001 32.261355 
L 85.294047 32.161127 
L 85.556662 32.0609 
L 85.556662 32.02749 
L 85.661708 32.02749 
L 85.871801 31.927262 
L 85.976847 31.827034 
L 86.081893 31.726806 
L 86.186939 31.626578 
L 86.869739 31.526351 
L 86.922262 31.459532 
L 86.974785 31.459532 
L 87.289924 31.359304 
L 87.39497 31.225667 
L 87.657586 31.158848 
L 87.762632 31.025211 
L 87.920201 30.924983 
L 88.025247 30.858164 
L 88.392909 30.757936 
L 88.392909 30.724527 
L 88.497955 30.724527 
L 89.233278 30.624299 
L 89.285801 30.557481 
L 89.338324 30.557481 
L 89.60094 30.490662 
L 89.705986 30.323615 
L 90.28374 30.256797 
L 90.388786 30.156569 
L 90.703924 30.056341 
L 90.703924 30.022932 
L 90.808971 30.022932 
L 91.019063 29.989522 
L 91.071586 29.855885 
L 91.124109 29.855885 
L 91.281678 29.755657 
L 91.334201 29.655429 
L 91.386725 29.655429 
L 92.33214 29.555201 
L 92.33214 29.521792 
L 92.437186 29.521792 
L 92.962417 29.421564 
L 93.067463 29.287927 
L 93.750263 29.187699 
L 93.750263 29.154289 
L 93.85531 29.154289 
L 94.38054 29.054062 
L 94.38054 29.020652 
L 94.485587 29.020652 
L 95.22091 28.920424 
L 95.273433 28.820196 
L 95.325956 28.820196 
L 96.376418 28.719968 
L 96.481464 28.61974 
L 97.531925 28.519513 
L 97.636972 28.452694 
L 98.162202 28.352466 
L 98.162202 28.319057 
L 98.267249 28.319057 
L 99.790418 28.218829 
L 99.895464 28.118601 
L 101.418634 28.018373 
L 101.418634 27.984964 
L 101.52368 27.984964 
L 102.88928 27.884736 
L 102.88928 27.851326 
L 102.994326 27.851326 
L 103.939742 27.751098 
L 103.939742 27.717689 
L 104.044788 27.717689 
L 104.990204 27.617461 
L 104.990204 27.584052 
L 105.09525 27.584052 
L 105.988142 27.483824 
L 105.988142 27.450415 
L 106.093188 27.450415 
L 106.828512 27.350187 
L 106.828512 27.316777 
L 106.933558 27.316777 
L 109.087004 27.216549 
L 109.087004 27.18314 
L 109.19205 27.18314 
L 112.028297 27.082912 
L 112.133343 27.016094 
L 113.761559 26.915866 
L 113.814082 26.849047 
L 113.866605 26.849047 
L 114.12922 26.748819 
L 114.181743 26.682 
L 114.234266 26.682 
L 118.488636 26.615182 
L 118.488636 26.615182 
" clip-path="url(#pfb434495d3)" style="fill: none; stroke: #ff2e2e; stroke-width: 2; stroke-linecap: square"/>
   </g>
   <g id="patch_3">
    <path d="M 41.39 106.36 
L 41.39 22.64 
" style="fill: none; stroke: #000000; stroke-width: 0.8; stroke-linejoin: miter; stroke-linecap: square"/>
   </g>
   <g id="patch_4">
    <path d="M 41.39 106.36 
L 122.16 106.36 
" style="fill: none; stroke: #000000; stroke-width: 0.8; stroke-linejoin: miter; stroke-linecap: square"/>
   </g>
   <g id="text_10">
    <!-- Jellybaby -->
    <g transform="translate(60.0205 16.64)scale(0.096 -0.096)">
     <defs>
      <path id="DejaVuSans-4a" d="M 628 4666 
L 1259 4666 
L 1259 325 
Q 1259 -519 939 -900 
Q 619 -1281 -91 -1281 
L -331 -1281 
L -331 -750 
L -134 -750 
Q 284 -750 456 -515 
Q 628 -281 628 325 
L 628 4666 
z
" transform="scale(0.015625)"/>
     </defs>
     <use xlink:href="#DejaVuSans-4a"/>
     <use xlink:href="#DejaVuSans-65" x="29.492188"/>
     <use xlink:href="#DejaVuSans-6c" x="91.015625"/>
     <use xlink:href="#DejaVuSans-6c" x="118.798828"/>
     <use xlink:href="#DejaVuSans-79" x="146.582031"/>
     <use xlink:href="#DejaVuSans-62" x="205.761719"/>
     <use xlink:href="#DejaVuSans-61" x="269.238281"/>
     <use xlink:href="#DejaVuSans-62" x="330.517578"/>
     <use xlink:href="#DejaVuSans-79" x="393.994141"/>
    </g>
   </g>
   <g id="legend_1">
    <g id="line2d_12">
     <path d="M 48.59 59.46875 
L 48.59 59.46875 
L 56.59 59.46875 
L 56.59 59.46875 
L 64.59 59.46875 
" style="fill: none; stroke: #d1d1d1; stroke-width: 2; stroke-linecap: square"/>
    </g>
    <g id="text_11">
     <!-- Catch -->
     <g transform="translate(70.99 62.26875)scale(0.08 -0.08)">
      <defs>
       <path id="DejaVuSans-68" d="M 3513 2113 
L 3513 0 
L 2938 0 
L 2938 2094 
Q 2938 2591 2744 2837 
Q 2550 3084 2163 3084 
Q 1697 3084 1428 2787 
Q 1159 2491 1159 1978 
L 1159 0 
L 581 0 
L 581 4863 
L 1159 4863 
L 1159 2956 
Q 1366 3272 1645 3428 
Q 1925 3584 2291 3584 
Q 2894 3584 3203 3211 
Q 3513 2838 3513 2113 
z
" transform="scale(0.015625)"/>
      </defs>
      <use xlink:href="#DejaVuSans-43"/>
      <use xlink:href="#DejaVuSans-61" x="69.824219"/>
      <use xlink:href="#DejaVuSans-74" x="131.103516"/>
      <use xlink:href="#DejaVuSans-63" x="170.3125"/>
      <use xlink:href="#DejaVuSans-68" x="225.292969"/>
     </g>
    </g>
    <g id="line2d_13">
     <path d="M 48.59 71.21125 
L 48.59 71.21125 
L 56.59 71.21125 
L 56.59 71.21125 
L 64.59 71.21125 
" style="fill: none; stroke: #e09b9b; stroke-width: 2; stroke-linecap: square"/>
    </g>
    <g id="text_12">
     <!-- -5 dB, n=56, d'=0.403 -->
     <g transform="translate(70.99 74.01125)scale(0.08 -0.08)">
      <defs>
       <path id="DejaVuSans-2d" d="M 313 2009 
L 1997 2009 
L 1997 1497 
L 313 1497 
L 313 2009 
z
" transform="scale(0.015625)"/>
       <path id="DejaVuSans-35" d="M 691 4666 
L 3169 4666 
L 3169 4134 
L 1269 4134 
L 1269 2991 
Q 1406 3038 1543 3061 
Q 1681 3084 1819 3084 
Q 2600 3084 3056 2656 
Q 3513 2228 3513 1497 
Q 3513 744 3044 326 
Q 2575 -91 1722 -91 
Q 1428 -91 1123 -41 
Q 819 9 494 109 
L 494 744 
Q 775 591 1075 516 
Q 1375 441 1709 441 
Q 2250 441 2565 725 
Q 2881 1009 2881 1497 
Q 2881 1984 2565 2268 
Q 2250 2553 1709 2553 
Q 1456 2553 1204 2497 
Q 953 2441 691 2322 
L 691 4666 
z
" transform="scale(0.015625)"/>
       <path id="DejaVuSans-64" d="M 2906 2969 
L 2906 4863 
L 3481 4863 
L 3481 0 
L 2906 0 
L 2906 525 
Q 2725 213 2448 61 
Q 2172 -91 1784 -91 
Q 1150 -91 751 415 
Q 353 922 353 1747 
Q 353 2572 751 3078 
Q 1150 3584 1784 3584 
Q 2172 3584 2448 3432 
Q 2725 3281 2906 2969 
z
M 947 1747 
Q 947 1113 1208 752 
Q 1469 391 1925 391 
Q 2381 391 2643 752 
Q 2906 1113 2906 1747 
Q 2906 2381 2643 2742 
Q 2381 3103 1925 3103 
Q 1469 3103 1208 2742 
Q 947 2381 947 1747 
z
" transform="scale(0.015625)"/>
       <path id="DejaVuSans-42" d="M 1259 2228 
L 1259 519 
L 2272 519 
Q 2781 519 3026 730 
Q 3272 941 3272 1375 
Q 3272 1813 3026 2020 
Q 2781 2228 2272 2228 
L 1259 2228 
z
M 1259 4147 
L 1259 2741 
L 2194 2741 
Q 2656 2741 2882 2914 
Q 3109 3088 3109 3444 
Q 3109 3797 2882 3972 
Q 2656 4147 2194 4147 
L 1259 4147 
z
M 628 4666 
L 2241 4666 
Q 2963 4666 3353 4366 
Q 3744 4066 3744 3513 
Q 3744 3084 3544 2831 
Q 3344 2578 2956 2516 
Q 3422 2416 3680 2098 
Q 3938 1781 3938 1306 
Q 3938 681 3513 340 
Q 3088 0 2303 0 
L 628 0 
L 628 4666 
z
" transform="scale(0.015625)"/>
       <path id="DejaVuSans-2c" d="M 750 794 
L 1409 794 
L 1409 256 
L 897 -744 
L 494 -744 
L 750 256 
L 750 794 
z
" transform="scale(0.015625)"/>
       <path id="DejaVuSans-3d" d="M 678 2906 
L 4684 2906 
L 4684 2381 
L 678 2381 
L 678 2906 
z
M 678 1631 
L 4684 1631 
L 4684 1100 
L 678 1100 
L 678 1631 
z
" transform="scale(0.015625)"/>
       <path id="DejaVuSans-27" d="M 1147 4666 
L 1147 2931 
L 616 2931 
L 616 4666 
L 1147 4666 
z
" transform="scale(0.015625)"/>
       <path id="DejaVuSans-33" d="M 2597 2516 
Q 3050 2419 3304 2112 
Q 3559 1806 3559 1356 
Q 3559 666 3084 287 
Q 2609 -91 1734 -91 
Q 1441 -91 1130 -33 
Q 819 25 488 141 
L 488 750 
Q 750 597 1062 519 
Q 1375 441 1716 441 
Q 2309 441 2620 675 
Q 2931 909 2931 1356 
Q 2931 1769 2642 2001 
Q 2353 2234 1838 2234 
L 1294 2234 
L 1294 2753 
L 1863 2753 
Q 2328 2753 2575 2939 
Q 2822 3125 2822 3475 
Q 2822 3834 2567 4026 
Q 2313 4219 1838 4219 
Q 1578 4219 1281 4162 
Q 984 4106 628 3988 
L 628 4550 
Q 988 4650 1302 4700 
Q 1616 4750 1894 4750 
Q 2613 4750 3031 4423 
Q 3450 4097 3450 3541 
Q 3450 3153 3228 2886 
Q 3006 2619 2597 2516 
z
" transform="scale(0.015625)"/>
      </defs>
      <use xlink:href="#DejaVuSans-2d"/>
      <use xlink:href="#DejaVuSans-35" x="36.083984"/>
      <use xlink:href="#DejaVuSans-20" x="99.707031"/>
      <use xlink:href="#DejaVuSans-64" x="131.494141"/>
      <use xlink:href="#DejaVuSans-42" x="194.970703"/>
      <use xlink:href="#DejaVuSans-2c" x="263.574219"/>
      <use xlink:href="#DejaVuSans-20" x="295.361328"/>
      <use xlink:href="#DejaVuSans-6e" x="327.148438"/>
      <use xlink:href="#DejaVuSans-3d" x="390.527344"/>
      <use xlink:href="#DejaVuSans-35" x="474.316406"/>
      <use xlink:href="#DejaVuSans-36" x="537.939453"/>
      <use xlink:href="#DejaVuSans-2c" x="601.5625"/>
      <use xlink:href="#DejaVuSans-20" x="633.349609"/>
      <use xlink:href="#DejaVuSans-64" x="665.136719"/>
      <use xlink:href="#DejaVuSans-27" x="728.613281"/>
      <use xlink:href="#DejaVuSans-3d" x="756.103516"/>
      <use xlink:href="#DejaVuSans-30" x="839.892578"/>
      <use xlink:href="#DejaVuSans-2e" x="903.515625"/>
      <use xlink:href="#DejaVuSans-34" x="935.302734"/>
      <use xlink:href="#DejaVuSans-30" x="998.925781"/>
      <use xlink:href="#DejaVuSans-33" x="1062.548828"/>
     </g>
    </g>
    <g id="line2d_14">
     <path d="M 48.59 82.95375 
L 48.59 82.95375 
L 56.59 82.95375 
L 56.59 82.95375 
L 64.59 82.95375 
" style="fill: none; stroke: #f06464; stroke-width: 2; stroke-linecap: square"/>
    </g>
    <g id="text_13">
     <!-- 0 dB, n=56, d'=0.632 -->
     <g transform="translate(70.99 85.75375)scale(0.08 -0.08)">
      <use xlink:href="#DejaVuSans-30"/>
      <use xlink:href="#DejaVuSans-20" x="63.623047"/>
      <use xlink:href="#DejaVuSans-64" x="95.410156"/>
      <use xlink:href="#DejaVuSans-42" x="158.886719"/>
      <use xlink:href="#DejaVuSans-2c" x="227.490234"/>
      <use xlink:href="#DejaVuSans-20" x="259.277344"/>
      <use xlink:href="#DejaVuSans-6e" x="291.064453"/>
      <use xlink:href="#DejaVuSans-3d" x="354.443359"/>
      <use xlink:href="#DejaVuSans-35" x="438.232422"/>
      <use xlink:href="#DejaVuSans-36" x="501.855469"/>
      <use xlink:href="#DejaVuSans-2c" x="565.478516"/>
      <use xlink:href="#DejaVuSans-20" x="597.265625"/>
      <use xlink:href="#DejaVuSans-64" x="629.052734"/>
      <use xlink:href="#DejaVuSans-27" x="692.529297"/>
      <use xlink:href="#DejaVuSans-3d" x="720.019531"/>
      <use xlink:href="#DejaVuSans-30" x="803.808594"/>
      <use xlink:href="#DejaVuSans-2e" x="867.431641"/>
      <use xlink:href="#DejaVuSans-36" x="899.21875"/>
      <use xlink:href="#DejaVuSans-33" x="962.841797"/>
      <use xlink:href="#DejaVuSans-32" x="1026.464844"/>
     </g>
    </g>
    <g id="line2d_15">
     <path d="M 48.59 94.69625 
L 48.59 94.69625 
L 56.59 94.69625 
L 56.59 94.69625 
L 64.59 94.69625 
" style="fill: none; stroke: #ff2e2e; stroke-width: 2; stroke-linecap: square"/>
    </g>
    <g id="text_14">
     <!-- inf dB, n=56, d'=0.742 -->
     <g transform="translate(70.99 97.49625)scale(0.08 -0.08)">
      <defs>
       <path id="DejaVuSans-66" d="M 2375 4863 
L 2375 4384 
L 1825 4384 
Q 1516 4384 1395 4259 
Q 1275 4134 1275 3809 
L 1275 3500 
L 2222 3500 
L 2222 3053 
L 1275 3053 
L 1275 0 
L 697 0 
L 697 3053 
L 147 3053 
L 147 3500 
L 697 3500 
L 697 3744 
Q 697 4328 969 4595 
Q 1241 4863 1831 4863 
L 2375 4863 
z
" transform="scale(0.015625)"/>
       <path id="DejaVuSans-37" d="M 525 4666 
L 3525 4666 
L 3525 4397 
L 1831 0 
L 1172 0 
L 2766 4134 
L 525 4134 
L 525 4666 
z
" transform="scale(0.015625)"/>
      </defs>
      <use xlink:href="#DejaVuSans-69"/>
      <use xlink:href="#DejaVuSans-6e" x="27.783203"/>
      <use xlink:href="#DejaVuSans-66" x="91.162109"/>
      <use xlink:href="#DejaVuSans-20" x="126.367188"/>
      <use xlink:href="#DejaVuSans-64" x="158.154297"/>
      <use xlink:href="#DejaVuSans-42" x="221.630859"/>
      <use xlink:href="#DejaVuSans-2c" x="290.234375"/>
      <use xlink:href="#DejaVuSans-20" x="322.021484"/>
      <use xlink:href="#DejaVuSans-6e" x="353.808594"/>
      <use xlink:href="#DejaVuSans-3d" x="417.1875"/>
      <use xlink:href="#DejaVuSans-35" x="500.976562"/>
      <use xlink:href="#DejaVuSans-36" x="564.599609"/>
      <use xlink:href="#DejaVuSans-2c" x="628.222656"/>
      <use xlink:href="#DejaVuSans-20" x="660.009766"/>
      <use xlink:href="#DejaVuSans-64" x="691.796875"/>
      <use xlink:href="#DejaVuSans-27" x="755.273438"/>
      <use xlink:href="#DejaVuSans-3d" x="782.763672"/>
      <use xlink:href="#DejaVuSans-30" x="866.552734"/>
      <use xlink:href="#DejaVuSans-2e" x="930.175781"/>
      <use xlink:href="#DejaVuSans-37" x="961.962891"/>
      <use xlink:href="#DejaVuSans-34" x="1025.585938"/>
      <use xlink:href="#DejaVuSans-32" x="1089.208984"/>
     </g>
    </g>
   </g>
  </g>
 </g>
 <defs>
  <clipPath id="pfb434495d3">
   <rect x="41.39" y="22.64" width="80.77" height="83.72"/>
  </clipPath>
 </defs>
</svg>
