<?xml version="1.0" encoding="utf-8" standalone="no"?>
<!DOCTYPE svg PUBLIC "-//W3C//DTD SVG 1.1//EN"
  "http://www.w3.org/Graphics/SVG/1.1/DTD/svg11.dtd">
<svg xmlns:xlink="http://www.w3.org/1999/xlink" width="144pt" height="144pt" viewBox="0 0 144 144" xmlns="http://www.w3.org/2000/svg" version="1.1">
 <metadata>
  <rdf:RDF xmlns:dc="http://purl.org/dc/elements/1.1/" xmlns:cc="http://creativecommons.org/ns#" xmlns:rdf="http://www.w3.org/1999/02/22-rdf-syntax-ns#">
   <cc:Work>
    <dc:type rdf:resource="http://purl.org/dc/dcmitype/StillImage"/>
    <dc:date>2022-12-05T06:24:42.858253</dc:date>
    <dc:format>image/svg+xml</dc:format>
    <dc:creator>
     <cc:Agent>
      <dc:title>Matplotlib v3.5.1, https://matplotlib.org/</dc:title>
     </cc:Agent>
    </dc:creator>
   </cc:Work>
  </rdf:RDF>
 </metadata>
 <defs>
  <style type="text/css">*{stroke-linejoin: round; stroke-linecap: butt}</style>
 </defs>
 <g id="figure_1">
  <g id="patch_1">
   <path d="M 0 144 
L 144 144 
L 144 0 
L 0 0 
L 0 144 
z
" style="fill: none"/>
  </g>
  <g id="axes_1">
   <g id="patch_2">
    <path d="M 41.39 106.36 
L 119.16 106.36 
L 119.16 22.64 
L 41.39 22.64 
z
" style="fill: #ffffff"/>
   </g>
   <g id="matplotlib.axis_1">
    <g id="xtick_1">
     <g id="line2d_1">
      <defs>
       <path id="m653ebed879" d="M 0 0 
L 0 3.5 
" style="stroke: #000000; stroke-width: 0.8"/>
      </defs>
      <g>
       <use xlink:href="#m653ebed879" x="44.925" y="106.36" style="stroke: #000000; stroke-width: 0.8"/>
      </g>
     </g>
     <g id="text_1">
      <!-- 0 -->
      <g transform="translate(42.38 119.43875)scale(0.08 -0.08)">
       <defs>
        <path id="DejaVuSans-30" d="M 2034 4250 
Q 1547 4250 1301 3770 
Q 1056 3291 1056 2328 
Q 1056 1369 1301 889 
Q 1547 409 2034 409 
Q 2525 409 2770 889 
Q 3016 1369 3016 2328 
Q 3016 3291 2770 3770 
Q 2525 4250 2034 4250 
z
M 2034 4750 
Q 2819 4750 3233 4129 
Q 3647 3509 3647 2328 
Q 3647 1150 3233 529 
Q 2819 -91 2034 -91 
Q 1250 -91 836 529 
Q 422 1150 422 2328 
Q 422 3509 836 4129 
Q 1250 4750 2034 4750 
z
" transform="scale(0.015625)"/>
       </defs>
       <use xlink:href="#DejaVuSans-30"/>
      </g>
     </g>
    </g>
    <g id="xtick_2">
     <g id="line2d_2">
      <g>
       <use xlink:href="#m653ebed879" x="95.497246" y="106.36" style="stroke: #000000; stroke-width: 0.8"/>
      </g>
     </g>
     <g id="text_2">
      <!-- 1 -->
      <g transform="translate(92.952246 119.43875)scale(0.08 -0.08)">
       <defs>
        <path id="DejaVuSans-31" d="M 794 531 
L 1825 531 
L 1825 4091 
L 703 3866 
L 703 4441 
L 1819 4666 
L 2450 4666 
L 2450 531 
L 3481 531 
L 3481 0 
L 794 0 
L 794 531 
z
" transform="scale(0.015625)"/>
       </defs>
       <use xlink:href="#DejaVuSans-31"/>
      </g>
     </g>
    </g>
    <g id="text_3">
     <!-- Reaction time (s) -->
     <g transform="translate(46.1175 131.18125)scale(0.08 -0.08)">
      <defs>
       <path id="DejaVuSans-52" d="M 2841 2188 
Q 3044 2119 3236 1894 
Q 3428 1669 3622 1275 
L 4263 0 
L 3584 0 
L 2988 1197 
Q 2756 1666 2539 1819 
Q 2322 1972 1947 1972 
L 1259 1972 
L 1259 0 
L 628 0 
L 628 4666 
L 2053 4666 
Q 2853 4666 3247 4331 
Q 3641 3997 3641 3322 
Q 3641 2881 3436 2590 
Q 3231 2300 2841 2188 
z
M 1259 4147 
L 1259 2491 
L 2053 2491 
Q 2509 2491 2742 2702 
Q 2975 2913 2975 3322 
Q 2975 3731 2742 3939 
Q 2509 4147 2053 4147 
L 1259 4147 
z
" transform="scale(0.015625)"/>
       <path id="DejaVuSans-65" d="M 3597 1894 
L 3597 1613 
L 953 1613 
Q 991 1019 1311 708 
Q 1631 397 2203 397 
Q 2534 397 2845 478 
Q 3156 559 3463 722 
L 3463 178 
Q 3153 47 2828 -22 
Q 2503 -91 2169 -91 
Q 1331 -91 842 396 
Q 353 884 353 1716 
Q 353 2575 817 3079 
Q 1281 3584 2069 3584 
Q 2775 3584 3186 3129 
Q 3597 2675 3597 1894 
z
M 3022 2063 
Q 3016 2534 2758 2815 
Q 2500 3097 2075 3097 
Q 1594 3097 1305 2825 
Q 1016 2553 972 2059 
L 3022 2063 
z
" transform="scale(0.015625)"/>
       <path id="DejaVuSans-61" d="M 2194 1759 
Q 1497 1759 1228 1600 
Q 959 1441 959 1056 
Q 959 750 1161 570 
Q 1363 391 1709 391 
Q 2188 391 2477 730 
Q 2766 1069 2766 1631 
L 2766 1759 
L 2194 1759 
z
M 3341 1997 
L 3341 0 
L 2766 0 
L 2766 531 
Q 2569 213 2275 61 
Q 1981 -91 1556 -91 
Q 1019 -91 701 211 
Q 384 513 384 1019 
Q 384 1609 779 1909 
Q 1175 2209 1959 2209 
L 2766 2209 
L 2766 2266 
Q 2766 2663 2505 2880 
Q 2244 3097 1772 3097 
Q 1472 3097 1187 3025 
Q 903 2953 641 2809 
L 641 3341 
Q 956 3463 1253 3523 
Q 1550 3584 1831 3584 
Q 2591 3584 2966 3190 
Q 3341 2797 3341 1997 
z
" transform="scale(0.015625)"/>
       <path id="DejaVuSans-63" d="M 3122 3366 
L 3122 2828 
Q 2878 2963 2633 3030 
Q 2388 3097 2138 3097 
Q 1578 3097 1268 2742 
Q 959 2388 959 1747 
Q 959 1106 1268 751 
Q 1578 397 2138 397 
Q 2388 397 2633 464 
Q 2878 531 3122 666 
L 3122 134 
Q 2881 22 2623 -34 
Q 2366 -91 2075 -91 
Q 1284 -91 818 406 
Q 353 903 353 1747 
Q 353 2603 823 3093 
Q 1294 3584 2113 3584 
Q 2378 3584 2631 3529 
Q 2884 3475 3122 3366 
z
" transform="scale(0.015625)"/>
       <path id="DejaVuSans-74" d="M 1172 4494 
L 1172 3500 
L 2356 3500 
L 2356 3053 
L 1172 3053 
L 1172 1153 
Q 1172 725 1289 603 
Q 1406 481 1766 481 
L 2356 481 
L 2356 0 
L 1766 0 
Q 1100 0 847 248 
Q 594 497 594 1153 
L 594 3053 
L 172 3053 
L 172 3500 
L 594 3500 
L 594 4494 
L 1172 4494 
z
" transform="scale(0.015625)"/>
       <path id="DejaVuSans-69" d="M 603 3500 
L 1178 3500 
L 1178 0 
L 603 0 
L 603 3500 
z
M 603 4863 
L 1178 4863 
L 1178 4134 
L 603 4134 
L 603 4863 
z
" transform="scale(0.015625)"/>
       <path id="DejaVuSans-6f" d="M 1959 3097 
Q 1497 3097 1228 2736 
Q 959 2375 959 1747 
Q 959 1119 1226 758 
Q 1494 397 1959 397 
Q 2419 397 2687 759 
Q 2956 1122 2956 1747 
Q 2956 2369 2687 2733 
Q 2419 3097 1959 3097 
z
M 1959 3584 
Q 2709 3584 3137 3096 
Q 3566 2609 3566 1747 
Q 3566 888 3137 398 
Q 2709 -91 1959 -91 
Q 1206 -91 779 398 
Q 353 888 353 1747 
Q 353 2609 779 3096 
Q 1206 3584 1959 3584 
z
" transform="scale(0.015625)"/>
       <path id="DejaVuSans-6e" d="M 3513 2113 
L 3513 0 
L 2938 0 
L 2938 2094 
Q 2938 2591 2744 2837 
Q 2550 3084 2163 3084 
Q 1697 3084 1428 2787 
Q 1159 2491 1159 1978 
L 1159 0 
L 581 0 
L 581 3500 
L 1159 3500 
L 1159 2956 
Q 1366 3272 1645 3428 
Q 1925 3584 2291 3584 
Q 2894 3584 3203 3211 
Q 3513 2838 3513 2113 
z
" transform="scale(0.015625)"/>
       <path id="DejaVuSans-20" transform="scale(0.015625)"/>
       <path id="DejaVuSans-6d" d="M 3328 2828 
Q 3544 3216 3844 3400 
Q 4144 3584 4550 3584 
Q 5097 3584 5394 3201 
Q 5691 2819 5691 2113 
L 5691 0 
L 5113 0 
L 5113 2094 
Q 5113 2597 4934 2840 
Q 4756 3084 4391 3084 
Q 3944 3084 3684 2787 
Q 3425 2491 3425 1978 
L 3425 0 
L 2847 0 
L 2847 2094 
Q 2847 2600 2669 2842 
Q 2491 3084 2119 3084 
Q 1678 3084 1418 2786 
Q 1159 2488 1159 1978 
L 1159 0 
L 581 0 
L 581 3500 
L 1159 3500 
L 1159 2956 
Q 1356 3278 1631 3431 
Q 1906 3584 2284 3584 
Q 2666 3584 2933 3390 
Q 3200 3197 3328 2828 
z
" transform="scale(0.015625)"/>
       <path id="DejaVuSans-28" d="M 1984 4856 
Q 1566 4138 1362 3434 
Q 1159 2731 1159 2009 
Q 1159 1288 1364 580 
Q 1569 -128 1984 -844 
L 1484 -844 
Q 1016 -109 783 600 
Q 550 1309 550 2009 
Q 550 2706 781 3412 
Q 1013 4119 1484 4856 
L 1984 4856 
z
" transform="scale(0.015625)"/>
       <path id="DejaVuSans-73" d="M 2834 3397 
L 2834 2853 
Q 2591 2978 2328 3040 
Q 2066 3103 1784 3103 
Q 1356 3103 1142 2972 
Q 928 2841 928 2578 
Q 928 2378 1081 2264 
Q 1234 2150 1697 2047 
L 1894 2003 
Q 2506 1872 2764 1633 
Q 3022 1394 3022 966 
Q 3022 478 2636 193 
Q 2250 -91 1575 -91 
Q 1294 -91 989 -36 
Q 684 19 347 128 
L 347 722 
Q 666 556 975 473 
Q 1284 391 1588 391 
Q 1994 391 2212 530 
Q 2431 669 2431 922 
Q 2431 1156 2273 1281 
Q 2116 1406 1581 1522 
L 1381 1569 
Q 847 1681 609 1914 
Q 372 2147 372 2553 
Q 372 3047 722 3315 
Q 1072 3584 1716 3584 
Q 2034 3584 2315 3537 
Q 2597 3491 2834 3397 
z
" transform="scale(0.015625)"/>
       <path id="DejaVuSans-29" d="M 513 4856 
L 1013 4856 
Q 1481 4119 1714 3412 
Q 1947 2706 1947 2009 
Q 1947 1309 1714 600 
Q 1481 -109 1013 -844 
L 513 -844 
Q 928 -128 1133 580 
Q 1338 1288 1338 2009 
Q 1338 2731 1133 3434 
Q 928 4138 513 4856 
z
" transform="scale(0.015625)"/>
      </defs>
      <use xlink:href="#DejaVuSans-52"/>
      <use xlink:href="#DejaVuSans-65" x="64.982422"/>
      <use xlink:href="#DejaVuSans-61" x="126.505859"/>
      <use xlink:href="#DejaVuSans-63" x="187.785156"/>
      <use xlink:href="#DejaVuSans-74" x="242.765625"/>
      <use xlink:href="#DejaVuSans-69" x="281.974609"/>
      <use xlink:href="#DejaVuSans-6f" x="309.757812"/>
      <use xlink:href="#DejaVuSans-6e" x="370.939453"/>
      <use xlink:href="#DejaVuSans-20" x="434.318359"/>
      <use xlink:href="#DejaVuSans-74" x="466.105469"/>
      <use xlink:href="#DejaVuSans-69" x="505.314453"/>
      <use xlink:href="#DejaVuSans-6d" x="533.097656"/>
      <use xlink:href="#DejaVuSans-65" x="630.509766"/>
      <use xlink:href="#DejaVuSans-20" x="692.033203"/>
      <use xlink:href="#DejaVuSans-28" x="723.820312"/>
      <use xlink:href="#DejaVuSans-73" x="762.833984"/>
      <use xlink:href="#DejaVuSans-29" x="814.933594"/>
     </g>
    </g>
   </g>
   <g id="matplotlib.axis_2">
    <g id="ytick_1">
     <g id="line2d_3">
      <defs>
       <path id="m0072780d1e" d="M 0 0 
L -3.5 0 
" style="stroke: #000000; stroke-width: 0.8"/>
      </defs>
      <g>
       <use xlink:href="#m0072780d1e" x="41.39" y="102.554545" style="stroke: #000000; stroke-width: 0.8"/>
      </g>
     </g>
     <g id="text_4">
      <!-- 0.00 -->
      <g transform="translate(16.5775 105.59392)scale(0.08 -0.08)">
       <defs>
        <path id="DejaVuSans-2e" d="M 684 794 
L 1344 794 
L 1344 0 
L 684 0 
L 684 794 
z
" transform="scale(0.015625)"/>
       </defs>
       <use xlink:href="#DejaVuSans-30"/>
       <use xlink:href="#DejaVuSans-2e" x="63.623047"/>
       <use xlink:href="#DejaVuSans-30" x="95.410156"/>
       <use xlink:href="#DejaVuSans-30" x="159.033203"/>
      </g>
     </g>
    </g>
    <g id="ytick_2">
     <g id="line2d_4">
      <g>
       <use xlink:href="#m0072780d1e" x="41.39" y="81.788081" style="stroke: #000000; stroke-width: 0.8"/>
      </g>
     </g>
     <g id="text_5">
      <!-- 0.25 -->
      <g transform="translate(16.5775 84.827456)scale(0.08 -0.08)">
       <defs>
        <path id="DejaVuSans-32" d="M 1228 531 
L 3431 531 
L 3431 0 
L 469 0 
L 469 531 
Q 828 903 1448 1529 
Q 2069 2156 2228 2338 
Q 2531 2678 2651 2914 
Q 2772 3150 2772 3378 
Q 2772 3750 2511 3984 
Q 2250 4219 1831 4219 
Q 1534 4219 1204 4116 
Q 875 4013 500 3803 
L 500 4441 
Q 881 4594 1212 4672 
Q 1544 4750 1819 4750 
Q 2544 4750 2975 4387 
Q 3406 4025 3406 3419 
Q 3406 3131 3298 2873 
Q 3191 2616 2906 2266 
Q 2828 2175 2409 1742 
Q 1991 1309 1228 531 
z
" transform="scale(0.015625)"/>
        <path id="DejaVuSans-35" d="M 691 4666 
L 3169 4666 
L 3169 4134 
L 1269 4134 
L 1269 2991 
Q 1406 3038 1543 3061 
Q 1681 3084 1819 3084 
Q 2600 3084 3056 2656 
Q 3513 2228 3513 1497 
Q 3513 744 3044 326 
Q 2575 -91 1722 -91 
Q 1428 -91 1123 -41 
Q 819 9 494 109 
L 494 744 
Q 775 591 1075 516 
Q 1375 441 1709 441 
Q 2250 441 2565 725 
Q 2881 1009 2881 1497 
Q 2881 1984 2565 2268 
Q 2250 2553 1709 2553 
Q 1456 2553 1204 2497 
Q 953 2441 691 2322 
L 691 4666 
z
" transform="scale(0.015625)"/>
       </defs>
       <use xlink:href="#DejaVuSans-30"/>
       <use xlink:href="#DejaVuSans-2e" x="63.623047"/>
       <use xlink:href="#DejaVuSans-32" x="95.410156"/>
       <use xlink:href="#DejaVuSans-35" x="159.033203"/>
      </g>
     </g>
    </g>
    <g id="ytick_3">
     <g id="line2d_5">
      <g>
       <use xlink:href="#m0072780d1e" x="41.39" y="61.021617" style="stroke: #000000; stroke-width: 0.8"/>
      </g>
     </g>
     <g id="text_6">
      <!-- 0.50 -->
      <g transform="translate(16.5775 64.060992)scale(0.08 -0.08)">
       <use xlink:href="#DejaVuSans-30"/>
       <use xlink:href="#DejaVuSans-2e" x="63.623047"/>
       <use xlink:href="#DejaVuSans-35" x="95.410156"/>
       <use xlink:href="#DejaVuSans-30" x="159.033203"/>
      </g>
     </g>
    </g>
    <g id="ytick_4">
     <g id="line2d_6">
      <g>
       <use xlink:href="#m0072780d1e" x="41.39" y="40.255153" style="stroke: #000000; stroke-width: 0.8"/>
      </g>
     </g>
     <g id="text_7">
      <!-- 0.75 -->
      <g transform="translate(16.5775 43.294528)scale(0.08 -0.08)">
       <defs>
        <path id="DejaVuSans-37" d="M 525 4666 
L 3525 4666 
L 3525 4397 
L 1831 0 
L 1172 0 
L 2766 4134 
L 525 4134 
L 525 4666 
z
" transform="scale(0.015625)"/>
       </defs>
       <use xlink:href="#DejaVuSans-30"/>
       <use xlink:href="#DejaVuSans-2e" x="63.623047"/>
       <use xlink:href="#DejaVuSans-37" x="95.410156"/>
       <use xlink:href="#DejaVuSans-35" x="159.033203"/>
      </g>
     </g>
    </g>
    <g id="text_8">
     <!-- Cummulative Probability -->
     <g transform="translate(10.91375 113.640625)rotate(-90)scale(0.08 -0.08)">
      <defs>
       <path id="DejaVuSans-43" d="M 4122 4306 
L 4122 3641 
Q 3803 3938 3442 4084 
Q 3081 4231 2675 4231 
Q 1875 4231 1450 3742 
Q 1025 3253 1025 2328 
Q 1025 1406 1450 917 
Q 1875 428 2675 428 
Q 3081 428 3442 575 
Q 3803 722 4122 1019 
L 4122 359 
Q 3791 134 3420 21 
Q 3050 -91 2638 -91 
Q 1578 -91 968 557 
Q 359 1206 359 2328 
Q 359 3453 968 4101 
Q 1578 4750 2638 4750 
Q 3056 4750 3426 4639 
Q 3797 4528 4122 4306 
z
" transform="scale(0.015625)"/>
       <path id="DejaVuSans-75" d="M 544 1381 
L 544 3500 
L 1119 3500 
L 1119 1403 
Q 1119 906 1312 657 
Q 1506 409 1894 409 
Q 2359 409 2629 706 
Q 2900 1003 2900 1516 
L 2900 3500 
L 3475 3500 
L 3475 0 
L 2900 0 
L 2900 538 
Q 2691 219 2414 64 
Q 2138 -91 1772 -91 
Q 1169 -91 856 284 
Q 544 659 544 1381 
z
M 1991 3584 
L 1991 3584 
z
" transform="scale(0.015625)"/>
       <path id="DejaVuSans-6c" d="M 603 4863 
L 1178 4863 
L 1178 0 
L 603 0 
L 603 4863 
z
" transform="scale(0.015625)"/>
       <path id="DejaVuSans-76" d="M 191 3500 
L 800 3500 
L 1894 563 
L 2988 3500 
L 3597 3500 
L 2284 0 
L 1503 0 
L 191 3500 
z
" transform="scale(0.015625)"/>
       <path id="DejaVuSans-50" d="M 1259 4147 
L 1259 2394 
L 2053 2394 
Q 2494 2394 2734 2622 
Q 2975 2850 2975 3272 
Q 2975 3691 2734 3919 
Q 2494 4147 2053 4147 
L 1259 4147 
z
M 628 4666 
L 2053 4666 
Q 2838 4666 3239 4311 
Q 3641 3956 3641 3272 
Q 3641 2581 3239 2228 
Q 2838 1875 2053 1875 
L 1259 1875 
L 1259 0 
L 628 0 
L 628 4666 
z
" transform="scale(0.015625)"/>
       <path id="DejaVuSans-72" d="M 2631 2963 
Q 2534 3019 2420 3045 
Q 2306 3072 2169 3072 
Q 1681 3072 1420 2755 
Q 1159 2438 1159 1844 
L 1159 0 
L 581 0 
L 581 3500 
L 1159 3500 
L 1159 2956 
Q 1341 3275 1631 3429 
Q 1922 3584 2338 3584 
Q 2397 3584 2469 3576 
Q 2541 3569 2628 3553 
L 2631 2963 
z
" transform="scale(0.015625)"/>
       <path id="DejaVuSans-62" d="M 3116 1747 
Q 3116 2381 2855 2742 
Q 2594 3103 2138 3103 
Q 1681 3103 1420 2742 
Q 1159 2381 1159 1747 
Q 1159 1113 1420 752 
Q 1681 391 2138 391 
Q 2594 391 2855 752 
Q 3116 1113 3116 1747 
z
M 1159 2969 
Q 1341 3281 1617 3432 
Q 1894 3584 2278 3584 
Q 2916 3584 3314 3078 
Q 3713 2572 3713 1747 
Q 3713 922 3314 415 
Q 2916 -91 2278 -91 
Q 1894 -91 1617 61 
Q 1341 213 1159 525 
L 1159 0 
L 581 0 
L 581 4863 
L 1159 4863 
L 1159 2969 
z
" transform="scale(0.015625)"/>
       <path id="DejaVuSans-79" d="M 2059 -325 
Q 1816 -950 1584 -1140 
Q 1353 -1331 966 -1331 
L 506 -1331 
L 506 -850 
L 844 -850 
Q 1081 -850 1212 -737 
Q 1344 -625 1503 -206 
L 1606 56 
L 191 3500 
L 800 3500 
L 1894 763 
L 2988 3500 
L 3597 3500 
L 2059 -325 
z
" transform="scale(0.015625)"/>
      </defs>
      <use xlink:href="#DejaVuSans-43"/>
      <use xlink:href="#DejaVuSans-75" x="69.824219"/>
      <use xlink:href="#DejaVuSans-6d" x="133.203125"/>
      <use xlink:href="#DejaVuSans-6d" x="230.615234"/>
      <use xlink:href="#DejaVuSans-75" x="328.027344"/>
      <use xlink:href="#DejaVuSans-6c" x="391.40625"/>
      <use xlink:href="#DejaVuSans-61" x="419.189453"/>
      <use xlink:href="#DejaVuSans-74" x="480.46875"/>
      <use xlink:href="#DejaVuSans-69" x="519.677734"/>
      <use xlink:href="#DejaVuSans-76" x="547.460938"/>
      <use xlink:href="#DejaVuSans-65" x="606.640625"/>
      <use xlink:href="#DejaVuSans-20" x="668.164062"/>
      <use xlink:href="#DejaVuSans-50" x="699.951172"/>
      <use xlink:href="#DejaVuSans-72" x="758.503906"/>
      <use xlink:href="#DejaVuSans-6f" x="797.367188"/>
      <use xlink:href="#DejaVuSans-62" x="858.548828"/>
      <use xlink:href="#DejaVuSans-61" x="922.025391"/>
      <use xlink:href="#DejaVuSans-62" x="983.304688"/>
      <use xlink:href="#DejaVuSans-69" x="1046.78125"/>
      <use xlink:href="#DejaVuSans-6c" x="1074.564453"/>
      <use xlink:href="#DejaVuSans-69" x="1102.347656"/>
      <use xlink:href="#DejaVuSans-74" x="1130.130859"/>
      <use xlink:href="#DejaVuSans-79" x="1169.339844"/>
     </g>
    </g>
   </g>
   <g id="line2d_7">
    <path d="M 44.925 102.493691 
L 44.975572 102.311129 
L 45.026144 102.311129 
L 45.127289 102.250275 
L 45.228433 101.946004 
L 45.329578 101.946004 
L 45.430722 101.641734 
L 45.531867 101.58088 
L 45.582439 101.459172 
L 45.633011 101.459172 
L 45.8353 101.398317 
L 45.885873 101.276609 
L 45.936445 101.276609 
L 45.987017 101.276609 
L 46.088162 101.094047 
L 46.189306 101.033193 
L 46.290451 100.85063 
L 46.442167 100.789776 
L 46.543312 100.485506 
L 46.695029 100.485506 
L 46.796173 100.242089 
L 46.846745 100.242089 
L 46.94789 99.937819 
L 47.049034 99.937819 
L 47.150179 99.633548 
L 47.453612 99.572694 
L 47.504185 99.390132 
L 47.554757 99.390132 
L 47.757046 99.329278 
L 47.85819 99.20757 
L 47.959335 99.146715 
L 48.009907 98.964153 
L 48.060479 98.964153 
L 48.111052 98.964153 
L 48.212196 98.599028 
L 48.262768 98.599028 
L 48.262768 98.47732 
L 48.363913 98.47732 
L 48.566202 98.416466 
L 48.616774 98.233904 
L 48.667346 98.233904 
L 48.768491 98.17305 
L 48.869635 97.990487 
L 48.97078 97.929633 
L 49.021352 97.686217 
L 49.071924 97.686217 
L 49.274213 97.686217 
L 49.375358 97.4428 
L 49.527074 97.381946 
L 49.628219 97.260238 
L 49.729363 97.199384 
L 49.830508 97.077676 
L 50.083369 97.016822 
L 50.083369 96.834259 
L 50.184514 96.834259 
L 50.33623 96.773405 
L 50.33623 96.651697 
L 50.437375 96.651697 
L 50.892525 96.590843 
L 50.99367 96.347427 
L 51.094814 96.286572 
L 51.195959 96.043156 
L 51.246531 96.043156 
L 51.297103 95.860594 
L 51.347675 95.860594 
L 51.549964 95.79974 
L 51.549964 95.738885 
L 51.651109 95.738885 
L 52.005114 95.678031 
L 52.005114 95.617177 
L 52.106259 95.617177 
L 52.611981 95.556323 
L 52.713126 95.373761 
L 52.864843 95.373761 
L 52.864843 95.252053 
L 52.965987 95.252053 
L 53.47171 95.191198 
L 53.47171 95.130344 
L 53.572854 95.130344 
L 53.724571 95.06949 
L 53.724571 95.008636 
L 53.825715 95.008636 
L 54.078577 94.947782 
L 54.129149 94.826074 
L 54.179721 94.826074 
L 54.331438 94.76522 
L 54.38201 94.582657 
L 54.432582 94.582657 
L 54.533727 94.521803 
L 54.533727 94.460949 
L 54.634871 94.460949 
L 54.83716 94.400095 
L 54.938305 94.278387 
L 55.191166 94.217533 
L 55.29231 93.974116 
L 55.494599 93.974116 
L 55.494599 93.852408 
L 55.595744 93.852408 
L 55.696888 93.852408 
L 55.798033 93.608992 
L 55.94975 93.608992 
L 55.94975 93.487283 
L 56.050894 93.487283 
L 56.152039 93.426429 
L 56.253183 93.122159 
L 56.4049 93.061305 
L 56.506044 92.574472 
L 56.657761 92.574472 
L 56.657761 92.452764 
L 56.758906 92.452764 
L 57.011767 92.39191 
L 57.112911 92.087639 
L 57.163484 92.087639 
L 57.163484 91.905077 
L 57.264628 91.905077 
L 57.3152 91.905077 
L 57.365773 91.66166 
L 57.416345 91.66166 
L 57.517489 91.66166 
L 57.618634 91.296536 
L 57.770351 91.235682 
L 57.871495 90.931411 
L 57.972639 90.931411 
L 58.073784 90.687995 
L 58.124356 90.687995 
L 58.225501 90.505432 
L 58.630079 90.444578 
L 58.731223 90.201162 
L 58.781795 90.201162 
L 58.832368 89.957745 
L 58.88294 89.957745 
L 59.085229 89.896891 
L 59.186373 89.775183 
L 59.236946 89.775183 
L 59.287518 89.531767 
L 59.33809 89.531767 
L 59.439235 89.531767 
L 59.540379 89.227496 
L 59.742668 89.227496 
L 59.843813 88.862371 
L 59.894385 88.862371 
L 59.995529 88.497247 
L 60.096674 88.436393 
L 60.197818 88.25383 
L 60.248391 88.25383 
L 60.349535 88.071268 
L 60.45068 88.010414 
L 60.45068 87.94956 
L 60.551824 87.94956 
L 60.652969 87.888706 
L 60.754113 87.766997 
L 61.006974 87.766997 
L 61.006974 87.645289 
L 61.108119 87.645289 
L 61.209263 87.584435 
L 61.259835 87.401873 
L 61.310408 87.401873 
L 61.36098 87.401873 
L 61.36098 87.280165 
L 61.462124 87.280165 
L 61.512697 87.280165 
L 61.613841 86.854186 
L 61.765558 86.793332 
L 61.866702 86.671623 
L 61.917275 86.671623 
L 62.018419 86.367353 
L 62.068991 86.367353 
L 62.119564 86.063082 
L 62.170136 86.063082 
L 62.321853 86.063082 
L 62.372425 85.88052 
L 62.422997 85.88052 
L 62.574714 85.819666 
L 62.625286 85.637104 
L 62.675858 85.637104 
L 63.029864 85.57625 
L 63.131009 85.332833 
L 63.181581 85.332833 
L 63.282725 85.150271 
L 63.333298 85.150271 
L 63.434442 84.846 
L 63.586159 84.785146 
L 63.687303 84.602584 
L 63.83902 84.54173 
L 63.940165 84.237459 
L 64.193026 84.176605 
L 64.29417 83.933189 
L 64.395315 83.933189 
L 64.496459 83.628918 
L 64.648176 83.628918 
L 64.648176 83.50721 
L 64.74932 83.50721 
L 64.799893 83.50721 
L 64.901037 83.202939 
L 65.002182 83.142085 
L 65.002182 83.081231 
L 65.103326 83.081231 
L 65.40676 83.020377 
L 65.457332 82.898669 
L 65.507904 82.898669 
L 65.609049 82.837815 
L 65.710193 82.716106 
L 65.811338 82.655252 
L 65.912482 82.47269 
L 66.013627 82.411836 
L 66.064199 82.16842 
L 66.114771 82.16842 
L 66.266488 82.107565 
L 66.367632 81.985857 
L 66.519349 81.925003 
L 66.620494 81.803295 
L 66.721638 81.742441 
L 66.822783 81.559878 
L 66.873355 81.559878 
L 66.873355 81.377316 
L 66.974499 81.377316 
L 67.227361 81.316462 
L 67.328505 81.012191 
L 67.480222 80.951337 
L 67.581366 80.586213 
L 67.834227 80.525359 
L 67.935372 80.40365 
L 68.087089 80.342796 
L 68.137661 80.221088 
L 68.188233 80.221088 
L 68.289378 80.221088 
L 68.390522 79.855963 
L 68.491667 79.795109 
L 68.592811 79.551693 
L 68.896245 79.490839 
L 68.997389 79.369131 
L 69.149106 79.308276 
L 69.149106 79.247422 
L 69.25025 79.247422 
L 69.351395 79.186568 
L 69.401967 79.004006 
L 69.452539 79.004006 
L 69.654828 78.943152 
L 69.654828 78.821444 
L 69.755973 78.821444 
L 69.90769 78.76059 
L 69.958262 78.517173 
L 70.008834 78.517173 
L 70.413412 78.456319 
L 70.514557 78.334611 
L 70.666273 78.273757 
L 70.666273 78.212903 
L 70.767418 78.212903 
L 70.868562 78.152048 
L 70.969707 77.969486 
L 71.070851 77.908632 
L 71.171996 77.72607 
L 71.323712 77.665216 
L 71.374285 77.421799 
L 71.424857 77.421799 
L 71.576574 77.360945 
L 71.677718 77.117529 
L 71.72829 77.117529 
L 71.778863 76.934966 
L 71.829435 76.934966 
L 71.981152 76.874112 
L 72.082296 76.448133 
L 72.436302 76.387279 
L 72.436302 76.326425 
L 72.537446 76.326425 
L 72.689163 76.265571 
L 72.790308 76.022155 
L 72.84088 76.022155 
L 72.84088 75.900446 
L 72.942024 75.900446 
L 73.194886 75.839592 
L 73.29603 75.717884 
L 73.700608 75.65703 
L 73.801753 75.35276 
L 73.902897 75.35276 
L 74.004041 75.048489 
L 74.256903 74.987635 
L 74.307475 74.865927 
L 74.358047 74.865927 
L 75.015486 74.805073 
L 75.015486 74.683364 
L 75.116631 74.683364 
L 75.470637 74.62251 
L 75.470637 74.500802 
L 75.571781 74.500802 
L 75.77407 74.439948 
L 75.824642 74.31824 
L 75.875215 74.31824 
L 75.925787 74.31824 
L 75.925787 74.196531 
L 76.026931 74.196531 
L 76.077504 74.196531 
L 76.178648 74.013969 
L 76.583226 73.953115 
L 76.684371 73.770553 
L 76.836087 73.709699 
L 76.937232 73.466282 
L 77.088948 73.405428 
L 77.088948 73.344574 
L 77.190093 73.344574 
L 77.392382 73.344574 
L 77.392382 73.222866 
L 77.493526 73.222866 
L 77.847532 73.162012 
L 77.847532 73.101158 
L 77.948677 73.101158 
L 78.100393 73.040303 
L 78.100393 72.979449 
L 78.201538 72.979449 
L 78.353255 72.918595 
L 78.403827 72.736033 
L 78.454399 72.736033 
L 78.656688 72.675179 
L 78.656688 72.553471 
L 78.757833 72.553471 
L 79.010694 72.492616 
L 79.111838 72.310054 
L 79.212983 72.310054 
L 79.263555 72.127492 
L 79.314127 72.127492 
L 79.3647 72.127492 
L 79.415272 71.884075 
L 79.465844 71.884075 
L 79.870422 71.823221 
L 79.870422 71.579805 
L 79.971567 71.579805 
L 80.578433 71.518951 
L 80.578433 71.397243 
L 80.679578 71.397243 
L 80.881867 71.336388 
L 80.881867 71.275534 
L 80.983011 71.275534 
L 81.337017 71.21468 
L 81.438162 70.971264 
L 81.488734 70.971264 
L 81.589878 70.788701 
L 81.640451 70.788701 
L 81.640451 70.545285 
L 81.741595 70.545285 
L 81.994456 70.484431 
L 81.994456 70.423577 
L 82.095601 70.423577 
L 82.854185 70.362723 
L 82.955329 70.18016 
L 83.005901 70.18016 
L 83.107046 69.87589 
L 83.157618 69.87589 
L 83.20819 69.693328 
L 83.258763 69.693328 
L 83.309335 69.693328 
L 83.359907 69.510765 
L 83.410479 69.510765 
L 83.511624 69.510765 
L 83.562196 69.328203 
L 83.612768 69.328203 
L 83.815057 69.328203 
L 83.815057 69.084786 
L 83.916202 69.084786 
L 83.966774 69.084786 
L 84.067918 68.84137 
L 84.169063 68.780516 
L 84.219635 68.5371 
L 84.270207 68.5371 
L 84.32078 68.5371 
L 84.32078 68.293683 
L 84.421924 68.293683 
L 84.573641 68.232829 
L 84.624213 68.111121 
L 84.674785 68.111121 
L 84.725358 68.111121 
L 84.826502 67.80685 
L 84.978219 67.745996 
L 85.028791 67.624288 
L 85.079363 67.624288 
L 85.281652 67.563434 
L 85.382797 67.380871 
L 85.68623 67.380871 
L 85.736803 67.137455 
L 85.787375 67.137455 
L 85.989664 67.076601 
L 85.989664 67.015747 
L 86.090808 67.015747 
L 86.191953 66.954893 
L 86.242525 66.650622 
L 86.293097 66.650622 
L 86.647103 66.589768 
L 86.748247 66.407206 
L 86.899964 66.346352 
L 86.950536 66.224643 
L 87.001109 66.224643 
L 87.25397 66.163789 
L 87.25397 66.102935 
L 87.355114 66.102935 
L 87.456259 66.102935 
L 87.506831 65.859519 
L 87.557403 65.859519 
L 87.658548 65.859519 
L 87.759692 65.616102 
L 87.860837 65.555248 
L 87.911409 65.372686 
L 87.961981 65.372686 
L 88.012554 65.372686 
L 88.113698 65.12927 
L 88.214843 65.12927 
L 88.315987 64.946707 
L 88.467704 64.946707 
L 88.518276 64.764145 
L 88.568848 64.764145 
L 88.619421 64.764145 
L 88.720565 64.520728 
L 88.872282 64.459874 
L 88.922854 64.338166 
L 88.973426 64.338166 
L 89.175715 64.277312 
L 89.175715 64.216458 
L 89.27686 64.216458 
L 89.428577 64.155604 
L 89.479149 63.912187 
L 89.529721 63.912187 
L 89.782582 63.851333 
L 89.782582 63.729625 
L 89.883727 63.729625 
L 89.934299 63.729625 
L 89.934299 63.607917 
L 90.035443 63.607917 
L 90.086016 63.607917 
L 90.136588 63.3645 
L 90.18716 63.3645 
L 90.389449 63.303646 
L 90.490594 63.121084 
L 90.844599 63.121084 
L 90.945744 62.755959 
L 90.996316 62.755959 
L 91.097461 62.512543 
L 91.29975 62.451689 
L 91.29975 62.329981 
L 91.400894 62.329981 
L 91.552611 62.329981 
L 91.552611 62.208272 
L 91.653755 62.208272 
L 91.957189 62.147418 
L 92.007761 61.964856 
L 92.058333 61.964856 
L 92.108906 61.964856 
L 92.159478 61.721439 
L 92.21005 61.721439 
L 92.462911 61.660585 
L 92.564056 61.295461 
L 92.715773 61.234607 
L 92.715773 61.173753 
L 92.816917 61.173753 
L 92.968634 61.112898 
L 93.069778 60.930336 
L 93.170923 60.869482 
L 93.272067 60.747774 
L 93.474356 60.68692 
L 93.575501 60.443503 
L 93.676645 60.382649 
L 93.676645 60.260941 
L 93.77779 60.260941 
L 94.030651 60.200087 
L 94.131795 60.078379 
L 94.182368 60.078379 
L 94.23294 59.895816 
L 94.283512 59.895816 
L 94.485801 59.834962 
L 94.586946 59.6524 
L 94.68809 59.591546 
L 94.789235 59.348129 
L 94.940951 59.287275 
L 95.042096 59.104713 
L 95.193813 59.043859 
L 95.193813 58.983005 
L 95.294957 58.983005 
L 95.446674 58.983005 
L 95.547818 58.800442 
L 95.648963 58.739588 
L 95.699535 58.557026 
L 95.750107 58.557026 
L 95.851252 58.496172 
L 95.952396 58.313609 
L 96.053541 58.252755 
L 96.104113 58.070193 
L 96.154685 58.070193 
L 96.25583 58.070193 
L 96.356974 57.887631 
L 96.407546 57.887631 
L 96.508691 57.644214 
L 96.609835 57.644214 
L 96.71098 57.400798 
L 96.862697 57.400798 
L 96.963841 57.035673 
L 97.064986 56.974819 
L 97.064986 56.913965 
L 97.16613 56.913965 
L 97.368419 56.853111 
L 97.418991 56.609694 
L 97.469564 56.609694 
L 97.62128 56.54884 
L 97.722425 56.427132 
L 97.874142 56.366278 
L 97.874142 56.24457 
L 97.975286 56.24457 
L 98.329292 56.183716 
L 98.329292 56.062008 
L 98.430436 56.062008 
L 98.73387 56.001153 
L 98.835014 55.818591 
L 99.138448 55.757737 
L 99.239592 55.514321 
L 99.543026 55.453466 
L 99.543026 55.331758 
L 99.64417 55.331758 
L 100.09932 55.270904 
L 100.09932 55.21005 
L 100.200465 55.21005 
L 100.554471 55.149196 
L 100.655615 54.905779 
L 100.959049 54.844925 
L 101.009621 54.662363 
L 101.060193 54.662363 
L 101.262482 54.601509 
L 101.363627 54.297238 
L 101.66706 54.236384 
L 101.768205 54.053822 
L 101.970494 54.053822 
L 102.021066 53.87126 
L 102.071638 53.87126 
L 102.577361 53.810406 
L 102.577361 53.749551 
L 102.678505 53.749551 
L 102.981938 53.688697 
L 102.981938 53.566989 
L 103.083083 53.566989 
L 103.68995 53.506135 
L 103.791094 53.323573 
L 104.094528 53.262719 
L 104.094528 53.14101 
L 104.195672 53.14101 
L 104.397961 53.080156 
L 104.499106 52.958448 
L 104.903684 52.897594 
L 104.954256 52.654178 
L 105.004828 52.654178 
L 105.409406 52.593323 
L 105.459979 52.410761 
L 105.510551 52.410761 
L 106.016273 52.349907 
L 106.016273 52.228199 
L 106.117418 52.228199 
L 106.62314 52.228199 
L 106.673712 52.045636 
L 106.724285 52.045636 
L 106.926574 51.984782 
L 106.977146 51.863074 
L 107.027718 51.863074 
L 107.230007 51.80222 
L 107.230007 51.741366 
L 107.331152 51.741366 
L 107.836874 51.680512 
L 107.938019 51.558804 
L 108.443741 51.497949 
L 108.544886 51.315387 
L 108.696602 51.254533 
L 108.747175 51.132825 
L 108.797747 51.132825 
L 108.898891 51.071971 
L 109.000036 50.889408 
L 109.10118 50.889408 
L 109.151753 50.706846 
L 109.202325 50.706846 
L 109.404614 50.645992 
L 109.505758 50.402576 
L 109.657475 50.341721 
L 109.758619 50.159159 
L 109.960908 50.098305 
L 109.960908 50.037451 
L 110.062053 50.037451 
L 110.21377 49.976597 
L 110.314914 49.73318 
L 110.416059 49.672326 
L 110.466631 49.489764 
L 110.517203 49.489764 
L 110.820637 49.42891 
L 110.820637 49.368056 
L 110.921781 49.368056 
L 111.073498 49.307202 
L 111.174642 49.124639 
L 111.225215 49.124639 
L 111.225215 49.002931 
L 111.326359 49.002931 
L 111.478076 48.942077 
L 111.57922 48.820369 
L 111.730937 48.759515 
L 111.781509 48.637806 
L 111.832082 48.637806 
L 111.983798 48.576952 
L 112.084943 48.455244 
L 112.287232 48.39439 
L 112.388376 48.150974 
L 112.641237 48.090119 
L 112.69181 47.846703 
L 112.742382 47.846703 
L 112.894099 47.785849 
L 112.995243 47.664141 
L 113.045815 47.664141 
L 113.14696 47.481578 
L 113.298677 47.420724 
L 113.399821 47.299016 
L 113.450393 47.299016 
L 113.551538 47.0556 
L 114.05726 46.994746 
L 114.107833 46.812183 
L 114.158405 46.812183 
L 114.259549 46.751329 
L 114.259549 46.690475 
L 114.360694 46.690475 
L 114.411266 46.690475 
L 114.512411 46.447059 
L 114.664127 46.386204 
L 114.765272 46.203642 
L 114.866416 46.142788 
L 114.967561 45.960226 
L 115.119278 45.899372 
L 115.16985 45.777663 
L 115.220422 45.777663 
L 115.321567 45.777663 
L 115.372139 45.473393 
L 115.422711 45.473393 
L 115.625 45.412539 
L 115.625 45.412539 
" clip-path="url(#p4df6f79d07)" style="fill: none; stroke: #d1d1d1; stroke-width: 2; stroke-linecap: square"/>
   </g>
   <g id="line2d_8">
    <path d="M 44.925 102.554545 
L 45.076717 102.554545 
L 45.076717 102.270073 
L 45.177861 102.270073 
L 45.228433 102.270073 
L 45.228433 101.985601 
L 45.329578 101.985601 
L 45.430722 101.985601 
L 45.481295 101.416657 
L 45.531867 101.416657 
L 45.8353 101.416657 
L 45.936445 100.278769 
L 45.987017 100.278769 
L 45.987017 99.994296 
L 46.088162 99.994296 
L 46.138734 99.994296 
L 46.138734 99.709824 
L 46.239878 99.709824 
L 46.290451 99.709824 
L 46.290451 99.425352 
L 46.391595 99.425352 
L 46.796173 99.425352 
L 46.846745 98.856408 
L 46.897318 98.856408 
L 47.251323 98.856408 
L 47.301896 98.002992 
L 47.352468 98.002992 
L 47.757046 98.002992 
L 47.757046 97.71852 
L 47.85819 97.71852 
L 48.060479 97.71852 
L 48.161624 97.149575 
L 48.262768 97.149575 
L 48.262768 96.865103 
L 48.363913 96.865103 
L 48.515629 96.865103 
L 48.566202 96.296159 
L 48.616774 96.296159 
L 48.667346 96.296159 
L 48.667346 96.011687 
L 48.768491 96.011687 
L 48.819063 96.011687 
L 48.819063 95.727215 
L 48.920207 95.727215 
L 48.97078 95.727215 
L 49.071924 95.158271 
L 49.88108 95.158271 
L 49.88108 94.873798 
L 49.982225 94.873798 
L 50.184514 94.873798 
L 50.184514 94.589326 
L 50.285658 94.589326 
L 50.487947 94.589326 
L 50.589092 94.020382 
L 50.690236 94.020382 
L 50.690236 93.73591 
L 50.791381 93.73591 
L 50.943097 93.73591 
L 50.943097 93.451438 
L 51.044242 93.451438 
L 51.398247 93.451438 
L 51.398247 93.166966 
L 51.499392 93.166966 
L 51.600536 93.166966 
L 51.600536 92.882494 
L 51.701681 92.882494 
L 52.055687 92.882494 
L 52.055687 92.598022 
L 52.156831 92.598022 
L 52.763698 92.598022 
L 52.763698 92.313549 
L 52.864843 92.313549 
L 53.016559 92.313549 
L 53.067132 91.744605 
L 53.117704 91.744605 
L 53.724571 91.744605 
L 53.724571 91.460133 
L 53.825715 91.460133 
L 53.92686 91.460133 
L 53.92686 91.175661 
L 54.028004 91.175661 
L 54.331438 91.175661 
L 54.331438 90.891189 
L 54.432582 90.891189 
L 54.736016 90.891189 
L 54.736016 90.606717 
L 54.83716 90.606717 
L 54.887732 90.606717 
L 54.887732 90.322245 
L 54.988877 90.322245 
L 55.039449 90.322245 
L 55.039449 90.037773 
L 55.140594 90.037773 
L 55.342883 90.037773 
L 55.444027 89.468828 
L 55.545172 89.468828 
L 55.646316 88.899884 
L 55.747461 88.899884 
L 55.798033 88.33094 
L 55.848605 88.33094 
L 56.000322 88.33094 
L 56.000322 88.046468 
L 56.101466 88.046468 
L 56.303755 88.046468 
L 56.4049 87.477524 
L 56.708333 87.477524 
L 56.708333 86.908579 
L 56.809478 86.908579 
L 56.86005 86.908579 
L 56.961195 86.055163 
L 57.062339 86.055163 
L 57.112911 85.486219 
L 57.163484 85.486219 
L 57.264628 85.486219 
L 57.264628 85.201747 
L 57.365773 85.201747 
L 57.517489 85.201747 
L 57.517489 84.632802 
L 57.618634 84.632802 
L 57.669206 84.632802 
L 57.770351 83.779386 
L 57.820923 83.779386 
L 57.922067 83.210442 
L 58.174928 83.210442 
L 58.174928 82.92597 
L 58.276073 82.92597 
L 58.326645 82.92597 
L 58.326645 82.641498 
L 58.42779 82.641498 
L 58.478362 82.641498 
L 58.478362 82.072553 
L 58.579506 82.072553 
L 58.832368 82.072553 
L 58.832368 81.788081 
L 58.933512 81.788081 
L 59.236946 81.788081 
L 59.236946 81.503609 
L 59.33809 81.503609 
L 59.388662 81.503609 
L 59.489807 80.650193 
L 59.590951 80.650193 
L 59.590951 80.365721 
L 59.692096 80.365721 
L 59.843813 80.365721 
L 59.944957 79.796777 
L 60.602396 79.796777 
L 60.602396 79.512304 
L 60.703541 79.512304 
L 60.804685 79.512304 
L 60.90583 78.658888 
L 60.956402 78.658888 
L 61.057546 78.089944 
L 61.259835 78.089944 
L 61.36098 77.236528 
L 61.411552 77.236528 
L 61.411552 76.952055 
L 61.512697 76.952055 
L 61.613841 76.952055 
L 61.664413 76.383111 
L 61.714986 76.383111 
L 62.422997 76.383111 
L 62.422997 75.814167 
L 62.524142 75.814167 
L 62.574714 75.814167 
L 62.574714 75.529695 
L 62.675858 75.529695 
L 62.827575 75.529695 
L 62.878147 74.676279 
L 62.92872 74.676279 
L 62.979292 74.676279 
L 63.080436 74.107334 
L 63.788448 74.107334 
L 63.83902 73.253918 
L 63.889592 73.253918 
L 64.041309 73.253918 
L 64.041309 72.969446 
L 64.142454 72.969446 
L 64.243598 72.969446 
L 64.344742 71.831557 
L 64.547031 71.831557 
L 64.648176 71.262613 
L 64.799893 71.262613 
L 64.799893 70.978141 
L 64.901037 70.978141 
L 64.951609 70.978141 
L 65.052754 70.124725 
L 65.507904 70.124725 
L 65.507904 69.840253 
L 65.609049 69.840253 
L 65.963054 69.840253 
L 65.963054 69.555781 
L 66.064199 69.555781 
L 66.114771 69.555781 
L 66.215916 68.986836 
L 66.418205 68.986836 
L 66.519349 68.417892 
L 66.569921 68.417892 
L 66.569921 68.13342 
L 66.671066 68.13342 
L 66.923927 68.13342 
L 67.025072 67.280004 
L 67.227361 67.280004 
L 67.227361 66.995532 
L 67.328505 66.995532 
L 67.480222 66.995532 
L 67.480222 66.711059 
L 67.581366 66.711059 
L 67.8848 66.711059 
L 67.8848 66.426587 
L 67.985944 66.426587 
L 68.542239 66.426587 
L 68.542239 65.857643 
L 68.643383 65.857643 
L 68.7951 65.857643 
L 68.896245 65.288699 
L 69.098534 65.288699 
L 69.199678 64.719755 
L 69.654828 64.719755 
L 69.654828 64.15081 
L 69.755973 64.15081 
L 69.857117 64.15081 
L 69.857117 63.866338 
L 69.958262 63.866338 
L 70.514557 63.866338 
L 70.514557 63.581866 
L 70.615701 63.581866 
L 70.969707 63.581866 
L 70.969707 63.297394 
L 71.070851 63.297394 
L 71.121423 63.297394 
L 71.121423 63.012922 
L 71.222568 63.012922 
L 72.082296 63.012922 
L 72.082296 62.72845 
L 72.183441 62.72845 
L 72.891452 62.72845 
L 72.891452 62.443978 
L 72.992597 62.443978 
L 73.043169 62.443978 
L 73.043169 62.159506 
L 73.144313 62.159506 
L 74.054614 62.159506 
L 74.054614 61.875034 
L 74.155758 61.875034 
L 74.358047 61.875034 
L 74.408619 61.306089 
L 74.459192 61.306089 
L 75.470637 61.306089 
L 75.470637 61.021617 
L 75.571781 61.021617 
L 75.77407 61.021617 
L 75.77407 60.737145 
L 75.875215 60.737145 
L 75.976359 60.737145 
L 75.976359 60.168201 
L 76.077504 60.168201 
L 77.088948 60.168201 
L 77.088948 59.883729 
L 77.190093 59.883729 
L 77.746388 59.883729 
L 77.746388 59.599257 
L 77.847532 59.599257 
L 77.999249 59.599257 
L 77.999249 59.314785 
L 78.100393 59.314785 
L 78.403827 59.314785 
L 78.403827 59.030312 
L 78.504971 59.030312 
L 78.70726 59.030312 
L 78.757833 58.461368 
L 78.808405 58.461368 
L 79.465844 58.461368 
L 79.465844 58.176896 
L 79.566989 58.176896 
L 80.072711 58.176896 
L 80.072711 57.892424 
L 80.173856 57.892424 
L 81.1853 57.892424 
L 81.1853 57.32348 
L 81.286445 57.32348 
L 81.691023 57.32348 
L 81.691023 57.039008 
L 81.792167 57.039008 
L 81.943884 57.039008 
L 81.943884 56.754536 
L 82.045029 56.754536 
L 82.500179 56.754536 
L 82.500179 56.470063 
L 82.601323 56.470063 
L 82.651896 56.470063 
L 82.651896 55.901119 
L 82.75304 55.901119 
L 83.056474 55.901119 
L 83.056474 55.616647 
L 83.157618 55.616647 
L 83.865629 55.616647 
L 83.865629 55.332175 
L 83.966774 55.332175 
L 84.32078 55.332175 
L 84.421924 54.763231 
L 84.725358 54.763231 
L 84.725358 54.478759 
L 84.826502 54.478759 
L 85.635658 54.478759 
L 85.635658 54.194287 
L 85.736803 54.194287 
L 85.939092 54.194287 
L 85.989664 53.625342 
L 86.040236 53.625342 
L 86.950536 53.625342 
L 86.950536 53.34087 
L 87.051681 53.34087 
L 87.152825 53.34087 
L 87.152825 53.056398 
L 87.25397 53.056398 
L 89.934299 53.056398 
L 89.934299 52.771926 
L 90.035443 52.771926 
L 90.844599 52.771926 
L 90.844599 52.487454 
L 90.945744 52.487454 
L 91.046888 52.487454 
L 91.046888 52.202982 
L 91.148033 52.202982 
L 91.350322 52.202982 
L 91.350322 51.91851 
L 91.451466 51.91851 
L 91.552611 51.91851 
L 91.552611 51.634038 
L 91.653755 51.634038 
L 91.7549 51.634038 
L 91.856044 51.065093 
L 92.766345 51.065093 
L 92.766345 50.780621 
L 92.867489 50.780621 
L 94.23294 50.780621 
L 94.23294 50.496149 
L 94.334084 50.496149 
L 94.890379 50.496149 
L 94.890379 50.211677 
L 94.991524 50.211677 
L 95.294957 50.211677 
L 95.345529 49.642733 
L 95.396102 49.642733 
L 95.547818 49.642733 
L 95.547818 49.358261 
L 95.648963 49.358261 
L 96.053541 49.358261 
L 96.053541 48.789316 
L 96.154685 48.789316 
L 96.913269 48.789316 
L 96.913269 48.504844 
L 97.014413 48.504844 
L 97.722425 48.504844 
L 97.722425 48.220372 
L 97.823569 48.220372 
L 98.835014 48.220372 
L 98.835014 47.9359 
L 98.936159 47.9359 
L 100.75676 47.9359 
L 100.75676 47.651428 
L 100.857904 47.651428 
L 105.611695 47.651428 
L 105.611695 47.366956 
L 105.71284 47.366956 
L 106.471423 47.366956 
L 106.471423 47.082484 
L 106.572568 47.082484 
L 107.07829 47.082484 
L 107.07829 46.798012 
L 107.179435 46.798012 
L 107.331152 46.798012 
L 107.331152 46.51354 
L 107.432296 46.51354 
L 107.584013 46.51354 
L 107.584013 46.229067 
L 107.685157 46.229067 
L 108.342597 46.229067 
L 108.342597 45.944595 
L 108.443741 45.944595 
L 109.10118 45.944595 
L 109.10118 45.660123 
L 109.202325 45.660123 
L 110.011481 45.660123 
L 110.011481 45.375651 
L 110.112625 45.375651 
L 111.730937 45.375651 
L 111.730937 45.091179 
L 111.832082 45.091179 
L 111.983798 45.091179 
L 111.983798 44.806707 
L 112.084943 44.806707 
L 112.894099 44.806707 
L 112.944671 44.237763 
L 112.995243 44.237763 
L 113.14696 44.237763 
L 113.14696 43.953291 
L 113.248104 43.953291 
L 113.804399 43.953291 
L 113.804399 43.668818 
L 113.905544 43.668818 
L 114.461838 43.668818 
L 114.461838 43.384346 
L 114.562983 43.384346 
L 115.16985 43.384346 
L 115.220422 42.815402 
L 115.270994 42.815402 
L 115.625 42.815402 
L 115.625 42.815402 
" clip-path="url(#p4df6f79d07)" style="fill: none; stroke: #dda8a8; stroke-width: 2; stroke-linecap: square"/>
   </g>
   <g id="line2d_9">
    <path d="M 44.925 102.554545 
L 45.026144 101.919485 
L 45.076717 101.919485 
L 45.076717 101.665461 
L 45.177861 101.665461 
L 45.228433 101.665461 
L 45.228433 101.411437 
L 45.329578 101.411437 
L 45.38015 101.411437 
L 45.481295 100.776377 
L 45.531867 100.776377 
L 45.633011 100.395341 
L 45.683584 100.395341 
L 45.784728 100.141317 
L 45.8353 100.141317 
L 45.885873 99.887293 
L 45.936445 99.887293 
L 46.088162 99.887293 
L 46.189306 99.633269 
L 46.290451 99.633269 
L 46.391595 99.379245 
L 46.593884 99.379245 
L 46.593884 99.125221 
L 46.695029 99.125221 
L 46.745601 99.125221 
L 46.846745 98.744185 
L 47.049034 98.744185 
L 47.099607 98.490161 
L 47.150179 98.490161 
L 47.301896 98.490161 
L 47.352468 98.236137 
L 47.40304 98.236137 
L 47.504185 98.236137 
L 47.504185 98.109125 
L 47.605329 98.109125 
L 47.757046 98.109125 
L 47.757046 97.855101 
L 47.85819 97.855101 
L 47.908763 97.855101 
L 48.009907 97.601077 
L 48.111052 97.601077 
L 48.212196 97.220041 
L 48.31334 97.220041 
L 48.31334 97.093029 
L 48.414485 97.093029 
L 48.515629 97.093029 
L 48.515629 96.966017 
L 48.616774 96.966017 
L 48.667346 96.966017 
L 48.717918 96.711993 
L 48.768491 96.711993 
L 48.819063 96.711993 
L 48.869635 96.457969 
L 48.920207 96.457969 
L 48.97078 96.457969 
L 48.97078 96.330957 
L 49.071924 96.330957 
L 49.122496 96.330957 
L 49.223641 96.076933 
L 49.42593 96.076933 
L 49.42593 95.695897 
L 49.527074 95.695897 
L 49.577647 95.695897 
L 49.577647 95.568885 
L 49.678791 95.568885 
L 49.729363 95.568885 
L 49.729363 95.441873 
L 49.830508 95.441873 
L 49.982225 95.441873 
L 50.032797 95.187849 
L 50.083369 95.187849 
L 50.437375 95.187849 
L 50.437375 94.806813 
L 50.538519 94.806813 
L 50.589092 94.806813 
L 50.589092 94.679801 
L 50.690236 94.679801 
L 50.892525 94.679801 
L 50.943097 94.425777 
L 50.99367 94.425777 
L 51.044242 94.425777 
L 51.044242 94.298765 
L 51.145386 94.298765 
L 51.398247 94.298765 
L 51.398247 94.171753 
L 51.499392 94.171753 
L 51.651109 94.171753 
L 51.651109 93.790717 
L 51.752253 93.790717 
L 51.802825 93.790717 
L 51.802825 93.663705 
L 51.90397 93.663705 
L 52.055687 93.663705 
L 52.106259 93.409681 
L 52.156831 93.409681 
L 52.207403 93.409681 
L 52.257976 93.155657 
L 52.308548 93.155657 
L 52.965987 93.155657 
L 52.965987 93.028644 
L 53.067132 93.028644 
L 53.319993 93.028644 
L 53.319993 92.901632 
L 53.421137 92.901632 
L 53.623426 92.901632 
L 53.724571 92.520596 
L 53.876288 92.520596 
L 53.876288 92.393584 
L 53.977432 92.393584 
L 54.179721 92.393584 
L 54.179721 92.266572 
L 54.280866 92.266572 
L 54.533727 92.266572 
L 54.533727 92.13956 
L 54.634871 92.13956 
L 54.685443 92.13956 
L 54.736016 91.631512 
L 54.786588 91.631512 
L 54.83716 91.631512 
L 54.938305 91.377488 
L 54.988877 91.377488 
L 55.090021 91.123464 
L 55.29231 91.123464 
L 55.29231 90.996452 
L 55.393455 90.996452 
L 55.444027 90.996452 
L 55.545172 90.23438 
L 55.646316 90.23438 
L 55.646316 90.107368 
L 55.747461 90.107368 
L 56.202611 90.107368 
L 56.253183 89.853344 
L 56.303755 89.853344 
L 56.354328 89.853344 
L 56.4049 89.59932 
L 56.455472 89.59932 
L 56.86005 89.59932 
L 56.961195 89.218284 
L 57.011767 89.218284 
L 57.062339 88.96426 
L 57.112911 88.96426 
L 57.3152 88.96426 
L 57.365773 88.710236 
L 57.416345 88.710236 
L 57.568062 88.710236 
L 57.618634 88.456212 
L 57.669206 88.456212 
L 57.719778 88.456212 
L 57.719778 88.3292 
L 57.820923 88.3292 
L 57.972639 88.3292 
L 58.073784 87.567128 
L 58.225501 87.567128 
L 58.326645 87.186092 
L 58.42779 87.186092 
L 58.478362 86.805056 
L 58.528934 86.805056 
L 58.579506 86.805056 
L 58.680651 86.169996 
L 58.731223 86.169996 
L 58.832368 85.661948 
L 58.933512 85.661948 
L 58.984084 85.280912 
L 59.034657 85.280912 
L 59.186373 85.280912 
L 59.186373 85.026888 
L 59.287518 85.026888 
L 59.33809 85.026888 
L 59.439235 84.51884 
L 59.540379 84.51884 
L 59.540379 84.391828 
L 59.641524 84.391828 
L 59.692096 84.391828 
L 59.79324 83.756768 
L 59.843813 83.756768 
L 59.944957 83.24872 
L 60.147246 83.24872 
L 60.147246 83.121707 
L 60.248391 83.121707 
L 60.298963 83.121707 
L 60.400107 82.740671 
L 60.551824 82.740671 
L 60.652969 82.359635 
L 60.754113 82.359635 
L 60.754113 82.105611 
L 60.855258 82.105611 
L 60.90583 82.105611 
L 61.006974 81.851587 
L 61.057546 81.851587 
L 61.158691 81.470551 
L 61.209263 81.470551 
L 61.310408 81.089515 
L 61.462124 81.089515 
L 61.462124 80.835491 
L 61.563269 80.835491 
L 61.81613 80.835491 
L 61.917275 79.946407 
L 62.068991 79.946407 
L 62.068991 79.819395 
L 62.170136 79.819395 
L 62.220708 79.819395 
L 62.321853 79.438359 
L 62.372425 79.438359 
L 62.422997 78.803299 
L 62.473569 78.803299 
L 62.524142 78.803299 
L 62.625286 78.168239 
L 62.726431 78.168239 
L 62.827575 77.787203 
L 62.878147 77.787203 
L 62.878147 77.660191 
L 62.979292 77.660191 
L 63.080436 77.660191 
L 63.131009 77.152143 
L 63.181581 77.152143 
L 63.282725 77.152143 
L 63.282725 77.025131 
L 63.38387 77.025131 
L 63.434442 77.025131 
L 63.535587 76.771107 
L 63.586159 76.771107 
L 63.586159 76.517083 
L 63.687303 76.517083 
L 63.737876 76.517083 
L 63.83902 76.009035 
L 63.889592 76.009035 
L 63.990737 75.246963 
L 64.041309 75.246963 
L 64.041309 74.865927 
L 64.142454 74.865927 
L 64.193026 74.865927 
L 64.29417 74.103855 
L 64.344742 74.103855 
L 64.344742 73.976843 
L 64.445887 73.976843 
L 64.547031 73.976843 
L 64.648176 73.341783 
L 64.799893 73.341783 
L 64.850465 72.960746 
L 64.901037 72.960746 
L 65.052754 72.960746 
L 65.052754 72.57971 
L 65.153898 72.57971 
L 65.204471 72.57971 
L 65.305615 72.071662 
L 65.40676 72.071662 
L 65.507904 71.690626 
L 65.558476 71.690626 
L 65.659621 71.30959 
L 65.760765 71.30959 
L 65.760765 71.182578 
L 65.86191 71.182578 
L 66.013627 71.182578 
L 66.114771 70.547518 
L 66.215916 70.547518 
L 66.266488 70.166482 
L 66.31706 70.166482 
L 66.367632 70.166482 
L 66.418205 69.912458 
L 66.468777 69.912458 
L 66.569921 69.912458 
L 66.671066 69.531422 
L 66.822783 69.531422 
L 66.923927 69.023374 
L 66.974499 69.023374 
L 66.974499 68.76935 
L 67.075644 68.76935 
L 67.126216 68.76935 
L 67.126216 68.642338 
L 67.227361 68.642338 
L 67.277933 68.642338 
L 67.328505 68.261302 
L 67.379077 68.261302 
L 67.480222 68.261302 
L 67.581366 67.49923 
L 67.631938 67.49923 
L 67.733083 67.118194 
L 67.834227 67.118194 
L 67.935372 66.737158 
L 67.985944 66.737158 
L 68.036516 66.22911 
L 68.087089 66.22911 
L 68.188233 66.22911 
L 68.289378 65.467038 
L 68.33995 65.467038 
L 68.441094 64.95899 
L 68.491667 64.95899 
L 68.542239 64.577954 
L 68.592811 64.577954 
L 68.693956 64.577954 
L 68.7951 64.32393 
L 68.845672 64.32393 
L 68.896245 64.069906 
L 68.946817 64.069906 
L 69.047961 64.069906 
L 69.149106 63.561858 
L 69.199678 63.561858 
L 69.199678 63.434846 
L 69.300823 63.434846 
L 69.401967 63.434846 
L 69.503112 62.926797 
L 69.604256 62.926797 
L 69.705401 62.545761 
L 69.755973 62.545761 
L 69.857117 62.164725 
L 69.958262 62.164725 
L 70.059406 61.910701 
L 70.160551 61.910701 
L 70.160551 61.402653 
L 70.261695 61.402653 
L 70.312268 61.402653 
L 70.413412 60.894605 
L 70.463984 60.894605 
L 70.565129 60.386557 
L 70.615701 60.386557 
L 70.615701 60.005521 
L 70.716845 60.005521 
L 70.767418 60.005521 
L 70.767418 59.624485 
L 70.868562 59.624485 
L 71.222568 59.624485 
L 71.222568 59.370461 
L 71.323712 59.370461 
L 71.374285 59.370461 
L 71.475429 59.116437 
L 71.526001 59.116437 
L 71.526001 58.989425 
L 71.627146 58.989425 
L 71.72829 58.989425 
L 71.829435 58.735401 
L 71.981152 58.735401 
L 72.031724 58.481377 
L 72.082296 58.481377 
L 72.132868 58.481377 
L 72.132868 58.354365 
L 72.234013 58.354365 
L 72.284585 58.354365 
L 72.38573 58.100341 
L 72.436302 58.100341 
L 72.436302 57.973329 
L 72.537446 57.973329 
L 72.588019 57.973329 
L 72.689163 57.719305 
L 72.891452 57.719305 
L 72.942024 57.338269 
L 72.992597 57.338269 
L 73.194886 57.338269 
L 73.29603 56.576197 
L 73.447747 56.576197 
L 73.548891 56.322173 
L 73.902897 56.322173 
L 73.902897 56.195161 
L 74.004041 56.195161 
L 74.105186 56.195161 
L 74.105186 56.068149 
L 74.20633 56.068149 
L 74.256903 56.068149 
L 74.256903 55.814125 
L 74.358047 55.814125 
L 74.459192 55.814125 
L 74.509764 55.433089 
L 74.560336 55.433089 
L 74.661481 55.433089 
L 74.762625 55.052053 
L 74.86377 55.052053 
L 74.964914 54.798029 
L 75.420064 54.798029 
L 75.470637 54.544005 
L 75.521209 54.544005 
L 75.723498 54.544005 
L 75.723498 54.416993 
L 75.824642 54.416993 
L 76.380937 54.416993 
L 76.380937 54.289981 
L 76.482082 54.289981 
L 76.88666 54.289981 
L 76.88666 54.162969 
L 76.987804 54.162969 
L 77.190093 54.162969 
L 77.190093 54.035957 
L 77.291237 54.035957 
L 77.442954 54.035957 
L 77.493526 53.781933 
L 77.544099 53.781933 
L 77.645243 53.781933 
L 77.645243 53.654921 
L 77.746388 53.654921 
L 77.999249 53.654921 
L 78.100393 53.400896 
L 78.25211 53.400896 
L 78.25211 53.273884 
L 78.353255 53.273884 
L 78.504971 53.273884 
L 78.504971 53.146872 
L 78.606116 53.146872 
L 78.70726 53.146872 
L 78.808405 52.892848 
L 78.909549 52.892848 
L 78.909549 52.765836 
L 79.010694 52.765836 
L 79.111838 52.765836 
L 79.111838 52.638824 
L 79.212983 52.638824 
L 79.516416 52.638824 
L 79.516416 52.511812 
L 79.617561 52.511812 
L 80.072711 52.511812 
L 80.173856 52.003764 
L 80.325572 52.003764 
L 80.426717 51.74974 
L 80.477289 51.74974 
L 80.578433 51.495716 
L 80.73015 51.495716 
L 80.73015 51.241692 
L 80.831295 51.241692 
L 80.881867 51.241692 
L 80.881867 51.11468 
L 80.983011 51.11468 
L 81.1853 51.11468 
L 81.1853 50.860656 
L 81.286445 50.860656 
L 81.539306 50.860656 
L 81.539306 50.733644 
L 81.640451 50.733644 
L 81.691023 50.733644 
L 81.792167 50.47962 
L 81.943884 50.47962 
L 81.943884 50.225596 
L 82.045029 50.225596 
L 82.500179 50.225596 
L 82.601323 49.84456 
L 82.702468 49.84456 
L 82.702468 49.717548 
L 82.803612 49.717548 
L 82.854185 49.717548 
L 82.854185 49.590536 
L 82.955329 49.590536 
L 83.005901 49.590536 
L 83.005901 49.463524 
L 83.107046 49.463524 
L 83.359907 49.463524 
L 83.359907 49.336512 
L 83.461052 49.336512 
L 83.511624 49.336512 
L 83.612768 49.082488 
L 84.017346 49.082488 
L 84.017346 48.955476 
L 84.118491 48.955476 
L 84.927647 48.955476 
L 84.927647 48.828464 
L 85.028791 48.828464 
L 85.585086 48.828464 
L 85.585086 48.701452 
L 85.68623 48.701452 
L 85.787375 48.701452 
L 85.787375 48.57444 
L 85.888519 48.57444 
L 85.939092 48.57444 
L 85.939092 48.447428 
L 86.040236 48.447428 
L 86.242525 48.447428 
L 86.242525 48.320416 
L 86.34367 48.320416 
L 86.444814 48.320416 
L 86.444814 48.066392 
L 86.545959 48.066392 
L 86.79882 48.066392 
L 86.79882 47.93938 
L 86.899964 47.93938 
L 87.203398 47.93938 
L 87.203398 47.812368 
L 87.304542 47.812368 
L 87.456259 47.812368 
L 87.557403 47.558344 
L 87.658548 47.558344 
L 87.658548 47.431332 
L 87.759692 47.431332 
L 87.860837 47.431332 
L 87.860837 47.30432 
L 87.961981 47.30432 
L 89.074571 47.30432 
L 89.125143 47.050296 
L 89.175715 47.050296 
L 89.580293 47.050296 
L 89.580293 46.923284 
L 89.681438 46.923284 
L 90.18716 46.923284 
L 90.18716 46.796272 
L 90.288305 46.796272 
L 90.338877 46.796272 
L 90.338877 46.66926 
L 90.440021 46.66926 
L 90.541166 46.66926 
L 90.64231 46.415236 
L 90.895172 46.415236 
L 90.945744 46.161212 
L 90.996316 46.161212 
L 91.148033 46.161212 
L 91.148033 46.0342 
L 91.249177 46.0342 
L 91.7549 46.0342 
L 91.856044 45.780176 
L 92.311195 45.780176 
L 92.412339 45.526152 
L 92.766345 45.526152 
L 92.766345 45.39914 
L 92.867489 45.39914 
L 93.272067 45.39914 
L 93.272067 45.272128 
L 93.373212 45.272128 
L 93.423784 45.272128 
L 93.423784 45.145116 
L 93.524928 45.145116 
L 93.727217 45.145116 
L 93.727217 45.018104 
L 93.828362 45.018104 
L 94.030651 45.018104 
L 94.030651 44.76408 
L 94.131795 44.76408 
L 94.334084 44.76408 
L 94.334084 44.637068 
L 94.435229 44.637068 
L 94.485801 44.637068 
L 94.485801 44.510056 
L 94.586946 44.510056 
L 95.042096 44.510056 
L 95.042096 44.383044 
L 95.14324 44.383044 
L 95.244385 44.383044 
L 95.244385 44.256032 
L 95.345529 44.256032 
L 95.446674 44.256032 
L 95.446674 44.12902 
L 95.547818 44.12902 
L 96.25583 44.12902 
L 96.25583 44.002008 
L 96.356974 44.002008 
L 96.407546 44.002008 
L 96.407546 43.874996 
L 96.508691 43.874996 
L 97.16613 43.874996 
L 97.16613 43.747984 
L 97.267275 43.747984 
L 97.317847 43.747984 
L 97.317847 43.620972 
L 97.418991 43.620972 
L 97.874142 43.620972 
L 97.874142 43.493959 
L 97.975286 43.493959 
L 98.430436 43.493959 
L 98.481009 43.239935 
L 98.531581 43.239935 
L 98.683298 43.239935 
L 98.683298 43.112923 
L 98.784442 43.112923 
L 98.885587 43.112923 
L 98.936159 42.858899 
L 98.986731 42.858899 
L 99.64417 42.858899 
L 99.694742 42.604875 
L 99.745315 42.604875 
L 99.998176 42.604875 
L 99.998176 42.350851 
L 100.09932 42.350851 
L 100.503898 42.350851 
L 100.503898 42.223839 
L 100.605043 42.223839 
L 102.779649 42.223839 
L 102.779649 42.096827 
L 102.880794 42.096827 
L 103.437089 42.096827 
L 103.437089 41.969815 
L 103.538233 41.969815 
L 103.588805 41.969815 
L 103.68995 41.715791 
L 104.296817 41.715791 
L 104.296817 41.588779 
L 104.397961 41.588779 
L 104.802539 41.588779 
L 104.802539 41.461767 
L 104.903684 41.461767 
L 105.71284 41.461767 
L 105.71284 41.334755 
L 105.813984 41.334755 
L 106.471423 41.334755 
L 106.471423 41.207743 
L 106.572568 41.207743 
L 107.07829 41.207743 
L 107.07829 41.080731 
L 107.179435 41.080731 
L 107.230007 41.080731 
L 107.230007 40.953719 
L 107.331152 40.953719 
L 107.381724 40.953719 
L 107.381724 40.826707 
L 107.482868 40.826707 
L 107.584013 40.826707 
L 107.584013 40.699695 
L 107.685157 40.699695 
L 109.050608 40.699695 
L 109.050608 40.572683 
L 109.151753 40.572683 
L 109.505758 40.572683 
L 109.505758 40.445671 
L 109.606903 40.445671 
L 109.910336 40.445671 
L 110.011481 40.064635 
L 110.517203 40.064635 
L 110.517203 39.937623 
L 110.618348 39.937623 
L 111.326359 39.937623 
L 111.326359 39.810611 
L 111.427504 39.810611 
L 112.084943 39.810611 
L 112.186087 39.556587 
L 112.489521 39.556587 
L 112.489521 39.429575 
L 112.590665 39.429575 
L 114.562983 39.429575 
L 114.562983 39.302563 
L 114.664127 39.302563 
L 115.625 39.302563 
L 115.625 39.302563 
" clip-path="url(#p4df6f79d07)" style="fill: none; stroke: #e88080; stroke-width: 2; stroke-linecap: square"/>
   </g>
   <g id="line2d_10">
    <path d="M 44.925 102.554545 
L 45.076717 102.554545 
L 45.177861 102.316875 
L 45.228433 102.316875 
L 45.329578 101.722699 
L 45.38015 101.722699 
L 45.481295 101.128522 
L 45.531867 101.128522 
L 45.531867 101.009687 
L 45.633011 101.009687 
L 45.683584 101.009687 
L 45.784728 100.772016 
L 45.8353 100.772016 
L 45.936445 100.534346 
L 45.987017 100.534346 
L 46.088162 100.059005 
L 46.239878 100.059005 
L 46.239878 99.702499 
L 46.341023 99.702499 
L 46.391595 99.702499 
L 46.49274 99.227158 
L 46.543312 99.227158 
L 46.593884 98.870652 
L 46.644456 98.870652 
L 46.846745 98.870652 
L 46.846745 98.632981 
L 46.94789 98.632981 
L 47.099607 98.632981 
L 47.200751 98.276476 
L 47.40304 98.276476 
L 47.40304 98.038805 
L 47.504185 98.038805 
L 47.655901 98.038805 
L 47.706474 97.682299 
L 47.757046 97.682299 
L 47.807618 97.682299 
L 47.807618 97.563464 
L 47.908763 97.563464 
L 48.060479 97.563464 
L 48.060479 97.206958 
L 48.161624 97.206958 
L 48.363913 97.206958 
L 48.414485 96.731617 
L 48.465057 96.731617 
L 48.616774 96.731617 
L 48.667346 96.493946 
L 48.717918 96.493946 
L 48.768491 96.493946 
L 48.869635 96.256276 
L 48.920207 96.256276 
L 48.920207 96.018605 
L 49.021352 96.018605 
L 49.071924 96.018605 
L 49.173069 95.6621 
L 49.274213 95.6621 
L 49.375358 95.186758 
L 49.577647 95.186758 
L 49.577647 95.067923 
L 49.678791 95.067923 
L 49.729363 95.067923 
L 49.729363 94.949088 
L 49.830508 94.949088 
L 49.88108 94.949088 
L 49.931652 94.592582 
L 49.982225 94.592582 
L 50.235086 94.592582 
L 50.285658 94.354912 
L 50.33623 94.354912 
L 50.690236 94.354912 
L 50.791381 93.87957 
L 50.99367 93.87957 
L 50.99367 93.6419 
L 51.094814 93.6419 
L 51.246531 93.6419 
L 51.246531 93.523065 
L 51.347675 93.523065 
L 51.398247 93.523065 
L 51.398247 93.404229 
L 51.499392 93.404229 
L 51.651109 93.404229 
L 51.701681 93.166559 
L 51.752253 93.166559 
L 51.802825 93.166559 
L 51.90397 92.691218 
L 52.005114 92.691218 
L 52.005114 92.572382 
L 52.106259 92.572382 
L 52.156831 92.572382 
L 52.257976 92.334712 
L 52.35912 92.334712 
L 52.35912 92.215877 
L 52.460265 92.215877 
L 52.510837 92.215877 
L 52.611981 91.978206 
L 52.763698 91.978206 
L 52.864843 91.6217 
L 52.915415 91.6217 
L 52.915415 91.38403 
L 53.016559 91.38403 
L 53.168276 91.38403 
L 53.218848 91.146359 
L 53.269421 91.146359 
L 53.47171 91.146359 
L 53.47171 91.027524 
L 53.572854 91.027524 
L 53.724571 91.027524 
L 53.775143 90.789853 
L 53.825715 90.789853 
L 53.977432 90.789853 
L 54.078577 90.552183 
L 54.179721 90.552183 
L 54.280866 90.314512 
L 54.331438 90.314512 
L 54.331438 90.076842 
L 54.432582 90.076842 
L 54.83716 90.076842 
L 54.83716 89.958006 
L 54.938305 89.958006 
L 54.988877 89.958006 
L 55.090021 89.601501 
L 55.191166 89.601501 
L 55.241738 89.36383 
L 55.29231 89.36383 
L 55.342883 89.36383 
L 55.342883 89.244995 
L 55.444027 89.244995 
L 55.595744 89.244995 
L 55.646316 89.007324 
L 55.696888 89.007324 
L 55.747461 89.007324 
L 55.747461 88.888489 
L 55.848605 88.888489 
L 55.94975 88.888489 
L 56.050894 88.531983 
L 56.253183 88.531983 
L 56.354328 88.175477 
L 56.455472 88.175477 
L 56.506044 87.581301 
L 56.556617 87.581301 
L 56.607189 87.581301 
L 56.708333 87.10596 
L 56.809478 87.10596 
L 56.86005 86.868289 
L 56.910622 86.868289 
L 56.961195 86.868289 
L 57.011767 86.630619 
L 57.062339 86.630619 
L 57.112911 86.630619 
L 57.214056 86.274113 
L 57.264628 86.274113 
L 57.365773 85.442266 
L 57.719778 85.442266 
L 57.770351 84.729254 
L 57.820923 84.729254 
L 57.871495 84.729254 
L 57.871495 84.491584 
L 57.972639 84.491584 
L 58.073784 84.491584 
L 58.073784 84.372749 
L 58.174928 84.372749 
L 58.225501 84.372749 
L 58.225501 84.135078 
L 58.326645 84.135078 
L 58.377217 84.135078 
L 58.478362 83.778572 
L 58.528934 83.778572 
L 58.528934 83.659737 
L 58.630079 83.659737 
L 58.680651 83.659737 
L 58.781795 83.184396 
L 58.88294 83.184396 
L 58.933512 82.946725 
L 58.984084 82.946725 
L 59.085229 82.946725 
L 59.135801 82.709055 
L 59.186373 82.709055 
L 59.236946 82.709055 
L 59.287518 82.471384 
L 59.33809 82.471384 
L 59.388662 82.471384 
L 59.489807 82.233714 
L 59.641524 82.233714 
L 59.742668 81.758373 
L 59.79324 81.758373 
L 59.79324 81.639537 
L 59.894385 81.639537 
L 59.944957 81.639537 
L 59.995529 81.164196 
L 60.046102 81.164196 
L 60.096674 81.164196 
L 60.197818 80.688855 
L 60.248391 80.688855 
L 60.298963 80.451185 
L 60.349535 80.451185 
L 60.400107 80.451185 
L 60.45068 80.213514 
L 60.501252 80.213514 
L 60.551824 80.213514 
L 60.652969 79.975843 
L 60.703541 79.975843 
L 60.804685 79.025161 
L 60.855258 79.025161 
L 60.956402 78.31215 
L 61.057546 78.31215 
L 61.057546 78.074479 
L 61.158691 78.074479 
L 61.209263 78.074479 
L 61.310408 77.480303 
L 61.36098 77.480303 
L 61.462124 76.886126 
L 61.563269 76.886126 
L 61.664413 76.410785 
L 61.714986 76.410785 
L 61.81613 76.173115 
L 61.866702 76.173115 
L 61.967847 75.578938 
L 62.068991 75.578938 
L 62.119564 75.222432 
L 62.170136 75.222432 
L 62.220708 75.222432 
L 62.321853 74.509421 
L 62.372425 74.509421 
L 62.372425 73.915244 
L 62.473569 73.915244 
L 62.524142 73.915244 
L 62.625286 73.321068 
L 62.675858 73.321068 
L 62.777003 72.726892 
L 62.827575 72.726892 
L 62.878147 72.370386 
L 62.92872 72.370386 
L 62.979292 72.370386 
L 63.080436 71.895045 
L 63.131009 71.895045 
L 63.232153 71.300868 
L 63.282725 71.300868 
L 63.333298 70.825527 
L 63.38387 70.825527 
L 63.434442 70.825527 
L 63.535587 70.231351 
L 63.586159 70.231351 
L 63.636731 69.637175 
L 63.687303 69.637175 
L 63.83902 69.637175 
L 63.83902 69.518339 
L 63.940165 69.518339 
L 63.990737 69.518339 
L 64.091881 69.280669 
L 64.142454 69.280669 
L 64.243598 68.924163 
L 64.29417 68.924163 
L 64.395315 68.567657 
L 64.445887 68.567657 
L 64.547031 68.092316 
L 64.597604 68.092316 
L 64.698748 67.73581 
L 64.74932 67.73581 
L 64.850465 67.141634 
L 64.901037 67.141634 
L 64.951609 66.903963 
L 65.002182 66.903963 
L 65.052754 66.903963 
L 65.153898 66.190952 
L 65.204471 66.190952 
L 65.305615 65.240269 
L 65.356187 65.240269 
L 65.457332 64.527258 
L 65.507904 64.527258 
L 65.609049 63.814246 
L 65.659621 63.814246 
L 65.760765 63.101235 
L 65.86191 63.101235 
L 65.912482 62.744729 
L 65.963054 62.744729 
L 66.013627 62.744729 
L 66.114771 62.031717 
L 66.215916 62.031717 
L 66.31706 61.437541 
L 66.367632 61.437541 
L 66.418205 60.724529 
L 66.468777 60.724529 
L 66.519349 60.724529 
L 66.620494 60.249188 
L 66.721638 60.249188 
L 66.822783 59.655012 
L 66.923927 59.655012 
L 67.025072 58.823165 
L 67.075644 58.823165 
L 67.176788 58.228988 
L 67.227361 58.228988 
L 67.328505 57.397141 
L 67.379077 57.397141 
L 67.480222 56.68413 
L 67.581366 56.68413 
L 67.682511 56.327624 
L 67.783655 56.327624 
L 67.8848 55.971118 
L 67.935372 55.971118 
L 67.985944 55.614612 
L 68.036516 55.614612 
L 68.087089 55.614612 
L 68.188233 55.258106 
L 68.238805 55.258106 
L 68.33995 54.782765 
L 68.390522 54.782765 
L 68.441094 54.545095 
L 68.491667 54.545095 
L 68.542239 54.545095 
L 68.592811 54.069754 
L 68.643383 54.069754 
L 68.693956 54.069754 
L 68.744528 53.713248 
L 68.7951 53.713248 
L 68.845672 53.713248 
L 68.896245 53.356742 
L 68.946817 53.356742 
L 68.997389 53.356742 
L 69.098534 53.119072 
L 69.25025 53.119072 
L 69.351395 52.762566 
L 69.401967 52.762566 
L 69.503112 52.40606 
L 69.604256 52.40606 
L 69.654828 52.049554 
L 69.705401 52.049554 
L 69.755973 52.049554 
L 69.857117 51.217707 
L 69.90769 51.217707 
L 70.008834 50.267025 
L 70.109979 50.267025 
L 70.160551 50.029354 
L 70.211123 50.029354 
L 70.261695 50.029354 
L 70.36284 49.316343 
L 70.413412 49.316343 
L 70.413412 49.197508 
L 70.514557 49.197508 
L 70.615701 49.197508 
L 70.716845 48.484496 
L 70.767418 48.484496 
L 70.868562 48.246825 
L 70.969707 48.246825 
L 70.969707 47.89032 
L 71.070851 47.89032 
L 71.121423 47.89032 
L 71.171996 47.652649 
L 71.222568 47.652649 
L 71.323712 47.652649 
L 71.424857 47.296143 
L 71.475429 47.296143 
L 71.576574 46.820802 
L 71.72829 46.820802 
L 71.829435 46.10779 
L 71.930579 46.10779 
L 71.981152 45.87012 
L 72.031724 45.87012 
L 72.082296 45.87012 
L 72.183441 45.157108 
L 72.436302 45.157108 
L 72.436302 45.038273 
L 72.537446 45.038273 
L 72.588019 45.038273 
L 72.588019 44.919438 
L 72.689163 44.919438 
L 72.84088 44.919438 
L 72.84088 44.800602 
L 72.942024 44.800602 
L 73.043169 44.800602 
L 73.144313 44.562932 
L 73.245458 44.562932 
L 73.245458 44.444097 
L 73.346602 44.444097 
L 73.397175 44.444097 
L 73.498319 44.087591 
L 73.548891 44.087591 
L 73.650036 43.731085 
L 73.852325 43.731085 
L 73.852325 43.61225 
L 73.953469 43.61225 
L 74.054614 43.61225 
L 74.105186 43.255744 
L 74.155758 43.255744 
L 74.20633 43.255744 
L 74.20633 43.136909 
L 74.307475 43.136909 
L 74.408619 43.136909 
L 74.509764 42.661567 
L 74.610908 42.661567 
L 74.712053 42.423897 
L 74.762625 42.423897 
L 74.86377 42.186226 
L 75.015486 42.186226 
L 75.015486 41.948556 
L 75.116631 41.948556 
L 75.217775 41.948556 
L 75.31892 41.710885 
L 75.672926 41.710885 
L 75.723498 41.354379 
L 75.77407 41.354379 
L 75.824642 41.354379 
L 75.925787 40.997874 
L 75.976359 40.997874 
L 76.026931 40.641368 
L 76.077504 40.641368 
L 76.178648 40.641368 
L 76.279793 40.403697 
L 76.532654 40.403697 
L 76.532654 40.166027 
L 76.633798 40.166027 
L 76.684371 40.166027 
L 76.684371 40.047191 
L 76.785515 40.047191 
L 76.987804 40.047191 
L 77.088948 39.57185 
L 77.190093 39.57185 
L 77.291237 39.215345 
L 77.544099 39.215345 
L 77.544099 39.096509 
L 77.645243 39.096509 
L 77.695815 39.096509 
L 77.695815 38.977674 
L 77.79696 38.977674 
L 77.898104 38.977674 
L 77.898104 38.740003 
L 77.999249 38.740003 
L 78.049821 38.740003 
L 78.049821 38.621168 
L 78.150966 38.621168 
L 78.302682 38.621168 
L 78.302682 38.502333 
L 78.403827 38.502333 
L 78.504971 38.502333 
L 78.504971 38.383498 
L 78.606116 38.383498 
L 78.858977 38.383498 
L 78.909549 38.145827 
L 78.960122 38.145827 
L 79.111838 38.145827 
L 79.111838 38.026992 
L 79.212983 38.026992 
L 79.263555 38.026992 
L 79.263555 37.908157 
L 79.3647 37.908157 
L 79.81985 37.908157 
L 79.81985 37.789321 
L 79.920994 37.789321 
L 80.072711 37.789321 
L 80.072711 37.670486 
L 80.173856 37.670486 
L 80.275 37.670486 
L 80.275 37.31398 
L 80.376144 37.31398 
L 81.1853 37.31398 
L 81.1853 37.07631 
L 81.286445 37.07631 
L 81.589878 37.07631 
L 81.589878 36.957474 
L 81.691023 36.957474 
L 81.943884 36.957474 
L 81.943884 36.838639 
L 82.045029 36.838639 
L 82.095601 36.838639 
L 82.146173 36.600968 
L 82.196745 36.600968 
L 82.348462 36.600968 
L 82.399034 36.363298 
L 82.449607 36.363298 
L 82.854185 36.363298 
L 82.904757 36.125627 
L 82.955329 36.125627 
L 83.258763 36.125627 
L 83.258763 36.006792 
L 83.359907 36.006792 
L 83.410479 36.006792 
L 83.410479 35.887957 
L 83.511624 35.887957 
L 83.562196 35.887957 
L 83.562196 35.769122 
L 83.66334 35.769122 
L 83.865629 35.769122 
L 83.865629 35.650286 
L 83.966774 35.650286 
L 85.837947 35.650286 
L 85.837947 35.531451 
L 85.939092 35.531451 
L 86.141381 35.531451 
L 86.141381 35.412616 
L 86.242525 35.412616 
L 87.152825 35.412616 
L 87.152825 35.29378 
L 87.25397 35.29378 
L 87.405687 35.29378 
L 87.405687 35.174945 
L 87.506831 35.174945 
L 88.720565 35.174945 
L 88.720565 35.05611 
L 88.82171 35.05611 
L 88.973426 35.05611 
L 89.074571 34.818439 
L 89.378004 34.818439 
L 89.428577 34.580769 
L 89.479149 34.580769 
L 89.580293 34.580769 
L 89.580293 34.461934 
L 89.681438 34.461934 
L 90.086016 34.461934 
L 90.086016 34.343098 
L 90.18716 34.343098 
L 90.288305 34.343098 
L 90.288305 34.224263 
L 90.389449 34.224263 
L 90.541166 34.224263 
L 90.541166 34.105428 
L 90.64231 34.105428 
L 91.097461 34.105428 
L 91.097461 33.986592 
L 91.198605 33.986592 
L 91.7549 33.986592 
L 91.7549 33.867757 
L 91.856044 33.867757 
L 92.159478 33.867757 
L 92.159478 33.748922 
L 92.260622 33.748922 
L 92.715773 33.748922 
L 92.715773 33.630087 
L 92.816917 33.630087 
L 93.727217 33.630087 
L 93.727217 33.511251 
L 93.828362 33.511251 
L 94.081223 33.511251 
L 94.081223 33.392416 
L 94.182368 33.392416 
L 95.042096 33.392416 
L 95.042096 33.273581 
L 95.14324 33.273581 
L 95.446674 33.273581 
L 95.446674 33.154746 
L 95.547818 33.154746 
L 95.648963 33.154746 
L 95.648963 33.03591 
L 95.750107 33.03591 
L 97.62128 33.03591 
L 97.671853 32.79824 
L 97.722425 32.79824 
L 97.772997 32.79824 
L 97.772997 32.679404 
L 97.874142 32.679404 
L 98.177575 32.679404 
L 98.177575 32.560569 
L 98.27872 32.560569 
L 100.251037 32.560569 
L 100.251037 32.441734 
L 100.352182 32.441734 
L 103.285372 32.441734 
L 103.285372 32.204063 
L 103.386516 32.204063 
L 107.027718 32.204063 
L 107.07829 31.966393 
L 107.128863 31.966393 
L 107.938019 31.966393 
L 107.938019 31.847558 
L 108.039163 31.847558 
L 108.898891 31.847558 
L 108.898891 31.728722 
L 109.000036 31.728722 
L 110.264342 31.728722 
L 110.264342 31.609887 
L 110.365486 31.609887 
L 112.084943 31.609887 
L 112.084943 31.491052 
L 112.186087 31.491052 
L 112.641237 31.491052 
L 112.641237 31.372216 
L 112.742382 31.372216 
L 112.894099 31.372216 
L 112.894099 31.253381 
L 112.995243 31.253381 
L 113.14696 31.253381 
L 113.14696 31.134546 
L 113.248104 31.134546 
L 114.05726 31.134546 
L 114.05726 31.015711 
L 114.158405 31.015711 
L 114.613555 31.015711 
L 114.613555 30.896875 
L 114.7147 30.896875 
L 115.119278 30.896875 
L 115.119278 30.77804 
L 115.220422 30.77804 
L 115.625 30.77804 
L 115.625 30.77804 
" clip-path="url(#p4df6f79d07)" style="fill: none; stroke: #f45757; stroke-width: 2; stroke-linecap: square"/>
   </g>
   <g id="line2d_11">
    <path d="M 44.925 102.554545 
L 45.026144 102.035384 
L 45.076717 102.035384 
L 45.177861 101.41239 
L 45.329578 101.308558 
L 45.430722 100.997061 
L 45.531867 100.893228 
L 45.633011 100.374067 
L 45.784728 100.270234 
L 45.885873 99.958737 
L 46.088162 99.854905 
L 46.138734 99.543408 
L 46.189306 99.543408 
L 46.341023 99.439576 
L 46.442167 99.231911 
L 46.593884 99.128079 
L 46.695029 98.608917 
L 46.846745 98.505085 
L 46.94789 98.089756 
L 47.099607 97.985923 
L 47.200751 97.674426 
L 47.301896 97.674426 
L 47.40304 97.051432 
L 47.504185 97.051432 
L 47.605329 96.739936 
L 47.757046 96.636103 
L 47.807618 96.532271 
L 47.85819 96.532271 
L 48.212196 96.428439 
L 48.31334 96.013109 
L 48.465057 96.013109 
L 48.465057 95.805445 
L 48.566202 95.805445 
L 48.819063 95.701612 
L 48.869635 95.59778 
L 48.920207 95.59778 
L 49.122496 95.493948 
L 49.122496 95.390115 
L 49.223641 95.390115 
L 49.628219 95.390115 
L 49.729363 95.078618 
L 49.931652 95.078618 
L 50.032797 94.663289 
L 50.235086 94.559457 
L 50.33623 94.351792 
L 50.437375 94.24796 
L 50.487947 94.144127 
L 50.538519 94.144127 
L 50.690236 94.144127 
L 50.740808 93.728798 
L 50.791381 93.728798 
L 50.99367 93.624966 
L 50.99367 93.521134 
L 51.094814 93.521134 
L 51.398247 93.417301 
L 51.499392 93.105804 
L 51.651109 93.105804 
L 51.651109 92.794307 
L 51.752253 92.794307 
L 51.954542 92.690475 
L 51.954542 92.586643 
L 52.055687 92.586643 
L 52.965987 92.48281 
L 52.965987 92.378978 
L 53.067132 92.378978 
L 53.47171 92.275146 
L 53.572854 92.067481 
L 53.623426 92.067481 
L 53.623426 91.859816 
L 53.724571 91.859816 
L 54.230293 91.755984 
L 54.331438 91.548319 
L 54.634871 91.444487 
L 54.634871 91.236823 
L 54.736016 91.236823 
L 54.988877 91.13299 
L 55.039449 90.821493 
L 55.090021 90.821493 
L 55.747461 90.717661 
L 55.798033 90.406164 
L 55.848605 90.406164 
L 56.152039 90.302332 
L 56.253183 89.990835 
L 56.4049 89.887002 
L 56.455472 89.78317 
L 56.506044 89.78317 
L 56.910622 89.679338 
L 56.961195 89.575505 
L 57.011767 89.575505 
L 57.365773 89.471673 
L 57.365773 89.264008 
L 57.466917 89.264008 
L 57.719778 89.160176 
L 57.770351 89.056344 
L 57.820923 89.056344 
L 57.972639 88.952511 
L 58.073784 88.537182 
L 58.124356 88.537182 
L 58.124356 88.329518 
L 58.225501 88.329518 
L 58.377217 88.329518 
L 58.377217 88.121853 
L 58.478362 88.121853 
L 58.731223 88.018021 
L 58.731223 87.810356 
L 58.832368 87.810356 
L 59.034657 87.706524 
L 59.085229 87.291194 
L 59.135801 87.291194 
L 59.287518 87.187362 
L 59.33809 86.875865 
L 59.388662 86.875865 
L 59.489807 86.772033 
L 59.540379 86.149039 
L 59.590951 86.149039 
L 59.641524 86.149039 
L 59.742668 85.422213 
L 59.843813 85.31838 
L 59.944957 84.799219 
L 60.096674 84.799219 
L 60.147246 84.487722 
L 60.197818 84.487722 
L 60.248391 84.487722 
L 60.349535 84.176225 
L 60.400107 84.176225 
L 60.501252 83.449398 
L 60.551824 83.449398 
L 60.652969 83.034069 
L 60.804685 82.930237 
L 60.90583 82.411075 
L 60.956402 82.411075 
L 61.006974 81.891914 
L 61.057546 81.891914 
L 61.108119 81.891914 
L 61.209263 81.165087 
L 61.310408 81.061255 
L 61.411552 80.438261 
L 61.512697 80.438261 
L 61.613841 79.9191 
L 61.765558 79.815267 
L 61.866702 79.088441 
L 61.967847 78.984609 
L 62.068991 78.569279 
L 62.119564 78.569279 
L 62.170136 77.946286 
L 62.220708 77.946286 
L 62.321853 77.842453 
L 62.422997 76.80413 
L 62.473569 76.80413 
L 62.574714 75.558142 
L 62.625286 75.558142 
L 62.726431 74.831316 
L 62.777003 74.831316 
L 62.878147 73.585328 
L 62.979292 73.481496 
L 63.080436 72.858502 
L 63.333298 72.754669 
L 63.434442 71.820179 
L 63.535587 71.820179 
L 63.636731 71.197185 
L 63.687303 71.197185 
L 63.788448 70.781855 
L 63.83902 70.781855 
L 63.940165 69.847365 
L 63.990737 69.847365 
L 64.091881 68.912874 
L 64.193026 68.809041 
L 64.29417 68.082215 
L 64.344742 68.082215 
L 64.445887 67.043892 
L 64.496459 67.043892 
L 64.597604 66.317066 
L 64.648176 66.317066 
L 64.74932 65.797904 
L 64.799893 65.797904 
L 64.901037 65.071078 
L 65.002182 64.967245 
L 65.103326 64.344252 
L 65.153898 64.344252 
L 65.255043 63.721258 
L 65.40676 63.617425 
L 65.40676 63.202096 
L 65.507904 63.202096 
L 65.609049 63.202096 
L 65.710193 62.47527 
L 65.760765 62.47527 
L 65.86191 61.852276 
L 65.963054 61.748444 
L 66.064199 60.813953 
L 66.114771 60.813953 
L 66.215916 60.294791 
L 66.266488 60.294791 
L 66.31706 59.567965 
L 66.367632 59.567965 
L 66.418205 59.567965 
L 66.519349 59.152635 
L 66.620494 59.048803 
L 66.721638 58.425809 
L 66.822783 58.321977 
L 66.873355 57.802815 
L 66.923927 57.802815 
L 67.075644 57.698983 
L 67.176788 57.387486 
L 67.227361 57.387486 
L 67.328505 56.66066 
L 67.379077 56.66066 
L 67.480222 55.830001 
L 67.530794 55.830001 
L 67.631938 54.999343 
L 67.682511 54.999343 
L 67.783655 54.376349 
L 67.834227 54.376349 
L 67.935372 53.649523 
L 68.137661 53.54569 
L 68.238805 52.818864 
L 68.390522 52.715032 
L 68.491667 52.403535 
L 68.592811 52.403535 
L 68.693956 51.469044 
L 68.845672 51.365211 
L 68.946817 50.638385 
L 68.997389 50.638385 
L 69.047961 50.015391 
L 69.098534 50.015391 
L 69.149106 50.015391 
L 69.199678 49.49623 
L 69.25025 49.49623 
L 69.401967 49.392397 
L 69.503112 48.14641 
L 69.604256 48.042577 
L 69.705401 47.419583 
L 69.755973 47.419583 
L 69.806545 47.004254 
L 69.857117 47.004254 
L 69.90769 47.004254 
L 69.90769 46.38126 
L 70.008834 46.38126 
L 70.160551 46.277428 
L 70.261695 45.758266 
L 70.312268 45.758266 
L 70.413412 45.03144 
L 70.615701 44.927608 
L 70.716845 44.616111 
L 70.81799 44.512278 
L 70.919134 44.096949 
L 71.070851 43.993117 
L 71.171996 43.473955 
L 71.222568 43.473955 
L 71.222568 43.058626 
L 71.323712 43.058626 
L 71.374285 43.058626 
L 71.475429 42.747129 
L 71.576574 42.643297 
L 71.677718 42.227967 
L 71.930579 42.124135 
L 71.930579 42.020303 
L 72.031724 42.020303 
L 72.132868 41.91647 
L 72.183441 41.501141 
L 72.234013 41.501141 
L 72.537446 41.397309 
L 72.588019 41.085812 
L 72.638591 41.085812 
L 72.790308 40.981979 
L 72.891452 40.462818 
L 73.043169 40.462818 
L 73.144313 40.047489 
L 73.29603 39.943656 
L 73.397175 39.632159 
L 73.498319 39.528327 
L 73.599464 39.112998 
L 73.75118 39.009165 
L 73.75118 38.905333 
L 73.852325 38.905333 
L 74.004041 38.801501 
L 74.004041 38.697668 
L 74.105186 38.697668 
L 74.358047 38.593836 
L 74.408619 38.282339 
L 74.459192 38.282339 
L 74.509764 38.282339 
L 74.509764 37.970842 
L 74.610908 37.970842 
L 74.712053 37.970842 
L 74.712053 37.763177 
L 74.813197 37.763177 
L 75.015486 37.659345 
L 75.015486 37.555513 
L 75.116631 37.555513 
L 75.470637 37.451681 
L 75.571781 37.244016 
L 75.976359 37.140184 
L 76.077504 36.932519 
L 76.279793 36.828687 
L 76.279793 36.724854 
L 76.380937 36.724854 
L 76.684371 36.621022 
L 76.785515 36.309525 
L 77.088948 36.205693 
L 77.139521 36.10186 
L 77.190093 36.10186 
L 77.240665 36.10186 
L 77.240665 35.894196 
L 77.34181 35.894196 
L 77.442954 35.790363 
L 77.442954 35.582699 
L 77.544099 35.582699 
L 77.695815 35.582699 
L 77.695815 35.375034 
L 77.79696 35.375034 
L 78.049821 35.271202 
L 78.049821 35.063537 
L 78.150966 35.063537 
L 78.201538 35.063537 
L 78.201538 34.855873 
L 78.302682 34.855873 
L 78.504971 34.75204 
L 78.555544 34.648208 
L 78.606116 34.648208 
L 79.162411 34.544376 
L 79.162411 34.440543 
L 79.263555 34.440543 
L 79.617561 34.336711 
L 79.617561 34.232879 
L 79.718705 34.232879 
L 80.072711 34.129046 
L 80.072711 34.025214 
L 80.173856 34.025214 
L 80.831295 33.921382 
L 80.881867 33.609885 
L 80.932439 33.609885 
L 80.983011 33.609885 
L 80.983011 33.40222 
L 81.084156 33.40222 
L 81.337017 33.298388 
L 81.438162 32.883058 
L 81.994456 32.779226 
L 81.994456 32.571561 
L 82.095601 32.571561 
L 82.550751 32.467729 
L 82.550751 32.363897 
L 82.651896 32.363897 
L 82.904757 32.260064 
L 82.904757 31.948568 
L 83.005901 31.948568 
L 83.258763 31.844735 
L 83.309335 31.740903 
L 83.359907 31.740903 
L 83.612768 31.637071 
L 83.612768 31.533238 
L 83.713913 31.533238 
L 83.865629 31.429406 
L 83.865629 31.325574 
L 83.966774 31.325574 
L 84.624213 31.221741 
L 84.725358 31.014077 
L 85.079363 30.910244 
L 85.129936 30.806412 
L 85.180508 30.806412 
L 85.433369 30.70258 
L 85.433369 30.494915 
L 85.534514 30.494915 
L 86.141381 30.391083 
L 86.191953 30.28725 
L 86.242525 30.28725 
L 86.950536 30.183418 
L 87.001109 30.079586 
L 87.051681 30.079586 
L 87.304542 29.975753 
L 87.304542 29.871921 
L 87.405687 29.871921 
L 88.922854 29.768089 
L 88.922854 29.664256 
L 89.023999 29.664256 
L 89.73201 29.560424 
L 89.73201 29.456592 
L 89.833155 29.456592 
L 90.591738 29.35276 
L 90.64231 29.145095 
L 90.692883 29.145095 
L 92.766345 29.041263 
L 92.867489 28.833598 
L 93.373212 28.729766 
L 93.373212 28.625933 
L 93.474356 28.625933 
L 93.929506 28.522101 
L 93.929506 28.418269 
L 94.030651 28.418269 
L 94.485801 28.314436 
L 94.485801 28.210604 
L 94.586946 28.210604 
L 95.396102 28.106772 
L 95.446674 27.899107 
L 95.497246 27.899107 
L 96.559263 27.795275 
L 96.559263 27.691442 
L 96.660408 27.691442 
L 98.329292 27.58761 
L 98.379864 27.483778 
L 98.430436 27.483778 
L 99.795887 27.379945 
L 99.795887 27.276113 
L 99.897031 27.276113 
L 101.313054 27.172281 
L 101.313054 27.068448 
L 101.414199 27.068448 
L 104.499106 26.964616 
L 104.549678 26.860784 
L 104.60025 26.860784 
L 108.494313 26.860784 
L 108.494313 26.653119 
L 108.595458 26.653119 
L 115.068705 26.549287 
L 115.068705 26.445455 
L 115.16985 26.445455 
L 115.625 26.445455 
L 115.625 26.445455 
" clip-path="url(#p4df6f79d07)" style="fill: none; stroke: #ff2e2e; stroke-width: 2; stroke-linecap: square"/>
   </g>
   <g id="patch_3">
    <path d="M 41.39 106.36 
L 41.39 22.64 
" style="fill: none; stroke: #000000; stroke-width: 0.8; stroke-linejoin: miter; stroke-linecap: square"/>
   </g>
   <g id="patch_4">
    <path d="M 41.39 106.36 
L 119.16 106.36 
" style="fill: none; stroke: #000000; stroke-width: 0.8; stroke-linejoin: miter; stroke-linecap: square"/>
   </g>
   <g id="text_9">
    <!-- Cordyceps -->
    <g transform="translate(55.06825 16.64)scale(0.096 -0.096)">
     <defs>
      <path id="DejaVuSans-64" d="M 2906 2969 
L 2906 4863 
L 3481 4863 
L 3481 0 
L 2906 0 
L 2906 525 
Q 2725 213 2448 61 
Q 2172 -91 1784 -91 
Q 1150 -91 751 415 
Q 353 922 353 1747 
Q 353 2572 751 3078 
Q 1150 3584 1784 3584 
Q 2172 3584 2448 3432 
Q 2725 3281 2906 2969 
z
M 947 1747 
Q 947 1113 1208 752 
Q 1469 391 1925 391 
Q 2381 391 2643 752 
Q 2906 1113 2906 1747 
Q 2906 2381 2643 2742 
Q 2381 3103 1925 3103 
Q 1469 3103 1208 2742 
Q 947 2381 947 1747 
z
" transform="scale(0.015625)"/>
      <path id="DejaVuSans-70" d="M 1159 525 
L 1159 -1331 
L 581 -1331 
L 581 3500 
L 1159 3500 
L 1159 2969 
Q 1341 3281 1617 3432 
Q 1894 3584 2278 3584 
Q 2916 3584 3314 3078 
Q 3713 2572 3713 1747 
Q 3713 922 3314 415 
Q 2916 -91 2278 -91 
Q 1894 -91 1617 61 
Q 1341 213 1159 525 
z
M 3116 1747 
Q 3116 2381 2855 2742 
Q 2594 3103 2138 3103 
Q 1681 3103 1420 2742 
Q 1159 2381 1159 1747 
Q 1159 1113 1420 752 
Q 1681 391 2138 391 
Q 2594 391 2855 752 
Q 3116 1113 3116 1747 
z
" transform="scale(0.015625)"/>
     </defs>
     <use xlink:href="#DejaVuSans-43"/>
     <use xlink:href="#DejaVuSans-6f" x="69.824219"/>
     <use xlink:href="#DejaVuSans-72" x="131.005859"/>
     <use xlink:href="#DejaVuSans-64" x="170.369141"/>
     <use xlink:href="#DejaVuSans-79" x="233.845703"/>
     <use xlink:href="#DejaVuSans-63" x="293.025391"/>
     <use xlink:href="#DejaVuSans-65" x="348.005859"/>
     <use xlink:href="#DejaVuSans-70" x="409.529297"/>
     <use xlink:href="#DejaVuSans-73" x="473.005859"/>
    </g>
   </g>
   <g id="legend_1">
    <g id="line2d_12">
     <path d="M 48.59 47.72625 
L 48.59 47.72625 
L 56.59 47.72625 
L 56.59 47.72625 
L 64.59 47.72625 
" style="fill: none; stroke: #d1d1d1; stroke-width: 2; stroke-linecap: square"/>
    </g>
    <g id="text_10">
     <!-- Catch -->
     <g transform="translate(70.99 50.52625)scale(0.08 -0.08)">
      <defs>
       <path id="DejaVuSans-68" d="M 3513 2113 
L 3513 0 
L 2938 0 
L 2938 2094 
Q 2938 2591 2744 2837 
Q 2550 3084 2163 3084 
Q 1697 3084 1428 2787 
Q 1159 2491 1159 1978 
L 1159 0 
L 581 0 
L 581 4863 
L 1159 4863 
L 1159 2956 
Q 1366 3272 1645 3428 
Q 1925 3584 2291 3584 
Q 2894 3584 3203 3211 
Q 3513 2838 3513 2113 
z
" transform="scale(0.015625)"/>
      </defs>
      <use xlink:href="#DejaVuSans-43"/>
      <use xlink:href="#DejaVuSans-61" x="69.824219"/>
      <use xlink:href="#DejaVuSans-74" x="131.103516"/>
      <use xlink:href="#DejaVuSans-63" x="170.3125"/>
      <use xlink:href="#DejaVuSans-68" x="225.292969"/>
     </g>
    </g>
    <g id="line2d_13">
     <path d="M 48.59 59.46875 
L 48.59 59.46875 
L 56.59 59.46875 
L 56.59 59.46875 
L 64.59 59.46875 
" style="fill: none; stroke: #dda8a8; stroke-width: 2; stroke-linecap: square"/>
    </g>
    <g id="text_11">
     <!-- -10 dB, n=13, d'=0.091 -->
     <g transform="translate(70.99 62.26875)scale(0.08 -0.08)">
      <defs>
       <path id="DejaVuSans-2d" d="M 313 2009 
L 1997 2009 
L 1997 1497 
L 313 1497 
L 313 2009 
z
" transform="scale(0.015625)"/>
       <path id="DejaVuSans-42" d="M 1259 2228 
L 1259 519 
L 2272 519 
Q 2781 519 3026 730 
Q 3272 941 3272 1375 
Q 3272 1813 3026 2020 
Q 2781 2228 2272 2228 
L 1259 2228 
z
M 1259 4147 
L 1259 2741 
L 2194 2741 
Q 2656 2741 2882 2914 
Q 3109 3088 3109 3444 
Q 3109 3797 2882 3972 
Q 2656 4147 2194 4147 
L 1259 4147 
z
M 628 4666 
L 2241 4666 
Q 2963 4666 3353 4366 
Q 3744 4066 3744 3513 
Q 3744 3084 3544 2831 
Q 3344 2578 2956 2516 
Q 3422 2416 3680 2098 
Q 3938 1781 3938 1306 
Q 3938 681 3513 340 
Q 3088 0 2303 0 
L 628 0 
L 628 4666 
z
" transform="scale(0.015625)"/>
       <path id="DejaVuSans-2c" d="M 750 794 
L 1409 794 
L 1409 256 
L 897 -744 
L 494 -744 
L 750 256 
L 750 794 
z
" transform="scale(0.015625)"/>
       <path id="DejaVuSans-3d" d="M 678 2906 
L 4684 2906 
L 4684 2381 
L 678 2381 
L 678 2906 
z
M 678 1631 
L 4684 1631 
L 4684 1100 
L 678 1100 
L 678 1631 
z
" transform="scale(0.015625)"/>
       <path id="DejaVuSans-33" d="M 2597 2516 
Q 3050 2419 3304 2112 
Q 3559 1806 3559 1356 
Q 3559 666 3084 287 
Q 2609 -91 1734 -91 
Q 1441 -91 1130 -33 
Q 819 25 488 141 
L 488 750 
Q 750 597 1062 519 
Q 1375 441 1716 441 
Q 2309 441 2620 675 
Q 2931 909 2931 1356 
Q 2931 1769 2642 2001 
Q 2353 2234 1838 2234 
L 1294 2234 
L 1294 2753 
L 1863 2753 
Q 2328 2753 2575 2939 
Q 2822 3125 2822 3475 
Q 2822 3834 2567 4026 
Q 2313 4219 1838 4219 
Q 1578 4219 1281 4162 
Q 984 4106 628 3988 
L 628 4550 
Q 988 4650 1302 4700 
Q 1616 4750 1894 4750 
Q 2613 4750 3031 4423 
Q 3450 4097 3450 3541 
Q 3450 3153 3228 2886 
Q 3006 2619 2597 2516 
z
" transform="scale(0.015625)"/>
       <path id="DejaVuSans-27" d="M 1147 4666 
L 1147 2931 
L 616 2931 
L 616 4666 
L 1147 4666 
z
" transform="scale(0.015625)"/>
       <path id="DejaVuSans-39" d="M 703 97 
L 703 672 
Q 941 559 1184 500 
Q 1428 441 1663 441 
Q 2288 441 2617 861 
Q 2947 1281 2994 2138 
Q 2813 1869 2534 1725 
Q 2256 1581 1919 1581 
Q 1219 1581 811 2004 
Q 403 2428 403 3163 
Q 403 3881 828 4315 
Q 1253 4750 1959 4750 
Q 2769 4750 3195 4129 
Q 3622 3509 3622 2328 
Q 3622 1225 3098 567 
Q 2575 -91 1691 -91 
Q 1453 -91 1209 -44 
Q 966 3 703 97 
z
M 1959 2075 
Q 2384 2075 2632 2365 
Q 2881 2656 2881 3163 
Q 2881 3666 2632 3958 
Q 2384 4250 1959 4250 
Q 1534 4250 1286 3958 
Q 1038 3666 1038 3163 
Q 1038 2656 1286 2365 
Q 1534 2075 1959 2075 
z
" transform="scale(0.015625)"/>
      </defs>
      <use xlink:href="#DejaVuSans-2d"/>
      <use xlink:href="#DejaVuSans-31" x="36.083984"/>
      <use xlink:href="#DejaVuSans-30" x="99.707031"/>
      <use xlink:href="#DejaVuSans-20" x="163.330078"/>
      <use xlink:href="#DejaVuSans-64" x="195.117188"/>
      <use xlink:href="#DejaVuSans-42" x="258.59375"/>
      <use xlink:href="#DejaVuSans-2c" x="327.197266"/>
      <use xlink:href="#DejaVuSans-20" x="358.984375"/>
      <use xlink:href="#DejaVuSans-6e" x="390.771484"/>
      <use xlink:href="#DejaVuSans-3d" x="454.150391"/>
      <use xlink:href="#DejaVuSans-31" x="537.939453"/>
      <use xlink:href="#DejaVuSans-33" x="601.5625"/>
      <use xlink:href="#DejaVuSans-2c" x="665.185547"/>
      <use xlink:href="#DejaVuSans-20" x="696.972656"/>
      <use xlink:href="#DejaVuSans-64" x="728.759766"/>
      <use xlink:href="#DejaVuSans-27" x="792.236328"/>
      <use xlink:href="#DejaVuSans-3d" x="819.726562"/>
      <use xlink:href="#DejaVuSans-30" x="903.515625"/>
      <use xlink:href="#DejaVuSans-2e" x="967.138672"/>
      <use xlink:href="#DejaVuSans-30" x="998.925781"/>
      <use xlink:href="#DejaVuSans-39" x="1062.548828"/>
      <use xlink:href="#DejaVuSans-31" x="1126.171875"/>
     </g>
    </g>
    <g id="line2d_14">
     <path d="M 48.59 71.21125 
L 48.59 71.21125 
L 56.59 71.21125 
L 56.59 71.21125 
L 64.59 71.21125 
" style="fill: none; stroke: #e88080; stroke-width: 2; stroke-linecap: square"/>
    </g>
    <g id="text_12">
     <!-- -5 dB, n=34, d'=0.356 -->
     <g transform="translate(70.99 74.01125)scale(0.08 -0.08)">
      <defs>
       <path id="DejaVuSans-34" d="M 2419 4116 
L 825 1625 
L 2419 1625 
L 2419 4116 
z
M 2253 4666 
L 3047 4666 
L 3047 1625 
L 3713 1625 
L 3713 1100 
L 3047 1100 
L 3047 0 
L 2419 0 
L 2419 1100 
L 313 1100 
L 313 1709 
L 2253 4666 
z
" transform="scale(0.015625)"/>
       <path id="DejaVuSans-36" d="M 2113 2584 
Q 1688 2584 1439 2293 
Q 1191 2003 1191 1497 
Q 1191 994 1439 701 
Q 1688 409 2113 409 
Q 2538 409 2786 701 
Q 3034 994 3034 1497 
Q 3034 2003 2786 2293 
Q 2538 2584 2113 2584 
z
M 3366 4563 
L 3366 3988 
Q 3128 4100 2886 4159 
Q 2644 4219 2406 4219 
Q 1781 4219 1451 3797 
Q 1122 3375 1075 2522 
Q 1259 2794 1537 2939 
Q 1816 3084 2150 3084 
Q 2853 3084 3261 2657 
Q 3669 2231 3669 1497 
Q 3669 778 3244 343 
Q 2819 -91 2113 -91 
Q 1303 -91 875 529 
Q 447 1150 447 2328 
Q 447 3434 972 4092 
Q 1497 4750 2381 4750 
Q 2619 4750 2861 4703 
Q 3103 4656 3366 4563 
z
" transform="scale(0.015625)"/>
      </defs>
      <use xlink:href="#DejaVuSans-2d"/>
      <use xlink:href="#DejaVuSans-35" x="36.083984"/>
      <use xlink:href="#DejaVuSans-20" x="99.707031"/>
      <use xlink:href="#DejaVuSans-64" x="131.494141"/>
      <use xlink:href="#DejaVuSans-42" x="194.970703"/>
      <use xlink:href="#DejaVuSans-2c" x="263.574219"/>
      <use xlink:href="#DejaVuSans-20" x="295.361328"/>
      <use xlink:href="#DejaVuSans-6e" x="327.148438"/>
      <use xlink:href="#DejaVuSans-3d" x="390.527344"/>
      <use xlink:href="#DejaVuSans-33" x="474.316406"/>
      <use xlink:href="#DejaVuSans-34" x="537.939453"/>
      <use xlink:href="#DejaVuSans-2c" x="601.5625"/>
      <use xlink:href="#DejaVuSans-20" x="633.349609"/>
      <use xlink:href="#DejaVuSans-64" x="665.136719"/>
      <use xlink:href="#DejaVuSans-27" x="728.613281"/>
      <use xlink:href="#DejaVuSans-3d" x="756.103516"/>
      <use xlink:href="#DejaVuSans-30" x="839.892578"/>
      <use xlink:href="#DejaVuSans-2e" x="903.515625"/>
      <use xlink:href="#DejaVuSans-33" x="935.302734"/>
      <use xlink:href="#DejaVuSans-35" x="998.925781"/>
      <use xlink:href="#DejaVuSans-36" x="1062.548828"/>
     </g>
    </g>
    <g id="line2d_15">
     <path d="M 48.59 82.95375 
L 48.59 82.95375 
L 56.59 82.95375 
L 56.59 82.95375 
L 64.59 82.95375 
" style="fill: none; stroke: #f45757; stroke-width: 2; stroke-linecap: square"/>
    </g>
    <g id="text_13">
     <!-- 0 dB, n=32, d'=0.616 -->
     <g transform="translate(70.99 85.75375)scale(0.08 -0.08)">
      <use xlink:href="#DejaVuSans-30"/>
      <use xlink:href="#DejaVuSans-20" x="63.623047"/>
      <use xlink:href="#DejaVuSans-64" x="95.410156"/>
      <use xlink:href="#DejaVuSans-42" x="158.886719"/>
      <use xlink:href="#DejaVuSans-2c" x="227.490234"/>
      <use xlink:href="#DejaVuSans-20" x="259.277344"/>
      <use xlink:href="#DejaVuSans-6e" x="291.064453"/>
      <use xlink:href="#DejaVuSans-3d" x="354.443359"/>
      <use xlink:href="#DejaVuSans-33" x="438.232422"/>
      <use xlink:href="#DejaVuSans-32" x="501.855469"/>
      <use xlink:href="#DejaVuSans-2c" x="565.478516"/>
      <use xlink:href="#DejaVuSans-20" x="597.265625"/>
      <use xlink:href="#DejaVuSans-64" x="629.052734"/>
      <use xlink:href="#DejaVuSans-27" x="692.529297"/>
      <use xlink:href="#DejaVuSans-3d" x="720.019531"/>
      <use xlink:href="#DejaVuSans-30" x="803.808594"/>
      <use xlink:href="#DejaVuSans-2e" x="867.431641"/>
      <use xlink:href="#DejaVuSans-36" x="899.21875"/>
      <use xlink:href="#DejaVuSans-31" x="962.841797"/>
      <use xlink:href="#DejaVuSans-36" x="1026.464844"/>
     </g>
    </g>
    <g id="line2d_16">
     <path d="M 48.59 94.69625 
L 48.59 94.69625 
L 56.59 94.69625 
L 56.59 94.69625 
L 64.59 94.69625 
" style="fill: none; stroke: #ff2e2e; stroke-width: 2; stroke-linecap: square"/>
    </g>
    <g id="text_14">
     <!-- inf dB, n=32, d'=1.025 -->
     <g transform="translate(70.99 97.49625)scale(0.08 -0.08)">
      <defs>
       <path id="DejaVuSans-66" d="M 2375 4863 
L 2375 4384 
L 1825 4384 
Q 1516 4384 1395 4259 
Q 1275 4134 1275 3809 
L 1275 3500 
L 2222 3500 
L 2222 3053 
L 1275 3053 
L 1275 0 
L 697 0 
L 697 3053 
L 147 3053 
L 147 3500 
L 697 3500 
L 697 3744 
Q 697 4328 969 4595 
Q 1241 4863 1831 4863 
L 2375 4863 
z
" transform="scale(0.015625)"/>
      </defs>
      <use xlink:href="#DejaVuSans-69"/>
      <use xlink:href="#DejaVuSans-6e" x="27.783203"/>
      <use xlink:href="#DejaVuSans-66" x="91.162109"/>
      <use xlink:href="#DejaVuSans-20" x="126.367188"/>
      <use xlink:href="#DejaVuSans-64" x="158.154297"/>
      <use xlink:href="#DejaVuSans-42" x="221.630859"/>
      <use xlink:href="#DejaVuSans-2c" x="290.234375"/>
      <use xlink:href="#DejaVuSans-20" x="322.021484"/>
      <use xlink:href="#DejaVuSans-6e" x="353.808594"/>
      <use xlink:href="#DejaVuSans-3d" x="417.1875"/>
      <use xlink:href="#DejaVuSans-33" x="500.976562"/>
      <use xlink:href="#DejaVuSans-32" x="564.599609"/>
      <use xlink:href="#DejaVuSans-2c" x="628.222656"/>
      <use xlink:href="#DejaVuSans-20" x="660.009766"/>
      <use xlink:href="#DejaVuSans-64" x="691.796875"/>
      <use xlink:href="#DejaVuSans-27" x="755.273438"/>
      <use xlink:href="#DejaVuSans-3d" x="782.763672"/>
      <use xlink:href="#DejaVuSans-31" x="866.552734"/>
      <use xlink:href="#DejaVuSans-2e" x="930.175781"/>
      <use xlink:href="#DejaVuSans-30" x="961.962891"/>
      <use xlink:href="#DejaVuSans-32" x="1025.585938"/>
      <use xlink:href="#DejaVuSans-35" x="1089.208984"/>
     </g>
    </g>
   </g>
  </g>
 </g>
 <defs>
  <clipPath id="p4df6f79d07">
   <rect x="41.39" y="22.64" width="77.77" height="83.72"/>
  </clipPath>
 </defs>
</svg>
